<?xml version="1.0" encoding="UTF-8" standalone="no"?>
<svg width="458.964mm" height="352.778mm"
 viewBox="0 0 1301 1000"
 xmlns="http://www.w3.org/2000/svg" xmlns:xlink="http://www.w3.org/1999/xlink"  version="1.2" baseProfile="tiny">
<title>Qt SVG Document</title>
<desc>Generated with Qt</desc>
<defs>
</defs>
<g fill="none" stroke="black" stroke-width="1" fill-rule="evenodd" stroke-linecap="square" stroke-linejoin="bevel" >

<g fill="#ffffff" fill-opacity="1" stroke="none" transform="matrix(1,0,0,1,0,0)"
font-family="Helvetica" font-size="12" font-weight="400" font-style="normal" 
>
<rect x="0" y="0" width="1301" height="1000"/>
</g>

<g fill="none" stroke="#000000" stroke-opacity="1" stroke-width="1" stroke-linecap="square" stroke-linejoin="bevel" transform="matrix(1,0,0,1,0,0)"
font-family="Helvetica" font-size="12" font-weight="400" font-style="normal" 
>
</g>

<g fill="none" stroke="#000000" stroke-opacity="1" stroke-width="1" stroke-linecap="square" stroke-linejoin="bevel" transform="matrix(1,0,0,1,0,0)"
font-family="Helvetica" font-size="12" font-weight="400" font-style="normal" 
>
</g>

<g fill="none" stroke="#000000" stroke-opacity="1" stroke-width="1" stroke-linecap="square" stroke-linejoin="bevel" transform="matrix(2.87592,0,0,2.87592,-8.01984,-3.28725)"
font-family="Helvetica" font-size="12" font-weight="400" font-style="normal" 
>
</g>

<g fill="none" stroke="#000000" stroke-opacity="0.705882" stroke-width="1.5" stroke-linecap="round" stroke-linejoin="bevel" transform="matrix(2.87592,0,0,2.87592,-8.01984,-3.28725)"
font-family="Helvetica" font-size="12" font-weight="400" font-style="normal" 
>
<path vector-effect="none" fill-rule="evenodd" d="M74.5233,174.866 C77.0348,175.307 70.724,172.126 72.4191,170.221 "/>
</g>

<g fill="none" stroke="#000000" stroke-opacity="1" stroke-width="1" stroke-linecap="square" stroke-linejoin="bevel" transform="matrix(2.87592,0,0,2.87592,-8.01984,-3.28725)"
font-family="Helvetica" font-size="12" font-weight="400" font-style="normal" 
>
</g>

<g fill="none" stroke="#000000" stroke-opacity="1" stroke-width="1" stroke-linecap="square" stroke-linejoin="bevel" transform="matrix(2.87592,0,0,2.87592,-8.01984,-3.28725)"
font-family="Helvetica" font-size="12" font-weight="400" font-style="normal" 
>
</g>

<g fill="none" stroke="#000000" stroke-opacity="0.705882" stroke-width="1.5" stroke-linecap="round" stroke-linejoin="bevel" transform="matrix(2.87592,0,0,2.87592,-8.01984,-3.28725)"
font-family="Helvetica" font-size="12" font-weight="400" font-style="normal" 
>
<path vector-effect="none" fill-rule="evenodd" d="M74.5233,174.866 C77.1555,175.328 77.1071,175.891 79.779,175.838 "/>
</g>

<g fill="none" stroke="#000000" stroke-opacity="1" stroke-width="1" stroke-linecap="square" stroke-linejoin="bevel" transform="matrix(2.87592,0,0,2.87592,-8.01984,-3.28725)"
font-family="Helvetica" font-size="12" font-weight="400" font-style="normal" 
>
</g>

<g fill="none" stroke="#000000" stroke-opacity="1" stroke-width="1" stroke-linecap="square" stroke-linejoin="bevel" transform="matrix(2.87592,0,0,2.87592,-8.01984,-3.28725)"
font-family="Helvetica" font-size="12" font-weight="400" font-style="normal" 
>
</g>

<g fill="none" stroke="#000000" stroke-opacity="0.705882" stroke-width="1.5" stroke-linecap="round" stroke-linejoin="bevel" transform="matrix(2.87592,0,0,2.87592,-8.01984,-3.28725)"
font-family="Helvetica" font-size="12" font-weight="400" font-style="normal" 
>
<path vector-effect="none" fill-rule="evenodd" d="M90.2839,174.473 C87.6416,174.737 87.7794,175.68 85.1245,175.733 "/>
</g>

<g fill="none" stroke="#000000" stroke-opacity="1" stroke-width="1" stroke-linecap="square" stroke-linejoin="bevel" transform="matrix(2.87592,0,0,2.87592,-8.01984,-3.28725)"
font-family="Helvetica" font-size="12" font-weight="400" font-style="normal" 
>
</g>

<g fill="none" stroke="#000000" stroke-opacity="1" stroke-width="1" stroke-linecap="square" stroke-linejoin="bevel" transform="matrix(2.87592,0,0,2.87592,-8.01984,-3.28725)"
font-family="Helvetica" font-size="12" font-weight="400" font-style="normal" 
>
</g>

<g fill="none" stroke="#000000" stroke-opacity="0.705882" stroke-width="1.5" stroke-linecap="round" stroke-linejoin="bevel" transform="matrix(2.87592,0,0,2.87592,-8.01984,-3.28725)"
font-family="Helvetica" font-size="12" font-weight="400" font-style="normal" 
>
<path vector-effect="none" fill-rule="evenodd" d="M90.2839,174.473 C87.7296,174.728 93.6162,171.373 91.7934,169.566 "/>
</g>

<g fill="none" stroke="#000000" stroke-opacity="1" stroke-width="1" stroke-linecap="square" stroke-linejoin="bevel" transform="matrix(2.87592,0,0,2.87592,-8.01984,-3.28725)"
font-family="Helvetica" font-size="12" font-weight="400" font-style="normal" 
>
</g>

<g fill="none" stroke="#000000" stroke-opacity="1" stroke-width="1" stroke-linecap="square" stroke-linejoin="bevel" transform="matrix(2.87592,0,0,2.87592,-8.01984,-3.28725)"
font-family="Helvetica" font-size="12" font-weight="400" font-style="normal" 
>
</g>

<g fill="none" stroke="#000000" stroke-opacity="0.705882" stroke-width="1.5" stroke-linecap="round" stroke-linejoin="bevel" transform="matrix(2.87592,0,0,2.87592,-8.01984,-3.28725)"
font-family="Helvetica" font-size="12" font-weight="400" font-style="normal" 
>
<path vector-effect="none" fill-rule="evenodd" d="M264.526,326.401 C259.526,326.419 259.508,321.419 267.008,321.392 C274.508,321.365 274.526,326.365 269.526,326.383 "/>
</g>

<g fill="none" stroke="#000000" stroke-opacity="1" stroke-width="1" stroke-linecap="square" stroke-linejoin="bevel" transform="matrix(2.87592,0,0,2.87592,-8.01984,-3.28725)"
font-family="Helvetica" font-size="12" font-weight="400" font-style="normal" 
>
</g>

<g fill="none" stroke="#000000" stroke-opacity="1" stroke-width="1" stroke-linecap="square" stroke-linejoin="bevel" transform="matrix(2.87592,0,0,2.87592,-8.01984,-3.28725)"
font-family="Helvetica" font-size="12" font-weight="400" font-style="normal" 
>
</g>

<g fill="#62cb78" fill-opacity="1" stroke="none" transform="matrix(2.87592,0,0,2.87592,-8.01984,-3.28725)"
font-family="Helvetica" font-size="12" font-weight="400" font-style="normal" 
>
<path vector-effect="none" fill-rule="nonzero" d="M269.531,327.712 L264.531,327.73 L264.521,325.072 L269.521,325.053 L269.531,327.712"/>
</g>

<g fill="none" stroke="#000000" stroke-opacity="1" stroke-width="0.3" stroke-linecap="square" stroke-linejoin="round" transform="matrix(2.87592,0,0,2.87592,-8.01984,-3.28725)"
font-family="Helvetica" font-size="12" font-weight="400" font-style="normal" 
>
<path vector-effect="none" fill-rule="evenodd" d="M269.531,327.712 L264.531,327.73 L264.521,325.072 L269.521,325.053 L269.531,327.712"/>
</g>

<g fill="none" stroke="#000000" stroke-opacity="1" stroke-width="1" stroke-linecap="square" stroke-linejoin="bevel" transform="matrix(2.87592,0,0,2.87592,-8.01984,-3.28725)"
font-family="Helvetica" font-size="12" font-weight="400" font-style="normal" 
>
</g>

<g fill="none" stroke="#000000" stroke-opacity="1" stroke-width="1" stroke-linecap="square" stroke-linejoin="bevel" transform="matrix(2.87592,0,0,2.87592,-8.01984,-3.28725)"
font-family="Helvetica" font-size="12" font-weight="400" font-style="normal" 
>
</g>

<g fill="#62cb78" fill-opacity="1" stroke="none" transform="matrix(2.87592,0,0,2.87592,-8.01984,-3.28725)"
font-family="Helvetica" font-size="12" font-weight="400" font-style="normal" 
>
<path vector-effect="none" fill-rule="nonzero" d="M274.971,170.699 L257.242,169.184 L257.365,167.747 L257.283,169.187 L239.049,168.152 L239.131,166.712 L239.095,168.154 L220.438,167.685 L220.475,166.243 L220.486,167.685 L201.824,167.827 L201.813,166.385 L201.869,167.826 L183.62,168.543 L183.564,167.102 L183.661,168.54 L165.909,169.748 L165.714,166.871 L183.466,165.663 C183.479,165.662 183.493,165.662 183.507,165.661 L183.507,165.661 L201.756,164.945 C201.771,164.944 201.787,164.944 201.802,164.944 L201.802,164.944 L220.464,164.801 C220.467,164.801 220.471,164.801 220.475,164.801 C221.271,164.801 221.917,165.447 221.917,166.243 C221.917,167.04 221.271,167.685 220.475,167.685 C219.678,167.685 219.033,167.04 219.033,166.243 C219.033,165.466 219.647,164.833 220.416,164.802 L220.511,164.802 L239.167,165.271 C239.183,165.271 239.198,165.272 239.213,165.273 L239.213,165.273 L257.447,166.307 C257.461,166.308 257.475,166.309 257.488,166.31 L257.488,166.31 L275.216,167.826 L274.971,170.699"/>
</g>

<g fill="none" stroke="#000000" stroke-opacity="1" stroke-width="0.3" stroke-linecap="square" stroke-linejoin="round" transform="matrix(2.87592,0,0,2.87592,-8.01984,-3.28725)"
font-family="Helvetica" font-size="12" font-weight="400" font-style="normal" 
>
<path vector-effect="none" fill-rule="evenodd" d="M274.971,170.699 L257.263,169.185 L239.072,168.153 L220.462,167.685 L201.847,167.827 L183.641,168.542 L165.909,169.748 L165.714,166.871 L183.466,165.663 L183.486,165.662 L183.507,165.661 L183.507,165.661 L201.756,164.945 L201.779,164.944 L201.802,164.944 L201.802,164.944 L220.464,164.801 L220.469,164.801 L220.475,164.801 L220.476,164.802 L220.511,164.802 L239.167,165.271 L239.19,165.272 L239.213,165.273 L239.213,165.273 L257.447,166.307 L257.468,166.309 L257.488,166.31 L257.488,166.31 L275.216,167.826 L274.971,170.699"/>
</g>

<g fill="none" stroke="#000000" stroke-opacity="1" stroke-width="1" stroke-linecap="square" stroke-linejoin="bevel" transform="matrix(2.87592,0,0,2.87592,-8.01984,-3.28725)"
font-family="Helvetica" font-size="12" font-weight="400" font-style="normal" 
>
</g>

<g fill="none" stroke="#000000" stroke-opacity="1" stroke-width="1" stroke-linecap="square" stroke-linejoin="bevel" transform="matrix(2.87592,0,0,2.87592,-8.01984,-3.28725)"
font-family="Helvetica" font-size="12" font-weight="400" font-style="normal" 
>
</g>

<g fill="#cb628a" fill-opacity="1" stroke="none" transform="matrix(2.87592,0,0,2.87592,-8.01984,-3.28725)"
font-family="Helvetica" font-size="12" font-weight="400" font-style="normal" 
>
<path vector-effect="none" fill-rule="nonzero" d="M70.8055,168.785 L80.1969,158.231 C80.5925,157.787 81.1688,157.507 81.8105,157.507 C83.0034,157.507 83.9704,158.474 83.9704,159.667 C83.9704,160.86 83.0034,161.827 81.8105,161.827 C81.3012,161.827 80.833,161.651 80.4637,161.356 L83.3313,158.133 L93.3142,168.032 L90.2725,171.1 L80.2897,161.201 L81.8105,159.667 L83.4241,161.103 L74.0326,171.657 L70.8055,168.785"/>
</g>

<g fill="none" stroke="#000000" stroke-opacity="1" stroke-width="0.3" stroke-linecap="square" stroke-linejoin="round" transform="matrix(2.87592,0,0,2.87592,-8.01984,-3.28725)"
font-family="Helvetica" font-size="12" font-weight="400" font-style="normal" 
>
<path vector-effect="none" fill-rule="evenodd" d="M70.8055,168.785 L80.1969,158.231 L80.9114,157.703 L81.8105,157.507 L83.3289,158.136 L83.3313,158.133 L93.3142,168.032 L90.2725,171.1 L81.9085,162.806 L74.0326,171.657 L70.8055,168.785"/>
</g>

<g fill="none" stroke="#000000" stroke-opacity="1" stroke-width="1" stroke-linecap="square" stroke-linejoin="bevel" transform="matrix(2.87592,0,0,2.87592,-8.01984,-3.28725)"
font-family="Helvetica" font-size="12" font-weight="400" font-style="normal" 
>
</g>

<g fill="none" stroke="#000000" stroke-opacity="1" stroke-width="1" stroke-linecap="square" stroke-linejoin="bevel" transform="matrix(2.87592,0,0,2.87592,-8.01984,-3.28725)"
font-family="Helvetica" font-size="12" font-weight="400" font-style="normal" 
>
</g>

<g fill="#cba862" fill-opacity="1" stroke="none" transform="matrix(2.87592,0,0,2.87592,-8.01984,-3.28725)"
font-family="Helvetica" font-size="12" font-weight="400" font-style="normal" 
>
<path vector-effect="none" fill-rule="nonzero" d="M26.1488,158.217 L40.5326,164.043 L39.3838,166.879 L40.2246,163.937 L56.7437,168.657 L55.9029,171.6 L56.4317,168.586 L75.052,171.852 L73.9946,177.88 L55.3742,174.614 C55.2667,174.595 55.1626,174.571 55.0614,174.542 L55.0621,174.542 L38.543,169.821 C38.4366,169.792 38.3339,169.756 38.2343,169.716 L38.235,169.715 L23.8512,163.889 L26.1488,158.217"/>
</g>

<g fill="none" stroke="#000000" stroke-opacity="1" stroke-width="0.3" stroke-linecap="square" stroke-linejoin="round" transform="matrix(2.87592,0,0,2.87592,-8.01984,-3.28725)"
font-family="Helvetica" font-size="12" font-weight="400" font-style="normal" 
>
<path vector-effect="none" fill-rule="evenodd" d="M26.1488,158.217 L40.3814,163.982 L56.5896,168.613 L75.052,171.852 L73.9946,177.88 L55.3742,174.614 L55.2154,174.582 L55.0614,174.542 L55.0621,174.542 L38.543,169.821 L38.3861,169.773 L38.2343,169.716 L38.235,169.715 L23.8512,163.889 L26.1488,158.217"/>
</g>

<g fill="none" stroke="#000000" stroke-opacity="1" stroke-width="1" stroke-linecap="square" stroke-linejoin="bevel" transform="matrix(2.87592,0,0,2.87592,-8.01984,-3.28725)"
font-family="Helvetica" font-size="12" font-weight="400" font-style="normal" 
>
</g>

<g fill="none" stroke="#000000" stroke-opacity="1" stroke-width="1" stroke-linecap="square" stroke-linejoin="bevel" transform="matrix(2.87592,0,0,2.87592,-8.01984,-3.28725)"
font-family="Helvetica" font-size="12" font-weight="400" font-style="normal" 
>
</g>

<g fill="#629bcb" fill-opacity="1" stroke="none" transform="matrix(2.87592,0,0,2.87592,-8.01984,-3.28725)"
font-family="Helvetica" font-size="12" font-weight="400" font-style="normal" 
>
<path vector-effect="none" fill-rule="nonzero" d="M360.093,227.407 L348.746,227.448 L348.736,224.765 L360.083,224.724 L360.093,227.407"/>
</g>

<g fill="none" stroke="#000000" stroke-opacity="1" stroke-width="0.3" stroke-linecap="square" stroke-linejoin="round" transform="matrix(2.87592,0,0,2.87592,-8.01984,-3.28725)"
font-family="Helvetica" font-size="12" font-weight="400" font-style="normal" 
>
<path vector-effect="none" fill-rule="evenodd" d="M360.093,227.407 L348.746,227.448 L348.736,224.765 L360.083,224.724 L360.093,227.407"/>
</g>

<g fill="none" stroke="#000000" stroke-opacity="1" stroke-width="1" stroke-linecap="square" stroke-linejoin="bevel" transform="matrix(2.87592,0,0,2.87592,-8.01984,-3.28725)"
font-family="Helvetica" font-size="12" font-weight="400" font-style="normal" 
>
</g>

<g fill="none" stroke="#000000" stroke-opacity="1" stroke-width="1" stroke-linecap="square" stroke-linejoin="bevel" transform="matrix(2.87592,0,0,2.87592,-8.01984,-3.28725)"
font-family="Helvetica" font-size="12" font-weight="400" font-style="normal" 
>
</g>

<g fill="#cb626c" fill-opacity="1" stroke="none" transform="matrix(2.87592,0,0,2.87592,-8.01984,-3.28725)"
font-family="Helvetica" font-size="12" font-weight="400" font-style="normal" 
>
<path vector-effect="none" fill-rule="nonzero" d="M79.7511,174.424 L85.0965,174.319 L85.1524,177.147 L79.807,177.253 L79.7511,174.424"/>
</g>

<g fill="none" stroke="#000000" stroke-opacity="1" stroke-width="0.3" stroke-linecap="square" stroke-linejoin="round" transform="matrix(2.87592,0,0,2.87592,-8.01984,-3.28725)"
font-family="Helvetica" font-size="12" font-weight="400" font-style="normal" 
>
<path vector-effect="none" fill-rule="evenodd" d="M79.7511,174.424 L85.0965,174.319 L85.1524,177.147 L79.807,177.253 L79.7511,174.424"/>
</g>

<g fill="none" stroke="#000000" stroke-opacity="1" stroke-width="1" stroke-linecap="square" stroke-linejoin="bevel" transform="matrix(2.87592,0,0,2.87592,-8.01984,-3.28725)"
font-family="Helvetica" font-size="12" font-weight="400" font-style="normal" 
>
</g>

<g fill="none" stroke="#000000" stroke-opacity="1" stroke-width="1" stroke-linecap="square" stroke-linejoin="bevel" transform="matrix(2.87592,0,0,2.87592,-8.01984,-3.28725)"
font-family="Helvetica" font-size="12" font-weight="400" font-style="normal" 
>
</g>

<g fill="#a662cb" fill-opacity="1" stroke="none" transform="matrix(2.87592,0,0,2.87592,-8.01984,-3.28725)"
font-family="Helvetica" font-size="12" font-weight="400" font-style="normal" 
>
<path vector-effect="none" fill-rule="nonzero" d="M157.271,277.68 L146.731,277.718 L146.721,275.028 L157.261,274.99 L157.271,277.68"/>
</g>

<g fill="none" stroke="#000000" stroke-opacity="1" stroke-width="0.3" stroke-linecap="square" stroke-linejoin="round" transform="matrix(2.87592,0,0,2.87592,-8.01984,-3.28725)"
font-family="Helvetica" font-size="12" font-weight="400" font-style="normal" 
>
<path vector-effect="none" fill-rule="evenodd" d="M157.271,277.68 L146.731,277.718 L146.721,275.028 L157.261,274.99 L157.271,277.68"/>
</g>

<g fill="none" stroke="#000000" stroke-opacity="1" stroke-width="1" stroke-linecap="square" stroke-linejoin="bevel" transform="matrix(2.87592,0,0,2.87592,-8.01984,-3.28725)"
font-family="Helvetica" font-size="12" font-weight="400" font-style="normal" 
>
</g>

<g fill="none" stroke="#000000" stroke-opacity="1" stroke-width="1" stroke-linecap="square" stroke-linejoin="bevel" transform="matrix(2.87592,0,0,2.87592,-8.01984,-3.28725)"
font-family="Helvetica" font-size="12" font-weight="400" font-style="normal" 
>
</g>

<g fill="#cb6362" fill-opacity="1" stroke="none" transform="matrix(2.87592,0,0,2.87592,-8.01984,-3.28725)"
font-family="Helvetica" font-size="12" font-weight="400" font-style="normal" 
>
<path vector-effect="none" fill-rule="nonzero" d="M25.9316,26.8124 L42.1067,32.5323 L41.1751,35.1668 L41.8261,32.4493 L58.8642,36.5312 L58.2132,39.2487 L58.5626,36.4762 L76.6966,38.7616 L76.3472,41.5341 L76.3978,38.7401 L95.2751,39.0816 L95.2246,41.8755 L95.0142,39.0891 L114.269,37.6356 L114.479,40.4221 L114.075,37.6571 L133.467,34.8227 L133.871,37.5877 L133.358,34.8408 L152.786,31.2134 L153.299,33.9604 L152.771,31.2163 L172.228,27.4728 C172.254,27.4673 172.281,27.4625 172.307,27.4583 L172.309,27.4585 L191.806,24.2979 C191.863,24.2883 191.921,24.2809 191.978,24.2753 L191.979,24.2754 L211.463,22.3564 C211.547,22.3481 211.631,22.3437 211.717,22.3431 L211.717,22.3431 L231.005,22.2057 C231.011,22.2056 231.018,22.2056 231.025,22.2056 C232.568,22.2056 233.819,23.4567 233.819,25 C233.819,26.5433 232.568,27.7944 231.025,27.7944 C229.481,27.7944 228.23,26.5433 228.23,25 C228.23,23.5687 229.306,22.3888 230.693,22.2251 L231.316,22.2208 L250.076,24.1865 C250.191,24.1982 250.302,24.2168 250.41,24.2416 L250.41,24.2421 L268.215,28.3257 C268.325,28.3503 268.431,28.3815 268.534,28.4184 L268.533,28.419 L285.024,34.3317 C285.121,34.366 285.216,34.4058 285.307,34.4503 L285.306,34.4508 L300.728,41.9763 L298.277,46.999 L282.855,39.4735 L284.081,36.9622 L283.137,39.5926 L266.647,33.6799 L267.59,31.0494 L266.966,33.7731 L249.16,29.6894 L249.785,26.9657 L249.494,29.7449 L230.733,27.7792 L231.025,25 L231.045,27.7943 L211.757,27.9317 L211.737,25.1374 L212.011,27.9183 L192.527,29.8373 L192.253,27.0563 L192.7,29.8147 L173.203,32.9753 L172.756,30.2169 L173.284,32.961 L153.827,36.7045 C153.822,36.7058 153.817,36.7068 153.813,36.7076 L153.812,36.7073 L134.384,40.3346 C134.348,40.3417 134.312,40.3477 134.277,40.3529 L134.275,40.3527 L114.884,43.1871 C114.82,43.1967 114.755,43.2038 114.691,43.2086 L114.69,43.2086 L95.4349,44.662 C95.3656,44.6673 95.2954,44.67 95.2246,44.67 C95.2076,44.67 95.1907,44.6698 95.174,44.6695 L95.174,44.6695 L76.2967,44.328 C76.1951,44.3262 76.0951,44.319 75.9975,44.3068 L75.9978,44.3065 L57.8637,42.0212 C57.7601,42.0085 57.6594,41.9901 57.5615,41.9667 L57.5621,41.9662 L40.524,37.8843 C40.4272,37.8618 40.3336,37.8341 40.2428,37.8019 L40.2434,37.8014 L24.0684,32.0814 L25.9316,26.8124"/>
</g>

<g fill="none" stroke="#000000" stroke-opacity="1" stroke-width="0.3" stroke-linecap="square" stroke-linejoin="round" transform="matrix(2.87592,0,0,2.87592,-8.01984,-3.28725)"
font-family="Helvetica" font-size="12" font-weight="400" font-style="normal" 
>
<path vector-effect="none" fill-rule="evenodd" d="M25.9316,26.8124 L41.9686,32.4835 L58.7149,36.4954 L76.5478,38.7428 L95.1445,39.0792 L114.172,37.643 L133.412,34.8306 L152.778,31.2149 L172.228,27.4728 L172.268,27.4651 L172.307,27.4583 L172.309,27.4585 L191.806,24.2979 L191.892,24.2851 L191.978,24.2753 L191.979,24.2754 L211.463,22.3564 L211.589,22.3469 L211.717,22.3431 L211.717,22.3431 L231.005,22.2057 L231.015,22.2056 L231.025,22.2056 L231.066,22.2225 L231.316,22.2208 L250.076,24.1865 L250.245,24.2091 L250.41,24.2416 L250.41,24.2421 L268.215,28.3257 L268.377,28.3674 L268.534,28.4184 L268.533,28.419 L285.024,34.3317 L285.168,34.3872 L285.307,34.4503 L285.306,34.4508 L300.728,41.9763 L298.277,46.999 L282.993,39.5408 L266.804,33.736 L249.325,29.7273 L230.889,27.7954 L211.884,27.9308 L192.614,29.8287 L173.243,32.9687 L153.827,36.7045 L153.82,36.7062 L153.813,36.7076 L153.812,36.7073 L134.384,40.3346 L134.33,40.3445 L134.277,40.3529 L134.275,40.3527 L114.884,43.1871 L114.787,43.1997 L114.691,43.2086 L114.69,43.2086 L95.4349,44.662 L95.3303,44.668 L95.2246,44.67 L95.1992,44.6698 L95.174,44.6695 L95.174,44.6695 L76.2967,44.328 L76.1456,44.3213 L75.9975,44.3068 L75.9978,44.3065 L57.8637,42.0212 L57.7105,41.998 L57.5615,41.9667 L57.5621,41.9662 L40.524,37.8843 L40.3812,37.8468 L40.2428,37.8019 L40.2434,37.8014 L24.0684,32.0814 L25.9316,26.8124"/>
</g>

<g fill="none" stroke="#000000" stroke-opacity="1" stroke-width="1" stroke-linecap="square" stroke-linejoin="bevel" transform="matrix(2.87592,0,0,2.87592,-8.01984,-3.28725)"
font-family="Helvetica" font-size="12" font-weight="400" font-style="normal" 
>
</g>

<g fill="none" stroke="#000000" stroke-opacity="1" stroke-width="1" stroke-linecap="square" stroke-linejoin="bevel" transform="matrix(2.87592,0,0,2.87592,-8.01984,-3.28725)"
font-family="Helvetica" font-size="12" font-weight="400" font-style="normal" 
>
</g>

<g fill="#67cb62" fill-opacity="1" stroke="none" transform="matrix(2.87592,0,0,2.87592,-8.01984,-3.28725)"
font-family="Helvetica" font-size="12" font-weight="400" font-style="normal" 
>
<path vector-effect="none" fill-rule="nonzero" d="M116.305,172.953 L104.232,175.483 C104.149,175.501 104.064,175.514 103.979,175.523 L103.978,175.522 L90.5231,176.867 L90.0447,172.079 L103.499,170.735 L103.739,173.129 L103.245,170.774 L115.318,168.244 L116.305,172.953"/>
</g>

<g fill="none" stroke="#000000" stroke-opacity="1" stroke-width="0.3" stroke-linecap="square" stroke-linejoin="round" transform="matrix(2.87592,0,0,2.87592,-8.01984,-3.28725)"
font-family="Helvetica" font-size="12" font-weight="400" font-style="normal" 
>
<path vector-effect="none" fill-rule="evenodd" d="M116.305,172.953 L104.232,175.483 L104.106,175.506 L103.979,175.523 L103.978,175.522 L90.5231,176.867 L90.0447,172.079 L103.371,170.747 L115.318,168.244 L116.305,172.953"/>
</g>

<g fill="none" stroke="#000000" stroke-opacity="1" stroke-width="1" stroke-linecap="square" stroke-linejoin="bevel" transform="matrix(2.87592,0,0,2.87592,-8.01984,-3.28725)"
font-family="Helvetica" font-size="12" font-weight="400" font-style="normal" 
>
</g>

<g fill="none" stroke="#000000" stroke-opacity="1" stroke-width="1" stroke-linecap="square" stroke-linejoin="bevel" transform="matrix(2.87592,0,0,2.87592,-8.01984,-3.28725)"
font-family="Helvetica" font-size="12" font-weight="400" font-style="normal" 
>
</g>

<g fill="#cbab62" fill-opacity="1" stroke="none" transform="matrix(2.87592,0,0,2.87592,-8.01984,-3.28725)"
font-family="Helvetica" font-size="12" font-weight="400" font-style="normal" 
>
<path vector-effect="none" fill-rule="nonzero" d="M96.7309,277.677 L86.0292,277.715 L86.0195,275.031 L96.7212,274.992 L96.7309,277.677"/>
</g>

<g fill="none" stroke="#000000" stroke-opacity="1" stroke-width="0.3" stroke-linecap="square" stroke-linejoin="round" transform="matrix(2.87592,0,0,2.87592,-8.01984,-3.28725)"
font-family="Helvetica" font-size="12" font-weight="400" font-style="normal" 
>
<path vector-effect="none" fill-rule="evenodd" d="M96.7309,277.677 L86.0292,277.715 L86.0195,275.031 L96.7212,274.992 L96.7309,277.677"/>
</g>

<g fill="none" stroke="#000000" stroke-opacity="1" stroke-width="1" stroke-linecap="square" stroke-linejoin="bevel" transform="matrix(2.87592,0,0,2.87592,-8.01984,-3.28725)"
font-family="Helvetica" font-size="12" font-weight="400" font-style="normal" 
>
</g>

<g fill="none" stroke="#000000" stroke-opacity="1" stroke-width="1" stroke-linecap="square" stroke-linejoin="bevel" transform="matrix(2.87592,0,0,2.87592,-8.01984,-3.28725)"
font-family="Helvetica" font-size="12" font-weight="400" font-style="normal" 
>
</g>

<g fill="#cb6962" fill-opacity="1" stroke="none" transform="matrix(2.87592,0,0,2.87592,-8.01984,-3.28725)"
font-family="Helvetica" font-size="12" font-weight="400" font-style="normal" 
>
<path vector-effect="none" fill-rule="nonzero" d="M174.035,227.399 L161.612,227.444 L161.603,224.773 L174.025,224.728 L174.035,227.399"/>
</g>

<g fill="none" stroke="#000000" stroke-opacity="1" stroke-width="0.3" stroke-linecap="square" stroke-linejoin="round" transform="matrix(2.87592,0,0,2.87592,-8.01984,-3.28725)"
font-family="Helvetica" font-size="12" font-weight="400" font-style="normal" 
>
<path vector-effect="none" fill-rule="evenodd" d="M174.035,227.399 L161.612,227.444 L161.603,224.773 L174.025,224.728 L174.035,227.399"/>
</g>

<g fill="none" stroke="#000000" stroke-opacity="1" stroke-width="1" stroke-linecap="square" stroke-linejoin="bevel" transform="matrix(2.87592,0,0,2.87592,-8.01984,-3.28725)"
font-family="Helvetica" font-size="12" font-weight="400" font-style="normal" 
>
</g>

<g fill="none" stroke="#000000" stroke-opacity="1" stroke-width="1" stroke-linecap="square" stroke-linejoin="bevel" transform="matrix(2.87592,0,0,2.87592,-8.01984,-3.28725)"
font-family="Helvetica" font-size="12" font-weight="400" font-style="normal" 
>
</g>

<g fill="#cb6a62" fill-opacity="1" stroke="none" transform="matrix(2.87592,0,0,2.87592,-8.01984,-3.28725)"
font-family="Helvetica" font-size="12" font-weight="400" font-style="normal" 
>
<path vector-effect="none" fill-rule="nonzero" d="M94.9294,327.721 L84.9806,327.757 L84.9708,325.063 L94.9196,325.027 L94.9294,327.721"/>
</g>

<g fill="none" stroke="#000000" stroke-opacity="1" stroke-width="0.3" stroke-linecap="square" stroke-linejoin="round" transform="matrix(2.87592,0,0,2.87592,-8.01984,-3.28725)"
font-family="Helvetica" font-size="12" font-weight="400" font-style="normal" 
>
<path vector-effect="none" fill-rule="evenodd" d="M94.9294,327.721 L84.9806,327.757 L84.9708,325.063 L94.9196,325.027 L94.9294,327.721"/>
</g>

<g fill="none" stroke="#000000" stroke-opacity="1" stroke-width="1" stroke-linecap="square" stroke-linejoin="bevel" transform="matrix(2.87592,0,0,2.87592,-8.01984,-3.28725)"
font-family="Helvetica" font-size="12" font-weight="400" font-style="normal" 
>
</g>

<g fill="none" stroke="#000000" stroke-opacity="1" stroke-width="1" stroke-linecap="square" stroke-linejoin="bevel" transform="matrix(2.87592,0,0,2.87592,-8.01984,-3.28725)"
font-family="Helvetica" font-size="12" font-weight="400" font-style="normal" 
>
</g>

<g fill="#b2cb62" fill-opacity="1" stroke="none" transform="matrix(2.87592,0,0,2.87592,-8.01984,-3.28725)"
font-family="Helvetica" font-size="12" font-weight="400" font-style="normal" 
>
<path vector-effect="none" fill-rule="nonzero" d="M36.0292,277.663 L25.0048,277.703 L24.9952,275.045 L36.0195,275.005 L36.0292,277.663"/>
</g>

<g fill="none" stroke="#000000" stroke-opacity="1" stroke-width="0.3" stroke-linecap="square" stroke-linejoin="round" transform="matrix(2.87592,0,0,2.87592,-8.01984,-3.28725)"
font-family="Helvetica" font-size="12" font-weight="400" font-style="normal" 
>
<path vector-effect="none" fill-rule="evenodd" d="M36.0292,277.663 L25.0048,277.703 L24.9952,275.045 L36.0195,275.005 L36.0292,277.663"/>
</g>

<g fill="none" stroke="#000000" stroke-opacity="1" stroke-width="1" stroke-linecap="square" stroke-linejoin="bevel" transform="matrix(2.87592,0,0,2.87592,-8.01984,-3.28725)"
font-family="Helvetica" font-size="12" font-weight="400" font-style="normal" 
>
</g>

<g fill="none" stroke="#000000" stroke-opacity="1" stroke-width="1" stroke-linecap="square" stroke-linejoin="bevel" transform="matrix(2.87592,0,0,2.87592,-8.01984,-3.28725)"
font-family="Helvetica" font-size="12" font-weight="400" font-style="normal" 
>
</g>

<g fill="#62cb8a" fill-opacity="1" stroke="none" transform="matrix(2.87592,0,0,2.87592,-8.01984,-3.28725)"
font-family="Helvetica" font-size="12" font-weight="400" font-style="normal" 
>
<path vector-effect="none" fill-rule="nonzero" d="M243.112,96.3364 L260.453,99.3214 L259.984,102.049 L260.311,99.3007 L278.277,101.442 L277.95,104.19 L278.117,101.427 L296.694,102.55 L296.527,105.313 L296.522,102.545 L315.32,102.511 L315.325,105.28 L315.148,102.517 L333.721,101.328 L333.898,104.09 L333.561,101.342 L351.519,99.1384 L351.857,101.886 L351.378,99.1596 L368.709,96.1151 L369.666,101.568 L352.335,104.612 C352.289,104.621 352.242,104.628 352.195,104.633 L352.194,104.633 L334.235,106.837 C334.183,106.844 334.129,106.849 334.076,106.852 L334.075,106.852 L315.502,108.042 C315.445,108.046 315.388,108.048 315.33,108.048 L315.33,108.048 L296.532,108.081 C296.531,108.081 296.529,108.081 296.527,108.081 C296.471,108.081 296.415,108.08 296.36,108.076 L296.36,108.076 L277.783,106.953 C277.728,106.95 277.674,106.945 277.622,106.939 L277.622,106.939 L259.656,104.798 C259.607,104.792 259.56,104.786 259.514,104.778 L259.514,104.777 L242.173,101.792 L243.112,96.3364"/>
</g>

<g fill="none" stroke="#000000" stroke-opacity="1" stroke-width="0.3" stroke-linecap="square" stroke-linejoin="round" transform="matrix(2.87592,0,0,2.87592,-8.01984,-3.28725)"
font-family="Helvetica" font-size="12" font-weight="400" font-style="normal" 
>
<path vector-effect="none" fill-rule="evenodd" d="M243.112,96.3364 L260.383,99.3092 L278.197,101.432 L296.608,102.545 L315.234,102.512 L333.641,101.333 L351.448,99.1472 L368.709,96.1151 L369.666,101.568 L352.335,104.612 L352.265,104.624 L352.195,104.633 L352.194,104.633 L334.235,106.837 L334.156,106.846 L334.076,106.852 L334.075,106.852 L315.502,108.042 L315.416,108.046 L315.33,108.048 L315.33,108.048 L296.532,108.081 L296.53,108.081 L296.527,108.081 L296.443,108.08 L296.36,108.076 L296.36,108.076 L277.783,106.953 L277.702,106.947 L277.622,106.939 L277.622,106.939 L259.656,104.798 L259.584,104.789 L259.514,104.778 L259.514,104.777 L242.173,101.792 L243.112,96.3364"/>
</g>

<g fill="none" stroke="#000000" stroke-opacity="1" stroke-width="1" stroke-linecap="square" stroke-linejoin="bevel" transform="matrix(2.87592,0,0,2.87592,-8.01984,-3.28725)"
font-family="Helvetica" font-size="12" font-weight="400" font-style="normal" 
>
</g>

<g fill="none" stroke="#000000" stroke-opacity="1" stroke-width="1" stroke-linecap="square" stroke-linejoin="bevel" transform="matrix(2.87592,0,0,2.87592,-8.01984,-3.28725)"
font-family="Helvetica" font-size="12" font-weight="400" font-style="normal" 
>
</g>

<g fill="#cb8f62" fill-opacity="1" stroke="none" transform="matrix(2.87592,0,0,2.87592,-8.01984,-3.28725)"
font-family="Helvetica" font-size="12" font-weight="400" font-style="normal" 
>
<path vector-effect="none" fill-rule="nonzero" d="M111.612,227.392 L97.711,227.442 L97.7013,224.781 L111.603,224.73 L111.612,227.392"/>
</g>

<g fill="none" stroke="#000000" stroke-opacity="1" stroke-width="0.3" stroke-linecap="square" stroke-linejoin="round" transform="matrix(2.87592,0,0,2.87592,-8.01984,-3.28725)"
font-family="Helvetica" font-size="12" font-weight="400" font-style="normal" 
>
<path vector-effect="none" fill-rule="evenodd" d="M111.612,227.392 L97.711,227.442 L97.7013,224.781 L111.603,224.73 L111.612,227.392"/>
</g>

<g fill="none" stroke="#000000" stroke-opacity="1" stroke-width="1" stroke-linecap="square" stroke-linejoin="bevel" transform="matrix(2.87592,0,0,2.87592,-8.01984,-3.28725)"
font-family="Helvetica" font-size="12" font-weight="400" font-style="normal" 
>
</g>

<g fill="none" stroke="#000000" stroke-opacity="1" stroke-width="1" stroke-linecap="square" stroke-linejoin="bevel" transform="matrix(2.87592,0,0,2.87592,-8.01984,-3.28725)"
font-family="Helvetica" font-size="12" font-weight="400" font-style="normal" 
>
</g>

<g fill="#cb6a62" fill-opacity="1" stroke="none" transform="matrix(2.87592,0,0,2.87592,-8.01984,-3.28725)"
font-family="Helvetica" font-size="12" font-weight="400" font-style="normal" 
>
<path vector-effect="none" fill-rule="nonzero" d="M398.276,277.683 L388.301,277.719 L388.291,275.025 L398.267,274.989 L398.276,277.683"/>
</g>

<g fill="none" stroke="#000000" stroke-opacity="1" stroke-width="0.3" stroke-linecap="square" stroke-linejoin="round" transform="matrix(2.87592,0,0,2.87592,-8.01984,-3.28725)"
font-family="Helvetica" font-size="12" font-weight="400" font-style="normal" 
>
<path vector-effect="none" fill-rule="evenodd" d="M398.276,277.683 L388.301,277.719 L388.291,275.025 L398.267,274.989 L398.276,277.683"/>
</g>

<g fill="none" stroke="#000000" stroke-opacity="1" stroke-width="1" stroke-linecap="square" stroke-linejoin="bevel" transform="matrix(2.87592,0,0,2.87592,-8.01984,-3.28725)"
font-family="Helvetica" font-size="12" font-weight="400" font-style="normal" 
>
</g>

<g fill="none" stroke="#000000" stroke-opacity="1" stroke-width="1" stroke-linecap="square" stroke-linejoin="bevel" transform="matrix(2.87592,0,0,2.87592,-8.01984,-3.28725)"
font-family="Helvetica" font-size="12" font-weight="400" font-style="normal" 
>
</g>

<g fill="#cb6a62" fill-opacity="1" stroke="none" transform="matrix(2.87592,0,0,2.87592,-8.01984,-3.28725)"
font-family="Helvetica" font-size="12" font-weight="400" font-style="normal" 
>
<path vector-effect="none" fill-rule="nonzero" d="M421.251,227.405 L410.093,227.446 L410.083,224.767 L421.242,224.727 L421.251,227.405"/>
</g>

<g fill="none" stroke="#000000" stroke-opacity="1" stroke-width="0.3" stroke-linecap="square" stroke-linejoin="round" transform="matrix(2.87592,0,0,2.87592,-8.01984,-3.28725)"
font-family="Helvetica" font-size="12" font-weight="400" font-style="normal" 
>
<path vector-effect="none" fill-rule="evenodd" d="M421.251,227.405 L410.093,227.446 L410.083,224.767 L421.242,224.727 L421.251,227.405"/>
</g>

<g fill="none" stroke="#000000" stroke-opacity="1" stroke-width="1" stroke-linecap="square" stroke-linejoin="bevel" transform="matrix(2.87592,0,0,2.87592,-8.01984,-3.28725)"
font-family="Helvetica" font-size="12" font-weight="400" font-style="normal" 
>
</g>

<g fill="none" stroke="#000000" stroke-opacity="1" stroke-width="1" stroke-linecap="square" stroke-linejoin="bevel" transform="matrix(2.87592,0,0,2.87592,-8.01984,-3.28725)"
font-family="Helvetica" font-size="12" font-weight="400" font-style="normal" 
>
</g>

<g fill="#9f62cb" fill-opacity="1" stroke="none" transform="matrix(2.87592,0,0,2.87592,-8.01984,-3.28725)"
font-family="Helvetica" font-size="12" font-weight="400" font-style="normal" 
>
<path vector-effect="none" fill-rule="nonzero" d="M154.798,327.722 L144.929,327.757 L144.92,325.062 L154.788,325.026 L154.798,327.722"/>
</g>

<g fill="none" stroke="#000000" stroke-opacity="1" stroke-width="0.3" stroke-linecap="square" stroke-linejoin="round" transform="matrix(2.87592,0,0,2.87592,-8.01984,-3.28725)"
font-family="Helvetica" font-size="12" font-weight="400" font-style="normal" 
>
<path vector-effect="none" fill-rule="evenodd" d="M154.798,327.722 L144.929,327.757 L144.92,325.062 L154.788,325.026 L154.798,327.722"/>
</g>

<g fill="none" stroke="#000000" stroke-opacity="1" stroke-width="1" stroke-linecap="square" stroke-linejoin="bevel" transform="matrix(2.87592,0,0,2.87592,-8.01984,-3.28725)"
font-family="Helvetica" font-size="12" font-weight="400" font-style="normal" 
>
</g>

<g fill="none" stroke="#000000" stroke-opacity="1" stroke-width="1" stroke-linecap="square" stroke-linejoin="bevel" transform="matrix(2.87592,0,0,2.87592,-8.01984,-3.28725)"
font-family="Helvetica" font-size="12" font-weight="400" font-style="normal" 
>
</g>

<g fill="#62cbad" fill-opacity="1" stroke="none" transform="matrix(2.87592,0,0,2.87592,-8.01984,-3.28725)"
font-family="Helvetica" font-size="12" font-weight="400" font-style="normal" 
>
<path vector-effect="none" fill-rule="nonzero" d="M433.633,172.024 L415.982,170.573 L416.217,167.716 L416.064,170.579 L397.912,169.608 L398.065,166.745 L398.002,169.612 L379.432,169.206 L379.494,166.339 L379.526,169.206 L360.952,169.409 L360.92,166.542 L361.042,169.406 L342.881,170.179 L342.759,167.315 L342.963,170.174 L325.298,171.435 L324.889,165.715 L342.555,164.455 C342.582,164.453 342.609,164.451 342.636,164.45 L342.637,164.45 L360.799,163.678 C360.829,163.676 360.859,163.676 360.889,163.675 L360.889,163.675 L379.463,163.473 C379.474,163.473 379.484,163.472 379.494,163.472 C381.078,163.472 382.361,164.756 382.361,166.339 C382.361,167.923 381.078,169.206 379.494,169.206 C377.911,169.206 376.627,167.923 376.627,166.339 C376.627,164.798 377.844,163.541 379.369,163.475 L379.557,163.473 L398.128,163.879 C398.158,163.88 398.189,163.881 398.218,163.882 L398.218,163.883 L416.37,164.853 C416.398,164.854 416.426,164.856 416.452,164.858 L416.452,164.858 L434.103,166.309 L433.633,172.024"/>
</g>

<g fill="none" stroke="#000000" stroke-opacity="1" stroke-width="0.3" stroke-linecap="square" stroke-linejoin="round" transform="matrix(2.87592,0,0,2.87592,-8.01984,-3.28725)"
font-family="Helvetica" font-size="12" font-weight="400" font-style="normal" 
>
<path vector-effect="none" fill-rule="evenodd" d="M433.633,172.024 L416.023,170.576 L397.957,169.611 L379.479,169.207 L360.997,169.408 L342.922,170.177 L325.298,171.435 L324.889,165.715 L342.555,164.455 L342.596,164.452 L342.636,164.45 L342.637,164.45 L360.799,163.678 L360.844,163.676 L360.889,163.675 L360.889,163.675 L379.463,163.473 L379.479,163.473 L379.494,163.472 L379.498,163.474 L379.557,163.473 L398.128,163.879 L398.173,163.88 L398.218,163.882 L398.218,163.883 L416.37,164.853 L416.412,164.855 L416.452,164.858 L416.452,164.858 L434.103,166.309 L433.633,172.024"/>
</g>

<g fill="none" stroke="#000000" stroke-opacity="1" stroke-width="1" stroke-linecap="square" stroke-linejoin="bevel" transform="matrix(2.87592,0,0,2.87592,-8.01984,-3.28725)"
font-family="Helvetica" font-size="12" font-weight="400" font-style="normal" 
>
</g>

<g fill="none" stroke="#000000" stroke-opacity="1" stroke-width="1" stroke-linecap="square" stroke-linejoin="bevel" transform="matrix(2.87592,0,0,2.87592,-8.01984,-3.28725)"
font-family="Helvetica" font-size="12" font-weight="400" font-style="normal" 
>
</g>

<g fill="#7362cb" fill-opacity="1" stroke="none" transform="matrix(2.87592,0,0,2.87592,-8.01984,-3.28725)"
font-family="Helvetica" font-size="12" font-weight="400" font-style="normal" 
>
<path vector-effect="none" fill-rule="nonzero" d="M236.404,227.4 L224.035,227.445 L224.025,224.772 L236.394,224.727 L236.404,227.4"/>
</g>

<g fill="none" stroke="#000000" stroke-opacity="1" stroke-width="0.3" stroke-linecap="square" stroke-linejoin="round" transform="matrix(2.87592,0,0,2.87592,-8.01984,-3.28725)"
font-family="Helvetica" font-size="12" font-weight="400" font-style="normal" 
>
<path vector-effect="none" fill-rule="evenodd" d="M236.404,227.4 L224.035,227.445 L224.025,224.772 L236.394,224.727 L236.404,227.4"/>
</g>

<g fill="none" stroke="#000000" stroke-opacity="1" stroke-width="1" stroke-linecap="square" stroke-linejoin="bevel" transform="matrix(2.87592,0,0,2.87592,-8.01984,-3.28725)"
font-family="Helvetica" font-size="12" font-weight="400" font-style="normal" 
>
</g>

<g fill="none" stroke="#000000" stroke-opacity="1" stroke-width="1" stroke-linecap="square" stroke-linejoin="bevel" transform="matrix(2.87592,0,0,2.87592,-8.01984,-3.28725)"
font-family="Helvetica" font-size="12" font-weight="400" font-style="normal" 
>
</g>

<g fill="#cb8662" fill-opacity="1" stroke="none" transform="matrix(2.87592,0,0,2.87592,-8.01984,-3.28725)"
font-family="Helvetica" font-size="12" font-weight="400" font-style="normal" 
>
<path vector-effect="none" fill-rule="nonzero" d="M25.768,92.1053 L42.9692,97.6505 L42.2012,100.033 L42.8108,97.6052 L60.8273,102.129 L60.2177,104.557 L60.6439,102.09 L79.6108,105.367 L79.1846,107.834 L79.4074,105.341 L98.9945,107.091 L98.7717,109.584 L98.7822,107.081 L118.583,107.164 L118.573,109.667 L118.374,107.172 L137.98,105.615 L138.178,108.11 L137.786,105.638 L156.8,102.626 L157.191,105.099 L156.63,102.659 L174.736,98.4961 L175.297,100.936 L174.593,98.5333 L191.939,93.4547 L193.346,98.2592 L176,103.338 C175.954,103.352 175.906,103.364 175.859,103.375 L175.858,103.375 L157.752,107.538 C157.697,107.551 157.64,107.562 157.584,107.571 L157.583,107.571 L138.569,110.582 C138.506,110.593 138.441,110.6 138.377,110.605 L138.376,110.605 L118.771,112.162 C118.705,112.168 118.639,112.17 118.573,112.17 C118.569,112.17 118.565,112.17 118.562,112.17 L118.562,112.17 L98.7612,112.087 C98.6893,112.087 98.6183,112.084 98.5487,112.077 L98.5489,112.077 L78.9618,110.327 C78.8922,110.321 78.8243,110.312 78.758,110.301 L78.7584,110.3 L59.7916,107.023 C59.7284,107.013 59.6672,107 59.6076,106.985 L59.6081,106.985 L41.5916,102.461 C41.5369,102.447 41.4841,102.432 41.4326,102.416 L41.4332,102.415 L24.232,96.8699 L25.768,92.1053"/>
</g>

<g fill="none" stroke="#000000" stroke-opacity="1" stroke-width="0.3" stroke-linecap="square" stroke-linejoin="round" transform="matrix(2.87592,0,0,2.87592,-8.01984,-3.28725)"
font-family="Helvetica" font-size="12" font-weight="400" font-style="normal" 
>
<path vector-effect="none" fill-rule="evenodd" d="M25.768,92.1053 L42.8907,97.6252 L60.7363,102.106 L79.5096,105.35 L98.8885,107.082 L118.479,107.164 L137.882,105.623 L156.714,102.64 L174.664,98.5127 L191.939,93.4547 L193.346,98.2592 L176,103.338 L175.93,103.358 L175.859,103.375 L175.858,103.375 L157.752,107.538 L157.668,107.556 L157.584,107.571 L157.583,107.571 L138.569,110.582 L138.473,110.596 L138.377,110.605 L138.376,110.605 L118.771,112.162 L118.672,112.168 L118.573,112.17 L118.567,112.17 L118.562,112.17 L118.562,112.17 L98.7612,112.087 L98.6541,112.084 L98.5487,112.077 L98.5489,112.077 L78.9618,110.327 L78.8586,110.316 L78.758,110.301 L78.7584,110.3 L59.7916,107.023 L59.6983,107.006 L59.6076,106.985 L59.6081,106.985 L41.5916,102.461 L41.5109,102.439 L41.4326,102.416 L41.4332,102.415 L24.232,96.8699 L25.768,92.1053"/>
</g>

<g fill="none" stroke="#000000" stroke-opacity="1" stroke-width="1" stroke-linecap="square" stroke-linejoin="bevel" transform="matrix(2.87592,0,0,2.87592,-8.01984,-3.28725)"
font-family="Helvetica" font-size="12" font-weight="400" font-style="normal" 
>
</g>

<g fill="none" stroke="#000000" stroke-opacity="1" stroke-width="1" stroke-linecap="square" stroke-linejoin="bevel" transform="matrix(2.87592,0,0,2.87592,-8.01984,-3.28725)"
font-family="Helvetica" font-size="12" font-weight="400" font-style="normal" 
>
</g>

<g fill="#cb62bd" fill-opacity="1" stroke="none" transform="matrix(2.87592,0,0,2.87592,-8.01984,-3.28725)"
font-family="Helvetica" font-size="12" font-weight="400" font-style="normal" 
>
<path vector-effect="none" fill-rule="nonzero" d="M278.191,277.678 L267.758,277.716 L267.748,275.029 L278.181,274.991 L278.191,277.678"/>
</g>

<g fill="none" stroke="#000000" stroke-opacity="1" stroke-width="0.3" stroke-linecap="square" stroke-linejoin="round" transform="matrix(2.87592,0,0,2.87592,-8.01984,-3.28725)"
font-family="Helvetica" font-size="12" font-weight="400" font-style="normal" 
>
<path vector-effect="none" fill-rule="evenodd" d="M278.191,277.678 L267.758,277.716 L267.748,275.029 L278.181,274.991 L278.191,277.678"/>
</g>

<g fill="none" stroke="#000000" stroke-opacity="1" stroke-width="1" stroke-linecap="square" stroke-linejoin="bevel" transform="matrix(2.87592,0,0,2.87592,-8.01984,-3.28725)"
font-family="Helvetica" font-size="12" font-weight="400" font-style="normal" 
>
</g>

<g fill="none" stroke="#000000" stroke-opacity="1" stroke-width="1" stroke-linecap="square" stroke-linejoin="bevel" transform="matrix(2.87592,0,0,2.87592,-8.01984,-3.28725)"
font-family="Helvetica" font-size="12" font-weight="400" font-style="normal" 
>
</g>

<g fill="#cb629f" fill-opacity="1" stroke="none" transform="matrix(2.87592,0,0,2.87592,-8.01984,-3.28725)"
font-family="Helvetica" font-size="12" font-weight="400" font-style="normal" 
>
<path vector-effect="none" fill-rule="nonzero" d="M34.9805,327.714 L25.0049,327.75 L24.9951,325.07 L34.9708,325.033 L34.9805,327.714"/>
</g>

<g fill="none" stroke="#000000" stroke-opacity="1" stroke-width="0.3" stroke-linecap="square" stroke-linejoin="round" transform="matrix(2.87592,0,0,2.87592,-8.01984,-3.28725)"
font-family="Helvetica" font-size="12" font-weight="400" font-style="normal" 
>
<path vector-effect="none" fill-rule="evenodd" d="M34.9805,327.714 L25.0049,327.75 L24.9951,325.07 L34.9708,325.033 L34.9805,327.714"/>
</g>

<g fill="none" stroke="#000000" stroke-opacity="1" stroke-width="1" stroke-linecap="square" stroke-linejoin="bevel" transform="matrix(2.87592,0,0,2.87592,-8.01984,-3.28725)"
font-family="Helvetica" font-size="12" font-weight="400" font-style="normal" 
>
</g>

<g fill="none" stroke="#000000" stroke-opacity="1" stroke-width="1" stroke-linecap="square" stroke-linejoin="bevel" transform="matrix(2.87592,0,0,2.87592,-8.01984,-3.28725)"
font-family="Helvetica" font-size="12" font-weight="400" font-style="normal" 
>
</g>

<g fill="#62cbbd" fill-opacity="1" stroke="none" transform="matrix(2.87592,0,0,2.87592,-8.01984,-3.28725)"
font-family="Helvetica" font-size="12" font-weight="400" font-style="normal" 
>
<path vector-effect="none" fill-rule="nonzero" d="M214.531,327.722 L204.798,327.757 L204.788,325.062 L214.521,325.026 L214.531,327.722"/>
</g>

<g fill="none" stroke="#000000" stroke-opacity="1" stroke-width="0.3" stroke-linecap="square" stroke-linejoin="round" transform="matrix(2.87592,0,0,2.87592,-8.01984,-3.28725)"
font-family="Helvetica" font-size="12" font-weight="400" font-style="normal" 
>
<path vector-effect="none" fill-rule="evenodd" d="M214.531,327.722 L204.798,327.757 L204.788,325.062 L214.521,325.026 L214.531,327.722"/>
</g>

<g fill="none" stroke="#000000" stroke-opacity="1" stroke-width="1" stroke-linecap="square" stroke-linejoin="bevel" transform="matrix(2.87592,0,0,2.87592,-8.01984,-3.28725)"
font-family="Helvetica" font-size="12" font-weight="400" font-style="normal" 
>
</g>

<g fill="none" stroke="#000000" stroke-opacity="1" stroke-width="1" stroke-linecap="square" stroke-linejoin="bevel" transform="matrix(2.87592,0,0,2.87592,-8.01984,-3.28725)"
font-family="Helvetica" font-size="12" font-weight="400" font-style="normal" 
>
</g>

<g fill="#6296cb" fill-opacity="1" stroke="none" transform="matrix(2.87592,0,0,2.87592,-8.01984,-3.28725)"
font-family="Helvetica" font-size="12" font-weight="400" font-style="normal" 
>
<path vector-effect="none" fill-rule="nonzero" d="M338.301,277.682 L328.191,277.719 L328.181,275.025 L338.291,274.988 L338.301,277.682"/>
</g>

<g fill="none" stroke="#000000" stroke-opacity="1" stroke-width="0.3" stroke-linecap="square" stroke-linejoin="round" transform="matrix(2.87592,0,0,2.87592,-8.01984,-3.28725)"
font-family="Helvetica" font-size="12" font-weight="400" font-style="normal" 
>
<path vector-effect="none" fill-rule="evenodd" d="M338.301,277.682 L328.191,277.719 L328.181,275.025 L338.291,274.988 L338.301,277.682"/>
</g>

<g fill="none" stroke="#000000" stroke-opacity="1" stroke-width="1" stroke-linecap="square" stroke-linejoin="bevel" transform="matrix(2.87592,0,0,2.87592,-8.01984,-3.28725)"
font-family="Helvetica" font-size="12" font-weight="400" font-style="normal" 
>
</g>

<g fill="none" stroke="#000000" stroke-opacity="1" stroke-width="1" stroke-linecap="square" stroke-linejoin="bevel" transform="matrix(2.87592,0,0,2.87592,-8.01984,-3.28725)"
font-family="Helvetica" font-size="12" font-weight="400" font-style="normal" 
>
</g>

<g fill="#bb62cb" fill-opacity="1" stroke="none" transform="matrix(2.87592,0,0,2.87592,-8.01984,-3.28725)"
font-family="Helvetica" font-size="12" font-weight="400" font-style="normal" 
>
<path vector-effect="none" fill-rule="nonzero" d="M47.7438,227.428 L36.3874,227.734 C36.3749,227.734 36.3623,227.735 36.3497,227.735 C36.3292,227.735 36.3087,227.734 36.2886,227.733 L36.2886,227.733 L24.9389,227.238 L25.0611,224.439 L36.4108,224.934 L36.3497,226.334 L36.312,224.933 L47.6684,224.628 L47.7438,227.428"/>
</g>

<g fill="none" stroke="#000000" stroke-opacity="1" stroke-width="0.3" stroke-linecap="square" stroke-linejoin="round" transform="matrix(2.87592,0,0,2.87592,-8.01984,-3.28725)"
font-family="Helvetica" font-size="12" font-weight="400" font-style="normal" 
>
<path vector-effect="none" fill-rule="evenodd" d="M47.7438,227.428 L36.3874,227.734 L36.3686,227.735 L36.3497,227.735 L36.319,227.734 L36.2886,227.733 L36.2886,227.733 L24.9389,227.238 L25.0611,224.439 L36.3614,224.932 L47.6684,224.628 L47.7438,227.428"/>
</g>

<g fill="none" stroke="#000000" stroke-opacity="1" stroke-width="1" stroke-linecap="square" stroke-linejoin="bevel" transform="matrix(2.87592,0,0,2.87592,-8.01984,-3.28725)"
font-family="Helvetica" font-size="12" font-weight="400" font-style="normal" 
>
</g>

<g fill="none" stroke="#000000" stroke-opacity="1" stroke-width="1" stroke-linecap="square" stroke-linejoin="bevel" transform="matrix(2.87592,0,0,2.87592,-8.01984,-3.28725)"
font-family="Helvetica" font-size="12" font-weight="400" font-style="normal" 
>
</g>

<g fill="#a862cb" fill-opacity="1" stroke="none" transform="matrix(2.87592,0,0,2.87592,-8.01984,-3.28725)"
font-family="Helvetica" font-size="12" font-weight="400" font-style="normal" 
>
<path vector-effect="none" fill-rule="nonzero" d="M298.746,227.402 L286.404,227.446 L286.394,224.771 L298.736,224.726 L298.746,227.402"/>
</g>

<g fill="none" stroke="#000000" stroke-opacity="1" stroke-width="0.3" stroke-linecap="square" stroke-linejoin="round" transform="matrix(2.87592,0,0,2.87592,-8.01984,-3.28725)"
font-family="Helvetica" font-size="12" font-weight="400" font-style="normal" 
>
<path vector-effect="none" fill-rule="evenodd" d="M298.746,227.402 L286.404,227.446 L286.394,224.771 L298.736,224.726 L298.746,227.402"/>
</g>

<g fill="none" stroke="#000000" stroke-opacity="1" stroke-width="1" stroke-linecap="square" stroke-linejoin="bevel" transform="matrix(2.87592,0,0,2.87592,-8.01984,-3.28725)"
font-family="Helvetica" font-size="12" font-weight="400" font-style="normal" 
>
</g>

<g fill="none" stroke="#000000" stroke-opacity="1" stroke-width="1" stroke-linecap="square" stroke-linejoin="bevel" transform="matrix(2.87592,0,0,2.87592,-8.01984,-3.28725)"
font-family="Helvetica" font-size="12" font-weight="400" font-style="normal" 
>
</g>

<g fill="#62c4cb" fill-opacity="1" stroke="none" transform="matrix(2.87592,0,0,2.87592,-8.01984,-3.28725)"
font-family="Helvetica" font-size="12" font-weight="400" font-style="normal" 
>
<path vector-effect="none" fill-rule="nonzero" d="M217.758,277.672 L207.271,277.71 L207.262,275.036 L217.748,274.998 L217.758,277.672"/>
</g>

<g fill="none" stroke="#000000" stroke-opacity="1" stroke-width="0.3" stroke-linecap="square" stroke-linejoin="round" transform="matrix(2.87592,0,0,2.87592,-8.01984,-3.28725)"
font-family="Helvetica" font-size="12" font-weight="400" font-style="normal" 
>
<path vector-effect="none" fill-rule="evenodd" d="M217.758,277.672 L207.271,277.71 L207.262,275.036 L217.748,274.998 L217.758,277.672"/>
</g>

<g fill="none" stroke="#000000" stroke-opacity="1" stroke-width="1" stroke-linecap="square" stroke-linejoin="bevel" transform="matrix(2.87592,0,0,2.87592,-8.01984,-3.28725)"
font-family="Helvetica" font-size="12" font-weight="400" font-style="normal" 
>
</g>

<g fill="none" stroke="#000000" stroke-opacity="1" stroke-width="1" stroke-linecap="square" stroke-linejoin="bevel" transform="matrix(1,0,0,1,0,0)"
font-family="Helvetica" font-size="12" font-weight="400" font-style="normal" 
>
</g>
</g>
</svg>
