<?xml version="1.0" encoding="UTF-8" standalone="no"?>
<svg width="461.081mm" height="352.778mm"
 viewBox="0 0 1307 1000"
 xmlns="http://www.w3.org/2000/svg" xmlns:xlink="http://www.w3.org/1999/xlink"  version="1.2" baseProfile="tiny">
<title>Qt SVG Document</title>
<desc>Generated with Qt</desc>
<defs>
</defs>
<g fill="none" stroke="black" stroke-width="1" fill-rule="evenodd" stroke-linecap="square" stroke-linejoin="bevel" >

<g fill="#ffffff" fill-opacity="1" stroke="none" transform="matrix(1,0,0,1,0,0)"
font-family="Helvetica" font-size="12" font-weight="400" font-style="normal" 
>
<rect x="0" y="0" width="1307" height="1000"/>
</g>

<g fill="none" stroke="#000000" stroke-opacity="1" stroke-width="1" stroke-linecap="square" stroke-linejoin="bevel" transform="matrix(1,0,0,1,0,0)"
font-family="Helvetica" font-size="12" font-weight="400" font-style="normal" 
>
</g>

<g fill="none" stroke="#000000" stroke-opacity="1" stroke-width="1" stroke-linecap="square" stroke-linejoin="bevel" transform="matrix(1,0,0,1,0,0)"
font-family="Helvetica" font-size="12" font-weight="400" font-style="normal" 
>
</g>

<g fill="none" stroke="#000000" stroke-opacity="1" stroke-width="1" stroke-linecap="square" stroke-linejoin="bevel" transform="matrix(2.57961,0,0,2.57961,2.2143,3.04797)"
font-family="Helvetica" font-size="12" font-weight="400" font-style="normal" 
>
</g>

<g fill="none" stroke="#000000" stroke-opacity="0.705882" stroke-width="1.5" stroke-linecap="round" stroke-linejoin="bevel" transform="matrix(2.57961,0,0,2.57961,2.2143,3.04797)"
font-family="Helvetica" font-size="12" font-weight="400" font-style="normal" 
>
<path vector-effect="none" fill-rule="evenodd" d="M281.366,147.47 C278.811,147.06 284.202,144.076 282.254,142.372 "/>
</g>

<g fill="none" stroke="#000000" stroke-opacity="1" stroke-width="1" stroke-linecap="square" stroke-linejoin="bevel" transform="matrix(2.57961,0,0,2.57961,2.2143,3.04797)"
font-family="Helvetica" font-size="12" font-weight="400" font-style="normal" 
>
</g>

<g fill="none" stroke="#000000" stroke-opacity="1" stroke-width="1" stroke-linecap="square" stroke-linejoin="bevel" transform="matrix(2.57961,0,0,2.57961,2.2143,3.04797)"
font-family="Helvetica" font-size="12" font-weight="400" font-style="normal" 
>
</g>

<g fill="none" stroke="#000000" stroke-opacity="0.705882" stroke-width="1.5" stroke-linecap="round" stroke-linejoin="bevel" transform="matrix(2.57961,0,0,2.57961,2.2143,3.04797)"
font-family="Helvetica" font-size="12" font-weight="400" font-style="normal" 
>
<path vector-effect="none" fill-rule="evenodd" d="M281.366,147.47 C278.728,147.047 278.84,148.475 276.186,148.779 "/>
</g>

<g fill="none" stroke="#000000" stroke-opacity="1" stroke-width="1" stroke-linecap="square" stroke-linejoin="bevel" transform="matrix(2.57961,0,0,2.57961,2.2143,3.04797)"
font-family="Helvetica" font-size="12" font-weight="400" font-style="normal" 
>
</g>

<g fill="none" stroke="#000000" stroke-opacity="1" stroke-width="1" stroke-linecap="square" stroke-linejoin="bevel" transform="matrix(2.57961,0,0,2.57961,2.2143,3.04797)"
font-family="Helvetica" font-size="12" font-weight="400" font-style="normal" 
>
</g>

<g fill="none" stroke="#000000" stroke-opacity="0.705882" stroke-width="1.5" stroke-linecap="round" stroke-linejoin="bevel" transform="matrix(2.57961,0,0,2.57961,2.2143,3.04797)"
font-family="Helvetica" font-size="12" font-weight="400" font-style="normal" 
>
<path vector-effect="none" fill-rule="evenodd" d="M265.562,149.207 C268.039,148.25 268.232,149.689 270.87,149.387 "/>
</g>

<g fill="none" stroke="#000000" stroke-opacity="1" stroke-width="1" stroke-linecap="square" stroke-linejoin="bevel" transform="matrix(2.57961,0,0,2.57961,2.2143,3.04797)"
font-family="Helvetica" font-size="12" font-weight="400" font-style="normal" 
>
</g>

<g fill="none" stroke="#000000" stroke-opacity="1" stroke-width="1" stroke-linecap="square" stroke-linejoin="bevel" transform="matrix(2.57961,0,0,2.57961,2.2143,3.04797)"
font-family="Helvetica" font-size="12" font-weight="400" font-style="normal" 
>
</g>

<g fill="none" stroke="#000000" stroke-opacity="0.705882" stroke-width="1.5" stroke-linecap="round" stroke-linejoin="bevel" transform="matrix(2.57961,0,0,2.57961,2.2143,3.04797)"
font-family="Helvetica" font-size="12" font-weight="400" font-style="normal" 
>
<path vector-effect="none" fill-rule="evenodd" d="M265.562,149.207 C267.975,148.275 261.826,146.67 263.308,144.551 "/>
</g>

<g fill="none" stroke="#000000" stroke-opacity="1" stroke-width="1" stroke-linecap="square" stroke-linejoin="bevel" transform="matrix(2.57961,0,0,2.57961,2.2143,3.04797)"
font-family="Helvetica" font-size="12" font-weight="400" font-style="normal" 
>
</g>

<g fill="none" stroke="#000000" stroke-opacity="1" stroke-width="1" stroke-linecap="square" stroke-linejoin="bevel" transform="matrix(2.57961,0,0,2.57961,2.2143,3.04797)"
font-family="Helvetica" font-size="12" font-weight="400" font-style="normal" 
>
</g>

<g fill="none" stroke="#000000" stroke-opacity="0.705882" stroke-width="1.5" stroke-linecap="round" stroke-linejoin="bevel" transform="matrix(2.57961,0,0,2.57961,2.2143,3.04797)"
font-family="Helvetica" font-size="12" font-weight="400" font-style="normal" 
>
<path vector-effect="none" fill-rule="evenodd" d="M144.602,361.531 C139.602,361.502 139.631,356.502 147.131,356.546 C154.631,356.59 154.601,361.59 149.602,361.56 "/>
</g>

<g fill="none" stroke="#000000" stroke-opacity="1" stroke-width="1" stroke-linecap="square" stroke-linejoin="bevel" transform="matrix(2.57961,0,0,2.57961,2.2143,3.04797)"
font-family="Helvetica" font-size="12" font-weight="400" font-style="normal" 
>
</g>

<g fill="none" stroke="#000000" stroke-opacity="1" stroke-width="1" stroke-linecap="square" stroke-linejoin="bevel" transform="matrix(2.57961,0,0,2.57961,2.2143,3.04797)"
font-family="Helvetica" font-size="12" font-weight="400" font-style="normal" 
>
</g>

<g fill="#afcb62" fill-opacity="1" stroke="none" transform="matrix(2.57961,0,0,2.57961,2.2143,3.04797)"
font-family="Helvetica" font-size="12" font-weight="400" font-style="normal" 
>
<path vector-effect="none" fill-rule="nonzero" d="M149.594,362.89 L144.594,362.861 L144.609,360.202 L149.609,360.231 L149.594,362.89"/>
</g>

<g fill="none" stroke="#000000" stroke-opacity="1" stroke-width="0.3" stroke-linecap="square" stroke-linejoin="round" transform="matrix(2.57961,0,0,2.57961,2.2143,3.04797)"
font-family="Helvetica" font-size="12" font-weight="400" font-style="normal" 
>
<path vector-effect="none" fill-rule="evenodd" d="M149.594,362.89 L144.594,362.861 L144.609,360.202 L149.609,360.231 L149.594,362.89"/>
</g>

<g fill="none" stroke="#000000" stroke-opacity="1" stroke-width="1" stroke-linecap="square" stroke-linejoin="bevel" transform="matrix(2.57961,0,0,2.57961,2.2143,3.04797)"
font-family="Helvetica" font-size="12" font-weight="400" font-style="normal" 
>
</g>

<g fill="none" stroke="#000000" stroke-opacity="1" stroke-width="1" stroke-linecap="square" stroke-linejoin="bevel" transform="matrix(2.57961,0,0,2.57961,2.2143,3.04797)"
font-family="Helvetica" font-size="12" font-weight="400" font-style="normal" 
>
</g>

<g fill="#cb62b4" fill-opacity="1" stroke="none" transform="matrix(2.57961,0,0,2.57961,2.2143,3.04797)"
font-family="Helvetica" font-size="12" font-weight="400" font-style="normal" 
>
<path vector-effect="none" fill-rule="nonzero" d="M202.261,209.241 L220.023,208.308 C220.031,208.308 220.038,208.308 220.045,208.307 L220.046,208.307 L238.298,207.636 C238.306,207.636 238.314,207.636 238.323,207.636 L238.323,207.636 L256.987,207.276 C256.996,207.276 257.005,207.276 257.013,207.276 L257.013,207.276 L275.681,207.255 C275.682,207.255 275.682,207.255 275.683,207.255 C276.479,207.255 277.125,207.901 277.125,208.697 C277.125,209.494 276.479,210.139 275.683,210.139 C274.887,210.139 274.241,209.494 274.241,208.697 C274.241,207.91 274.872,207.27 275.656,207.256 L275.707,207.256 L293.969,207.558 C293.976,207.558 293.984,207.558 293.992,207.558 L293.992,207.558 L311.769,208.137 L311.675,211.019 L293.898,210.441 L293.945,208.999 L293.921,210.441 L275.659,210.139 L275.683,208.697 L275.685,210.139 L257.017,210.16 L257.015,208.718 L257.043,210.159 L238.378,210.519 L238.351,209.077 L238.403,210.518 L220.152,211.189 L220.099,209.748 L220.174,211.188 L202.412,212.12 L202.261,209.241"/>
</g>

<g fill="none" stroke="#000000" stroke-opacity="1" stroke-width="0.3" stroke-linecap="square" stroke-linejoin="round" transform="matrix(2.57961,0,0,2.57961,2.2143,3.04797)"
font-family="Helvetica" font-size="12" font-weight="400" font-style="normal" 
>
<path vector-effect="none" fill-rule="evenodd" d="M202.261,209.241 L220.023,208.308 L220.034,208.308 L220.045,208.307 L220.046,208.307 L238.298,207.636 L238.31,207.636 L238.323,207.636 L238.323,207.636 L256.987,207.276 L257,207.276 L257.013,207.276 L257.013,207.276 L275.681,207.255 L275.682,207.255 L275.683,207.255 L275.683,207.256 L275.707,207.256 L293.969,207.558 L293.98,207.558 L293.992,207.558 L293.992,207.558 L311.769,208.137 L311.675,211.019 L293.909,210.441 L275.672,210.139 L257.03,210.16 L238.391,210.519 L220.163,211.189 L202.412,212.12 L202.261,209.241"/>
</g>

<g fill="none" stroke="#000000" stroke-opacity="1" stroke-width="1" stroke-linecap="square" stroke-linejoin="bevel" transform="matrix(2.57961,0,0,2.57961,2.2143,3.04797)"
font-family="Helvetica" font-size="12" font-weight="400" font-style="normal" 
>
</g>

<g fill="none" stroke="#000000" stroke-opacity="1" stroke-width="1" stroke-linecap="square" stroke-linejoin="bevel" transform="matrix(2.57961,0,0,2.57961,2.2143,3.04797)"
font-family="Helvetica" font-size="12" font-weight="400" font-style="normal" 
>
</g>

<g fill="#cba462" fill-opacity="1" stroke="none" transform="matrix(2.57961,0,0,2.57961,2.2143,3.04797)"
font-family="Helvetica" font-size="12" font-weight="400" font-style="normal" 
>
<path vector-effect="none" fill-rule="nonzero" d="M280.832,143.997 L270.026,134.543 L271.448,132.918 L273.217,134.156 L265.078,145.789 L261.539,143.313 L269.678,131.679 C270.068,131.122 270.716,130.758 271.448,130.758 C272.641,130.758 273.608,131.725 273.608,132.918 C273.608,134.11 272.641,135.078 271.448,135.078 C271.071,135.078 270.716,134.981 270.408,134.811 L272.87,131.292 L283.676,140.746 L280.832,143.997"/>
</g>

<g fill="none" stroke="#000000" stroke-opacity="1" stroke-width="0.3" stroke-linecap="square" stroke-linejoin="round" transform="matrix(2.57961,0,0,2.57961,2.2143,3.04797)"
font-family="Helvetica" font-size="12" font-weight="400" font-style="normal" 
>
<path vector-effect="none" fill-rule="evenodd" d="M280.832,143.997 L271.837,136.128 L265.078,145.789 L261.539,143.313 L269.678,131.679 L270.435,131.01 L271.448,130.758 L272.84,131.334 L272.87,131.292 L283.676,140.746 L280.832,143.997"/>
</g>

<g fill="none" stroke="#000000" stroke-opacity="1" stroke-width="1" stroke-linecap="square" stroke-linejoin="bevel" transform="matrix(2.57961,0,0,2.57961,2.2143,3.04797)"
font-family="Helvetica" font-size="12" font-weight="400" font-style="normal" 
>
</g>

<g fill="none" stroke="#000000" stroke-opacity="1" stroke-width="1" stroke-linecap="square" stroke-linejoin="bevel" transform="matrix(2.57961,0,0,2.57961,2.2143,3.04797)"
font-family="Helvetica" font-size="12" font-weight="400" font-style="normal" 
>
</g>

<g fill="#7762cb" fill-opacity="1" stroke="none" transform="matrix(2.57961,0,0,2.57961,2.2143,3.04797)"
font-family="Helvetica" font-size="12" font-weight="400" font-style="normal" 
>
<path vector-effect="none" fill-rule="nonzero" d="M331.065,160.068 L315.931,156.628 L316.609,153.644 L316.034,156.65 L299.207,153.433 L299.781,150.428 L299.296,153.449 L280.88,150.491 L281.851,144.449 L300.266,147.407 C300.298,147.411 300.328,147.416 300.356,147.422 L300.356,147.422 L317.183,150.639 C317.22,150.645 317.254,150.652 317.288,150.66 L317.287,150.661 L332.422,154.1 L331.065,160.068"/>
</g>

<g fill="none" stroke="#000000" stroke-opacity="1" stroke-width="0.3" stroke-linecap="square" stroke-linejoin="round" transform="matrix(2.57961,0,0,2.57961,2.2143,3.04797)"
font-family="Helvetica" font-size="12" font-weight="400" font-style="normal" 
>
<path vector-effect="none" fill-rule="evenodd" d="M331.065,160.068 L315.982,156.64 L299.251,153.442 L280.88,150.491 L281.851,144.449 L300.266,147.407 L300.312,147.414 L300.356,147.422 L300.356,147.422 L317.183,150.639 L317.237,150.649 L317.288,150.66 L317.287,150.661 L332.422,154.1 L331.065,160.068"/>
</g>

<g fill="none" stroke="#000000" stroke-opacity="1" stroke-width="1" stroke-linecap="square" stroke-linejoin="bevel" transform="matrix(2.57961,0,0,2.57961,2.2143,3.04797)"
font-family="Helvetica" font-size="12" font-weight="400" font-style="normal" 
>
</g>

<g fill="none" stroke="#000000" stroke-opacity="1" stroke-width="1" stroke-linecap="square" stroke-linejoin="bevel" transform="matrix(2.57961,0,0,2.57961,2.2143,3.04797)"
font-family="Helvetica" font-size="12" font-weight="400" font-style="normal" 
>
</g>

<g fill="#62adcb" fill-opacity="1" stroke="none" transform="matrix(2.57961,0,0,2.57961,2.2143,3.04797)"
font-family="Helvetica" font-size="12" font-weight="400" font-style="normal" 
>
<path vector-effect="none" fill-rule="nonzero" d="M360.078,262.568 L348.732,262.502 L348.747,259.819 L360.094,259.885 L360.078,262.568"/>
</g>

<g fill="none" stroke="#000000" stroke-opacity="1" stroke-width="0.3" stroke-linecap="square" stroke-linejoin="round" transform="matrix(2.57961,0,0,2.57961,2.2143,3.04797)"
font-family="Helvetica" font-size="12" font-weight="400" font-style="normal" 
>
<path vector-effect="none" fill-rule="evenodd" d="M360.078,262.568 L348.732,262.502 L348.747,259.819 L360.094,259.885 L360.078,262.568"/>
</g>

<g fill="none" stroke="#000000" stroke-opacity="1" stroke-width="1" stroke-linecap="square" stroke-linejoin="bevel" transform="matrix(2.57961,0,0,2.57961,2.2143,3.04797)"
font-family="Helvetica" font-size="12" font-weight="400" font-style="normal" 
>
</g>

<g fill="none" stroke="#000000" stroke-opacity="1" stroke-width="1" stroke-linecap="square" stroke-linejoin="bevel" transform="matrix(2.57961,0,0,2.57961,2.2143,3.04797)"
font-family="Helvetica" font-size="12" font-weight="400" font-style="normal" 
>
</g>

<g fill="#cb6c62" fill-opacity="1" stroke="none" transform="matrix(2.57961,0,0,2.57961,2.2143,3.04797)"
font-family="Helvetica" font-size="12" font-weight="400" font-style="normal" 
>
<path vector-effect="none" fill-rule="nonzero" d="M276.346,150.184 L271.031,150.792 L270.709,147.982 L276.025,147.374 L276.346,150.184"/>
</g>

<g fill="none" stroke="#000000" stroke-opacity="1" stroke-width="0.3" stroke-linecap="square" stroke-linejoin="round" transform="matrix(2.57961,0,0,2.57961,2.2143,3.04797)"
font-family="Helvetica" font-size="12" font-weight="400" font-style="normal" 
>
<path vector-effect="none" fill-rule="evenodd" d="M276.346,150.184 L271.031,150.792 L270.709,147.982 L276.025,147.374 L276.346,150.184"/>
</g>

<g fill="none" stroke="#000000" stroke-opacity="1" stroke-width="1" stroke-linecap="square" stroke-linejoin="bevel" transform="matrix(2.57961,0,0,2.57961,2.2143,3.04797)"
font-family="Helvetica" font-size="12" font-weight="400" font-style="normal" 
>
</g>

<g fill="none" stroke="#000000" stroke-opacity="1" stroke-width="1" stroke-linecap="square" stroke-linejoin="bevel" transform="matrix(2.57961,0,0,2.57961,2.2143,3.04797)"
font-family="Helvetica" font-size="12" font-weight="400" font-style="normal" 
>
</g>

<g fill="#cba462" fill-opacity="1" stroke="none" transform="matrix(2.57961,0,0,2.57961,2.2143,3.04797)"
font-family="Helvetica" font-size="12" font-weight="400" font-style="normal" 
>
<path vector-effect="none" fill-rule="nonzero" d="M96.234,312.861 L85.6937,312.8 L85.7094,310.11 L96.2497,310.172 L96.234,312.861"/>
</g>

<g fill="none" stroke="#000000" stroke-opacity="1" stroke-width="0.3" stroke-linecap="square" stroke-linejoin="round" transform="matrix(2.57961,0,0,2.57961,2.2143,3.04797)"
font-family="Helvetica" font-size="12" font-weight="400" font-style="normal" 
>
<path vector-effect="none" fill-rule="evenodd" d="M96.234,312.861 L85.6937,312.8 L85.7094,310.11 L96.2497,310.172 L96.234,312.861"/>
</g>

<g fill="none" stroke="#000000" stroke-opacity="1" stroke-width="1" stroke-linecap="square" stroke-linejoin="bevel" transform="matrix(2.57961,0,0,2.57961,2.2143,3.04797)"
font-family="Helvetica" font-size="12" font-weight="400" font-style="normal" 
>
</g>

<g fill="none" stroke="#000000" stroke-opacity="1" stroke-width="1" stroke-linecap="square" stroke-linejoin="bevel" transform="matrix(2.57961,0,0,2.57961,2.2143,3.04797)"
font-family="Helvetica" font-size="12" font-weight="400" font-style="normal" 
>
</g>

<g fill="#65cb62" fill-opacity="1" stroke="none" transform="matrix(2.57961,0,0,2.57961,2.2143,3.04797)"
font-family="Helvetica" font-size="12" font-weight="400" font-style="normal" 
>
<path vector-effect="none" fill-rule="nonzero" d="M27.3281,24.2743 L36.8617,38.6358 L34.5336,40.1813 L36.6519,38.3589 L48.1234,51.6928 L46.005,53.5153 L47.8191,51.3898 L61.7255,63.2586 L59.9114,65.3841 L61.3064,62.9628 L77.5992,72.3497 L76.2042,74.771 L77.0791,72.117 L95.2761,78.1155 L94.4013,80.7695 L94.7105,77.9922 L114.005,80.1404 L113.695,82.9176 L113.472,80.1321 L133.005,78.5675 L133.228,81.353 L132.569,78.6373 L151.72,73.9931 L152.379,76.7088 L151.408,74.0883 L169.908,67.2394 L170.878,69.86 L169.718,67.3179 L187.578,59.1654 L188.738,61.7075 L187.494,59.2054 L204.863,50.5682 C204.864,50.567 204.866,50.5662 204.867,50.5655 L204.868,50.5658 L221.891,42.1412 C221.916,42.1285 221.941,42.1165 221.966,42.105 L221.966,42.1054 L238.684,34.4443 C238.724,34.4249 238.766,34.407 238.808,34.3903 L238.809,34.3907 L255.157,27.8418 C255.207,27.8206 255.259,27.8015 255.312,27.7841 L255.313,27.7844 L271.639,22.3487 L273.404,27.6513 L257.078,33.0871 L256.196,30.4358 L257.235,33.0298 L240.887,39.5787 L239.848,36.9847 L241.012,39.525 L224.295,47.1861 L223.131,44.6457 L224.37,47.1502 L207.346,55.5748 L206.107,53.0703 L207.351,55.5724 L189.982,64.2096 C189.955,64.2239 189.927,64.2372 189.899,64.25 L189.899,64.2496 L172.039,72.4021 C171.977,72.431 171.914,72.4572 171.85,72.481 L171.848,72.4806 L153.349,79.3294 C153.248,79.3675 153.144,79.3993 153.039,79.4249 L153.037,79.4245 L133.887,84.0686 C133.746,84.1034 133.6,84.1268 133.452,84.1385 L133.451,84.1384 L113.919,85.7031 C113.845,85.709 113.771,85.712 113.695,85.712 C113.591,85.712 113.487,85.7062 113.386,85.6951 L113.386,85.6948 L94.0921,83.5467 C93.8956,83.5253 93.7063,83.4835 93.5257,83.424 L93.5264,83.4234 L75.3294,77.4249 C75.146,77.3652 74.9722,77.2869 74.8089,77.1926 L74.8092,77.1923 L58.5164,67.8054 C58.3672,67.7197 58.2271,67.6205 58.0973,67.5097 L58.0973,67.5096 L44.1909,55.6408 C44.0819,55.5477 43.9802,55.4464 43.8867,55.3378 L43.8867,55.3377 L32.4152,42.0038 C32.3397,41.9161 32.2695,41.8237 32.2053,41.7271 L32.2055,41.7268 L22.6719,27.3652 L27.3281,24.2743"/>
</g>

<g fill="none" stroke="#000000" stroke-opacity="1" stroke-width="0.3" stroke-linecap="square" stroke-linejoin="round" transform="matrix(2.57961,0,0,2.57961,2.2143,3.04797)"
font-family="Helvetica" font-size="12" font-weight="400" font-style="normal" 
>
<path vector-effect="none" fill-rule="evenodd" d="M27.3281,24.2743 L36.7654,38.4908 L47.9829,51.5296 L61.5296,63.0914 L77.3511,72.2067 L94.9997,78.0244 L113.739,80.1108 L132.784,78.5851 L151.562,74.0316 L169.812,67.2752 L187.536,59.1847 L204.863,50.5682 L204.865,50.5666 L204.867,50.5655 L204.868,50.5658 L221.891,42.1412 L221.928,42.1226 L221.966,42.105 L221.966,42.1054 L238.684,34.4443 L238.745,34.4163 L238.808,34.3903 L238.809,34.3907 L255.157,27.8418 L255.234,27.8115 L255.312,27.7841 L255.313,27.7844 L271.639,22.3487 L273.404,27.6513 L257.157,33.0607 L240.95,39.5534 L224.333,47.1687 L207.349,55.5736 L189.982,64.2096 L189.941,64.2304 L189.899,64.25 L189.899,64.2496 L172.039,72.4021 L171.945,72.4435 L171.85,72.481 L171.848,72.4806 L153.349,79.3294 L153.196,79.3818 L153.039,79.4249 L153.037,79.4245 L133.887,84.0686 L133.672,84.1122 L133.452,84.1385 L133.451,84.1384 L113.919,85.7031 L113.808,85.7098 L113.695,85.712 L113.539,85.7077 L113.386,85.6951 L113.386,85.6948 L94.0921,83.5467 L93.8029,83.4996 L93.5257,83.424 L93.5264,83.4234 L75.3294,77.4249 L75.0616,77.3217 L74.8089,77.1926 L74.8092,77.1923 L58.5164,67.8054 L58.2996,67.667 L58.0973,67.5097 L58.0973,67.5096 L44.1909,55.6408 L44.033,55.4951 L43.8867,55.3378 L43.8867,55.3377 L32.4152,42.0038 L32.306,41.8688 L32.2053,41.7271 L32.2055,41.7268 L22.6719,27.3652 L27.3281,24.2743"/>
</g>

<g fill="none" stroke="#000000" stroke-opacity="1" stroke-width="1" stroke-linecap="square" stroke-linejoin="bevel" transform="matrix(2.57961,0,0,2.57961,2.2143,3.04797)"
font-family="Helvetica" font-size="12" font-weight="400" font-style="normal" 
>
</g>

<g fill="none" stroke="#000000" stroke-opacity="1" stroke-width="1" stroke-linecap="square" stroke-linejoin="bevel" transform="matrix(2.57961,0,0,2.57961,2.2143,3.04797)"
font-family="Helvetica" font-size="12" font-weight="400" font-style="normal" 
>
</g>

<g fill="#cbc562" fill-opacity="1" stroke="none" transform="matrix(2.57961,0,0,2.57961,2.2143,3.04797)"
font-family="Helvetica" font-size="12" font-weight="400" font-style="normal" 
>
<path vector-effect="none" fill-rule="nonzero" d="M240.747,156.201 L252.204,151.785 L253.069,154.03 L252.202,151.786 L264.696,146.962 L266.429,151.451 L253.935,156.274 C253.935,156.275 253.935,156.275 253.935,156.275 L253.934,156.275 L242.477,160.69 L240.747,156.201"/>
</g>

<g fill="none" stroke="#000000" stroke-opacity="1" stroke-width="0.3" stroke-linecap="square" stroke-linejoin="round" transform="matrix(2.57961,0,0,2.57961,2.2143,3.04797)"
font-family="Helvetica" font-size="12" font-weight="400" font-style="normal" 
>
<path vector-effect="none" fill-rule="evenodd" d="M240.747,156.201 L252.203,151.785 L264.696,146.962 L266.429,151.451 L253.935,156.274 L253.935,156.275 L253.935,156.275 L253.934,156.275 L242.477,160.69 L240.747,156.201"/>
</g>

<g fill="none" stroke="#000000" stroke-opacity="1" stroke-width="1" stroke-linecap="square" stroke-linejoin="bevel" transform="matrix(2.57961,0,0,2.57961,2.2143,3.04797)"
font-family="Helvetica" font-size="12" font-weight="400" font-style="normal" 
>
</g>

<g fill="none" stroke="#000000" stroke-opacity="1" stroke-width="1" stroke-linecap="square" stroke-linejoin="bevel" transform="matrix(2.57961,0,0,2.57961,2.2143,3.04797)"
font-family="Helvetica" font-size="12" font-weight="400" font-style="normal" 
>
</g>

<g fill="#cbb462" fill-opacity="1" stroke="none" transform="matrix(2.57961,0,0,2.57961,2.2143,3.04797)"
font-family="Helvetica" font-size="12" font-weight="400" font-style="normal" 
>
<path vector-effect="none" fill-rule="nonzero" d="M35.6937,312.859 L24.9922,312.797 L25.0078,310.112 L35.7094,310.175 L35.6937,312.859"/>
</g>

<g fill="none" stroke="#000000" stroke-opacity="1" stroke-width="0.3" stroke-linecap="square" stroke-linejoin="round" transform="matrix(2.57961,0,0,2.57961,2.2143,3.04797)"
font-family="Helvetica" font-size="12" font-weight="400" font-style="normal" 
>
<path vector-effect="none" fill-rule="evenodd" d="M35.6937,312.859 L24.9922,312.797 L25.0078,310.112 L35.7094,310.175 L35.6937,312.859"/>
</g>

<g fill="none" stroke="#000000" stroke-opacity="1" stroke-width="1" stroke-linecap="square" stroke-linejoin="bevel" transform="matrix(2.57961,0,0,2.57961,2.2143,3.04797)"
font-family="Helvetica" font-size="12" font-weight="400" font-style="normal" 
>
</g>

<g fill="none" stroke="#000000" stroke-opacity="1" stroke-width="1" stroke-linecap="square" stroke-linejoin="bevel" transform="matrix(2.57961,0,0,2.57961,2.2143,3.04797)"
font-family="Helvetica" font-size="12" font-weight="400" font-style="normal" 
>
</g>

<g fill="#cb6263" fill-opacity="1" stroke="none" transform="matrix(2.57961,0,0,2.57961,2.2143,3.04797)"
font-family="Helvetica" font-size="12" font-weight="400" font-style="normal" 
>
<path vector-effect="none" fill-rule="nonzero" d="M174.021,262.565 L161.599,262.493 L161.614,259.822 L174.037,259.894 L174.021,262.565"/>
</g>

<g fill="none" stroke="#000000" stroke-opacity="1" stroke-width="0.3" stroke-linecap="square" stroke-linejoin="round" transform="matrix(2.57961,0,0,2.57961,2.2143,3.04797)"
font-family="Helvetica" font-size="12" font-weight="400" font-style="normal" 
>
<path vector-effect="none" fill-rule="evenodd" d="M174.021,262.565 L161.599,262.493 L161.614,259.822 L174.037,259.894 L174.021,262.565"/>
</g>

<g fill="none" stroke="#000000" stroke-opacity="1" stroke-width="1" stroke-linecap="square" stroke-linejoin="bevel" transform="matrix(2.57961,0,0,2.57961,2.2143,3.04797)"
font-family="Helvetica" font-size="12" font-weight="400" font-style="normal" 
>
</g>

<g fill="none" stroke="#000000" stroke-opacity="1" stroke-width="1" stroke-linecap="square" stroke-linejoin="bevel" transform="matrix(2.57961,0,0,2.57961,2.2143,3.04797)"
font-family="Helvetica" font-size="12" font-weight="400" font-style="normal" 
>
</g>

<g fill="#cb7562" fill-opacity="1" stroke="none" transform="matrix(2.57961,0,0,2.57961,2.2143,3.04797)"
font-family="Helvetica" font-size="12" font-weight="400" font-style="normal" 
>
<path vector-effect="none" fill-rule="nonzero" d="M457.163,312.862 L447.214,312.804 L447.23,310.11 L457.179,310.168 L457.163,312.862"/>
</g>

<g fill="none" stroke="#000000" stroke-opacity="1" stroke-width="0.3" stroke-linecap="square" stroke-linejoin="round" transform="matrix(2.57961,0,0,2.57961,2.2143,3.04797)"
font-family="Helvetica" font-size="12" font-weight="400" font-style="normal" 
>
<path vector-effect="none" fill-rule="evenodd" d="M457.163,312.862 L447.214,312.804 L447.23,310.11 L457.179,310.168 L457.163,312.862"/>
</g>

<g fill="none" stroke="#000000" stroke-opacity="1" stroke-width="1" stroke-linecap="square" stroke-linejoin="bevel" transform="matrix(2.57961,0,0,2.57961,2.2143,3.04797)"
font-family="Helvetica" font-size="12" font-weight="400" font-style="normal" 
>
</g>

<g fill="none" stroke="#000000" stroke-opacity="1" stroke-width="1" stroke-linecap="square" stroke-linejoin="bevel" transform="matrix(2.57961,0,0,2.57961,2.2143,3.04797)"
font-family="Helvetica" font-size="12" font-weight="400" font-style="normal" 
>
</g>

<g fill="#629acb" fill-opacity="1" stroke="none" transform="matrix(2.57961,0,0,2.57961,2.2143,3.04797)"
font-family="Helvetica" font-size="12" font-weight="400" font-style="normal" 
>
<path vector-effect="none" fill-rule="nonzero" d="M482.261,262.555 L471.237,262.491 L471.253,259.832 L482.277,259.896 L482.261,262.555"/>
</g>

<g fill="none" stroke="#000000" stroke-opacity="1" stroke-width="0.3" stroke-linecap="square" stroke-linejoin="round" transform="matrix(2.57961,0,0,2.57961,2.2143,3.04797)"
font-family="Helvetica" font-size="12" font-weight="400" font-style="normal" 
>
<path vector-effect="none" fill-rule="evenodd" d="M482.261,262.555 L471.237,262.491 L471.253,259.832 L482.277,259.896 L482.261,262.555"/>
</g>

<g fill="none" stroke="#000000" stroke-opacity="1" stroke-width="1" stroke-linecap="square" stroke-linejoin="bevel" transform="matrix(2.57961,0,0,2.57961,2.2143,3.04797)"
font-family="Helvetica" font-size="12" font-weight="400" font-style="normal" 
>
</g>

<g fill="none" stroke="#000000" stroke-opacity="1" stroke-width="1" stroke-linecap="square" stroke-linejoin="bevel" transform="matrix(2.57961,0,0,2.57961,2.2143,3.04797)"
font-family="Helvetica" font-size="12" font-weight="400" font-style="normal" 
>
</g>

<g fill="#cb629b" fill-opacity="1" stroke="none" transform="matrix(2.57961,0,0,2.57961,2.2143,3.04797)"
font-family="Helvetica" font-size="12" font-weight="400" font-style="normal" 
>
<path vector-effect="none" fill-rule="nonzero" d="M24.9209,206.558 L42.5084,206.055 C42.519,206.055 42.5296,206.055 42.54,206.055 L42.5402,206.055 L60.6288,205.745 C60.6412,205.745 60.6537,205.745 60.666,205.745 L60.6661,205.745 L79.2791,205.677 C79.2824,205.677 79.2858,205.677 79.2891,205.677 C80.8179,205.677 82.0572,206.917 82.0572,208.445 C82.0572,209.974 80.8179,211.214 79.2891,211.214 C77.7604,211.214 76.5211,209.974 76.5211,208.445 C76.5211,206.934 77.7325,205.705 79.2372,205.678 L79.3207,205.678 L98.1208,205.892 C98.1355,205.892 98.1501,205.892 98.1643,205.893 L98.1643,205.893 L116.77,206.398 C116.785,206.398 116.799,206.399 116.813,206.399 L116.813,206.399 L134.888,207.168 C134.902,207.169 134.915,207.169 134.927,207.17 L134.927,207.17 L152.494,208.169 L152.179,213.696 L134.613,212.697 L134.77,209.934 L134.653,212.699 L116.578,211.93 L116.695,209.165 L116.62,211.932 L98.0141,211.427 L98.0892,208.66 L98.0576,211.428 L79.2576,211.213 L79.2891,208.445 L79.2992,211.213 L60.6862,211.281 L60.6762,208.513 L60.7235,211.281 L42.6348,211.59 L42.5875,208.822 L42.6666,211.589 L25.0791,212.092 L24.9209,206.558"/>
</g>

<g fill="none" stroke="#000000" stroke-opacity="1" stroke-width="0.3" stroke-linecap="square" stroke-linejoin="round" transform="matrix(2.57961,0,0,2.57961,2.2143,3.04797)"
font-family="Helvetica" font-size="12" font-weight="400" font-style="normal" 
>
<path vector-effect="none" fill-rule="evenodd" d="M24.9209,206.558 L42.5084,206.055 L42.5243,206.055 L42.54,206.055 L42.5402,206.055 L60.6288,205.745 L60.6474,205.745 L60.666,205.745 L60.6661,205.745 L79.2791,205.677 L79.2841,205.677 L79.2891,205.677 L79.2898,205.678 L79.3207,205.678 L98.1208,205.892 L98.1427,205.892 L98.1643,205.893 L98.1643,205.893 L116.77,206.398 L116.792,206.398 L116.813,206.399 L116.813,206.399 L134.888,207.168 L134.908,207.169 L134.927,207.17 L134.927,207.17 L152.494,208.169 L152.179,213.696 L134.633,212.698 L116.599,211.931 L98.0359,211.428 L79.2784,211.214 L60.7048,211.281 L42.6507,211.59 L25.0791,212.092 L24.9209,206.558"/>
</g>

<g fill="none" stroke="#000000" stroke-opacity="1" stroke-width="1" stroke-linecap="square" stroke-linejoin="bevel" transform="matrix(2.57961,0,0,2.57961,2.2143,3.04797)"
font-family="Helvetica" font-size="12" font-weight="400" font-style="normal" 
>
</g>

<g fill="none" stroke="#000000" stroke-opacity="1" stroke-width="1" stroke-linecap="square" stroke-linejoin="bevel" transform="matrix(2.57961,0,0,2.57961,2.2143,3.04797)"
font-family="Helvetica" font-size="12" font-weight="400" font-style="normal" 
>
</g>

<g fill="#62cba4" fill-opacity="1" stroke="none" transform="matrix(2.57961,0,0,2.57961,2.2143,3.04797)"
font-family="Helvetica" font-size="12" font-weight="400" font-style="normal" 
>
<path vector-effect="none" fill-rule="nonzero" d="M111.599,262.565 L97.6975,262.484 L97.7131,259.822 L111.614,259.903 L111.599,262.565"/>
</g>

<g fill="none" stroke="#000000" stroke-opacity="1" stroke-width="0.3" stroke-linecap="square" stroke-linejoin="round" transform="matrix(2.57961,0,0,2.57961,2.2143,3.04797)"
font-family="Helvetica" font-size="12" font-weight="400" font-style="normal" 
>
<path vector-effect="none" fill-rule="evenodd" d="M111.599,262.565 L97.6975,262.484 L97.7131,259.822 L111.614,259.903 L111.599,262.565"/>
</g>

<g fill="none" stroke="#000000" stroke-opacity="1" stroke-width="1" stroke-linecap="square" stroke-linejoin="bevel" transform="matrix(2.57961,0,0,2.57961,2.2143,3.04797)"
font-family="Helvetica" font-size="12" font-weight="400" font-style="normal" 
>
</g>

<g fill="none" stroke="#000000" stroke-opacity="1" stroke-width="1" stroke-linecap="square" stroke-linejoin="bevel" transform="matrix(2.57961,0,0,2.57961,2.2143,3.04797)"
font-family="Helvetica" font-size="12" font-weight="400" font-style="normal" 
>
</g>

<g fill="#62cbb7" fill-opacity="1" stroke="none" transform="matrix(2.57961,0,0,2.57961,2.2143,3.04797)"
font-family="Helvetica" font-size="12" font-weight="400" font-style="normal" 
>
<path vector-effect="none" fill-rule="nonzero" d="M337.239,312.862 L327.263,312.804 L327.279,310.11 L337.254,310.168 L337.239,312.862"/>
</g>

<g fill="none" stroke="#000000" stroke-opacity="1" stroke-width="0.3" stroke-linecap="square" stroke-linejoin="round" transform="matrix(2.57961,0,0,2.57961,2.2143,3.04797)"
font-family="Helvetica" font-size="12" font-weight="400" font-style="normal" 
>
<path vector-effect="none" fill-rule="evenodd" d="M337.239,312.862 L327.263,312.804 L327.279,310.11 L337.254,310.168 L337.239,312.862"/>
</g>

<g fill="none" stroke="#000000" stroke-opacity="1" stroke-width="1" stroke-linecap="square" stroke-linejoin="bevel" transform="matrix(2.57961,0,0,2.57961,2.2143,3.04797)"
font-family="Helvetica" font-size="12" font-weight="400" font-style="normal" 
>
</g>

<g fill="none" stroke="#000000" stroke-opacity="1" stroke-width="1" stroke-linecap="square" stroke-linejoin="bevel" transform="matrix(2.57961,0,0,2.57961,2.2143,3.04797)"
font-family="Helvetica" font-size="12" font-weight="400" font-style="normal" 
>
</g>

<g fill="#cb6269" fill-opacity="1" stroke="none" transform="matrix(2.57961,0,0,2.57961,2.2143,3.04797)"
font-family="Helvetica" font-size="12" font-weight="400" font-style="normal" 
>
<path vector-effect="none" fill-rule="nonzero" d="M421.237,262.565 L410.078,262.5 L410.094,259.822 L421.253,259.887 L421.237,262.565"/>
</g>

<g fill="none" stroke="#000000" stroke-opacity="1" stroke-width="0.3" stroke-linecap="square" stroke-linejoin="round" transform="matrix(2.57961,0,0,2.57961,2.2143,3.04797)"
font-family="Helvetica" font-size="12" font-weight="400" font-style="normal" 
>
<path vector-effect="none" fill-rule="evenodd" d="M421.237,262.565 L410.078,262.5 L410.094,259.822 L421.253,259.887 L421.237,262.565"/>
</g>

<g fill="none" stroke="#000000" stroke-opacity="1" stroke-width="1" stroke-linecap="square" stroke-linejoin="bevel" transform="matrix(2.57961,0,0,2.57961,2.2143,3.04797)"
font-family="Helvetica" font-size="12" font-weight="400" font-style="normal" 
>
</g>

<g fill="none" stroke="#000000" stroke-opacity="1" stroke-width="1" stroke-linecap="square" stroke-linejoin="bevel" transform="matrix(2.57961,0,0,2.57961,2.2143,3.04797)"
font-family="Helvetica" font-size="12" font-weight="400" font-style="normal" 
>
</g>

<g fill="#62cb81" fill-opacity="1" stroke="none" transform="matrix(2.57961,0,0,2.57961,2.2143,3.04797)"
font-family="Helvetica" font-size="12" font-weight="400" font-style="normal" 
>
<path vector-effect="none" fill-rule="nonzero" d="M34.8602,362.922 L24.9921,362.865 L25.0079,360.169 L34.8759,360.227 L34.8602,362.922"/>
</g>

<g fill="none" stroke="#000000" stroke-opacity="1" stroke-width="0.3" stroke-linecap="square" stroke-linejoin="round" transform="matrix(2.57961,0,0,2.57961,2.2143,3.04797)"
font-family="Helvetica" font-size="12" font-weight="400" font-style="normal" 
>
<path vector-effect="none" fill-rule="evenodd" d="M34.8602,362.922 L24.9921,362.865 L25.0079,360.169 L34.8759,360.227 L34.8602,362.922"/>
</g>

<g fill="none" stroke="#000000" stroke-opacity="1" stroke-width="1" stroke-linecap="square" stroke-linejoin="bevel" transform="matrix(2.57961,0,0,2.57961,2.2143,3.04797)"
font-family="Helvetica" font-size="12" font-weight="400" font-style="normal" 
>
</g>

<g fill="none" stroke="#000000" stroke-opacity="1" stroke-width="1" stroke-linecap="square" stroke-linejoin="bevel" transform="matrix(2.57961,0,0,2.57961,2.2143,3.04797)"
font-family="Helvetica" font-size="12" font-weight="400" font-style="normal" 
>
</g>

<g fill="#cb629d" fill-opacity="1" stroke="none" transform="matrix(2.57961,0,0,2.57961,2.2143,3.04797)"
font-family="Helvetica" font-size="12" font-weight="400" font-style="normal" 
>
<path vector-effect="none" fill-rule="nonzero" d="M361.576,207.753 L379.257,206.855 C379.272,206.854 379.287,206.854 379.302,206.853 L379.302,206.853 L397.47,206.219 C397.487,206.218 397.504,206.218 397.52,206.217 L397.521,206.217 L416.099,205.896 C416.115,205.895 416.132,205.895 416.149,205.895 C417.732,205.895 419.015,207.179 419.015,208.762 C419.015,210.345 417.732,211.629 416.149,211.629 C414.565,211.629 413.282,210.345 413.282,208.762 C413.282,207.213 414.51,205.951 416.046,205.897 L416.151,205.895 L434.732,205.913 C434.749,205.913 434.766,205.914 434.783,205.914 L434.783,205.914 L452.959,206.254 C452.975,206.255 452.99,206.255 453.005,206.256 L453.005,206.256 L470.698,206.872 L470.498,212.603 L452.805,211.986 L452.905,209.121 L452.851,211.987 L434.676,211.647 L434.729,208.78 L434.727,211.647 L416.146,211.629 L416.149,208.762 L416.198,211.629 L397.62,211.95 L397.57,209.084 L397.67,211.949 L379.503,212.583 L379.402,209.718 L379.548,212.581 L361.867,213.479 L361.576,207.753"/>
</g>

<g fill="none" stroke="#000000" stroke-opacity="1" stroke-width="0.3" stroke-linecap="square" stroke-linejoin="round" transform="matrix(2.57961,0,0,2.57961,2.2143,3.04797)"
font-family="Helvetica" font-size="12" font-weight="400" font-style="normal" 
>
<path vector-effect="none" fill-rule="evenodd" d="M361.576,207.753 L379.257,206.855 L379.28,206.854 L379.302,206.853 L379.302,206.853 L397.47,206.219 L397.495,206.218 L397.52,206.217 L397.521,206.217 L416.099,205.896 L416.124,205.895 L416.149,205.895 L416.149,205.895 L416.151,205.895 L434.732,205.913 L434.758,205.913 L434.783,205.914 L434.783,205.914 L452.959,206.254 L452.982,206.255 L453.005,206.256 L453.005,206.256 L470.698,206.872 L470.498,212.603 L452.828,211.987 L434.701,211.647 L416.172,211.629 L397.645,211.95 L379.525,212.583 L361.867,213.479 L361.576,207.753"/>
</g>

<g fill="none" stroke="#000000" stroke-opacity="1" stroke-width="1" stroke-linecap="square" stroke-linejoin="bevel" transform="matrix(2.57961,0,0,2.57961,2.2143,3.04797)"
font-family="Helvetica" font-size="12" font-weight="400" font-style="normal" 
>
</g>

<g fill="none" stroke="#000000" stroke-opacity="1" stroke-width="1" stroke-linecap="square" stroke-linejoin="bevel" transform="matrix(2.57961,0,0,2.57961,2.2143,3.04797)"
font-family="Helvetica" font-size="12" font-weight="400" font-style="normal" 
>
</g>

<g fill="#cb628a" fill-opacity="1" stroke="none" transform="matrix(2.57961,0,0,2.57961,2.2143,3.04797)"
font-family="Helvetica" font-size="12" font-weight="400" font-style="normal" 
>
<path vector-effect="none" fill-rule="nonzero" d="M236.39,262.566 L224.021,262.494 L224.037,259.821 L236.405,259.893 L236.39,262.566"/>
</g>

<g fill="none" stroke="#000000" stroke-opacity="1" stroke-width="0.3" stroke-linecap="square" stroke-linejoin="round" transform="matrix(2.57961,0,0,2.57961,2.2143,3.04797)"
font-family="Helvetica" font-size="12" font-weight="400" font-style="normal" 
>
<path vector-effect="none" fill-rule="evenodd" d="M236.39,262.566 L224.021,262.494 L224.037,259.821 L236.405,259.893 L236.39,262.566"/>
</g>

<g fill="none" stroke="#000000" stroke-opacity="1" stroke-width="1" stroke-linecap="square" stroke-linejoin="bevel" transform="matrix(2.57961,0,0,2.57961,2.2143,3.04797)"
font-family="Helvetica" font-size="12" font-weight="400" font-style="normal" 
>
</g>

<g fill="none" stroke="#000000" stroke-opacity="1" stroke-width="1" stroke-linecap="square" stroke-linejoin="bevel" transform="matrix(2.57961,0,0,2.57961,2.2143,3.04797)"
font-family="Helvetica" font-size="12" font-weight="400" font-style="normal" 
>
</g>

<g fill="#cb6c62" fill-opacity="1" stroke="none" transform="matrix(2.57961,0,0,2.57961,2.2143,3.04797)"
font-family="Helvetica" font-size="12" font-weight="400" font-style="normal" 
>
<path vector-effect="none" fill-rule="nonzero" d="M24.1477,151.665 L41.1358,145.513 C41.1929,145.492 41.2515,145.473 41.3104,145.457 L41.3116,145.457 L59.1995,140.436 C59.2665,140.417 59.3352,140.4 59.4041,140.387 L59.4053,140.387 L78.3131,136.768 C78.3886,136.753 78.4658,136.742 78.5433,136.735 L78.5442,136.735 L98.1192,134.853 C98.1979,134.845 98.2779,134.841 98.3588,134.841 C99.7412,134.841 100.862,135.962 100.862,137.344 C100.862,138.727 99.7412,139.847 98.3588,139.847 C96.9764,139.847 95.8557,138.727 95.8557,137.344 C95.8557,136.127 96.7254,135.112 97.8767,134.888 L98.3628,134.841 L118.162,134.873 C118.244,134.873 118.325,134.877 118.403,134.885 L118.403,134.885 L137.976,136.808 C138.052,136.816 138.127,136.826 138.2,136.84 L138.199,136.841 L157.112,140.443 C157.18,140.455 157.245,140.47 157.308,140.488 L157.308,140.488 L175.224,145.415 C175.28,145.43 175.335,145.447 175.388,145.466 L175.388,145.466 L192.44,151.442 L190.784,156.166 L173.732,150.191 L174.56,147.828 L173.896,150.242 L155.98,145.315 L156.644,142.902 L156.176,145.361 L137.262,141.758 L137.731,139.299 L137.486,141.79 L117.914,139.867 L118.158,137.376 L118.154,139.879 L98.3548,139.847 L98.3588,137.344 L98.5983,139.836 L79.0233,141.718 L78.7837,139.226 L79.2544,141.685 L60.3466,145.304 L59.876,142.846 L60.5524,145.256 L42.6645,150.277 L41.988,147.867 L42.8403,150.22 L25.8523,156.372 L24.1477,151.665"/>
</g>

<g fill="none" stroke="#000000" stroke-opacity="1" stroke-width="0.3" stroke-linecap="square" stroke-linejoin="round" transform="matrix(2.57961,0,0,2.57961,2.2143,3.04797)"
font-family="Helvetica" font-size="12" font-weight="400" font-style="normal" 
>
<path vector-effect="none" fill-rule="evenodd" d="M24.1477,151.665 L41.1358,145.513 L41.2224,145.483 L41.3104,145.457 L41.3116,145.457 L59.1995,140.436 L59.3011,140.409 L59.4041,140.387 L59.4053,140.387 L78.3131,136.768 L78.4274,136.748 L78.5433,136.735 L78.5442,136.735 L98.1192,134.853 L98.2382,134.844 L98.3588,134.841 L98.3595,134.842 L98.3628,134.841 L118.162,134.873 L118.284,134.876 L118.403,134.885 L118.403,134.885 L137.976,136.808 L138.089,136.822 L138.2,136.84 L138.199,136.841 L157.112,140.443 L157.212,140.464 L157.308,140.488 L157.308,140.488 L175.224,145.415 L175.307,145.439 L175.388,145.466 L175.388,145.466 L192.44,151.442 L190.784,156.166 L173.813,150.219 L156.077,145.342 L137.374,141.779 L118.034,139.879 L98.4768,139.848 L79.1396,141.707 L60.4505,145.284 L42.7534,150.252 L25.8523,156.372 L24.1477,151.665"/>
</g>

<g fill="none" stroke="#000000" stroke-opacity="1" stroke-width="1" stroke-linecap="square" stroke-linejoin="bevel" transform="matrix(2.57961,0,0,2.57961,2.2143,3.04797)"
font-family="Helvetica" font-size="12" font-weight="400" font-style="normal" 
>
</g>

<g fill="none" stroke="#000000" stroke-opacity="1" stroke-width="1" stroke-linecap="square" stroke-linejoin="bevel" transform="matrix(2.57961,0,0,2.57961,2.2143,3.04797)"
font-family="Helvetica" font-size="12" font-weight="400" font-style="normal" 
>
</g>

<g fill="#62bbcb" fill-opacity="1" stroke="none" transform="matrix(2.57961,0,0,2.57961,2.2143,3.04797)"
font-family="Helvetica" font-size="12" font-weight="400" font-style="normal" 
>
<path vector-effect="none" fill-rule="nonzero" d="M217.153,312.86 L206.72,312.799 L206.736,310.112 L217.169,310.173 L217.153,312.86"/>
</g>

<g fill="none" stroke="#000000" stroke-opacity="1" stroke-width="0.3" stroke-linecap="square" stroke-linejoin="round" transform="matrix(2.57961,0,0,2.57961,2.2143,3.04797)"
font-family="Helvetica" font-size="12" font-weight="400" font-style="normal" 
>
<path vector-effect="none" fill-rule="evenodd" d="M217.153,312.86 L206.72,312.799 L206.736,310.112 L217.169,310.173 L217.153,312.86"/>
</g>

<g fill="none" stroke="#000000" stroke-opacity="1" stroke-width="1" stroke-linecap="square" stroke-linejoin="bevel" transform="matrix(2.57961,0,0,2.57961,2.2143,3.04797)"
font-family="Helvetica" font-size="12" font-weight="400" font-style="normal" 
>
</g>

<g fill="none" stroke="#000000" stroke-opacity="1" stroke-width="1" stroke-linecap="square" stroke-linejoin="bevel" transform="matrix(2.57961,0,0,2.57961,2.2143,3.04797)"
font-family="Helvetica" font-size="12" font-weight="400" font-style="normal" 
>
</g>

<g fill="#6277cb" fill-opacity="1" stroke="none" transform="matrix(2.57961,0,0,2.57961,2.2143,3.04797)"
font-family="Helvetica" font-size="12" font-weight="400" font-style="normal" 
>
<path vector-effect="none" fill-rule="nonzero" d="M397.214,312.855 L387.239,312.797 L387.254,310.116 L397.23,310.174 L397.214,312.855"/>
</g>

<g fill="none" stroke="#000000" stroke-opacity="1" stroke-width="0.3" stroke-linecap="square" stroke-linejoin="round" transform="matrix(2.57961,0,0,2.57961,2.2143,3.04797)"
font-family="Helvetica" font-size="12" font-weight="400" font-style="normal" 
>
<path vector-effect="none" fill-rule="evenodd" d="M397.214,312.855 L387.239,312.797 L387.254,310.116 L397.23,310.174 L397.214,312.855"/>
</g>

<g fill="none" stroke="#000000" stroke-opacity="1" stroke-width="1" stroke-linecap="square" stroke-linejoin="bevel" transform="matrix(2.57961,0,0,2.57961,2.2143,3.04797)"
font-family="Helvetica" font-size="12" font-weight="400" font-style="normal" 
>
</g>

<g fill="none" stroke="#000000" stroke-opacity="1" stroke-width="1" stroke-linecap="square" stroke-linejoin="bevel" transform="matrix(2.57961,0,0,2.57961,2.2143,3.04797)"
font-family="Helvetica" font-size="12" font-weight="400" font-style="normal" 
>
</g>

<g fill="#9462cb" fill-opacity="1" stroke="none" transform="matrix(2.57961,0,0,2.57961,2.2143,3.04797)"
font-family="Helvetica" font-size="12" font-weight="400" font-style="normal" 
>
<path vector-effect="none" fill-rule="nonzero" d="M94.5937,362.922 L84.8602,362.865 L84.8759,360.169 L94.6095,360.226 L94.5937,362.922"/>
</g>

<g fill="none" stroke="#000000" stroke-opacity="1" stroke-width="0.3" stroke-linecap="square" stroke-linejoin="round" transform="matrix(2.57961,0,0,2.57961,2.2143,3.04797)"
font-family="Helvetica" font-size="12" font-weight="400" font-style="normal" 
>
<path vector-effect="none" fill-rule="evenodd" d="M94.5937,362.922 L84.8602,362.865 L84.8759,360.169 L94.6095,360.226 L94.5937,362.922"/>
</g>

<g fill="none" stroke="#000000" stroke-opacity="1" stroke-width="1" stroke-linecap="square" stroke-linejoin="bevel" transform="matrix(2.57961,0,0,2.57961,2.2143,3.04797)"
font-family="Helvetica" font-size="12" font-weight="400" font-style="normal" 
>
</g>

<g fill="none" stroke="#000000" stroke-opacity="1" stroke-width="1" stroke-linecap="square" stroke-linejoin="bevel" transform="matrix(2.57961,0,0,2.57961,2.2143,3.04797)"
font-family="Helvetica" font-size="12" font-weight="400" font-style="normal" 
>
</g>

<g fill="#cb6298" fill-opacity="1" stroke="none" transform="matrix(2.57961,0,0,2.57961,2.2143,3.04797)"
font-family="Helvetica" font-size="12" font-weight="400" font-style="normal" 
>
<path vector-effect="none" fill-rule="nonzero" d="M277.263,312.862 L267.153,312.803 L267.169,310.109 L277.279,310.168 L277.263,312.862"/>
</g>

<g fill="none" stroke="#000000" stroke-opacity="1" stroke-width="0.3" stroke-linecap="square" stroke-linejoin="round" transform="matrix(2.57961,0,0,2.57961,2.2143,3.04797)"
font-family="Helvetica" font-size="12" font-weight="400" font-style="normal" 
>
<path vector-effect="none" fill-rule="evenodd" d="M277.263,312.862 L267.153,312.803 L267.169,310.109 L277.279,310.168 L277.263,312.862"/>
</g>

<g fill="none" stroke="#000000" stroke-opacity="1" stroke-width="1" stroke-linecap="square" stroke-linejoin="bevel" transform="matrix(2.57961,0,0,2.57961,2.2143,3.04797)"
font-family="Helvetica" font-size="12" font-weight="400" font-style="normal" 
>
</g>

<g fill="none" stroke="#000000" stroke-opacity="1" stroke-width="1" stroke-linecap="square" stroke-linejoin="bevel" transform="matrix(2.57961,0,0,2.57961,2.2143,3.04797)"
font-family="Helvetica" font-size="12" font-weight="400" font-style="normal" 
>
</g>

<g fill="#62cb78" fill-opacity="1" stroke="none" transform="matrix(2.57961,0,0,2.57961,2.2143,3.04797)"
font-family="Helvetica" font-size="12" font-weight="400" font-style="normal" 
>
<path vector-effect="none" fill-rule="nonzero" d="M47.7412,262.564 L36.3844,262.855 C36.3725,262.855 36.3605,262.855 36.3485,262.855 C36.3268,262.855 36.3053,262.855 36.2841,262.854 L36.2841,262.854 L24.9356,262.332 L25.0644,259.533 L36.4129,260.055 L36.3485,261.455 L36.3126,260.054 L47.6694,259.763 L47.7412,262.564"/>
</g>

<g fill="none" stroke="#000000" stroke-opacity="1" stroke-width="0.3" stroke-linecap="square" stroke-linejoin="round" transform="matrix(2.57961,0,0,2.57961,2.2143,3.04797)"
font-family="Helvetica" font-size="12" font-weight="400" font-style="normal" 
>
<path vector-effect="none" fill-rule="evenodd" d="M47.7412,262.564 L36.3844,262.855 L36.3665,262.855 L36.3485,262.855 L36.3161,262.855 L36.2841,262.854 L36.2841,262.854 L24.9356,262.332 L25.0644,259.533 L36.3628,260.053 L47.6694,259.763 L47.7412,262.564"/>
</g>

<g fill="none" stroke="#000000" stroke-opacity="1" stroke-width="1" stroke-linecap="square" stroke-linejoin="bevel" transform="matrix(2.57961,0,0,2.57961,2.2143,3.04797)"
font-family="Helvetica" font-size="12" font-weight="400" font-style="normal" 
>
</g>

<g fill="none" stroke="#000000" stroke-opacity="1" stroke-width="1" stroke-linecap="square" stroke-linejoin="bevel" transform="matrix(2.57961,0,0,2.57961,2.2143,3.04797)"
font-family="Helvetica" font-size="12" font-weight="400" font-style="normal" 
>
</g>

<g fill="#8162cb" fill-opacity="1" stroke="none" transform="matrix(2.57961,0,0,2.57961,2.2143,3.04797)"
font-family="Helvetica" font-size="12" font-weight="400" font-style="normal" 
>
<path vector-effect="none" fill-rule="nonzero" d="M298.732,262.567 L286.39,262.495 L286.405,259.82 L298.747,259.892 L298.732,262.567"/>
</g>

<g fill="none" stroke="#000000" stroke-opacity="1" stroke-width="0.3" stroke-linecap="square" stroke-linejoin="round" transform="matrix(2.57961,0,0,2.57961,2.2143,3.04797)"
font-family="Helvetica" font-size="12" font-weight="400" font-style="normal" 
>
<path vector-effect="none" fill-rule="evenodd" d="M298.732,262.567 L286.39,262.495 L286.405,259.82 L298.747,259.892 L298.732,262.567"/>
</g>

<g fill="none" stroke="#000000" stroke-opacity="1" stroke-width="1" stroke-linecap="square" stroke-linejoin="bevel" transform="matrix(2.57961,0,0,2.57961,2.2143,3.04797)"
font-family="Helvetica" font-size="12" font-weight="400" font-style="normal" 
>
</g>

<g fill="none" stroke="#000000" stroke-opacity="1" stroke-width="1" stroke-linecap="square" stroke-linejoin="bevel" transform="matrix(2.57961,0,0,2.57961,2.2143,3.04797)"
font-family="Helvetica" font-size="12" font-weight="400" font-style="normal" 
>
</g>

<g fill="#62cb67" fill-opacity="1" stroke="none" transform="matrix(2.57961,0,0,2.57961,2.2143,3.04797)"
font-family="Helvetica" font-size="12" font-weight="400" font-style="normal" 
>
<path vector-effect="none" fill-rule="nonzero" d="M156.72,312.854 L146.234,312.792 L146.25,310.118 L156.736,310.179 L156.72,312.854"/>
</g>

<g fill="none" stroke="#000000" stroke-opacity="1" stroke-width="0.3" stroke-linecap="square" stroke-linejoin="round" transform="matrix(2.57961,0,0,2.57961,2.2143,3.04797)"
font-family="Helvetica" font-size="12" font-weight="400" font-style="normal" 
>
<path vector-effect="none" fill-rule="evenodd" d="M156.72,312.854 L146.234,312.792 L146.25,310.118 L156.736,310.179 L156.72,312.854"/>
</g>

<g fill="none" stroke="#000000" stroke-opacity="1" stroke-width="1" stroke-linecap="square" stroke-linejoin="bevel" transform="matrix(2.57961,0,0,2.57961,2.2143,3.04797)"
font-family="Helvetica" font-size="12" font-weight="400" font-style="normal" 
>
</g>

<g fill="none" stroke="#000000" stroke-opacity="1" stroke-width="1" stroke-linecap="square" stroke-linejoin="bevel" transform="matrix(1,0,0,1,0,0)"
font-family="Helvetica" font-size="12" font-weight="400" font-style="normal" 
>
</g>
</g>
</svg>
