<?xml version="1.0" encoding="UTF-8" standalone="no"?>
<svg width="445.206mm" height="352.778mm"
 viewBox="0 0 1262 1000"
 xmlns="http://www.w3.org/2000/svg" xmlns:xlink="http://www.w3.org/1999/xlink"  version="1.2" baseProfile="tiny">
<title>Qt SVG Document</title>
<desc>Generated with Qt</desc>
<defs>
</defs>
<g fill="none" stroke="black" stroke-width="1" fill-rule="evenodd" stroke-linecap="square" stroke-linejoin="bevel" >

<g fill="#ffffff" fill-opacity="1" stroke="none" transform="matrix(1,0,0,1,0,0)"
font-family="Helvetica" font-size="12" font-weight="400" font-style="normal" 
>
<rect x="0" y="0" width="1262" height="1000"/>
</g>

<g fill="none" stroke="#000000" stroke-opacity="1" stroke-width="1" stroke-linecap="square" stroke-linejoin="bevel" transform="matrix(1,0,0,1,0,0)"
font-family="Helvetica" font-size="12" font-weight="400" font-style="normal" 
>
</g>

<g fill="none" stroke="#000000" stroke-opacity="1" stroke-width="1" stroke-linecap="square" stroke-linejoin="bevel" transform="matrix(1,0,0,1,0,0)"
font-family="Helvetica" font-size="12" font-weight="400" font-style="normal" 
>
</g>

<g fill="none" stroke="#000000" stroke-opacity="1" stroke-width="1" stroke-linecap="square" stroke-linejoin="bevel" transform="matrix(2.49385,0,0,2.49385,0.65787,1.20164)"
font-family="Helvetica" font-size="12" font-weight="400" font-style="normal" 
>
</g>

<g fill="none" stroke="#000000" stroke-opacity="0.705882" stroke-width="1.5" stroke-linecap="round" stroke-linejoin="bevel" transform="matrix(2.49385,0,0,2.49385,0.65787,1.20164)"
font-family="Helvetica" font-size="12" font-weight="400" font-style="normal" 
>
<path vector-effect="none" fill-rule="evenodd" d="M295.987,145.92 C298.53,146.403 293.144,149.305 295.085,151.018 "/>
</g>

<g fill="none" stroke="#000000" stroke-opacity="1" stroke-width="1" stroke-linecap="square" stroke-linejoin="bevel" transform="matrix(2.49385,0,0,2.49385,0.65787,1.20164)"
font-family="Helvetica" font-size="12" font-weight="400" font-style="normal" 
>
</g>

<g fill="none" stroke="#000000" stroke-opacity="1" stroke-width="1" stroke-linecap="square" stroke-linejoin="bevel" transform="matrix(2.49385,0,0,2.49385,0.65787,1.20164)"
font-family="Helvetica" font-size="12" font-weight="400" font-style="normal" 
>
</g>

<g fill="none" stroke="#000000" stroke-opacity="0.705882" stroke-width="1.5" stroke-linecap="round" stroke-linejoin="bevel" transform="matrix(2.49385,0,0,2.49385,0.65787,1.20164)"
font-family="Helvetica" font-size="12" font-weight="400" font-style="normal" 
>
<path vector-effect="none" fill-rule="evenodd" d="M295.987,145.92 C298.611,146.418 298.523,144.952 301.178,144.658 "/>
</g>

<g fill="none" stroke="#000000" stroke-opacity="1" stroke-width="1" stroke-linecap="square" stroke-linejoin="bevel" transform="matrix(2.49385,0,0,2.49385,0.65787,1.20164)"
font-family="Helvetica" font-size="12" font-weight="400" font-style="normal" 
>
</g>

<g fill="none" stroke="#000000" stroke-opacity="1" stroke-width="1" stroke-linecap="square" stroke-linejoin="bevel" transform="matrix(2.49385,0,0,2.49385,0.65787,1.20164)"
font-family="Helvetica" font-size="12" font-weight="400" font-style="normal" 
>
</g>

<g fill="none" stroke="#000000" stroke-opacity="0.705882" stroke-width="1.5" stroke-linecap="round" stroke-linejoin="bevel" transform="matrix(2.49385,0,0,2.49385,0.65787,1.20164)"
font-family="Helvetica" font-size="12" font-weight="400" font-style="normal" 
>
<path vector-effect="none" fill-rule="evenodd" d="M311.801,144.241 C309.36,145.285 309.133,143.777 306.494,144.069 "/>
</g>

<g fill="none" stroke="#000000" stroke-opacity="1" stroke-width="1" stroke-linecap="square" stroke-linejoin="bevel" transform="matrix(2.49385,0,0,2.49385,0.65787,1.20164)"
font-family="Helvetica" font-size="12" font-weight="400" font-style="normal" 
>
</g>

<g fill="none" stroke="#000000" stroke-opacity="1" stroke-width="1" stroke-linecap="square" stroke-linejoin="bevel" transform="matrix(2.49385,0,0,2.49385,0.65787,1.20164)"
font-family="Helvetica" font-size="12" font-weight="400" font-style="normal" 
>
</g>

<g fill="none" stroke="#000000" stroke-opacity="0.705882" stroke-width="1.5" stroke-linecap="round" stroke-linejoin="bevel" transform="matrix(2.49385,0,0,2.49385,0.65787,1.20164)"
font-family="Helvetica" font-size="12" font-weight="400" font-style="normal" 
>
<path vector-effect="none" fill-rule="evenodd" d="M311.801,144.241 C309.423,145.259 315.535,146.788 314.045,148.903 "/>
</g>

<g fill="none" stroke="#000000" stroke-opacity="1" stroke-width="1" stroke-linecap="square" stroke-linejoin="bevel" transform="matrix(2.49385,0,0,2.49385,0.65787,1.20164)"
font-family="Helvetica" font-size="12" font-weight="400" font-style="normal" 
>
</g>

<g fill="none" stroke="#000000" stroke-opacity="1" stroke-width="1" stroke-linecap="square" stroke-linejoin="bevel" transform="matrix(2.49385,0,0,2.49385,0.65787,1.20164)"
font-family="Helvetica" font-size="12" font-weight="400" font-style="normal" 
>
</g>

<g fill="none" stroke="#000000" stroke-opacity="0.705882" stroke-width="1.5" stroke-linecap="round" stroke-linejoin="bevel" transform="matrix(2.49385,0,0,2.49385,0.65787,1.20164)"
font-family="Helvetica" font-size="12" font-weight="400" font-style="normal" 
>
<path vector-effect="none" fill-rule="evenodd" d="M149.601,371.493 C154.601,371.535 154.559,376.535 147.059,376.472 C139.559,376.409 139.601,371.409 144.601,371.451 "/>
</g>

<g fill="none" stroke="#000000" stroke-opacity="1" stroke-width="1" stroke-linecap="square" stroke-linejoin="bevel" transform="matrix(2.49385,0,0,2.49385,0.65787,1.20164)"
font-family="Helvetica" font-size="12" font-weight="400" font-style="normal" 
>
</g>

<g fill="none" stroke="#000000" stroke-opacity="1" stroke-width="1" stroke-linecap="square" stroke-linejoin="bevel" transform="matrix(2.49385,0,0,2.49385,0.65787,1.20164)"
font-family="Helvetica" font-size="12" font-weight="400" font-style="normal" 
>
</g>

<g fill="#6275cb" fill-opacity="1" stroke="none" transform="matrix(2.49385,0,0,2.49385,0.65787,1.20164)"
font-family="Helvetica" font-size="12" font-weight="400" font-style="normal" 
>
<path vector-effect="none" fill-rule="nonzero" d="M144.612,370.122 L149.612,370.164 L149.59,372.823 L144.59,372.781 L144.612,370.122"/>
</g>

<g fill="none" stroke="#000000" stroke-opacity="1" stroke-width="0.3" stroke-linecap="square" stroke-linejoin="round" transform="matrix(2.49385,0,0,2.49385,0.65787,1.20164)"
font-family="Helvetica" font-size="12" font-weight="400" font-style="normal" 
>
<path vector-effect="none" fill-rule="evenodd" d="M144.612,370.122 L149.612,370.164 L149.59,372.823 L144.59,372.781 L144.612,370.122"/>
</g>

<g fill="none" stroke="#000000" stroke-opacity="1" stroke-width="1" stroke-linecap="square" stroke-linejoin="bevel" transform="matrix(2.49385,0,0,2.49385,0.65787,1.20164)"
font-family="Helvetica" font-size="12" font-weight="400" font-style="normal" 
>
</g>

<g fill="none" stroke="#000000" stroke-opacity="1" stroke-width="1" stroke-linecap="square" stroke-linejoin="bevel" transform="matrix(2.49385,0,0,2.49385,0.65787,1.20164)"
font-family="Helvetica" font-size="12" font-weight="400" font-style="normal" 
>
</g>

<g fill="#81cb62" fill-opacity="1" stroke="none" transform="matrix(2.49385,0,0,2.49385,0.65787,1.20164)"
font-family="Helvetica" font-size="12" font-weight="400" font-style="normal" 
>
<path vector-effect="none" fill-rule="nonzero" d="M200.18,214.959 L217.884,213.162 C217.904,213.16 217.925,213.158 217.945,213.157 L217.946,213.157 L236.178,212.098 C236.201,212.096 236.224,212.096 236.247,212.095 L236.247,212.095 L254.907,211.902 C254.912,211.902 254.917,211.902 254.922,211.902 C255.718,211.902 256.364,212.548 256.364,213.344 C256.364,214.14 255.718,214.786 254.922,214.786 C254.126,214.786 253.48,214.14 253.48,213.344 C253.48,212.577 254.08,211.949 254.835,211.905 L254.978,211.903 L273.625,212.633 C273.648,212.634 273.671,212.635 273.694,212.637 L273.694,212.637 L291.888,214.22 C291.91,214.222 291.93,214.224 291.95,214.227 L291.95,214.227 L309.595,216.532 L309.221,219.392 L291.577,217.086 L291.763,215.657 L291.638,217.093 L273.444,215.51 L273.569,214.074 L273.512,215.515 L254.866,214.785 L254.922,213.344 L254.937,214.786 L236.277,214.979 L236.262,213.537 L236.346,214.977 L218.113,216.036 L218.029,214.596 L218.175,216.031 L200.472,217.828 L200.18,214.959"/>
</g>

<g fill="none" stroke="#000000" stroke-opacity="1" stroke-width="0.3" stroke-linecap="square" stroke-linejoin="round" transform="matrix(2.49385,0,0,2.49385,0.65787,1.20164)"
font-family="Helvetica" font-size="12" font-weight="400" font-style="normal" 
>
<path vector-effect="none" fill-rule="evenodd" d="M200.18,214.959 L217.884,213.162 L217.914,213.159 L217.945,213.157 L217.946,213.157 L236.178,212.098 L236.213,212.096 L236.247,212.095 L236.247,212.095 L254.907,211.902 L254.915,211.902 L254.922,211.902 L254.926,211.904 L254.978,211.903 L273.625,212.633 L273.66,212.635 L273.694,212.637 L273.694,212.637 L291.888,214.22 L291.92,214.223 L291.95,214.227 L291.95,214.227 L309.595,216.532 L309.221,219.392 L291.608,217.091 L273.478,215.513 L254.901,214.786 L236.311,214.979 L218.144,216.034 L200.472,217.828 L200.18,214.959"/>
</g>

<g fill="none" stroke="#000000" stroke-opacity="1" stroke-width="1" stroke-linecap="square" stroke-linejoin="bevel" transform="matrix(2.49385,0,0,2.49385,0.65787,1.20164)"
font-family="Helvetica" font-size="12" font-weight="400" font-style="normal" 
>
</g>

<g fill="none" stroke="#000000" stroke-opacity="1" stroke-width="1" stroke-linecap="square" stroke-linejoin="bevel" transform="matrix(2.49385,0,0,2.49385,0.65787,1.20164)"
font-family="Helvetica" font-size="12" font-weight="400" font-style="normal" 
>
</g>

<g fill="#62b9cb" fill-opacity="1" stroke="none" transform="matrix(2.49385,0,0,2.49385,0.65787,1.20164)"
font-family="Helvetica" font-size="12" font-weight="400" font-style="normal" 
>
<path vector-effect="none" fill-rule="nonzero" d="M296.514,149.398 L307.288,158.906 L305.859,160.526 L304.093,159.282 L312.279,147.659 L315.811,150.147 L307.625,161.769 C307.234,162.324 306.589,162.685 305.859,162.685 C305.311,162.685 304.81,162.481 304.43,162.145 L304.43,162.145 L293.656,152.637 L296.514,149.398"/>
</g>

<g fill="none" stroke="#000000" stroke-opacity="1" stroke-width="0.3" stroke-linecap="square" stroke-linejoin="round" transform="matrix(2.49385,0,0,2.49385,0.65787,1.20164)"
font-family="Helvetica" font-size="12" font-weight="400" font-style="normal" 
>
<path vector-effect="none" fill-rule="evenodd" d="M296.514,149.398 L305.481,157.311 L312.279,147.659 L315.811,150.147 L307.625,161.769 L306.869,162.435 L305.859,162.685 L305.081,162.541 L304.43,162.145 L304.43,162.145 L293.656,152.637 L296.514,149.398"/>
</g>

<g fill="none" stroke="#000000" stroke-opacity="1" stroke-width="1" stroke-linecap="square" stroke-linejoin="bevel" transform="matrix(2.49385,0,0,2.49385,0.65787,1.20164)"
font-family="Helvetica" font-size="12" font-weight="400" font-style="normal" 
>
</g>

<g fill="none" stroke="#000000" stroke-opacity="1" stroke-width="1" stroke-linecap="square" stroke-linejoin="bevel" transform="matrix(2.49385,0,0,2.49385,0.65787,1.20164)"
font-family="Helvetica" font-size="12" font-weight="400" font-style="normal" 
>
</g>

<g fill="#62cb70" fill-opacity="1" stroke="none" transform="matrix(2.49385,0,0,2.49385,0.65787,1.20164)"
font-family="Helvetica" font-size="12" font-weight="400" font-style="normal" 
>
<path vector-effect="none" fill-rule="nonzero" d="M246.585,132.106 L261.665,135.797 L260.937,138.769 L261.594,135.781 L278.329,139.455 L277.673,142.443 L278.243,139.437 L296.558,142.914 L295.417,148.927 L277.102,145.45 C277.072,145.444 277.043,145.439 277.016,145.433 L277.017,145.432 L260.281,141.758 C260.256,141.753 260.232,141.748 260.209,141.742 L260.21,141.742 L245.13,138.051 L246.585,132.106"/>
</g>

<g fill="none" stroke="#000000" stroke-opacity="1" stroke-width="0.3" stroke-linecap="square" stroke-linejoin="round" transform="matrix(2.49385,0,0,2.49385,0.65787,1.20164)"
font-family="Helvetica" font-size="12" font-weight="400" font-style="normal" 
>
<path vector-effect="none" fill-rule="evenodd" d="M246.585,132.106 L261.629,135.788 L278.286,139.445 L296.558,142.914 L295.417,148.927 L277.102,145.45 L277.058,145.441 L277.016,145.433 L277.017,145.432 L260.281,141.758 L260.244,141.75 L260.209,141.742 L260.21,141.742 L245.13,138.051 L246.585,132.106"/>
</g>

<g fill="none" stroke="#000000" stroke-opacity="1" stroke-width="1" stroke-linecap="square" stroke-linejoin="bevel" transform="matrix(2.49385,0,0,2.49385,0.65787,1.20164)"
font-family="Helvetica" font-size="12" font-weight="400" font-style="normal" 
>
</g>

<g fill="none" stroke="#000000" stroke-opacity="1" stroke-width="1" stroke-linecap="square" stroke-linejoin="bevel" transform="matrix(2.49385,0,0,2.49385,0.65787,1.20164)"
font-family="Helvetica" font-size="12" font-weight="400" font-style="normal" 
>
</g>

<g fill="#62cb94" fill-opacity="1" stroke="none" transform="matrix(2.49385,0,0,2.49385,0.65787,1.20164)"
font-family="Helvetica" font-size="12" font-weight="400" font-style="normal" 
>
<path vector-effect="none" fill-rule="nonzero" d="M348.749,269.672 L360.096,269.767 L360.073,272.45 L348.727,272.354 L348.749,269.672"/>
</g>

<g fill="none" stroke="#000000" stroke-opacity="1" stroke-width="0.3" stroke-linecap="square" stroke-linejoin="round" transform="matrix(2.49385,0,0,2.49385,0.65787,1.20164)"
font-family="Helvetica" font-size="12" font-weight="400" font-style="normal" 
>
<path vector-effect="none" fill-rule="evenodd" d="M348.749,269.672 L360.096,269.767 L360.073,272.45 L348.727,272.354 L348.749,269.672"/>
</g>

<g fill="none" stroke="#000000" stroke-opacity="1" stroke-width="1" stroke-linecap="square" stroke-linejoin="bevel" transform="matrix(2.49385,0,0,2.49385,0.65787,1.20164)"
font-family="Helvetica" font-size="12" font-weight="400" font-style="normal" 
>
</g>

<g fill="none" stroke="#000000" stroke-opacity="1" stroke-width="1" stroke-linecap="square" stroke-linejoin="bevel" transform="matrix(2.49385,0,0,2.49385,0.65787,1.20164)"
font-family="Helvetica" font-size="12" font-weight="400" font-style="normal" 
>
</g>

<g fill="#c0cb62" fill-opacity="1" stroke="none" transform="matrix(2.49385,0,0,2.49385,0.65787,1.20164)"
font-family="Helvetica" font-size="12" font-weight="400" font-style="normal" 
>
<path vector-effect="none" fill-rule="nonzero" d="M301.022,143.252 L306.339,142.663 L306.65,145.475 L301.333,146.064 L301.022,143.252"/>
</g>

<g fill="none" stroke="#000000" stroke-opacity="1" stroke-width="0.3" stroke-linecap="square" stroke-linejoin="round" transform="matrix(2.49385,0,0,2.49385,0.65787,1.20164)"
font-family="Helvetica" font-size="12" font-weight="400" font-style="normal" 
>
<path vector-effect="none" fill-rule="evenodd" d="M301.022,143.252 L306.339,142.663 L306.65,145.475 L301.333,146.064 L301.022,143.252"/>
</g>

<g fill="none" stroke="#000000" stroke-opacity="1" stroke-width="1" stroke-linecap="square" stroke-linejoin="bevel" transform="matrix(2.49385,0,0,2.49385,0.65787,1.20164)"
font-family="Helvetica" font-size="12" font-weight="400" font-style="normal" 
>
</g>

<g fill="none" stroke="#000000" stroke-opacity="1" stroke-width="1" stroke-linecap="square" stroke-linejoin="bevel" transform="matrix(2.49385,0,0,2.49385,0.65787,1.20164)"
font-family="Helvetica" font-size="12" font-weight="400" font-style="normal" 
>
</g>

<g fill="#cb6762" fill-opacity="1" stroke="none" transform="matrix(2.49385,0,0,2.49385,0.65787,1.20164)"
font-family="Helvetica" font-size="12" font-weight="400" font-style="normal" 
>
<path vector-effect="none" fill-rule="nonzero" d="M85.7127,319.997 L96.2527,320.085 L96.2301,322.775 L85.6901,322.686 L85.7127,319.997"/>
</g>

<g fill="none" stroke="#000000" stroke-opacity="1" stroke-width="0.3" stroke-linecap="square" stroke-linejoin="round" transform="matrix(2.49385,0,0,2.49385,0.65787,1.20164)"
font-family="Helvetica" font-size="12" font-weight="400" font-style="normal" 
>
<path vector-effect="none" fill-rule="evenodd" d="M85.7127,319.997 L96.2527,320.085 L96.2301,322.775 L85.6901,322.686 L85.7127,319.997"/>
</g>

<g fill="none" stroke="#000000" stroke-opacity="1" stroke-width="1" stroke-linecap="square" stroke-linejoin="bevel" transform="matrix(2.49385,0,0,2.49385,0.65787,1.20164)"
font-family="Helvetica" font-size="12" font-weight="400" font-style="normal" 
>
</g>

<g fill="none" stroke="#000000" stroke-opacity="1" stroke-width="1" stroke-linecap="square" stroke-linejoin="bevel" transform="matrix(2.49385,0,0,2.49385,0.65787,1.20164)"
font-family="Helvetica" font-size="12" font-weight="400" font-style="normal" 
>
</g>

<g fill="#cbc762" fill-opacity="1" stroke="none" transform="matrix(2.49385,0,0,2.49385,0.65787,1.20164)"
font-family="Helvetica" font-size="12" font-weight="400" font-style="normal" 
>
<path vector-effect="none" fill-rule="nonzero" d="M26.7618,26.0261 L40.0754,36.8399 L38.3136,39.0089 L39.964,36.754 L54.1288,47.121 L52.4784,49.376 L53.981,47.02 L69.4387,56.8784 L67.9361,59.2345 L69.2447,56.7654 L85.9738,65.6317 L84.6652,68.1008 L85.728,65.5164 L103.609,72.8697 L102.546,75.4541 L103.31,72.7661 L122.145,78.1177 L121.381,80.8057 L121.798,78.0425 L141.287,80.9801 L140.87,83.7433 L140.905,80.9491 L160.645,81.1936 L160.61,83.9878 L160.25,81.2167 L179.774,78.6763 L180.134,81.4474 L179.39,78.7538 L198.23,73.5506 L198.974,76.2442 L197.881,73.6724 L215.636,66.1268 L216.729,68.6986 L215.337,66.2759 L231.718,56.8602 L233.111,59.2829 L231.474,57.0178 L246.311,46.2978 L247.948,48.5629 L246.121,46.448 L259.393,34.986 L261.22,37.1009 L259.248,35.121 L271.397,23.0202 L275.341,26.9798 L263.192,39.0807 C263.145,39.1274 263.097,39.1725 263.046,39.2158 L263.046,39.2158 L249.774,50.6778 C249.713,50.7306 249.65,50.7807 249.584,50.8281 L249.584,50.8279 L234.747,61.5479 C234.669,61.6048 234.588,61.6575 234.504,61.7058 L234.503,61.7056 L218.122,71.1213 C218.026,71.1771 217.926,71.2271 217.823,71.2708 L217.822,71.2704 L200.067,78.816 C199.955,78.8645 199.838,78.9053 199.719,78.9381 L199.718,78.9377 L180.878,84.1409 C180.754,84.1759 180.626,84.2018 180.496,84.2186 L180.495,84.2184 L160.971,86.7588 C160.853,86.7743 160.733,86.7822 160.61,86.7822 C160.599,86.7822 160.587,86.7821 160.576,86.782 L160.576,86.782 L140.836,86.5375 C140.705,86.5359 140.578,86.5255 140.453,86.5068 L140.454,86.5065 L120.965,83.5689 C120.845,83.5514 120.729,83.5262 120.617,83.4943 L120.618,83.4937 L101.783,78.1421 C101.679,78.1135 101.579,78.0788 101.483,78.039 L101.484,78.0385 L83.6024,70.6852 C83.5175,70.651 83.4356,70.6124 83.3562,70.5703 L83.3566,70.5699 L66.6275,61.7035 C66.5607,61.6687 66.4961,61.6309 66.4333,61.5908 L66.4335,61.5905 L50.9758,51.732 C50.9252,51.7 50.8759,51.6663 50.8279,51.6311 L50.8281,51.631 L36.6632,41.2639 C36.6252,41.2363 36.5881,41.2076 36.5518,41.1781 L36.5518,41.178 L23.2382,30.3642 L26.7618,26.0261"/>
</g>

<g fill="none" stroke="#000000" stroke-opacity="1" stroke-width="0.3" stroke-linecap="square" stroke-linejoin="round" transform="matrix(2.49385,0,0,2.49385,0.65787,1.20164)"
font-family="Helvetica" font-size="12" font-weight="400" font-style="normal" 
>
<path vector-effect="none" fill-rule="evenodd" d="M26.7618,26.0261 L40.0208,36.7955 L54.0566,47.0681 L69.344,56.818 L85.8537,65.5681 L103.463,72.8094 L121.974,78.0691 L141.097,80.9515 L160.447,81.1911 L179.579,78.7016 L198.052,73.5999 L215.482,66.1924 L231.592,56.9327 L246.213,46.3688 L259.318,35.0509 L271.397,23.0202 L275.341,26.9798 L263.192,39.0807 L263.12,39.1495 L263.046,39.2158 L263.046,39.2158 L249.774,50.6778 L249.681,50.755 L249.584,50.8281 L249.584,50.8279 L234.747,61.5479 L234.628,61.6301 L234.504,61.7058 L234.503,61.7056 L218.122,71.1213 L217.975,71.2006 L217.823,71.2708 L217.822,71.2704 L200.067,78.816 L199.896,78.8829 L199.719,78.9381 L199.718,78.9377 L180.878,84.1409 L180.689,84.1866 L180.496,84.2186 L180.495,84.2184 L160.971,86.7588 L160.792,86.7763 L160.61,86.7822 L160.593,86.7821 L160.576,86.782 L160.576,86.782 L140.836,86.5375 L140.642,86.5286 L140.453,86.5068 L140.454,86.5065 L120.965,83.5689 L120.788,83.537 L120.617,83.4943 L120.618,83.4937 L101.783,78.1421 L101.63,78.0948 L101.483,78.039 L101.484,78.0385 L83.6024,70.6852 L83.4772,70.6307 L83.3562,70.5703 L83.3566,70.5699 L66.6275,61.7035 L66.5289,61.6491 L66.4333,61.5908 L66.4335,61.5905 L50.9758,51.732 L50.9009,51.6828 L50.8279,51.6311 L50.8281,51.631 L36.6632,41.2639 L36.6069,41.2217 L36.5518,41.1781 L36.5518,41.178 L23.2382,30.3642 L26.7618,26.0261"/>
</g>

<g fill="none" stroke="#000000" stroke-opacity="1" stroke-width="1" stroke-linecap="square" stroke-linejoin="bevel" transform="matrix(2.49385,0,0,2.49385,0.65787,1.20164)"
font-family="Helvetica" font-size="12" font-weight="400" font-style="normal" 
>
</g>

<g fill="none" stroke="#000000" stroke-opacity="1" stroke-width="1" stroke-linecap="square" stroke-linejoin="bevel" transform="matrix(2.49385,0,0,2.49385,0.65787,1.20164)"
font-family="Helvetica" font-size="12" font-weight="400" font-style="normal" 
>
</g>

<g fill="#cb8862" fill-opacity="1" stroke="none" transform="matrix(2.49385,0,0,2.49385,0.65787,1.20164)"
font-family="Helvetica" font-size="12" font-weight="400" font-style="normal" 
>
<path vector-effect="none" fill-rule="nonzero" d="M336.286,136.186 L325.076,141.176 C325.066,141.181 325.055,141.185 325.045,141.19 L325.044,141.189 L312.748,146.453 L310.854,142.029 L323.151,136.766 L324.098,138.978 L323.119,136.78 L334.329,131.79 L336.286,136.186"/>
</g>

<g fill="none" stroke="#000000" stroke-opacity="1" stroke-width="0.3" stroke-linecap="square" stroke-linejoin="round" transform="matrix(2.49385,0,0,2.49385,0.65787,1.20164)"
font-family="Helvetica" font-size="12" font-weight="400" font-style="normal" 
>
<path vector-effect="none" fill-rule="evenodd" d="M336.286,136.186 L325.076,141.176 L325.061,141.183 L325.045,141.19 L325.044,141.189 L312.748,146.453 L310.854,142.029 L323.135,136.773 L334.329,131.79 L336.286,136.186"/>
</g>

<g fill="none" stroke="#000000" stroke-opacity="1" stroke-width="1" stroke-linecap="square" stroke-linejoin="bevel" transform="matrix(2.49385,0,0,2.49385,0.65787,1.20164)"
font-family="Helvetica" font-size="12" font-weight="400" font-style="normal" 
>
</g>

<g fill="none" stroke="#000000" stroke-opacity="1" stroke-width="1" stroke-linecap="square" stroke-linejoin="bevel" transform="matrix(2.49385,0,0,2.49385,0.65787,1.20164)"
font-family="Helvetica" font-size="12" font-weight="400" font-style="normal" 
>
</g>

<g fill="#6962cb" fill-opacity="1" stroke="none" transform="matrix(2.49385,0,0,2.49385,0.65787,1.20164)"
font-family="Helvetica" font-size="12" font-weight="400" font-style="normal" 
>
<path vector-effect="none" fill-rule="nonzero" d="M25.0113,319.999 L35.7127,320.089 L35.6901,322.773 L24.9887,322.683 L25.0113,319.999"/>
</g>

<g fill="none" stroke="#000000" stroke-opacity="1" stroke-width="0.3" stroke-linecap="square" stroke-linejoin="round" transform="matrix(2.49385,0,0,2.49385,0.65787,1.20164)"
font-family="Helvetica" font-size="12" font-weight="400" font-style="normal" 
>
<path vector-effect="none" fill-rule="evenodd" d="M25.0113,319.999 L35.7127,320.089 L35.6901,322.773 L24.9887,322.683 L25.0113,319.999"/>
</g>

<g fill="none" stroke="#000000" stroke-opacity="1" stroke-width="1" stroke-linecap="square" stroke-linejoin="bevel" transform="matrix(2.49385,0,0,2.49385,0.65787,1.20164)"
font-family="Helvetica" font-size="12" font-weight="400" font-style="normal" 
>
</g>

<g fill="none" stroke="#000000" stroke-opacity="1" stroke-width="1" stroke-linecap="square" stroke-linejoin="bevel" transform="matrix(2.49385,0,0,2.49385,0.65787,1.20164)"
font-family="Helvetica" font-size="12" font-weight="400" font-style="normal" 
>
</g>

<g fill="#7562cb" fill-opacity="1" stroke="none" transform="matrix(2.49385,0,0,2.49385,0.65787,1.20164)"
font-family="Helvetica" font-size="12" font-weight="400" font-style="normal" 
>
<path vector-effect="none" fill-rule="nonzero" d="M161.617,269.673 L174.039,269.777 L174.017,272.448 L161.595,272.344 L161.617,269.673"/>
</g>

<g fill="none" stroke="#000000" stroke-opacity="1" stroke-width="0.3" stroke-linecap="square" stroke-linejoin="round" transform="matrix(2.49385,0,0,2.49385,0.65787,1.20164)"
font-family="Helvetica" font-size="12" font-weight="400" font-style="normal" 
>
<path vector-effect="none" fill-rule="evenodd" d="M161.617,269.673 L174.039,269.777 L174.017,272.448 L161.595,272.344 L161.617,269.673"/>
</g>

<g fill="none" stroke="#000000" stroke-opacity="1" stroke-width="1" stroke-linecap="square" stroke-linejoin="bevel" transform="matrix(2.49385,0,0,2.49385,0.65787,1.20164)"
font-family="Helvetica" font-size="12" font-weight="400" font-style="normal" 
>
</g>

<g fill="none" stroke="#000000" stroke-opacity="1" stroke-width="1" stroke-linecap="square" stroke-linejoin="bevel" transform="matrix(2.49385,0,0,2.49385,0.65787,1.20164)"
font-family="Helvetica" font-size="12" font-weight="400" font-style="normal" 
>
</g>

<g fill="#cb62af" fill-opacity="1" stroke="none" transform="matrix(2.49385,0,0,2.49385,0.65787,1.20164)"
font-family="Helvetica" font-size="12" font-weight="400" font-style="normal" 
>
<path vector-effect="none" fill-rule="nonzero" d="M447.232,319.997 L457.181,320.081 L457.158,322.775 L447.209,322.691 L447.232,319.997"/>
</g>

<g fill="none" stroke="#000000" stroke-opacity="1" stroke-width="0.3" stroke-linecap="square" stroke-linejoin="round" transform="matrix(2.49385,0,0,2.49385,0.65787,1.20164)"
font-family="Helvetica" font-size="12" font-weight="400" font-style="normal" 
>
<path vector-effect="none" fill-rule="evenodd" d="M447.232,319.997 L457.181,320.081 L457.158,322.775 L447.209,322.691 L447.232,319.997"/>
</g>

<g fill="none" stroke="#000000" stroke-opacity="1" stroke-width="1" stroke-linecap="square" stroke-linejoin="bevel" transform="matrix(2.49385,0,0,2.49385,0.65787,1.20164)"
font-family="Helvetica" font-size="12" font-weight="400" font-style="normal" 
>
</g>

<g fill="none" stroke="#000000" stroke-opacity="1" stroke-width="1" stroke-linecap="square" stroke-linejoin="bevel" transform="matrix(2.49385,0,0,2.49385,0.65787,1.20164)"
font-family="Helvetica" font-size="12" font-weight="400" font-style="normal" 
>
</g>

<g fill="#7562cb" fill-opacity="1" stroke="none" transform="matrix(2.49385,0,0,2.49385,0.65787,1.20164)"
font-family="Helvetica" font-size="12" font-weight="400" font-style="normal" 
>
<path vector-effect="none" fill-rule="nonzero" d="M471.254,269.685 L482.278,269.778 L482.256,272.436 L471.232,272.343 L471.254,269.685"/>
</g>

<g fill="none" stroke="#000000" stroke-opacity="1" stroke-width="0.3" stroke-linecap="square" stroke-linejoin="round" transform="matrix(2.49385,0,0,2.49385,0.65787,1.20164)"
font-family="Helvetica" font-size="12" font-weight="400" font-style="normal" 
>
<path vector-effect="none" fill-rule="evenodd" d="M471.254,269.685 L482.278,269.778 L482.256,272.436 L471.232,272.343 L471.254,269.685"/>
</g>

<g fill="none" stroke="#000000" stroke-opacity="1" stroke-width="1" stroke-linecap="square" stroke-linejoin="bevel" transform="matrix(2.49385,0,0,2.49385,0.65787,1.20164)"
font-family="Helvetica" font-size="12" font-weight="400" font-style="normal" 
>
</g>

<g fill="none" stroke="#000000" stroke-opacity="1" stroke-width="1" stroke-linecap="square" stroke-linejoin="bevel" transform="matrix(2.49385,0,0,2.49385,0.65787,1.20164)"
font-family="Helvetica" font-size="12" font-weight="400" font-style="normal" 
>
</g>

<g fill="#cb8d62" fill-opacity="1" stroke="none" transform="matrix(2.49385,0,0,2.49385,0.65787,1.20164)"
font-family="Helvetica" font-size="12" font-weight="400" font-style="normal" 
>
<path vector-effect="none" fill-rule="nonzero" d="M24.2819,217.409 L41.2884,212.841 C41.3587,212.822 41.4307,212.805 41.5028,212.792 L41.5042,212.792 L59.2988,209.509 C59.3801,209.493 59.4631,209.482 59.5464,209.474 L59.5474,209.474 L78.0717,207.769 C78.1552,207.761 78.2399,207.757 78.3255,207.757 C79.8542,207.757 81.0935,208.997 81.0935,210.526 C81.0935,212.054 79.8542,213.294 78.3255,213.294 C76.7967,213.294 75.5574,212.054 75.5574,210.526 C75.5574,209.175 76.5248,208.05 77.8036,207.807 L78.3409,207.757 L97.1257,207.862 C97.2169,207.863 97.307,207.867 97.395,207.876 L97.3947,207.877 L115.899,209.788 C115.984,209.796 116.067,209.809 116.148,209.825 L116.147,209.825 L133.904,213.307 C133.978,213.321 134.05,213.338 134.12,213.357 L134.119,213.358 L151.074,218.115 L149.578,223.445 L132.624,218.688 L133.371,216.023 L132.839,218.739 L115.082,215.258 L115.615,212.541 L115.33,215.295 L96.8259,213.383 L97.1103,210.63 L97.0949,213.398 L78.3101,213.294 L78.3255,210.526 L78.5792,213.282 L60.0549,214.987 L59.8011,212.231 L60.3035,214.953 L42.5088,218.237 L42.0065,215.514 L42.7246,218.188 L25.7181,222.756 L24.2819,217.409"/>
</g>

<g fill="none" stroke="#000000" stroke-opacity="1" stroke-width="0.3" stroke-linecap="square" stroke-linejoin="round" transform="matrix(2.49385,0,0,2.49385,0.65787,1.20164)"
font-family="Helvetica" font-size="12" font-weight="400" font-style="normal" 
>
<path vector-effect="none" fill-rule="evenodd" d="M24.2819,217.409 L41.2884,212.841 L41.3949,212.814 L41.5028,212.792 L41.5042,212.792 L59.2988,209.509 L59.4218,209.488 L59.5464,209.474 L59.5474,209.474 L78.0717,207.769 L78.1978,207.76 L78.3255,207.757 L78.3283,207.759 L78.3409,207.757 L97.1257,207.862 L97.2615,207.866 L97.395,207.876 L97.3947,207.877 L115.899,209.788 L116.025,209.804 L116.148,209.825 L116.147,209.825 L133.904,213.307 L134.014,213.33 L134.12,213.357 L134.119,213.358 L151.074,218.115 L149.578,223.445 L132.73,218.718 L115.205,215.282 L96.96,213.397 L78.4449,213.294 L60.1799,214.976 L42.6177,218.217 L25.7181,222.756 L24.2819,217.409"/>
</g>

<g fill="none" stroke="#000000" stroke-opacity="1" stroke-width="1" stroke-linecap="square" stroke-linejoin="bevel" transform="matrix(2.49385,0,0,2.49385,0.65787,1.20164)"
font-family="Helvetica" font-size="12" font-weight="400" font-style="normal" 
>
</g>

<g fill="none" stroke="#000000" stroke-opacity="1" stroke-width="1" stroke-linecap="square" stroke-linejoin="bevel" transform="matrix(2.49385,0,0,2.49385,0.65787,1.20164)"
font-family="Helvetica" font-size="12" font-weight="400" font-style="normal" 
>
</g>

<g fill="#6267cb" fill-opacity="1" stroke="none" transform="matrix(2.49385,0,0,2.49385,0.65787,1.20164)"
font-family="Helvetica" font-size="12" font-weight="400" font-style="normal" 
>
<path vector-effect="none" fill-rule="nonzero" d="M97.7161,269.671 L111.617,269.788 L111.595,272.45 L97.6937,272.333 L97.7161,269.671"/>
</g>

<g fill="none" stroke="#000000" stroke-opacity="1" stroke-width="0.3" stroke-linecap="square" stroke-linejoin="round" transform="matrix(2.49385,0,0,2.49385,0.65787,1.20164)"
font-family="Helvetica" font-size="12" font-weight="400" font-style="normal" 
>
<path vector-effect="none" fill-rule="evenodd" d="M97.7161,269.671 L111.617,269.788 L111.595,272.45 L97.6937,272.333 L97.7161,269.671"/>
</g>

<g fill="none" stroke="#000000" stroke-opacity="1" stroke-width="1" stroke-linecap="square" stroke-linejoin="bevel" transform="matrix(2.49385,0,0,2.49385,0.65787,1.20164)"
font-family="Helvetica" font-size="12" font-weight="400" font-style="normal" 
>
</g>

<g fill="none" stroke="#000000" stroke-opacity="1" stroke-width="1" stroke-linecap="square" stroke-linejoin="bevel" transform="matrix(2.49385,0,0,2.49385,0.65787,1.20164)"
font-family="Helvetica" font-size="12" font-weight="400" font-style="normal" 
>
</g>

<g fill="#6294cb" fill-opacity="1" stroke="none" transform="matrix(2.49385,0,0,2.49385,0.65787,1.20164)"
font-family="Helvetica" font-size="12" font-weight="400" font-style="normal" 
>
<path vector-effect="none" fill-rule="nonzero" d="M327.281,319.997 L337.257,320.081 L337.234,322.775 L327.259,322.691 L327.281,319.997"/>
</g>

<g fill="none" stroke="#000000" stroke-opacity="1" stroke-width="0.3" stroke-linecap="square" stroke-linejoin="round" transform="matrix(2.49385,0,0,2.49385,0.65787,1.20164)"
font-family="Helvetica" font-size="12" font-weight="400" font-style="normal" 
>
<path vector-effect="none" fill-rule="evenodd" d="M327.281,319.997 L337.257,320.081 L337.234,322.775 L327.259,322.691 L327.281,319.997"/>
</g>

<g fill="none" stroke="#000000" stroke-opacity="1" stroke-width="1" stroke-linecap="square" stroke-linejoin="bevel" transform="matrix(2.49385,0,0,2.49385,0.65787,1.20164)"
font-family="Helvetica" font-size="12" font-weight="400" font-style="normal" 
>
</g>

<g fill="none" stroke="#000000" stroke-opacity="1" stroke-width="1" stroke-linecap="square" stroke-linejoin="bevel" transform="matrix(2.49385,0,0,2.49385,0.65787,1.20164)"
font-family="Helvetica" font-size="12" font-weight="400" font-style="normal" 
>
</g>

<g fill="#cb6265" fill-opacity="1" stroke="none" transform="matrix(2.49385,0,0,2.49385,0.65787,1.20164)"
font-family="Helvetica" font-size="12" font-weight="400" font-style="normal" 
>
<path vector-effect="none" fill-rule="nonzero" d="M410.096,269.675 L421.254,269.768 L421.232,272.447 L410.073,272.353 L410.096,269.675"/>
</g>

<g fill="none" stroke="#000000" stroke-opacity="1" stroke-width="0.3" stroke-linecap="square" stroke-linejoin="round" transform="matrix(2.49385,0,0,2.49385,0.65787,1.20164)"
font-family="Helvetica" font-size="12" font-weight="400" font-style="normal" 
>
<path vector-effect="none" fill-rule="evenodd" d="M410.096,269.675 L421.254,269.768 L421.232,272.447 L410.073,272.353 L410.096,269.675"/>
</g>

<g fill="none" stroke="#000000" stroke-opacity="1" stroke-width="1" stroke-linecap="square" stroke-linejoin="bevel" transform="matrix(2.49385,0,0,2.49385,0.65787,1.20164)"
font-family="Helvetica" font-size="12" font-weight="400" font-style="normal" 
>
</g>

<g fill="none" stroke="#000000" stroke-opacity="1" stroke-width="1" stroke-linecap="square" stroke-linejoin="bevel" transform="matrix(2.49385,0,0,2.49385,0.65787,1.20164)"
font-family="Helvetica" font-size="12" font-weight="400" font-style="normal" 
>
</g>

<g fill="#8dcb62" fill-opacity="1" stroke="none" transform="matrix(2.49385,0,0,2.49385,0.65787,1.20164)"
font-family="Helvetica" font-size="12" font-weight="400" font-style="normal" 
>
<path vector-effect="none" fill-rule="nonzero" d="M25.0113,370.083 L34.8792,370.166 L34.8565,372.861 L24.9887,372.779 L25.0113,370.083"/>
</g>

<g fill="none" stroke="#000000" stroke-opacity="1" stroke-width="0.3" stroke-linecap="square" stroke-linejoin="round" transform="matrix(2.49385,0,0,2.49385,0.65787,1.20164)"
font-family="Helvetica" font-size="12" font-weight="400" font-style="normal" 
>
<path vector-effect="none" fill-rule="evenodd" d="M25.0113,370.083 L34.8792,370.166 L34.8565,372.861 L24.9887,372.779 L25.0113,370.083"/>
</g>

<g fill="none" stroke="#000000" stroke-opacity="1" stroke-width="1" stroke-linecap="square" stroke-linejoin="bevel" transform="matrix(2.49385,0,0,2.49385,0.65787,1.20164)"
font-family="Helvetica" font-size="12" font-weight="400" font-style="normal" 
>
</g>

<g fill="none" stroke="#000000" stroke-opacity="1" stroke-width="1" stroke-linecap="square" stroke-linejoin="bevel" transform="matrix(2.49385,0,0,2.49385,0.65787,1.20164)"
font-family="Helvetica" font-size="12" font-weight="400" font-style="normal" 
>
</g>

<g fill="#cb6e62" fill-opacity="1" stroke="none" transform="matrix(2.49385,0,0,2.49385,0.65787,1.20164)"
font-family="Helvetica" font-size="12" font-weight="400" font-style="normal" 
>
<path vector-effect="none" fill-rule="nonzero" d="M359.039,215.086 L376.602,212.805 C376.643,212.799 376.684,212.795 376.725,212.791 L376.726,212.791 L394.837,211.231 C394.882,211.227 394.927,211.224 394.973,211.222 L394.973,211.222 L413.533,210.512 C413.57,210.511 413.606,210.51 413.643,210.51 C415.226,210.51 416.51,211.794 416.51,213.377 C416.51,214.961 415.226,216.244 413.643,216.244 C412.06,216.244 410.776,214.961 410.776,213.377 C410.776,211.879 411.926,210.648 413.391,210.521 L413.675,210.51 L432.248,210.72 C432.294,210.721 432.34,210.722 432.385,210.725 L432.385,210.725 L450.531,211.797 C450.573,211.799 450.615,211.802 450.655,211.806 L450.654,211.807 L468.274,213.613 L467.689,219.317 L450.07,217.511 L450.362,214.659 L450.193,217.52 L432.047,216.449 L432.216,213.587 L432.183,216.454 L413.611,216.244 L413.643,213.377 L413.753,216.242 L395.192,216.952 L395.083,214.087 L395.329,216.943 L377.218,218.504 L376.972,215.648 L377.341,218.491 L359.777,220.772 L359.039,215.086"/>
</g>

<g fill="none" stroke="#000000" stroke-opacity="1" stroke-width="0.3" stroke-linecap="square" stroke-linejoin="round" transform="matrix(2.49385,0,0,2.49385,0.65787,1.20164)"
font-family="Helvetica" font-size="12" font-weight="400" font-style="normal" 
>
<path vector-effect="none" fill-rule="evenodd" d="M359.039,215.086 L376.602,212.805 L376.664,212.797 L376.725,212.791 L376.726,212.791 L394.837,211.231 L394.905,211.226 L394.973,211.222 L394.973,211.222 L413.533,210.512 L413.588,210.511 L413.643,210.51 L413.646,210.512 L413.675,210.51 L432.248,210.72 L432.317,210.722 L432.385,210.725 L432.385,210.725 L450.531,211.797 L450.594,211.801 L450.655,211.806 L450.654,211.807 L468.274,213.613 L467.689,219.317 L450.131,217.517 L432.115,216.453 L413.682,216.245 L395.261,216.949 L377.28,218.499 L359.777,220.772 L359.039,215.086"/>
</g>

<g fill="none" stroke="#000000" stroke-opacity="1" stroke-width="1" stroke-linecap="square" stroke-linejoin="bevel" transform="matrix(2.49385,0,0,2.49385,0.65787,1.20164)"
font-family="Helvetica" font-size="12" font-weight="400" font-style="normal" 
>
</g>

<g fill="none" stroke="#000000" stroke-opacity="1" stroke-width="1" stroke-linecap="square" stroke-linejoin="bevel" transform="matrix(2.49385,0,0,2.49385,0.65787,1.20164)"
font-family="Helvetica" font-size="12" font-weight="400" font-style="normal" 
>
</g>

<g fill="#62cb63" fill-opacity="1" stroke="none" transform="matrix(2.49385,0,0,2.49385,0.65787,1.20164)"
font-family="Helvetica" font-size="12" font-weight="400" font-style="normal" 
>
<path vector-effect="none" fill-rule="nonzero" d="M224.039,269.672 L236.408,269.776 L236.385,272.449 L224.017,272.345 L224.039,269.672"/>
</g>

<g fill="none" stroke="#000000" stroke-opacity="1" stroke-width="0.3" stroke-linecap="square" stroke-linejoin="round" transform="matrix(2.49385,0,0,2.49385,0.65787,1.20164)"
font-family="Helvetica" font-size="12" font-weight="400" font-style="normal" 
>
<path vector-effect="none" fill-rule="evenodd" d="M224.039,269.672 L236.408,269.776 L236.385,272.449 L224.017,272.345 L224.039,269.672"/>
</g>

<g fill="none" stroke="#000000" stroke-opacity="1" stroke-width="1" stroke-linecap="square" stroke-linejoin="bevel" transform="matrix(2.49385,0,0,2.49385,0.65787,1.20164)"
font-family="Helvetica" font-size="12" font-weight="400" font-style="normal" 
>
</g>

<g fill="none" stroke="#000000" stroke-opacity="1" stroke-width="1" stroke-linecap="square" stroke-linejoin="bevel" transform="matrix(2.49385,0,0,2.49385,0.65787,1.20164)"
font-family="Helvetica" font-size="12" font-weight="400" font-style="normal" 
>
</g>

<g fill="#6293cb" fill-opacity="1" stroke="none" transform="matrix(2.49385,0,0,2.49385,0.65787,1.20164)"
font-family="Helvetica" font-size="12" font-weight="400" font-style="normal" 
>
<path vector-effect="none" fill-rule="nonzero" d="M25.05,145.25 L43.0975,145.61 L43.0475,148.113 L43.0907,145.61 L61.6521,145.93 L61.6089,148.433 L61.6398,145.93 L80.8927,146.168 L80.8618,148.671 L80.874,146.168 L100.559,146.263 L100.547,148.766 L100.533,146.263 L120.358,146.158 L120.371,148.661 L120.327,146.159 L140.008,145.81 L140.053,148.313 L139.973,145.811 L159.217,145.201 L159.297,147.703 L159.181,145.202 L177.724,144.342 L177.84,146.843 L177.688,144.344 L195.706,143.249 L196.01,148.246 L177.992,149.341 C177.98,149.342 177.968,149.343 177.957,149.343 L177.956,149.343 L159.413,150.203 C159.4,150.204 159.388,150.204 159.376,150.204 L159.376,150.204 L140.132,150.815 C140.12,150.815 140.109,150.816 140.097,150.816 L140.097,150.816 L120.415,151.164 C120.405,151.164 120.395,151.164 120.384,151.165 L120.384,151.165 L100.56,151.269 C100.555,151.269 100.551,151.269 100.547,151.269 C100.542,151.269 100.538,151.269 100.534,151.269 L100.534,151.269 L80.8497,151.174 C80.8433,151.174 80.8371,151.173 80.831,151.173 L80.831,151.173 L61.5781,150.936 C61.5738,150.936 61.5697,150.936 61.5658,150.936 L61.5658,150.936 L43.0043,150.616 C43.0018,150.616 42.9995,150.616 42.9975,150.616 L42.9975,150.616 L24.95,150.255 L25.05,145.25"/>
</g>

<g fill="none" stroke="#000000" stroke-opacity="1" stroke-width="0.3" stroke-linecap="square" stroke-linejoin="round" transform="matrix(2.49385,0,0,2.49385,0.65787,1.20164)"
font-family="Helvetica" font-size="12" font-weight="400" font-style="normal" 
>
<path vector-effect="none" fill-rule="evenodd" d="M25.05,145.25 L43.0941,145.61 L61.6459,145.93 L80.8833,146.168 L100.546,146.263 L120.342,146.159 L139.991,145.811 L159.199,145.201 L177.706,144.343 L195.706,143.249 L196.01,148.246 L177.992,149.341 L177.974,149.342 L177.957,149.343 L177.956,149.343 L159.413,150.203 L159.394,150.204 L159.376,150.204 L159.376,150.204 L140.132,150.815 L140.115,150.815 L140.097,150.816 L140.097,150.816 L120.415,151.164 L120.4,151.164 L120.384,151.165 L120.384,151.165 L100.56,151.269 L100.553,151.269 L100.547,151.269 L100.54,151.269 L100.534,151.269 L100.534,151.269 L80.8497,151.174 L80.8402,151.173 L80.831,151.173 L80.831,151.173 L61.5781,150.936 L61.5718,150.936 L61.5658,150.936 L61.5658,150.936 L43.0043,150.616 L43.0007,150.616 L42.9975,150.616 L42.9975,150.616 L24.95,150.255 L25.05,145.25"/>
</g>

<g fill="none" stroke="#000000" stroke-opacity="1" stroke-width="1" stroke-linecap="square" stroke-linejoin="bevel" transform="matrix(2.49385,0,0,2.49385,0.65787,1.20164)"
font-family="Helvetica" font-size="12" font-weight="400" font-style="normal" 
>
</g>

<g fill="none" stroke="#000000" stroke-opacity="1" stroke-width="1" stroke-linecap="square" stroke-linejoin="bevel" transform="matrix(2.49385,0,0,2.49385,0.65787,1.20164)"
font-family="Helvetica" font-size="12" font-weight="400" font-style="normal" 
>
</g>

<g fill="#cb7162" fill-opacity="1" stroke="none" transform="matrix(2.49385,0,0,2.49385,0.65787,1.20164)"
font-family="Helvetica" font-size="12" font-weight="400" font-style="normal" 
>
<path vector-effect="none" fill-rule="nonzero" d="M206.739,319.999 L217.171,320.086 L217.149,322.773 L206.716,322.686 L206.739,319.999"/>
</g>

<g fill="none" stroke="#000000" stroke-opacity="1" stroke-width="0.3" stroke-linecap="square" stroke-linejoin="round" transform="matrix(2.49385,0,0,2.49385,0.65787,1.20164)"
font-family="Helvetica" font-size="12" font-weight="400" font-style="normal" 
>
<path vector-effect="none" fill-rule="evenodd" d="M206.739,319.999 L217.171,320.086 L217.149,322.773 L206.716,322.686 L206.739,319.999"/>
</g>

<g fill="none" stroke="#000000" stroke-opacity="1" stroke-width="1" stroke-linecap="square" stroke-linejoin="bevel" transform="matrix(2.49385,0,0,2.49385,0.65787,1.20164)"
font-family="Helvetica" font-size="12" font-weight="400" font-style="normal" 
>
</g>

<g fill="none" stroke="#000000" stroke-opacity="1" stroke-width="1" stroke-linecap="square" stroke-linejoin="bevel" transform="matrix(2.49385,0,0,2.49385,0.65787,1.20164)"
font-family="Helvetica" font-size="12" font-weight="400" font-style="normal" 
>
</g>

<g fill="#9162cb" fill-opacity="1" stroke="none" transform="matrix(2.49385,0,0,2.49385,0.65787,1.20164)"
font-family="Helvetica" font-size="12" font-weight="400" font-style="normal" 
>
<path vector-effect="none" fill-rule="nonzero" d="M387.257,320.004 L397.232,320.087 L397.21,322.768 L387.234,322.684 L387.257,320.004"/>
</g>

<g fill="none" stroke="#000000" stroke-opacity="1" stroke-width="0.3" stroke-linecap="square" stroke-linejoin="round" transform="matrix(2.49385,0,0,2.49385,0.65787,1.20164)"
font-family="Helvetica" font-size="12" font-weight="400" font-style="normal" 
>
<path vector-effect="none" fill-rule="evenodd" d="M387.257,320.004 L397.232,320.087 L397.21,322.768 L387.234,322.684 L387.257,320.004"/>
</g>

<g fill="none" stroke="#000000" stroke-opacity="1" stroke-width="1" stroke-linecap="square" stroke-linejoin="bevel" transform="matrix(2.49385,0,0,2.49385,0.65787,1.20164)"
font-family="Helvetica" font-size="12" font-weight="400" font-style="normal" 
>
</g>

<g fill="none" stroke="#000000" stroke-opacity="1" stroke-width="1" stroke-linecap="square" stroke-linejoin="bevel" transform="matrix(2.49385,0,0,2.49385,0.65787,1.20164)"
font-family="Helvetica" font-size="12" font-weight="400" font-style="normal" 
>
</g>

<g fill="#6962cb" fill-opacity="1" stroke="none" transform="matrix(2.49385,0,0,2.49385,0.65787,1.20164)"
font-family="Helvetica" font-size="12" font-weight="400" font-style="normal" 
>
<path vector-effect="none" fill-rule="nonzero" d="M84.8792,370.084 L94.6126,370.165 L94.5899,372.861 L84.8565,372.779 L84.8792,370.084"/>
</g>

<g fill="none" stroke="#000000" stroke-opacity="1" stroke-width="0.3" stroke-linecap="square" stroke-linejoin="round" transform="matrix(2.49385,0,0,2.49385,0.65787,1.20164)"
font-family="Helvetica" font-size="12" font-weight="400" font-style="normal" 
>
<path vector-effect="none" fill-rule="evenodd" d="M84.8792,370.084 L94.6126,370.165 L94.5899,372.861 L84.8565,372.779 L84.8792,370.084"/>
</g>

<g fill="none" stroke="#000000" stroke-opacity="1" stroke-width="1" stroke-linecap="square" stroke-linejoin="bevel" transform="matrix(2.49385,0,0,2.49385,0.65787,1.20164)"
font-family="Helvetica" font-size="12" font-weight="400" font-style="normal" 
>
</g>

<g fill="none" stroke="#000000" stroke-opacity="1" stroke-width="1" stroke-linecap="square" stroke-linejoin="bevel" transform="matrix(2.49385,0,0,2.49385,0.65787,1.20164)"
font-family="Helvetica" font-size="12" font-weight="400" font-style="normal" 
>
</g>

<g fill="#6273cb" fill-opacity="1" stroke="none" transform="matrix(2.49385,0,0,2.49385,0.65787,1.20164)"
font-family="Helvetica" font-size="12" font-weight="400" font-style="normal" 
>
<path vector-effect="none" fill-rule="nonzero" d="M267.172,319.996 L277.281,320.081 L277.259,322.775 L267.149,322.69 L267.172,319.996"/>
</g>

<g fill="none" stroke="#000000" stroke-opacity="1" stroke-width="0.3" stroke-linecap="square" stroke-linejoin="round" transform="matrix(2.49385,0,0,2.49385,0.65787,1.20164)"
font-family="Helvetica" font-size="12" font-weight="400" font-style="normal" 
>
<path vector-effect="none" fill-rule="evenodd" d="M267.172,319.996 L277.281,320.081 L277.259,322.775 L267.149,322.69 L267.172,319.996"/>
</g>

<g fill="none" stroke="#000000" stroke-opacity="1" stroke-width="1" stroke-linecap="square" stroke-linejoin="bevel" transform="matrix(2.49385,0,0,2.49385,0.65787,1.20164)"
font-family="Helvetica" font-size="12" font-weight="400" font-style="normal" 
>
</g>

<g fill="none" stroke="#000000" stroke-opacity="1" stroke-width="1" stroke-linecap="square" stroke-linejoin="bevel" transform="matrix(2.49385,0,0,2.49385,0.65787,1.20164)"
font-family="Helvetica" font-size="12" font-weight="400" font-style="normal" 
>
</g>

<g fill="#a162cb" fill-opacity="1" stroke="none" transform="matrix(2.49385,0,0,2.49385,0.65787,1.20164)"
font-family="Helvetica" font-size="12" font-weight="400" font-style="normal" 
>
<path vector-effect="none" fill-rule="nonzero" d="M25.0691,269.381 L36.4158,269.942 L36.3467,271.341 L36.3183,269.94 L47.6765,269.71 L47.7333,272.511 L36.3751,272.741 C36.3657,272.742 36.3562,272.742 36.3467,272.742 C36.3234,272.742 36.3002,272.741 36.2775,272.74 L36.2776,272.74 L24.9309,272.179 L25.0691,269.381"/>
</g>

<g fill="none" stroke="#000000" stroke-opacity="1" stroke-width="0.3" stroke-linecap="square" stroke-linejoin="round" transform="matrix(2.49385,0,0,2.49385,0.65787,1.20164)"
font-family="Helvetica" font-size="12" font-weight="400" font-style="normal" 
>
<path vector-effect="none" fill-rule="evenodd" d="M25.0691,269.381 L36.3671,269.939 L47.6765,269.71 L47.7333,272.511 L36.3751,272.741 L36.3609,272.742 L36.3467,272.742 L36.3119,272.741 L36.2775,272.74 L36.2776,272.74 L24.9309,272.179 L25.0691,269.381"/>
</g>

<g fill="none" stroke="#000000" stroke-opacity="1" stroke-width="1" stroke-linecap="square" stroke-linejoin="bevel" transform="matrix(2.49385,0,0,2.49385,0.65787,1.20164)"
font-family="Helvetica" font-size="12" font-weight="400" font-style="normal" 
>
</g>

<g fill="none" stroke="#000000" stroke-opacity="1" stroke-width="1" stroke-linecap="square" stroke-linejoin="bevel" transform="matrix(2.49385,0,0,2.49385,0.65787,1.20164)"
font-family="Helvetica" font-size="12" font-weight="400" font-style="normal" 
>
</g>

<g fill="#becb62" fill-opacity="1" stroke="none" transform="matrix(2.49385,0,0,2.49385,0.65787,1.20164)"
font-family="Helvetica" font-size="12" font-weight="400" font-style="normal" 
>
<path vector-effect="none" fill-rule="nonzero" d="M286.408,269.671 L298.749,269.775 L298.727,272.45 L286.385,272.347 L286.408,269.671"/>
</g>

<g fill="none" stroke="#000000" stroke-opacity="1" stroke-width="0.3" stroke-linecap="square" stroke-linejoin="round" transform="matrix(2.49385,0,0,2.49385,0.65787,1.20164)"
font-family="Helvetica" font-size="12" font-weight="400" font-style="normal" 
>
<path vector-effect="none" fill-rule="evenodd" d="M286.408,269.671 L298.749,269.775 L298.727,272.45 L286.385,272.347 L286.408,269.671"/>
</g>

<g fill="none" stroke="#000000" stroke-opacity="1" stroke-width="1" stroke-linecap="square" stroke-linejoin="bevel" transform="matrix(2.49385,0,0,2.49385,0.65787,1.20164)"
font-family="Helvetica" font-size="12" font-weight="400" font-style="normal" 
>
</g>

<g fill="none" stroke="#000000" stroke-opacity="1" stroke-width="1" stroke-linecap="square" stroke-linejoin="bevel" transform="matrix(2.49385,0,0,2.49385,0.65787,1.20164)"
font-family="Helvetica" font-size="12" font-weight="400" font-style="normal" 
>
</g>

<g fill="#cbbb62" fill-opacity="1" stroke="none" transform="matrix(2.49385,0,0,2.49385,0.65787,1.20164)"
font-family="Helvetica" font-size="12" font-weight="400" font-style="normal" 
>
<path vector-effect="none" fill-rule="nonzero" d="M146.253,320.005 L156.739,320.093 L156.716,322.767 L146.23,322.679 L146.253,320.005"/>
</g>

<g fill="none" stroke="#000000" stroke-opacity="1" stroke-width="0.3" stroke-linecap="square" stroke-linejoin="round" transform="matrix(2.49385,0,0,2.49385,0.65787,1.20164)"
font-family="Helvetica" font-size="12" font-weight="400" font-style="normal" 
>
<path vector-effect="none" fill-rule="evenodd" d="M146.253,320.005 L156.739,320.093 L156.716,322.767 L146.23,322.679 L146.253,320.005"/>
</g>

<g fill="none" stroke="#000000" stroke-opacity="1" stroke-width="1" stroke-linecap="square" stroke-linejoin="bevel" transform="matrix(2.49385,0,0,2.49385,0.65787,1.20164)"
font-family="Helvetica" font-size="12" font-weight="400" font-style="normal" 
>
</g>

<g fill="none" stroke="#000000" stroke-opacity="1" stroke-width="1" stroke-linecap="square" stroke-linejoin="bevel" transform="matrix(1,0,0,1,0,0)"
font-family="Helvetica" font-size="12" font-weight="400" font-style="normal" 
>
</g>
</g>
</svg>
