<?xml version="1.0" encoding="UTF-8" standalone="no"?>
<svg width="599.017mm" height="352.778mm"
 viewBox="0 0 1698 1000"
 xmlns="http://www.w3.org/2000/svg" xmlns:xlink="http://www.w3.org/1999/xlink"  version="1.2" baseProfile="tiny">
<title>Qt SVG Document</title>
<desc>Generated with Qt</desc>
<defs>
</defs>
<g fill="none" stroke="black" stroke-width="1" fill-rule="evenodd" stroke-linecap="square" stroke-linejoin="bevel" >

<g fill="#ffffff" fill-opacity="1" stroke="none" transform="matrix(1,0,0,1,0,0)"
font-family="Helvetica" font-size="12" font-weight="400" font-style="normal" 
>
<rect x="0" y="0" width="1698" height="1000"/>
</g>

<g fill="none" stroke="#000000" stroke-opacity="1" stroke-width="1" stroke-linecap="square" stroke-linejoin="bevel" transform="matrix(1,0,0,1,0,0)"
font-family="Helvetica" font-size="12" font-weight="400" font-style="normal" 
>
</g>

<g fill="none" stroke="#000000" stroke-opacity="1" stroke-width="1" stroke-linecap="square" stroke-linejoin="bevel" transform="matrix(1,0,0,1,0,0)"
font-family="Helvetica" font-size="12" font-weight="400" font-style="normal" 
>
</g>

<g fill="none" stroke="#000000" stroke-opacity="1" stroke-width="1" stroke-linecap="square" stroke-linejoin="bevel" transform="matrix(5.70247,0,0,5.70247,-56.1363,-52.2358)"
font-family="Helvetica" font-size="12" font-weight="400" font-style="normal" 
>
</g>

<g fill="none" stroke="#000000" stroke-opacity="0.705882" stroke-width="1.5" stroke-linecap="round" stroke-linejoin="bevel" transform="matrix(5.70247,0,0,5.70247,-56.1363,-52.2358)"
font-family="Helvetica" font-size="12" font-weight="400" font-style="normal" 
>
<path vector-effect="none" fill-rule="evenodd" d="M191.97,169.018 C186.97,168.977 187.011,163.977 194.511,164.039 C202.011,164.1 201.97,169.1 196.97,169.059 "/>
</g>

<g fill="none" stroke="#000000" stroke-opacity="1" stroke-width="1" stroke-linecap="square" stroke-linejoin="bevel" transform="matrix(5.70247,0,0,5.70247,-56.1363,-52.2358)"
font-family="Helvetica" font-size="12" font-weight="400" font-style="normal" 
>
</g>

<g fill="none" stroke="#000000" stroke-opacity="1" stroke-width="1" stroke-linecap="square" stroke-linejoin="bevel" transform="matrix(5.70247,0,0,5.70247,-56.1363,-52.2358)"
font-family="Helvetica" font-size="12" font-weight="400" font-style="normal" 
>
</g>

<g fill="#cb6298" fill-opacity="1" stroke="none" transform="matrix(5.70247,0,0,5.70247,-56.1363,-52.2358)"
font-family="Helvetica" font-size="12" font-weight="400" font-style="normal" 
>
<path vector-effect="none" fill-rule="nonzero" d="M31.2724,170.387 L24.9891,170.336 L25.0109,167.689 L31.2941,167.741 L31.2724,170.387"/>
</g>

<g fill="none" stroke="#000000" stroke-opacity="1" stroke-width="0.3" stroke-linecap="square" stroke-linejoin="round" transform="matrix(5.70247,0,0,5.70247,-56.1363,-52.2358)"
font-family="Helvetica" font-size="12" font-weight="400" font-style="normal" 
>
<path vector-effect="none" fill-rule="evenodd" d="M31.2724,170.387 L24.9891,170.336 L25.0109,167.689 L31.2941,167.741 L31.2724,170.387"/>
</g>

<g fill="none" stroke="#000000" stroke-opacity="1" stroke-width="1" stroke-linecap="square" stroke-linejoin="bevel" transform="matrix(5.70247,0,0,5.70247,-56.1363,-52.2358)"
font-family="Helvetica" font-size="12" font-weight="400" font-style="normal" 
>
</g>

<g fill="none" stroke="#000000" stroke-opacity="1" stroke-width="1" stroke-linecap="square" stroke-linejoin="bevel" transform="matrix(5.70247,0,0,5.70247,-56.1363,-52.2358)"
font-family="Helvetica" font-size="12" font-weight="400" font-style="normal" 
>
</g>

<g fill="#cb6273" fill-opacity="1" stroke="none" transform="matrix(5.70247,0,0,5.70247,-56.1363,-52.2358)"
font-family="Helvetica" font-size="12" font-weight="400" font-style="normal" 
>
<path vector-effect="none" fill-rule="nonzero" d="M141.959,170.39 L136.76,170.347 L136.782,167.687 L141.981,167.73 L141.959,170.39"/>
</g>

<g fill="none" stroke="#000000" stroke-opacity="1" stroke-width="0.3" stroke-linecap="square" stroke-linejoin="round" transform="matrix(5.70247,0,0,5.70247,-56.1363,-52.2358)"
font-family="Helvetica" font-size="12" font-weight="400" font-style="normal" 
>
<path vector-effect="none" fill-rule="evenodd" d="M141.959,170.39 L136.76,170.347 L136.782,167.687 L141.981,167.73 L141.959,170.39"/>
</g>

<g fill="none" stroke="#000000" stroke-opacity="1" stroke-width="1" stroke-linecap="square" stroke-linejoin="bevel" transform="matrix(5.70247,0,0,5.70247,-56.1363,-52.2358)"
font-family="Helvetica" font-size="12" font-weight="400" font-style="normal" 
>
</g>

<g fill="none" stroke="#000000" stroke-opacity="1" stroke-width="1" stroke-linecap="square" stroke-linejoin="bevel" transform="matrix(5.70247,0,0,5.70247,-56.1363,-52.2358)"
font-family="Helvetica" font-size="12" font-weight="400" font-style="normal" 
>
</g>

<g fill="#62cb86" fill-opacity="1" stroke="none" transform="matrix(5.70247,0,0,5.70247,-56.1363,-52.2358)"
font-family="Helvetica" font-size="12" font-weight="400" font-style="normal" 
>
<path vector-effect="none" fill-rule="nonzero" d="M196.96,170.338 L191.96,170.297 L191.981,167.738 L196.981,167.779 L196.96,170.338"/>
</g>

<g fill="none" stroke="#000000" stroke-opacity="1" stroke-width="0.3" stroke-linecap="square" stroke-linejoin="round" transform="matrix(5.70247,0,0,5.70247,-56.1363,-52.2358)"
font-family="Helvetica" font-size="12" font-weight="400" font-style="normal" 
>
<path vector-effect="none" fill-rule="evenodd" d="M196.96,170.338 L191.96,170.297 L191.981,167.738 L196.981,167.779 L196.96,170.338"/>
</g>

<g fill="none" stroke="#000000" stroke-opacity="1" stroke-width="1" stroke-linecap="square" stroke-linejoin="bevel" transform="matrix(5.70247,0,0,5.70247,-56.1363,-52.2358)"
font-family="Helvetica" font-size="12" font-weight="400" font-style="normal" 
>
</g>

<g fill="none" stroke="#000000" stroke-opacity="1" stroke-width="1" stroke-linecap="square" stroke-linejoin="bevel" transform="matrix(5.70247,0,0,5.70247,-56.1363,-52.2358)"
font-family="Helvetica" font-size="12" font-weight="400" font-style="normal" 
>
</g>

<g fill="#cb6262" fill-opacity="1" stroke="none" transform="matrix(5.70247,0,0,5.70247,-56.1363,-52.2358)"
font-family="Helvetica" font-size="12" font-weight="400" font-style="normal" 
>
<path vector-effect="none" fill-rule="nonzero" d="M25.2316,113.339 L44.5657,115.072 L44.3341,117.656 L44.4731,115.066 L64.3734,116.134 L64.2344,118.724 L64.2711,116.13 L84.6349,116.419 L84.5982,119.013 L84.5286,116.419 L104.887,115.873 L104.957,118.466 L104.785,115.877 L124.67,114.555 L124.842,117.144 L124.577,114.563 L143.887,112.58 L144.417,117.742 L125.107,119.724 C125.076,119.728 125.045,119.73 125.015,119.732 L125.014,119.732 L105.129,121.054 C105.095,121.057 105.061,121.058 105.027,121.059 L105.026,121.059 L84.6679,121.606 C84.6447,121.607 84.6215,121.607 84.5982,121.607 C84.5859,121.607 84.5736,121.607 84.5615,121.607 L84.5615,121.607 L64.1977,121.318 C64.163,121.318 64.1288,121.317 64.0952,121.315 L64.0953,121.315 L44.195,120.247 C44.1633,120.245 44.1324,120.243 44.1023,120.24 L44.1025,120.24 L24.7684,118.507 L25.2316,113.339"/>
</g>

<g fill="none" stroke="#000000" stroke-opacity="1" stroke-width="0.3" stroke-linecap="square" stroke-linejoin="round" transform="matrix(5.70247,0,0,5.70247,-56.1363,-52.2358)"
font-family="Helvetica" font-size="12" font-weight="400" font-style="normal" 
>
<path vector-effect="none" fill-rule="evenodd" d="M25.2316,113.339 L44.5195,115.068 L64.3223,116.131 L84.5818,116.418 L104.836,115.874 L124.623,114.558 L143.887,112.58 L144.417,117.742 L125.107,119.724 L125.061,119.729 L125.015,119.732 L125.014,119.732 L105.129,121.054 L105.078,121.057 L105.027,121.059 L105.026,121.059 L84.6679,121.606 L84.6331,121.607 L84.5982,121.607 L84.5798,121.607 L84.5615,121.607 L84.5615,121.607 L64.1977,121.318 L64.146,121.317 L64.0952,121.315 L64.0953,121.315 L44.195,120.247 L44.148,120.244 L44.1023,120.24 L44.1025,120.24 L24.7684,118.507 L25.2316,113.339"/>
</g>

<g fill="none" stroke="#000000" stroke-opacity="1" stroke-width="1" stroke-linecap="square" stroke-linejoin="bevel" transform="matrix(5.70247,0,0,5.70247,-56.1363,-52.2358)"
font-family="Helvetica" font-size="12" font-weight="400" font-style="normal" 
>
</g>

<g fill="none" stroke="#000000" stroke-opacity="1" stroke-width="1" stroke-linecap="square" stroke-linejoin="bevel" transform="matrix(5.70247,0,0,5.70247,-56.1363,-52.2358)"
font-family="Helvetica" font-size="12" font-weight="400" font-style="normal" 
>
</g>

<g fill="#a962cb" fill-opacity="1" stroke="none" transform="matrix(5.70247,0,0,5.70247,-56.1363,-52.2358)"
font-family="Helvetica" font-size="12" font-weight="400" font-style="normal" 
>
<path vector-effect="none" fill-rule="nonzero" d="M23.879,38.3474 L39.916,30.8585 C40.056,30.7924 40.2031,30.7386 40.355,30.6983 L40.3563,30.6987 L57.7866,26.0644 C57.9473,26.0211 58.1147,25.9931 58.2859,25.9816 L58.2867,25.9816 L76.9847,24.704 C77.0443,24.6999 77.1046,24.6978 77.1653,24.6978 C78.6285,24.6978 79.8147,25.884 79.8147,27.3472 C79.8147,28.8104 78.6285,29.9965 77.1653,29.9965 C75.7021,29.9965 74.516,28.8104 74.516,27.3472 C74.516,26.1138 75.3588,25.0772 76.4993,24.7822 L77.475,24.716 L96.6544,26.9736 C96.7901,26.9892 96.9217,27.0151 97.0487,27.05 L97.0481,27.0505 L116.073,32.2894 C116.158,32.3121 116.24,32.3392 116.319,32.3698 L116.319,32.3704 L135.013,39.5472 C135.042,39.5578 135.071,39.5694 135.099,39.5812 L135.098,39.5817 L153.68,47.4684 L152.645,49.9072 L153.605,47.4377 L172.451,54.7618 L171.492,57.2312 L172.213,54.682 L191.587,60.1641 L190.866,62.7133 L191.191,60.084 L210.991,62.5317 L210.666,65.161 L210.473,62.5187 L230.105,61.0855 L230.298,63.7279 L229.546,61.1874 L248.071,55.7055 L248.822,58.246 L247.565,55.9142 L264.114,46.9882 L265.372,49.32 L263.718,47.2502 L277.876,35.9375 L279.53,38.0072 L277.591,36.2023 L289.697,23.195 L293.575,26.805 L281.469,39.8122 C281.381,39.9073 281.285,39.9958 281.184,40.0771 L281.184,40.077 L267.026,51.3898 C266.902,51.4886 266.77,51.5765 266.63,51.6521 L266.63,51.6518 L250.08,60.5778 C249.921,60.6644 249.752,60.7347 249.575,60.7868 L249.574,60.7865 L231.05,66.2683 C230.871,66.3219 230.684,66.3564 230.491,66.3702 L230.491,66.3702 L210.859,67.8033 C210.795,67.808 210.731,67.8104 210.666,67.8104 C210.556,67.8104 210.447,67.8036 210.341,67.7906 L210.341,67.7903 L190.541,65.3427 C190.404,65.3262 190.272,65.2993 190.144,65.2631 L190.144,65.2626 L170.77,59.7805 C170.688,59.7579 170.609,59.7313 170.532,59.7012 L170.532,59.7007 L151.685,52.3766 C151.659,52.3672 151.634,52.3569 151.61,52.3465 L151.61,52.346 L133.028,44.4593 L134.063,42.0205 L133.113,44.4939 L114.42,37.3171 L115.369,34.8437 L114.666,37.398 L95.6413,32.1591 L96.3447,29.6048 L96.035,32.236 L76.8556,29.9784 L77.1653,27.3472 L77.3459,29.9904 L58.6479,31.268 L58.4673,28.6248 L59.148,31.1852 L41.7178,35.8195 L41.037,33.2591 L42.158,35.6596 L26.121,43.1484 L23.879,38.3474"/>
</g>

<g fill="none" stroke="#000000" stroke-opacity="1" stroke-width="0.3" stroke-linecap="square" stroke-linejoin="round" transform="matrix(5.70247,0,0,5.70247,-56.1363,-52.2358)"
font-family="Helvetica" font-size="12" font-weight="400" font-style="normal" 
>
<path vector-effect="none" fill-rule="evenodd" d="M23.879,38.3474 L39.916,30.8585 L40.131,30.7687 L40.355,30.6983 L40.3563,30.6987 L57.7866,26.0644 L58.0323,26.0111 L58.2859,25.9816 L58.2867,25.9816 L76.9847,24.704 L77.0746,24.6993 L77.1653,24.6978 L77.2466,24.7315 L77.475,24.716 L96.6544,26.9736 L96.8548,27.0046 L97.0487,27.05 L97.0481,27.0505 L116.073,32.2894 L116.198,32.3267 L116.319,32.3698 L116.319,32.3704 L135.013,39.5472 L135.056,39.5637 L135.099,39.5812 L135.098,39.5817 L153.643,47.4525 L172.334,54.7162 L191.392,60.1089 L210.733,62.4997 L229.82,61.1063 L247.807,55.7836 L263.904,47.1014 L277.724,36.0593 L289.697,23.195 L293.575,26.805 L281.469,39.8122 L281.332,39.9498 L281.184,40.0771 L281.184,40.077 L267.026,51.3898 L266.834,51.5297 L266.63,51.6521 L266.63,51.6518 L250.08,60.5778 L249.834,60.6952 L249.575,60.7868 L249.574,60.7865 L231.05,66.2683 L230.776,66.3342 L230.491,66.3702 L230.491,66.3702 L210.859,67.8033 L210.763,67.8086 L210.666,67.8104 L210.502,67.8054 L210.341,67.7906 L210.341,67.7903 L190.541,65.3427 L190.339,65.3103 L190.144,65.2631 L190.144,65.2626 L170.77,59.7805 L170.649,59.7437 L170.532,59.7012 L170.532,59.7007 L151.685,52.3766 L151.647,52.3619 L151.61,52.3465 L151.61,52.346 L133.07,44.4773 L114.541,37.3636 L95.8352,32.2125 L77.1002,30.0072 L58.902,31.2507 L41.945,35.7591 L26.121,43.1484 L23.879,38.3474"/>
</g>

<g fill="none" stroke="#000000" stroke-opacity="1" stroke-width="1" stroke-linecap="square" stroke-linejoin="bevel" transform="matrix(5.70247,0,0,5.70247,-56.1363,-52.2358)"
font-family="Helvetica" font-size="12" font-weight="400" font-style="normal" 
>
</g>

<g fill="none" stroke="#000000" stroke-opacity="1" stroke-width="1" stroke-linecap="square" stroke-linejoin="bevel" transform="matrix(5.70247,0,0,5.70247,-56.1363,-52.2358)"
font-family="Helvetica" font-size="12" font-weight="400" font-style="normal" 
>
</g>

<g fill="#b262cb" fill-opacity="1" stroke="none" transform="matrix(5.70247,0,0,5.70247,-56.1363,-52.2358)"
font-family="Helvetica" font-size="12" font-weight="400" font-style="normal" 
>
<path vector-effect="none" fill-rule="nonzero" d="M86.7599,170.389 L81.2723,170.344 L81.2941,167.688 L86.7817,167.733 L86.7599,170.389"/>
</g>

<g fill="none" stroke="#000000" stroke-opacity="1" stroke-width="0.3" stroke-linecap="square" stroke-linejoin="round" transform="matrix(5.70247,0,0,5.70247,-56.1363,-52.2358)"
font-family="Helvetica" font-size="12" font-weight="400" font-style="normal" 
>
<path vector-effect="none" fill-rule="evenodd" d="M86.7599,170.389 L81.2723,170.344 L81.2941,167.688 L86.7817,167.733 L86.7599,170.389"/>
</g>

<g fill="none" stroke="#000000" stroke-opacity="1" stroke-width="1" stroke-linecap="square" stroke-linejoin="bevel" transform="matrix(5.70247,0,0,5.70247,-56.1363,-52.2358)"
font-family="Helvetica" font-size="12" font-weight="400" font-style="normal" 
>
</g>

<g fill="none" stroke="#000000" stroke-opacity="1" stroke-width="1" stroke-linecap="square" stroke-linejoin="bevel" transform="matrix(5.70247,0,0,5.70247,-56.1363,-52.2358)"
font-family="Helvetica" font-size="12" font-weight="400" font-style="normal" 
>
</g>

<g fill="#cb62ab" fill-opacity="1" stroke="none" transform="matrix(5.70247,0,0,5.70247,-56.1363,-52.2358)"
font-family="Helvetica" font-size="12" font-weight="400" font-style="normal" 
>
<path vector-effect="none" fill-rule="nonzero" d="M194.099,116.181 L212.703,115.48 C212.715,115.48 212.727,115.48 212.739,115.479 L212.739,115.479 L231.669,115.245 C231.673,115.245 231.677,115.245 231.681,115.245 L231.681,115.245 L250.611,115.175 C250.612,115.175 250.614,115.175 250.616,115.175 C251.394,115.175 252.025,115.806 252.025,116.584 C252.025,117.363 251.394,117.994 250.616,117.994 C249.837,117.994 249.206,117.363 249.206,116.584 C249.206,115.812 249.827,115.185 250.597,115.175 L250.624,115.175 L269.245,115.29 L269.228,118.108 L250.607,117.994 L250.616,116.584 L250.621,117.994 L231.691,118.064 L231.686,116.654 L231.704,118.063 L212.774,118.298 L212.756,116.889 L212.809,118.297 L194.205,118.998 L194.099,116.181"/>
</g>

<g fill="none" stroke="#000000" stroke-opacity="1" stroke-width="0.3" stroke-linecap="square" stroke-linejoin="round" transform="matrix(5.70247,0,0,5.70247,-56.1363,-52.2358)"
font-family="Helvetica" font-size="12" font-weight="400" font-style="normal" 
>
<path vector-effect="none" fill-rule="evenodd" d="M194.099,116.181 L212.703,115.48 L212.721,115.48 L212.739,115.479 L212.739,115.479 L231.669,115.245 L231.675,115.245 L231.681,115.245 L231.681,115.245 L250.611,115.175 L250.613,115.175 L250.616,115.175 L250.616,115.175 L250.624,115.175 L269.245,115.29 L269.228,118.108 L250.614,117.994 L231.698,118.064 L212.792,118.298 L194.205,118.998 L194.099,116.181"/>
</g>

<g fill="none" stroke="#000000" stroke-opacity="1" stroke-width="1" stroke-linecap="square" stroke-linejoin="bevel" transform="matrix(5.70247,0,0,5.70247,-56.1363,-52.2358)"
font-family="Helvetica" font-size="12" font-weight="400" font-style="normal" 
>
</g>

<g fill="none" stroke="#000000" stroke-opacity="1" stroke-width="1" stroke-linecap="square" stroke-linejoin="bevel" transform="matrix(1,0,0,1,0,0)"
font-family="Helvetica" font-size="12" font-weight="400" font-style="normal" 
>
</g>
</g>
</svg>
