<?xml version="1.0" encoding="UTF-8" standalone="no"?>
<svg width="500.944mm" height="352.778mm"
 viewBox="0 0 1420 1000"
 xmlns="http://www.w3.org/2000/svg" xmlns:xlink="http://www.w3.org/1999/xlink"  version="1.2" baseProfile="tiny">
<title>Qt SVG Document</title>
<desc>Generated with Qt</desc>
<defs>
</defs>
<g fill="none" stroke="black" stroke-width="1" fill-rule="evenodd" stroke-linecap="square" stroke-linejoin="bevel" >

<g fill="#ffffff" fill-opacity="1" stroke="none" transform="matrix(1,0,0,1,0,0)"
font-family="Helvetica" font-size="12" font-weight="400" font-style="normal" 
>
<rect x="0" y="0" width="1420" height="1000"/>
</g>

<g fill="none" stroke="#000000" stroke-opacity="1" stroke-width="1" stroke-linecap="square" stroke-linejoin="bevel" transform="matrix(1,0,0,1,0,0)"
font-family="Helvetica" font-size="12" font-weight="400" font-style="normal" 
>
</g>

<g fill="none" stroke="#000000" stroke-opacity="1" stroke-width="1" stroke-linecap="square" stroke-linejoin="bevel" transform="matrix(1,0,0,1,0,0)"
font-family="Helvetica" font-size="12" font-weight="400" font-style="normal" 
>
</g>

<g fill="none" stroke="#000000" stroke-opacity="1" stroke-width="1" stroke-linecap="square" stroke-linejoin="bevel" transform="matrix(4.2436,0,0,4.2436,-28.278,-28.1799)"
font-family="Helvetica" font-size="12" font-weight="400" font-style="normal" 
>
</g>

<g fill="none" stroke="#000000" stroke-opacity="0.705882" stroke-width="1.5" stroke-linecap="round" stroke-linejoin="bevel" transform="matrix(4.2436,0,0,4.2436,-28.278,-28.1799)"
font-family="Helvetica" font-size="12" font-weight="400" font-style="normal" 
>
<path vector-effect="none" fill-rule="evenodd" d="M140.686,221.201 C145.686,221.259 145.628,226.259 138.128,226.171 C130.629,226.084 130.687,221.084 135.687,221.143 "/>
</g>

<g fill="none" stroke="#000000" stroke-opacity="1" stroke-width="1" stroke-linecap="square" stroke-linejoin="bevel" transform="matrix(4.2436,0,0,4.2436,-28.278,-28.1799)"
font-family="Helvetica" font-size="12" font-weight="400" font-style="normal" 
>
</g>

<g fill="none" stroke="#000000" stroke-opacity="1" stroke-width="1" stroke-linecap="square" stroke-linejoin="bevel" transform="matrix(4.2436,0,0,4.2436,-28.278,-28.1799)"
font-family="Helvetica" font-size="12" font-weight="400" font-style="normal" 
>
</g>

<g fill="#6762cb" fill-opacity="1" stroke="none" transform="matrix(4.2436,0,0,4.2436,-28.278,-28.1799)"
font-family="Helvetica" font-size="12" font-weight="400" font-style="normal" 
>
<path vector-effect="none" fill-rule="nonzero" d="M319.292,167.891 L325.575,167.964 L325.544,170.611 L319.261,170.538 L319.292,167.891"/>
</g>

<g fill="none" stroke="#000000" stroke-opacity="1" stroke-width="0.3" stroke-linecap="square" stroke-linejoin="round" transform="matrix(4.2436,0,0,4.2436,-28.278,-28.1799)"
font-family="Helvetica" font-size="12" font-weight="400" font-style="normal" 
>
<path vector-effect="none" fill-rule="evenodd" d="M319.292,167.891 L325.575,167.964 L325.544,170.611 L319.261,170.538 L319.292,167.891"/>
</g>

<g fill="none" stroke="#000000" stroke-opacity="1" stroke-width="1" stroke-linecap="square" stroke-linejoin="bevel" transform="matrix(4.2436,0,0,4.2436,-28.278,-28.1799)"
font-family="Helvetica" font-size="12" font-weight="400" font-style="normal" 
>
</g>

<g fill="none" stroke="#000000" stroke-opacity="1" stroke-width="1" stroke-linecap="square" stroke-linejoin="bevel" transform="matrix(4.2436,0,0,4.2436,-28.278,-28.1799)"
font-family="Helvetica" font-size="12" font-weight="400" font-style="normal" 
>
</g>

<g fill="#cb62a4" fill-opacity="1" stroke="none" transform="matrix(4.2436,0,0,4.2436,-28.278,-28.1799)"
font-family="Helvetica" font-size="12" font-weight="400" font-style="normal" 
>
<path vector-effect="none" fill-rule="nonzero" d="M80.5029,219.812 L85.7021,219.872 L85.6711,222.532 L80.4718,222.471 L80.5029,219.812"/>
</g>

<g fill="none" stroke="#000000" stroke-opacity="1" stroke-width="0.3" stroke-linecap="square" stroke-linejoin="round" transform="matrix(4.2436,0,0,4.2436,-28.278,-28.1799)"
font-family="Helvetica" font-size="12" font-weight="400" font-style="normal" 
>
<path vector-effect="none" fill-rule="evenodd" d="M80.5029,219.812 L85.7021,219.872 L85.6711,222.532 L80.4718,222.471 L80.5029,219.812"/>
</g>

<g fill="none" stroke="#000000" stroke-opacity="1" stroke-width="1" stroke-linecap="square" stroke-linejoin="bevel" transform="matrix(4.2436,0,0,4.2436,-28.278,-28.1799)"
font-family="Helvetica" font-size="12" font-weight="400" font-style="normal" 
>
</g>

<g fill="none" stroke="#000000" stroke-opacity="1" stroke-width="1" stroke-linecap="square" stroke-linejoin="bevel" transform="matrix(4.2436,0,0,4.2436,-28.278,-28.1799)"
font-family="Helvetica" font-size="12" font-weight="400" font-style="normal" 
>
</g>

<g fill="#63cb62" fill-opacity="1" stroke="none" transform="matrix(4.2436,0,0,4.2436,-28.278,-28.1799)"
font-family="Helvetica" font-size="12" font-weight="400" font-style="normal" 
>
<path vector-effect="none" fill-rule="nonzero" d="M135.702,219.863 L140.701,219.921 L140.671,222.48 L135.672,222.422 L135.702,219.863"/>
</g>

<g fill="none" stroke="#000000" stroke-opacity="1" stroke-width="0.3" stroke-linecap="square" stroke-linejoin="round" transform="matrix(4.2436,0,0,4.2436,-28.278,-28.1799)"
font-family="Helvetica" font-size="12" font-weight="400" font-style="normal" 
>
<path vector-effect="none" fill-rule="evenodd" d="M135.702,219.863 L140.701,219.921 L140.671,222.48 L135.672,222.422 L135.702,219.863"/>
</g>

<g fill="none" stroke="#000000" stroke-opacity="1" stroke-width="1" stroke-linecap="square" stroke-linejoin="bevel" transform="matrix(4.2436,0,0,4.2436,-28.278,-28.1799)"
font-family="Helvetica" font-size="12" font-weight="400" font-style="normal" 
>
</g>

<g fill="none" stroke="#000000" stroke-opacity="1" stroke-width="1" stroke-linecap="square" stroke-linejoin="bevel" transform="matrix(4.2436,0,0,4.2436,-28.278,-28.1799)"
font-family="Helvetica" font-size="12" font-weight="400" font-style="normal" 
>
</g>

<g fill="#cb62a6" fill-opacity="1" stroke="none" transform="matrix(4.2436,0,0,4.2436,-28.278,-28.1799)"
font-family="Helvetica" font-size="12" font-weight="400" font-style="normal" 
>
<path vector-effect="none" fill-rule="nonzero" d="M144.45,169.944 L125.127,171.825 C125.1,171.828 125.072,171.83 125.045,171.832 L125.045,171.832 L105.158,173.125 C105.128,173.127 105.097,173.129 105.067,173.13 L105.067,173.13 L84.7111,173.733 C84.6856,173.734 84.66,173.734 84.6343,173.734 C84.6281,173.734 84.622,173.734 84.616,173.734 L84.616,173.734 L64.2521,173.591 C64.2212,173.59 64.1905,173.59 64.1604,173.588 L64.1604,173.588 L44.2499,172.744 C44.2215,172.743 44.1937,172.741 44.1667,172.739 L44.1668,172.739 L24.8071,171.296 L25.1929,166.121 L44.5527,167.565 L44.3598,170.152 L44.4697,167.56 L64.3802,168.404 L64.2703,170.996 L64.2886,168.402 L84.6525,168.545 L84.6343,171.14 L84.5574,168.547 L104.913,167.943 L104.99,170.536 L104.821,167.948 L124.708,166.654 L124.876,169.243 L124.625,166.661 L143.947,164.78 L144.45,169.944"/>
</g>

<g fill="none" stroke="#000000" stroke-opacity="1" stroke-width="0.3" stroke-linecap="square" stroke-linejoin="round" transform="matrix(4.2436,0,0,4.2436,-28.278,-28.1799)"
font-family="Helvetica" font-size="12" font-weight="400" font-style="normal" 
>
<path vector-effect="none" fill-rule="evenodd" d="M144.45,169.944 L125.127,171.825 L125.086,171.829 L125.045,171.832 L125.045,171.832 L105.158,173.125 L105.113,173.128 L105.067,173.13 L105.067,173.13 L84.7111,173.733 L84.6728,173.734 L84.6343,173.734 L84.6251,173.734 L84.616,173.734 L84.616,173.734 L64.2521,173.591 L64.2059,173.59 L64.1604,173.588 L64.1604,173.588 L44.2499,172.744 L44.2077,172.742 L44.1667,172.739 L44.1668,172.739 L24.8071,171.296 L25.1929,166.121 L44.5112,167.562 L64.3344,168.403 L84.6049,168.545 L104.867,167.945 L124.666,166.657 L143.947,164.78 L144.45,169.944"/>
</g>

<g fill="none" stroke="#000000" stroke-opacity="1" stroke-width="1" stroke-linecap="square" stroke-linejoin="bevel" transform="matrix(4.2436,0,0,4.2436,-28.278,-28.1799)"
font-family="Helvetica" font-size="12" font-weight="400" font-style="normal" 
>
</g>

<g fill="none" stroke="#000000" stroke-opacity="1" stroke-width="1" stroke-linecap="square" stroke-linejoin="bevel" transform="matrix(4.2436,0,0,4.2436,-28.278,-28.1799)"
font-family="Helvetica" font-size="12" font-weight="400" font-style="normal" 
>
</g>

<g fill="#62cba9" fill-opacity="1" stroke="none" transform="matrix(4.2436,0,0,4.2436,-28.278,-28.1799)"
font-family="Helvetica" font-size="12" font-weight="400" font-style="normal" 
>
<path vector-effect="none" fill-rule="nonzero" d="M22.3738,117.013 L24.7086,99.4506 C24.724,99.3321 24.7472,99.2172 24.7773,99.1059 L24.7778,99.1065 L29.5171,81.6248 C29.555,81.4824 29.6046,81.3459 29.6644,81.2155 L29.6649,81.216 L37.4902,64.1086 C37.5643,63.9452 37.6548,63.7915 37.7592,63.6487 L37.7594,63.6489 L49.1402,48.0538 C49.2634,47.885 49.4061,47.7315 49.565,47.5964 L49.565,47.5965 L64.5104,34.9004 C64.6854,34.7516 64.88,34.6251 65.0895,34.5255 L65.0902,34.5258 L82.9797,26.0401 C83.1915,25.9388 83.4194,25.8653 83.6574,25.8239 L83.6587,25.8241 L103.292,22.3903 C103.44,22.3641 103.592,22.3506 103.748,22.3506 C105.211,22.3506 106.398,23.5368 106.398,25 C106.398,26.4632 105.211,27.6494 103.748,27.6494 C102.285,27.6494 101.099,26.4632 101.099,25 C101.099,23.9333 101.729,23.0139 102.637,22.594 L103.976,22.3604 L123.926,24.0804 C124.137,24.0983 124.34,24.1406 124.532,24.2044 L124.532,24.205 L143.583,30.5152 C143.754,30.5712 143.917,30.6445 144.07,30.7326 L144.069,30.7329 L161.44,40.7118 C161.57,40.7861 161.693,40.8713 161.807,40.9659 L161.807,40.966 L177.132,53.618 C177.226,53.6959 177.315,53.7803 177.398,53.8704 L177.398,53.8704 L190.604,68.2702 C190.67,68.3429 190.733,68.4193 190.791,68.4991 L190.791,68.4993 L201.976,83.8284 C202.023,83.8914 202.066,83.9566 202.107,84.0237 L202.106,84.0241 L211.488,99.6169 C211.521,99.6699 211.551,99.7245 211.579,99.7799 L211.579,99.7805 L219.627,115.584 L214.905,117.988 L206.857,102.185 L209.218,100.983 L206.948,102.349 L197.566,86.7559 L199.836,85.39 L197.696,86.9516 L186.511,71.6225 L188.651,70.0609 L186.699,71.8516 L173.493,57.4518 L175.445,55.6611 L173.759,57.7041 L158.434,45.0521 L160.12,43.009 L158.801,45.3063 L141.43,35.3274 L142.75,33.0302 L141.917,35.5451 L122.866,29.235 L123.699,26.72 L123.471,29.3595 L103.521,27.6396 L103.748,25 L104.205,27.6097 L84.5716,31.0436 L84.1151,28.4338 L85.2506,30.8276 L67.3611,39.3133 L66.2256,36.9196 L67.9409,38.9387 L52.9956,51.6348 L51.2803,49.6156 L53.4204,51.1774 L42.0395,66.7724 L39.8994,65.2106 L42.3087,66.3127 L34.4834,83.4201 L32.0742,82.318 L34.6312,83.0112 L29.8919,100.493 L27.3349,99.7998 L29.9611,100.149 L27.6262,117.711 L22.3738,117.013"/>
</g>

<g fill="none" stroke="#000000" stroke-opacity="1" stroke-width="0.3" stroke-linecap="square" stroke-linejoin="round" transform="matrix(4.2436,0,0,4.2436,-28.278,-28.1799)"
font-family="Helvetica" font-size="12" font-weight="400" font-style="normal" 
>
<path vector-effect="none" fill-rule="evenodd" d="M22.3738,117.013 L24.7086,99.4506 L24.7374,99.2756 L24.7773,99.1059 L24.7778,99.1065 L29.5171,81.6248 L29.5825,81.4157 L29.6644,81.2155 L29.6649,81.216 L37.4902,64.1086 L37.6134,63.871 L37.7592,63.6487 L37.7594,63.6489 L49.1402,48.0538 L49.3392,47.8125 L49.565,47.5964 L49.565,47.5965 L64.5104,34.9004 L64.787,34.6945 L65.0895,34.5255 L65.0902,34.5258 L82.9797,26.0401 L83.3087,25.9095 L83.6574,25.8239 L83.6587,25.8241 L103.292,22.3903 L103.517,22.3606 L103.748,22.3506 L103.832,22.3855 L103.976,22.3604 L123.926,24.0804 L124.236,24.1252 L124.532,24.2044 L124.532,24.205 L143.583,30.5152 L143.833,30.6119 L144.07,30.7326 L144.069,30.7329 L161.44,40.7118 L161.629,40.8312 L161.807,40.9659 L161.807,40.966 L177.132,53.618 L177.269,53.7396 L177.398,53.8704 L177.398,53.8704 L190.604,68.2702 L190.701,68.382 L190.791,68.4991 L190.791,68.4993 L201.976,83.8284 L202.044,83.9245 L202.107,84.0237 L202.106,84.0241 L211.488,99.6169 L211.535,99.6975 L211.579,99.7799 L211.579,99.7805 L219.627,115.584 L214.905,117.988 L206.9,102.268 L197.627,86.8566 L186.598,71.7423 L173.617,57.5872 L158.606,45.1947 L141.662,35.4609 L123.161,29.3328 L103.865,27.6692 L84.9257,30.9816 L67.6756,39.1641 L53.2351,51.4313 L42.1973,66.5562 L34.5741,83.2217 L29.938,100.323 L27.6262,117.711 L22.3738,117.013"/>
</g>

<g fill="none" stroke="#000000" stroke-opacity="1" stroke-width="1" stroke-linecap="square" stroke-linejoin="bevel" transform="matrix(4.2436,0,0,4.2436,-28.278,-28.1799)"
font-family="Helvetica" font-size="12" font-weight="400" font-style="normal" 
>
</g>

<g fill="none" stroke="#000000" stroke-opacity="1" stroke-width="1" stroke-linecap="square" stroke-linejoin="bevel" transform="matrix(4.2436,0,0,4.2436,-28.278,-28.1799)"
font-family="Helvetica" font-size="12" font-weight="400" font-style="normal" 
>
</g>

<g fill="#cba862" fill-opacity="1" stroke="none" transform="matrix(4.2436,0,0,4.2436,-28.278,-28.1799)"
font-family="Helvetica" font-size="12" font-weight="400" font-style="normal" 
>
<path vector-effect="none" fill-rule="nonzero" d="M25.0155,219.811 L30.5028,219.876 L30.4718,222.532 L24.9845,222.468 L25.0155,219.811"/>
</g>

<g fill="none" stroke="#000000" stroke-opacity="1" stroke-width="0.3" stroke-linecap="square" stroke-linejoin="round" transform="matrix(4.2436,0,0,4.2436,-28.278,-28.1799)"
font-family="Helvetica" font-size="12" font-weight="400" font-style="normal" 
>
<path vector-effect="none" fill-rule="evenodd" d="M25.0155,219.811 L30.5028,219.876 L30.4718,222.532 L24.9845,222.468 L25.0155,219.811"/>
</g>

<g fill="none" stroke="#000000" stroke-opacity="1" stroke-width="1" stroke-linecap="square" stroke-linejoin="bevel" transform="matrix(4.2436,0,0,4.2436,-28.278,-28.1799)"
font-family="Helvetica" font-size="12" font-weight="400" font-style="normal" 
>
</g>

<g fill="none" stroke="#000000" stroke-opacity="1" stroke-width="1" stroke-linecap="square" stroke-linejoin="bevel" transform="matrix(4.2436,0,0,4.2436,-28.278,-28.1799)"
font-family="Helvetica" font-size="12" font-weight="400" font-style="normal" 
>
</g>

<g fill="#6293cb" fill-opacity="1" stroke="none" transform="matrix(4.2436,0,0,4.2436,-28.278,-28.1799)"
font-family="Helvetica" font-size="12" font-weight="400" font-style="normal" 
>
<path vector-effect="none" fill-rule="nonzero" d="M269.318,170.395 L250.709,170.946 C250.699,170.946 250.689,170.946 250.679,170.946 L250.679,170.946 L231.747,171.101 C231.744,171.101 231.74,171.101 231.736,171.101 C231.729,171.101 231.723,171.101 231.717,171.101 L231.717,171.101 L212.786,170.846 C212.777,170.846 212.767,170.846 212.758,170.846 L212.758,170.846 L194.151,170.219 L194.246,167.401 L212.853,168.028 L212.805,169.437 L212.824,168.028 L231.755,168.283 L231.736,169.692 L231.724,168.283 L250.656,168.127 L250.668,169.537 L250.626,168.128 L269.235,167.577 L269.318,170.395"/>
</g>

<g fill="none" stroke="#000000" stroke-opacity="1" stroke-width="0.3" stroke-linecap="square" stroke-linejoin="round" transform="matrix(4.2436,0,0,4.2436,-28.278,-28.1799)"
font-family="Helvetica" font-size="12" font-weight="400" font-style="normal" 
>
<path vector-effect="none" fill-rule="evenodd" d="M269.318,170.395 L250.709,170.946 L250.694,170.946 L250.679,170.946 L250.679,170.946 L231.747,171.101 L231.742,171.101 L231.736,171.101 L231.726,171.101 L231.717,171.101 L231.717,171.101 L212.786,170.846 L212.772,170.846 L212.758,170.846 L212.758,170.846 L194.151,170.219 L194.246,167.401 L212.839,168.028 L231.74,168.282 L250.641,168.127 L269.235,167.577 L269.318,170.395"/>
</g>

<g fill="none" stroke="#000000" stroke-opacity="1" stroke-width="1" stroke-linecap="square" stroke-linejoin="bevel" transform="matrix(4.2436,0,0,4.2436,-28.278,-28.1799)"
font-family="Helvetica" font-size="12" font-weight="400" font-style="normal" 
>
</g>

<g fill="none" stroke="#000000" stroke-opacity="1" stroke-width="1" stroke-linecap="square" stroke-linejoin="bevel" transform="matrix(1,0,0,1,0,0)"
font-family="Helvetica" font-size="12" font-weight="400" font-style="normal" 
>
</g>
</g>
</svg>
