<?xml version="1.0" encoding="UTF-8" standalone="no"?>
<svg width="658.283mm" height="352.778mm"
 viewBox="0 0 1866 1000"
 xmlns="http://www.w3.org/2000/svg" xmlns:xlink="http://www.w3.org/1999/xlink"  version="1.2" baseProfile="tiny">
<title>Qt SVG Document</title>
<desc>Generated with Qt</desc>
<defs>
</defs>
<g fill="none" stroke="black" stroke-width="1" fill-rule="evenodd" stroke-linecap="square" stroke-linejoin="bevel" >

<g fill="#ffffff" fill-opacity="1" stroke="none" transform="matrix(1,0,0,1,0,0)"
font-family="Helvetica" font-size="12" font-weight="400" font-style="normal" 
>
<rect x="0" y="0" width="1866" height="1000"/>
</g>

<g fill="none" stroke="#000000" stroke-opacity="1" stroke-width="1" stroke-linecap="square" stroke-linejoin="bevel" transform="matrix(1,0,0,1,0,0)"
font-family="Helvetica" font-size="12" font-weight="400" font-style="normal" 
>
</g>

<g fill="none" stroke="#000000" stroke-opacity="1" stroke-width="1" stroke-linecap="square" stroke-linejoin="bevel" transform="matrix(1,0,0,1,0,0)"
font-family="Helvetica" font-size="12" font-weight="400" font-style="normal" 
>
</g>

<g fill="none" stroke="#000000" stroke-opacity="1" stroke-width="1" stroke-linecap="square" stroke-linejoin="bevel" transform="matrix(6.01534,0,0,6.01534,-53.7737,-46.6208)"
font-family="Helvetica" font-size="12" font-weight="400" font-style="normal" 
>
</g>

<g fill="none" stroke="#000000" stroke-opacity="0.705882" stroke-width="1.5" stroke-linecap="round" stroke-linejoin="bevel" transform="matrix(6.01534,0,0,6.01534,-53.7737,-46.6208)"
font-family="Helvetica" font-size="12" font-weight="400" font-style="normal" 
>
<path vector-effect="none" fill-rule="evenodd" d="M196.971,154.095 C201.971,154.097 201.968,159.097 194.468,159.093 C186.968,159.09 186.971,154.09 191.971,154.092 "/>
</g>

<g fill="none" stroke="#000000" stroke-opacity="1" stroke-width="1" stroke-linecap="square" stroke-linejoin="bevel" transform="matrix(6.01534,0,0,6.01534,-53.7737,-46.6208)"
font-family="Helvetica" font-size="12" font-weight="400" font-style="normal" 
>
</g>

<g fill="none" stroke="#000000" stroke-opacity="1" stroke-width="1" stroke-linecap="square" stroke-linejoin="bevel" transform="matrix(6.01534,0,0,6.01534,-53.7737,-46.6208)"
font-family="Helvetica" font-size="12" font-weight="400" font-style="normal" 
>
</g>

<g fill="#cbad62" fill-opacity="1" stroke="none" transform="matrix(6.01534,0,0,6.01534,-53.7737,-46.6208)"
font-family="Helvetica" font-size="12" font-weight="400" font-style="normal" 
>
<path vector-effect="none" fill-rule="nonzero" d="M25.0007,152.768 L31.2841,152.772 L31.2828,155.418 L24.9993,155.415 L25.0007,152.768"/>
</g>

<g fill="none" stroke="#000000" stroke-opacity="1" stroke-width="0.3" stroke-linecap="square" stroke-linejoin="round" transform="matrix(6.01534,0,0,6.01534,-53.7737,-46.6208)"
font-family="Helvetica" font-size="12" font-weight="400" font-style="normal" 
>
<path vector-effect="none" fill-rule="evenodd" d="M25.0007,152.768 L31.2841,152.772 L31.2828,155.418 L24.9993,155.415 L25.0007,152.768"/>
</g>

<g fill="none" stroke="#000000" stroke-opacity="1" stroke-width="1" stroke-linecap="square" stroke-linejoin="bevel" transform="matrix(6.01534,0,0,6.01534,-53.7737,-46.6208)"
font-family="Helvetica" font-size="12" font-weight="400" font-style="normal" 
>
</g>

<g fill="none" stroke="#000000" stroke-opacity="1" stroke-width="1" stroke-linecap="square" stroke-linejoin="bevel" transform="matrix(6.01534,0,0,6.01534,-53.7737,-46.6208)"
font-family="Helvetica" font-size="12" font-weight="400" font-style="normal" 
>
</g>

<g fill="#65cb62" fill-opacity="1" stroke="none" transform="matrix(6.01534,0,0,6.01534,-53.7737,-46.6208)"
font-family="Helvetica" font-size="12" font-weight="400" font-style="normal" 
>
<path vector-effect="none" fill-rule="nonzero" d="M136.772,152.762 L141.971,152.765 L141.97,155.424 L136.77,155.422 L136.772,152.762"/>
</g>

<g fill="none" stroke="#000000" stroke-opacity="1" stroke-width="0.3" stroke-linecap="square" stroke-linejoin="round" transform="matrix(6.01534,0,0,6.01534,-53.7737,-46.6208)"
font-family="Helvetica" font-size="12" font-weight="400" font-style="normal" 
>
<path vector-effect="none" fill-rule="evenodd" d="M136.772,152.762 L141.971,152.765 L141.97,155.424 L136.77,155.422 L136.772,152.762"/>
</g>

<g fill="none" stroke="#000000" stroke-opacity="1" stroke-width="1" stroke-linecap="square" stroke-linejoin="bevel" transform="matrix(6.01534,0,0,6.01534,-53.7737,-46.6208)"
font-family="Helvetica" font-size="12" font-weight="400" font-style="normal" 
>
</g>

<g fill="none" stroke="#000000" stroke-opacity="1" stroke-width="1" stroke-linecap="square" stroke-linejoin="bevel" transform="matrix(6.01534,0,0,6.01534,-53.7737,-46.6208)"
font-family="Helvetica" font-size="12" font-weight="400" font-style="normal" 
>
</g>

<g fill="#cb62a8" fill-opacity="1" stroke="none" transform="matrix(6.01534,0,0,6.01534,-53.7737,-46.6208)"
font-family="Helvetica" font-size="12" font-weight="400" font-style="normal" 
>
<path vector-effect="none" fill-rule="nonzero" d="M191.971,152.812 L196.971,152.815 L196.97,155.374 L191.97,155.372 L191.971,152.812"/>
</g>

<g fill="none" stroke="#000000" stroke-opacity="1" stroke-width="0.3" stroke-linecap="square" stroke-linejoin="round" transform="matrix(6.01534,0,0,6.01534,-53.7737,-46.6208)"
font-family="Helvetica" font-size="12" font-weight="400" font-style="normal" 
>
<path vector-effect="none" fill-rule="evenodd" d="M191.971,152.812 L196.971,152.815 L196.97,155.374 L191.97,155.372 L191.971,152.812"/>
</g>

<g fill="none" stroke="#000000" stroke-opacity="1" stroke-width="1" stroke-linecap="square" stroke-linejoin="bevel" transform="matrix(6.01534,0,0,6.01534,-53.7737,-46.6208)"
font-family="Helvetica" font-size="12" font-weight="400" font-style="normal" 
>
</g>

<g fill="none" stroke="#000000" stroke-opacity="1" stroke-width="1" stroke-linecap="square" stroke-linejoin="bevel" transform="matrix(6.01534,0,0,6.01534,-53.7737,-46.6208)"
font-family="Helvetica" font-size="12" font-weight="400" font-style="normal" 
>
</g>

<g fill="#7062cb" fill-opacity="1" stroke="none" transform="matrix(6.01534,0,0,6.01534,-53.7737,-46.6208)"
font-family="Helvetica" font-size="12" font-weight="400" font-style="normal" 
>
<path vector-effect="none" fill-rule="nonzero" d="M144.263,106.684 L124.865,105.887 L124.972,103.295 L124.902,105.888 L104.982,105.357 L105.051,102.764 L105.024,105.358 L84.6603,105.143 L84.6877,102.549 L84.7037,105.143 L64.3397,105.268 L64.3237,102.674 L64.3817,105.267 L44.4591,105.713 L44.4011,103.119 L44.4971,105.712 L25.096,106.43 L24.904,101.245 L44.3051,100.527 C44.3177,100.526 44.3304,100.526 44.3428,100.525 L44.3431,100.525 L64.2658,100.08 C64.2798,100.08 64.2938,100.08 64.3077,100.079 L64.3078,100.079 L84.6718,99.9546 C84.6771,99.9546 84.6824,99.9546 84.6877,99.9546 C86.1205,99.9546 87.2821,101.116 87.2821,102.549 C87.2821,103.982 86.1205,105.143 84.6877,105.143 C83.255,105.143 82.0934,103.982 82.0934,102.549 C82.0934,101.136 83.2231,99.9867 84.6282,99.9552 L84.7152,99.9547 L105.078,100.17 C105.093,100.17 105.107,100.17 105.12,100.171 L105.12,100.171 L125.041,100.701 C125.054,100.702 125.066,100.702 125.078,100.703 L125.078,100.703 L144.476,101.5 L144.263,106.684"/>
</g>

<g fill="none" stroke="#000000" stroke-opacity="1" stroke-width="0.3" stroke-linecap="square" stroke-linejoin="round" transform="matrix(6.01534,0,0,6.01534,-53.7737,-46.6208)"
font-family="Helvetica" font-size="12" font-weight="400" font-style="normal" 
>
<path vector-effect="none" fill-rule="evenodd" d="M144.263,106.684 L124.884,105.888 L105.003,105.358 L84.682,105.143 L64.3607,105.268 L44.4781,105.712 L25.096,106.43 L24.904,101.245 L44.3051,100.527 L44.324,100.526 L44.3428,100.525 L44.3431,100.525 L64.2658,100.08 L64.2868,100.08 L64.3077,100.079 L64.3078,100.079 L84.6718,99.9546 L84.6798,99.9546 L84.6877,99.9546 L84.6885,99.9549 L84.7152,99.9547 L105.078,100.17 L105.099,100.17 L105.12,100.171 L105.12,100.171 L125.041,100.701 L125.06,100.702 L125.078,100.703 L125.078,100.703 L144.476,101.5 L144.263,106.684"/>
</g>

<g fill="none" stroke="#000000" stroke-opacity="1" stroke-width="1" stroke-linecap="square" stroke-linejoin="bevel" transform="matrix(6.01534,0,0,6.01534,-53.7737,-46.6208)"
font-family="Helvetica" font-size="12" font-weight="400" font-style="normal" 
>
</g>

<g fill="none" stroke="#000000" stroke-opacity="1" stroke-width="1" stroke-linecap="square" stroke-linejoin="bevel" transform="matrix(6.01534,0,0,6.01534,-53.7737,-46.6208)"
font-family="Helvetica" font-size="12" font-weight="400" font-style="normal" 
>
</g>

<g fill="#94cb62" fill-opacity="1" stroke="none" transform="matrix(6.01534,0,0,6.01534,-53.7737,-46.6208)"
font-family="Helvetica" font-size="12" font-weight="400" font-style="normal" 
>
<path vector-effect="none" fill-rule="nonzero" d="M304.546,53.2674 L287.016,54.8177 C286.957,54.823 286.897,54.8262 286.837,54.8274 L286.837,54.8274 L268.847,55.1977 C268.829,55.198 268.811,55.1982 268.793,55.1982 C268.748,55.1982 268.702,55.1971 268.658,55.1948 L268.658,55.1948 L249.896,54.2393 C249.833,54.2362 249.771,54.2309 249.71,54.2235 L249.71,54.2233 L230.442,51.8716 C230.386,51.8652 230.332,51.8569 230.28,51.8472 L230.28,51.8468 L210.766,48.2319 C210.726,48.2249 210.687,48.2168 210.649,48.2081 L210.65,48.2077 L191.043,43.6598 C191.024,43.656 191.006,43.6517 190.989,43.6475 L190.99,43.647 L171.336,38.6607 L171.987,36.0927 L171.36,38.6668 L151.632,33.861 L152.259,31.2869 L151.745,33.8859 L131.91,29.9623 L132.424,27.3633 L132.118,29.9949 L112.231,27.6811 L112.537,25.0495 L112.531,27.6989 L92.8209,27.6493 L92.8275,25 L93.1906,27.6244 L74.1011,30.2652 L73.738,27.6408 L74.499,30.1785 L56.6145,35.541 L55.8536,33.0032 L56.9902,35.3964 L40.8012,43.0849 L39.6647,40.6918 L41.1249,42.9024 L26.4602,52.5892 L23.5398,48.168 L38.2044,38.4812 C38.3072,38.4128 38.4152,38.3516 38.5273,38.2983 L38.5281,38.2986 L54.717,30.61 C54.837,30.5523 54.9625,30.5038 55.0915,30.4651 L55.0927,30.4655 L72.9771,25.1031 C73.1054,25.0639 73.2384,25.0349 73.3738,25.0163 L73.375,25.0165 L92.4645,22.3756 C92.5829,22.3591 92.7043,22.3506 92.8275,22.3506 C94.2907,22.3506 95.4769,23.5368 95.4769,25 C95.4769,26.4632 94.2907,27.6494 92.8275,27.6494 C91.3643,27.6494 90.1782,26.4632 90.1782,25 C90.1782,23.7886 90.9912,22.7672 92.1006,22.4516 L92.8342,22.3507 L112.544,22.4002 C112.646,22.4004 112.746,22.4064 112.844,22.4177 L112.844,22.4179 L132.73,24.7317 C132.802,24.7397 132.871,24.7506 132.939,24.7639 L132.938,24.7643 L152.773,28.688 C152.812,28.6952 152.85,28.7035 152.886,28.7124 L152.886,28.7129 L172.614,33.5187 C172.624,33.5203 172.632,33.5224 172.639,33.5242 L172.639,33.5247 L192.293,38.511 L191.641,41.079 L192.24,38.4981 L211.847,43.046 L211.248,45.6268 L211.731,43.0218 L231.245,46.6368 L230.763,49.2418 L231.084,46.6119 L250.352,48.9636 L250.031,51.5934 L250.166,48.9475 L268.928,49.9029 L268.793,52.5489 L268.738,49.9001 L286.728,49.5298 L286.782,52.1786 L286.549,49.5395 L304.079,47.9893 L304.546,53.2674"/>
</g>

<g fill="none" stroke="#000000" stroke-opacity="1" stroke-width="0.3" stroke-linecap="square" stroke-linejoin="round" transform="matrix(6.01534,0,0,6.01534,-53.7737,-46.6208)"
font-family="Helvetica" font-size="12" font-weight="400" font-style="normal" 
>
<path vector-effect="none" fill-rule="evenodd" d="M304.546,53.2674 L287.016,54.8177 L286.927,54.8241 L286.837,54.8274 L286.837,54.8274 L268.847,55.1977 L268.82,55.1981 L268.793,55.1982 L268.725,55.1974 L268.658,55.1948 L268.658,55.1948 L249.896,54.2393 L249.802,54.233 L249.71,54.2235 L249.71,54.2233 L230.442,51.8716 L230.36,51.8606 L230.28,51.8472 L230.28,51.8468 L210.766,48.2319 L210.707,48.2206 L210.649,48.2081 L210.65,48.2077 L191.043,43.6598 L191.015,43.6538 L190.989,43.6475 L190.99,43.647 L171.348,38.6638 L151.688,33.8747 L132.013,29.9827 L112.38,27.6985 L93.0066,27.6498 L74.3034,30.2372 L56.8079,35.483 L40.9695,43.005 L26.4602,52.5892 L23.5398,48.168 L38.2044,38.4812 L38.3624,38.3841 L38.5273,38.2983 L38.5281,38.2986 L54.717,30.61 L54.9009,30.5304 L55.0915,30.4651 L55.0927,30.4655 L72.9771,25.1031 L73.1728,25.052 L73.3738,25.0163 L73.375,25.0165 L92.4645,22.3756 L92.6442,22.3569 L92.8275,22.3506 L92.8292,22.3513 L92.8342,22.3507 L112.544,22.4002 L112.695,22.4048 L112.844,22.4177 L112.844,22.4179 L132.73,24.7317 L132.836,24.7458 L132.939,24.7639 L132.938,24.7643 L152.773,28.688 L152.831,28.6995 L152.886,28.7124 L152.886,28.7129 L172.614,33.5187 L172.628,33.5214 L172.639,33.5242 L172.639,33.5247 L192.267,38.5043 L211.789,43.0326 L231.165,46.6219 L250.259,48.9522 L268.833,49.8981 L286.638,49.5316 L304.079,47.9893 L304.546,53.2674"/>
</g>

<g fill="none" stroke="#000000" stroke-opacity="1" stroke-width="1" stroke-linecap="square" stroke-linejoin="bevel" transform="matrix(6.01534,0,0,6.01534,-53.7737,-46.6208)"
font-family="Helvetica" font-size="12" font-weight="400" font-style="normal" 
>
</g>

<g fill="none" stroke="#000000" stroke-opacity="1" stroke-width="1" stroke-linecap="square" stroke-linejoin="bevel" transform="matrix(6.01534,0,0,6.01534,-53.7737,-46.6208)"
font-family="Helvetica" font-size="12" font-weight="400" font-style="normal" 
>
</g>

<g fill="#cb7362" fill-opacity="1" stroke="none" transform="matrix(6.01534,0,0,6.01534,-53.7737,-46.6208)"
font-family="Helvetica" font-size="12" font-weight="400" font-style="normal" 
>
<path vector-effect="none" fill-rule="nonzero" d="M81.2841,152.764 L86.7718,152.766 L86.7705,155.423 L81.2828,155.42 L81.2841,152.764"/>
</g>

<g fill="none" stroke="#000000" stroke-opacity="1" stroke-width="0.3" stroke-linecap="square" stroke-linejoin="round" transform="matrix(6.01534,0,0,6.01534,-53.7737,-46.6208)"
font-family="Helvetica" font-size="12" font-weight="400" font-style="normal" 
>
<path vector-effect="none" fill-rule="evenodd" d="M81.2841,152.764 L86.7718,152.766 L86.7705,155.423 L81.2828,155.42 L81.2841,152.764"/>
</g>

<g fill="none" stroke="#000000" stroke-opacity="1" stroke-width="1" stroke-linecap="square" stroke-linejoin="bevel" transform="matrix(6.01534,0,0,6.01534,-53.7737,-46.6208)"
font-family="Helvetica" font-size="12" font-weight="400" font-style="normal" 
>
</g>

<g fill="none" stroke="#000000" stroke-opacity="1" stroke-width="1" stroke-linecap="square" stroke-linejoin="bevel" transform="matrix(6.01534,0,0,6.01534,-53.7737,-46.6208)"
font-family="Helvetica" font-size="12" font-weight="400" font-style="normal" 
>
</g>

<g fill="#cb62b9" fill-opacity="1" stroke="none" transform="matrix(6.01534,0,0,6.01534,-53.7737,-46.6208)"
font-family="Helvetica" font-size="12" font-weight="400" font-style="normal" 
>
<path vector-effect="none" fill-rule="nonzero" d="M269.496,104.29 L250.891,104.918 C250.881,104.919 250.871,104.919 250.862,104.919 L250.862,104.919 L231.929,105.168 C231.923,105.169 231.917,105.169 231.911,105.169 C231.907,105.169 231.903,105.169 231.899,105.169 L231.899,105.169 L212.966,105.01 C212.956,105.01 212.946,105.01 212.937,105.01 L212.937,105.01 L194.329,104.471 L194.41,101.653 L213.019,102.192 L212.978,103.601 L212.99,102.191 L231.923,102.35 L231.911,103.759 L231.892,102.35 L250.824,102.1 L250.843,103.51 L250.795,102.101 L269.401,101.473 L269.496,104.29"/>
</g>

<g fill="none" stroke="#000000" stroke-opacity="1" stroke-width="0.3" stroke-linecap="square" stroke-linejoin="round" transform="matrix(6.01534,0,0,6.01534,-53.7737,-46.6208)"
font-family="Helvetica" font-size="12" font-weight="400" font-style="normal" 
>
<path vector-effect="none" fill-rule="evenodd" d="M269.496,104.29 L250.891,104.918 L250.876,104.919 L250.862,104.919 L250.862,104.919 L231.929,105.168 L231.92,105.169 L231.911,105.169 L231.905,105.169 L231.899,105.169 L231.899,105.169 L212.966,105.01 L212.951,105.01 L212.937,105.01 L212.937,105.01 L194.329,104.471 L194.41,101.653 L213.004,102.191 L231.907,102.35 L250.81,102.1 L269.401,101.473 L269.496,104.29"/>
</g>

<g fill="none" stroke="#000000" stroke-opacity="1" stroke-width="1" stroke-linecap="square" stroke-linejoin="bevel" transform="matrix(6.01534,0,0,6.01534,-53.7737,-46.6208)"
font-family="Helvetica" font-size="12" font-weight="400" font-style="normal" 
>
</g>

<g fill="none" stroke="#000000" stroke-opacity="1" stroke-width="1" stroke-linecap="square" stroke-linejoin="bevel" transform="matrix(1,0,0,1,0,0)"
font-family="Helvetica" font-size="12" font-weight="400" font-style="normal" 
>
</g>
</g>
</svg>
