<?xml version="1.0" encoding="UTF-8" standalone="no"?>
<svg width="517.525mm" height="352.778mm"
 viewBox="0 0 1467 1000"
 xmlns="http://www.w3.org/2000/svg" xmlns:xlink="http://www.w3.org/1999/xlink"  version="1.2" baseProfile="tiny">
<title>Qt SVG Document</title>
<desc>Generated with Qt</desc>
<defs>
</defs>
<g fill="none" stroke="black" stroke-width="1" fill-rule="evenodd" stroke-linecap="square" stroke-linejoin="bevel" >

<g fill="#ffffff" fill-opacity="1" stroke="none" transform="matrix(1,0,0,1,0,0)"
font-family="Helvetica" font-size="12" font-weight="400" font-style="normal" 
>
<rect x="0" y="0" width="1467" height="1000"/>
</g>

<g fill="none" stroke="#000000" stroke-opacity="1" stroke-width="1" stroke-linecap="square" stroke-linejoin="bevel" transform="matrix(1,0,0,1,0,0)"
font-family="Helvetica" font-size="12" font-weight="400" font-style="normal" 
>
</g>

<g fill="none" stroke="#000000" stroke-opacity="1" stroke-width="1" stroke-linecap="square" stroke-linejoin="bevel" transform="matrix(1,0,0,1,0,0)"
font-family="Helvetica" font-size="12" font-weight="400" font-style="normal" 
>
</g>

<g fill="none" stroke="#000000" stroke-opacity="1" stroke-width="1" stroke-linecap="square" stroke-linejoin="bevel" transform="matrix(5.44219,0,0,5.44219,-54.2304,-52.141)"
font-family="Helvetica" font-size="12" font-weight="400" font-style="normal" 
>
</g>

<g fill="none" stroke="#000000" stroke-opacity="0.705882" stroke-width="1.5" stroke-linecap="round" stroke-linejoin="bevel" transform="matrix(5.44219,0,0,5.44219,-54.2304,-52.141)"
font-family="Helvetica" font-size="12" font-weight="400" font-style="normal" 
>
<path vector-effect="none" fill-rule="evenodd" d="M204.269,90.6288 C206.658,89.5025 209.494,90.0708 208.59,87.5886 "/>
</g>

<g fill="none" stroke="#000000" stroke-opacity="1" stroke-width="1" stroke-linecap="square" stroke-linejoin="bevel" transform="matrix(5.44219,0,0,5.44219,-54.2304,-52.141)"
font-family="Helvetica" font-size="12" font-weight="400" font-style="normal" 
>
</g>

<g fill="none" stroke="#000000" stroke-opacity="1" stroke-width="1" stroke-linecap="square" stroke-linejoin="bevel" transform="matrix(5.44219,0,0,5.44219,-54.2304,-52.141)"
font-family="Helvetica" font-size="12" font-weight="400" font-style="normal" 
>
</g>

<g fill="none" stroke="#000000" stroke-opacity="0.705882" stroke-width="1.5" stroke-linecap="round" stroke-linejoin="bevel" transform="matrix(5.44219,0,0,5.44219,-54.2304,-52.141)"
font-family="Helvetica" font-size="12" font-weight="400" font-style="normal" 
>
<path vector-effect="none" fill-rule="evenodd" d="M28.3527,179.164 C25.8661,179.634 24.2252,177.782 25,175.373 "/>
</g>

<g fill="none" stroke="#000000" stroke-opacity="1" stroke-width="1" stroke-linecap="square" stroke-linejoin="bevel" transform="matrix(5.44219,0,0,5.44219,-54.2304,-52.141)"
font-family="Helvetica" font-size="12" font-weight="400" font-style="normal" 
>
</g>

<g fill="none" stroke="#000000" stroke-opacity="1" stroke-width="1" stroke-linecap="square" stroke-linejoin="bevel" transform="matrix(5.44219,0,0,5.44219,-54.2304,-52.141)"
font-family="Helvetica" font-size="12" font-weight="400" font-style="normal" 
>
</g>

<g fill="none" stroke="#000000" stroke-opacity="0.705882" stroke-width="1.5" stroke-linecap="round" stroke-linejoin="bevel" transform="matrix(5.44219,0,0,5.44219,-54.2304,-52.141)"
font-family="Helvetica" font-size="12" font-weight="400" font-style="normal" 
>
<path vector-effect="none" fill-rule="evenodd" d="M208.59,87.5886 C209.498,90.0824 211,88.7092 213.489,89.631 "/>
</g>

<g fill="none" stroke="#000000" stroke-opacity="1" stroke-width="1" stroke-linecap="square" stroke-linejoin="bevel" transform="matrix(5.44219,0,0,5.44219,-54.2304,-52.141)"
font-family="Helvetica" font-size="12" font-weight="400" font-style="normal" 
>
</g>

<g fill="none" stroke="#000000" stroke-opacity="1" stroke-width="1" stroke-linecap="square" stroke-linejoin="bevel" transform="matrix(5.44219,0,0,5.44219,-54.2304,-52.141)"
font-family="Helvetica" font-size="12" font-weight="400" font-style="normal" 
>
</g>

<g fill="#62cbbb" fill-opacity="1" stroke="none" transform="matrix(5.44219,0,0,5.44219,-54.2304,-52.141)"
font-family="Helvetica" font-size="12" font-weight="400" font-style="normal" 
>
<path vector-effect="none" fill-rule="nonzero" d="M99.9028,166.645 L106.017,166.662 L106.01,169.286 L99.8957,169.27 L99.9028,166.645"/>
</g>

<g fill="none" stroke="#000000" stroke-opacity="1" stroke-width="0.3" stroke-linecap="square" stroke-linejoin="round" transform="matrix(5.44219,0,0,5.44219,-54.2304,-52.141)"
font-family="Helvetica" font-size="12" font-weight="400" font-style="normal" 
>
<path vector-effect="none" fill-rule="evenodd" d="M99.9028,166.645 L106.017,166.662 L106.01,169.286 L99.8957,169.27 L99.9028,166.645"/>
</g>

<g fill="none" stroke="#000000" stroke-opacity="1" stroke-width="1" stroke-linecap="square" stroke-linejoin="bevel" transform="matrix(5.44219,0,0,5.44219,-54.2304,-52.141)"
font-family="Helvetica" font-size="12" font-weight="400" font-style="normal" 
>
</g>

<g fill="none" stroke="#000000" stroke-opacity="1" stroke-width="1" stroke-linecap="square" stroke-linejoin="bevel" transform="matrix(5.44219,0,0,5.44219,-54.2304,-52.141)"
font-family="Helvetica" font-size="12" font-weight="400" font-style="normal" 
>
</g>

<g fill="#cb62a4" fill-opacity="1" stroke="none" transform="matrix(5.44219,0,0,5.44219,-54.2304,-52.141)"
font-family="Helvetica" font-size="12" font-weight="400" font-style="normal" 
>
<path vector-effect="none" fill-rule="nonzero" d="M214.336,87.3436 L232.876,94.2105 L232.029,96.498 L232.771,94.1744 L250.186,99.7394 L249.443,102.063 L250.106,99.7154 L266.772,104.42 L265.447,109.115 L248.781,104.411 C248.753,104.403 248.726,104.395 248.7,104.387 L248.701,104.387 L231.286,98.8215 C231.25,98.8106 231.215,98.7986 231.181,98.7859 L231.181,98.7854 L212.642,91.9185 L214.336,87.3436"/>
</g>

<g fill="none" stroke="#000000" stroke-opacity="1" stroke-width="0.3" stroke-linecap="square" stroke-linejoin="round" transform="matrix(5.44219,0,0,5.44219,-54.2304,-52.141)"
font-family="Helvetica" font-size="12" font-weight="400" font-style="normal" 
>
<path vector-effect="none" fill-rule="evenodd" d="M214.336,87.3436 L232.824,94.1913 L250.146,99.7267 L266.772,104.42 L265.447,109.115 L248.781,104.411 L248.74,104.399 L248.7,104.387 L248.701,104.387 L231.286,98.8215 L231.233,98.8044 L231.181,98.7859 L231.181,98.7854 L212.642,91.9185 L214.336,87.3436"/>
</g>

<g fill="none" stroke="#000000" stroke-opacity="1" stroke-width="1" stroke-linecap="square" stroke-linejoin="bevel" transform="matrix(5.44219,0,0,5.44219,-54.2304,-52.141)"
font-family="Helvetica" font-size="12" font-weight="400" font-style="normal" 
>
</g>

<g fill="none" stroke="#000000" stroke-opacity="1" stroke-width="1" stroke-linecap="square" stroke-linejoin="bevel" transform="matrix(5.44219,0,0,5.44219,-54.2304,-52.141)"
font-family="Helvetica" font-size="12" font-weight="400" font-style="normal" 
>
</g>

<g fill="#62b9cb" fill-opacity="1" stroke="none" transform="matrix(5.44219,0,0,5.44219,-54.2304,-52.141)"
font-family="Helvetica" font-size="12" font-weight="400" font-style="normal" 
>
<path vector-effect="none" fill-rule="nonzero" d="M100.878,74.0612 L113.136,82.6039 L111.65,84.7355 L112.888,82.4513 L126.067,89.5942 L124.829,91.8785 L125.759,89.4524 L140.351,95.0461 L139.421,97.4722 L139.962,94.931 L155.76,98.2967 L155.219,100.838 L155.286,98.2405 L171.82,98.6675 L171.753,101.265 L171.272,98.7116 L187.846,95.5903 L188.327,98.1436 L187.219,95.7934 L203.161,88.2787 L205.377,92.979 L189.434,100.494 C189.238,100.587 189.028,100.656 188.809,100.697 L188.807,100.697 L172.233,103.818 C172.078,103.848 171.917,103.863 171.753,103.863 C171.73,103.863 171.708,103.863 171.686,103.862 L171.686,103.862 L155.151,103.435 C154.989,103.431 154.83,103.412 154.677,103.379 L154.677,103.379 L138.879,100.013 C138.745,99.9852 138.615,99.9466 138.49,99.8988 L138.491,99.8982 L123.899,94.3045 C123.792,94.2642 123.689,94.2167 123.591,94.1631 L123.591,94.1627 L110.412,87.0198 C110.326,86.9737 110.243,86.9226 110.164,86.8673 L110.164,86.8671 L97.9068,78.3244 L100.878,74.0612"/>
</g>

<g fill="none" stroke="#000000" stroke-opacity="1" stroke-width="0.3" stroke-linecap="square" stroke-linejoin="round" transform="matrix(5.44219,0,0,5.44219,-54.2304,-52.141)"
font-family="Helvetica" font-size="12" font-weight="400" font-style="normal" 
>
<path vector-effect="none" fill-rule="evenodd" d="M100.878,74.0612 L113.016,82.5207 L125.918,89.5132 L140.161,94.9734 L155.525,98.2467 L171.543,98.6604 L187.519,95.6518 L203.161,88.2787 L205.377,92.979 L189.434,100.494 L189.13,100.615 L188.809,100.697 L188.807,100.697 L172.233,103.818 L171.996,103.852 L171.753,103.863 L171.719,103.863 L171.686,103.862 L171.686,103.862 L155.151,103.435 L154.91,103.418 L154.677,103.379 L154.677,103.379 L138.879,100.013 L138.681,99.9635 L138.49,99.8988 L138.491,99.8982 L123.899,94.3045 L123.742,94.2388 L123.591,94.1631 L123.591,94.1627 L110.412,87.0198 L110.286,86.947 L110.164,86.8673 L110.164,86.8671 L97.9068,78.3244 L100.878,74.0612"/>
</g>

<g fill="none" stroke="#000000" stroke-opacity="1" stroke-width="1" stroke-linecap="square" stroke-linejoin="bevel" transform="matrix(5.44219,0,0,5.44219,-54.2304,-52.141)"
font-family="Helvetica" font-size="12" font-weight="400" font-style="normal" 
>
</g>

<g fill="none" stroke="#000000" stroke-opacity="1" stroke-width="1" stroke-linecap="square" stroke-linejoin="bevel" transform="matrix(5.44219,0,0,5.44219,-54.2304,-52.141)"
font-family="Helvetica" font-size="12" font-weight="400" font-style="normal" 
>
</g>

<g fill="#629fcb" fill-opacity="1" stroke="none" transform="matrix(5.44219,0,0,5.44219,-54.2304,-52.141)"
font-family="Helvetica" font-size="12" font-weight="400" font-style="normal" 
>
<path vector-effect="none" fill-rule="nonzero" d="M206.084,88.501 L198.503,67.6826 L201.008,66.7702 L198.775,68.2282 L187.115,50.3733 L189.347,48.9153 L187.63,50.9552 L171.449,37.3342 L173.166,35.2943 L172.149,37.7592 L152.582,29.686 L153.599,27.2212 L153.321,29.873 L132.144,27.6518 L132.422,25 L132.81,27.638 L111.597,30.7556 L111.209,28.1175 L112.161,30.6083 L92.0766,38.2811 L91.125,35.7903 L92.5461,38.0464 L74.4998,49.4133 L73.0787,47.1572 L74.8633,49.1382 L59.4204,63.0499 L57.6357,61.0689 L59.6664,62.7968 L46.8033,77.9136 L44.7726,76.1856 L46.958,77.7132 L36.3042,92.9547 L34.1188,91.4271 L36.4012,92.8055 L27.2825,107.905 L22.7175,105.148 L31.8363,90.0487 C31.8669,89.9975 31.8993,89.9478 31.9332,89.8994 L31.9334,89.8995 L42.5871,74.658 C42.6355,74.5886 42.6872,74.5218 42.7418,74.4577 L42.7419,74.4577 L55.605,59.3409 C55.6814,59.2512 55.7636,59.1666 55.8511,59.0878 L55.8511,59.0878 L71.2941,45.1761 C71.4069,45.0744 71.5284,44.9822 71.6573,44.9008 L71.6576,44.901 L89.704,33.5341 C89.851,33.4409 90.008,33.362 90.1724,33.2991 L90.1735,33.2995 L110.257,25.6267 C110.436,25.5575 110.625,25.5077 110.82,25.4793 L110.821,25.4795 L132.035,22.362 C132.161,22.3432 132.291,22.3336 132.422,22.3336 C133.895,22.3336 135.089,23.5274 135.089,25 C135.089,26.4726 133.895,27.6664 132.422,27.6664 C130.95,27.6664 129.756,26.4726 129.756,25 C129.756,23.8925 130.431,22.9427 131.392,22.5399 L132.7,22.3482 L153.877,24.5693 C154.137,24.5962 154.385,24.6602 154.617,24.7558 L154.616,24.7563 L174.183,32.8295 C174.439,32.9348 174.675,33.0789 174.883,33.2544 L174.883,33.2545 L191.064,46.8754 C191.263,47.0429 191.437,47.2389 191.58,47.457 L191.58,47.4573 L203.24,65.3122 C203.351,65.4813 203.444,65.664 203.514,65.8567 L203.513,65.8578 L211.095,86.6762 L206.084,88.501"/>
</g>

<g fill="none" stroke="#000000" stroke-opacity="1" stroke-width="0.3" stroke-linecap="square" stroke-linejoin="round" transform="matrix(5.44219,0,0,5.44219,-54.2304,-52.141)"
font-family="Helvetica" font-size="12" font-weight="400" font-style="normal" 
>
<path vector-effect="none" fill-rule="evenodd" d="M206.084,88.501 L198.608,67.9711 L187.33,50.7022 L171.766,37.6011 L152.938,29.8328 L132.478,27.6868 L111.887,30.7129 L92.323,38.187 L74.6934,49.2914 L59.5518,62.9315 L46.8854,77.8171 L36.3552,92.8817 L27.2825,107.905 L22.7175,105.148 L31.8363,90.0487 L31.8835,89.973 L31.9332,89.8994 L31.9334,89.8995 L42.5871,74.658 L42.6621,74.5559 L42.7418,74.4577 L42.7419,74.4577 L55.605,59.3409 L55.7239,59.2102 L55.8511,59.0878 L55.8511,59.0878 L71.2941,45.1761 L71.4696,45.0308 L71.6573,44.9008 L71.6576,44.901 L89.704,33.5341 L89.9317,33.4052 L90.1724,33.2991 L90.1735,33.2995 L110.257,25.6267 L110.533,25.5377 L110.82,25.4793 L110.821,25.4795 L132.035,22.362 L132.226,22.3407 L132.422,22.3336 L132.521,22.3745 L132.7,22.3482 L153.877,24.5693 L154.258,24.6368 L154.617,24.7558 L154.616,24.7563 L174.183,32.8295 L174.551,33.0156 L174.883,33.2544 L174.883,33.2545 L191.064,46.8754 L191.343,47.1472 L191.58,47.457 L191.58,47.4573 L203.24,65.3122 L203.392,65.5756 L203.514,65.8567 L203.513,65.8578 L211.095,86.6762 L206.084,88.501"/>
</g>

<g fill="none" stroke="#000000" stroke-opacity="1" stroke-width="1" stroke-linecap="square" stroke-linejoin="bevel" transform="matrix(5.44219,0,0,5.44219,-54.2304,-52.141)"
font-family="Helvetica" font-size="12" font-weight="400" font-style="normal" 
>
</g>

<g fill="none" stroke="#000000" stroke-opacity="1" stroke-width="1" stroke-linecap="square" stroke-linejoin="bevel" transform="matrix(5.44219,0,0,5.44219,-54.2304,-52.141)"
font-family="Helvetica" font-size="12" font-weight="400" font-style="normal" 
>
</g>

<g fill="#6562cb" fill-opacity="1" stroke="none" transform="matrix(5.44219,0,0,5.44219,-54.2304,-52.141)"
font-family="Helvetica" font-size="12" font-weight="400" font-style="normal" 
>
<path vector-effect="none" fill-rule="nonzero" d="M23.6436,174.936 L29.6222,156.347 C29.8063,155.773 30.3434,155.359 30.9774,155.358 L30.9774,155.358 L49.8981,155.343 C49.8985,155.343 49.8989,155.343 49.8993,155.343 C50.6862,155.343 51.3241,155.981 51.3241,156.768 C51.3241,157.555 50.6862,158.193 49.8993,158.193 C49.1734,158.193 48.5743,157.65 48.4858,156.948 L51.313,156.946 L48.9525,175.718 C48.8757,176.333 48.4067,176.827 47.804,176.94 L47.8033,176.94 L28.6171,180.564 L28.0882,177.764 L47.2743,174.14 L47.5388,175.54 L46.1251,175.362 L48.4856,156.59 L49.8993,156.768 L49.9004,158.193 L30.9798,158.208 L30.9786,156.783 L32.335,157.219 L26.3564,175.809 L23.6436,174.936"/>
</g>

<g fill="none" stroke="#000000" stroke-opacity="1" stroke-width="0.3" stroke-linecap="square" stroke-linejoin="round" transform="matrix(5.44219,0,0,5.44219,-54.2304,-52.141)"
font-family="Helvetica" font-size="12" font-weight="400" font-style="normal" 
>
<path vector-effect="none" fill-rule="evenodd" d="M23.6436,174.936 L29.6222,156.347 L30.1311,155.638 L30.9774,155.358 L30.9774,155.358 L49.8981,155.343 L49.8987,155.343 L49.8993,155.343 L50.9068,155.76 L51.3241,156.768 L51.2504,156.946 L51.313,156.946 L48.9525,175.718 L48.5754,176.517 L47.804,176.94 L47.8033,176.94 L28.6171,180.564 L28.0882,177.764 L46.2546,174.332 L48.2839,158.194 L32.0173,158.207 L26.3564,175.809 L23.6436,174.936"/>
</g>

<g fill="none" stroke="#000000" stroke-opacity="1" stroke-width="1" stroke-linecap="square" stroke-linejoin="bevel" transform="matrix(5.44219,0,0,5.44219,-54.2304,-52.141)"
font-family="Helvetica" font-size="12" font-weight="400" font-style="normal" 
>
</g>

<g fill="none" stroke="#000000" stroke-opacity="1" stroke-width="1" stroke-linecap="square" stroke-linejoin="bevel" transform="matrix(1,0,0,1,0,0)"
font-family="Helvetica" font-size="12" font-weight="400" font-style="normal" 
>
</g>
</g>
</svg>
