<?xml version="1.0" encoding="UTF-8" standalone="no"?>
<svg width="332.669mm" height="352.778mm"
 viewBox="0 0 943 1000"
 xmlns="http://www.w3.org/2000/svg" xmlns:xlink="http://www.w3.org/1999/xlink"  version="1.2" baseProfile="tiny">
<title>Qt SVG Document</title>
<desc>Generated with Qt</desc>
<defs>
</defs>
<g fill="none" stroke="black" stroke-width="1" fill-rule="evenodd" stroke-linecap="square" stroke-linejoin="bevel" >

<g fill="#ffffff" fill-opacity="1" stroke="none" transform="matrix(1,0,0,1,0,0)"
font-family="Helvetica" font-size="12" font-weight="400" font-style="normal" 
>
<rect x="0" y="0" width="943" height="1000"/>
</g>

<g fill="none" stroke="#000000" stroke-opacity="1" stroke-width="1" stroke-linecap="square" stroke-linejoin="bevel" transform="matrix(1,0,0,1,0,0)"
font-family="Helvetica" font-size="12" font-weight="400" font-style="normal" 
>
</g>

<g fill="none" stroke="#000000" stroke-opacity="1" stroke-width="1" stroke-linecap="square" stroke-linejoin="bevel" transform="matrix(1,0,0,1,0,0)"
font-family="Helvetica" font-size="12" font-weight="400" font-style="normal" 
>
</g>

<g fill="none" stroke="#000000" stroke-opacity="1" stroke-width="1" stroke-linecap="square" stroke-linejoin="bevel" transform="matrix(3.95352,0,0,3.95352,-41.0979,-50.606)"
font-family="Helvetica" font-size="12" font-weight="400" font-style="normal" 
>
</g>

<g fill="none" stroke="#000000" stroke-opacity="0.705882" stroke-width="1.5" stroke-linecap="round" stroke-linejoin="bevel" transform="matrix(3.95352,0,0,3.95352,-41.0979,-50.606)"
font-family="Helvetica" font-size="12" font-weight="400" font-style="normal" 
>
<path vector-effect="none" fill-rule="evenodd" d="M201.664,148.599 C204.27,147.82 202.828,146.141 203.963,143.67 "/>
</g>

<g fill="none" stroke="#000000" stroke-opacity="1" stroke-width="1" stroke-linecap="square" stroke-linejoin="bevel" transform="matrix(3.95352,0,0,3.95352,-41.0979,-50.606)"
font-family="Helvetica" font-size="12" font-weight="400" font-style="normal" 
>
</g>

<g fill="none" stroke="#000000" stroke-opacity="1" stroke-width="1" stroke-linecap="square" stroke-linejoin="bevel" transform="matrix(3.95352,0,0,3.95352,-41.0979,-50.606)"
font-family="Helvetica" font-size="12" font-weight="400" font-style="normal" 
>
</g>

<g fill="none" stroke="#000000" stroke-opacity="0.705882" stroke-width="1.5" stroke-linecap="round" stroke-linejoin="bevel" transform="matrix(3.95352,0,0,3.95352,-41.0979,-50.606)"
font-family="Helvetica" font-size="12" font-weight="400" font-style="normal" 
>
<path vector-effect="none" fill-rule="evenodd" d="M201.664,148.599 C204.233,147.831 202.902,150.986 204.391,153.215 "/>
</g>

<g fill="none" stroke="#000000" stroke-opacity="1" stroke-width="1" stroke-linecap="square" stroke-linejoin="bevel" transform="matrix(3.95352,0,0,3.95352,-41.0979,-50.606)"
font-family="Helvetica" font-size="12" font-weight="400" font-style="normal" 
>
</g>

<g fill="none" stroke="#000000" stroke-opacity="1" stroke-width="1" stroke-linecap="square" stroke-linejoin="bevel" transform="matrix(3.95352,0,0,3.95352,-41.0979,-50.606)"
font-family="Helvetica" font-size="12" font-weight="400" font-style="normal" 
>
</g>

<g fill="#629fcb" fill-opacity="1" stroke="none" transform="matrix(3.95352,0,0,3.95352,-41.0979,-50.606)"
font-family="Helvetica" font-size="12" font-weight="400" font-style="normal" 
>
<path vector-effect="none" fill-rule="nonzero" d="M151.347,250.396 L157.738,250.359 L157.753,253.008 L151.362,253.044 L151.347,250.396"/>
</g>

<g fill="none" stroke="#000000" stroke-opacity="1" stroke-width="0.3" stroke-linecap="square" stroke-linejoin="round" transform="matrix(3.95352,0,0,3.95352,-41.0979,-50.606)"
font-family="Helvetica" font-size="12" font-weight="400" font-style="normal" 
>
<path vector-effect="none" fill-rule="evenodd" d="M151.347,250.396 L157.738,250.359 L157.753,253.008 L151.362,253.044 L151.347,250.396"/>
</g>

<g fill="none" stroke="#000000" stroke-opacity="1" stroke-width="1" stroke-linecap="square" stroke-linejoin="bevel" transform="matrix(3.95352,0,0,3.95352,-41.0979,-50.606)"
font-family="Helvetica" font-size="12" font-weight="400" font-style="normal" 
>
</g>

<g fill="none" stroke="#000000" stroke-opacity="1" stroke-width="1" stroke-linecap="square" stroke-linejoin="bevel" transform="matrix(3.95352,0,0,3.95352,-41.0979,-50.606)"
font-family="Helvetica" font-size="12" font-weight="400" font-style="normal" 
>
</g>

<g fill="#62cb77" fill-opacity="1" stroke="none" transform="matrix(3.95352,0,0,3.95352,-41.0979,-50.606)"
font-family="Helvetica" font-size="12" font-weight="400" font-style="normal" 
>
<path vector-effect="none" fill-rule="nonzero" d="M25.0593,249.679 L43.9768,250.476 L43.9174,251.884 L43.9482,250.475 L63.1994,250.896 L63.1686,252.305 L63.1695,250.895 L82.4252,250.907 L82.4244,252.316 L82.3966,250.907 L101.327,250.535 L101.383,253.353 L82.4521,253.726 C82.4429,253.726 82.4336,253.726 82.4244,253.726 C82.4241,253.726 82.4238,253.726 82.4235,253.726 L82.4235,253.726 L63.1678,253.714 C63.1577,253.714 63.1477,253.714 63.1378,253.714 L63.1378,253.714 L43.8867,253.293 C43.8769,253.293 43.8674,253.293 43.8581,253.292 L43.8581,253.292 L24.9407,252.495 L25.0593,249.679"/>
</g>

<g fill="none" stroke="#000000" stroke-opacity="1" stroke-width="0.3" stroke-linecap="square" stroke-linejoin="round" transform="matrix(3.95352,0,0,3.95352,-41.0979,-50.606)"
font-family="Helvetica" font-size="12" font-weight="400" font-style="normal" 
>
<path vector-effect="none" fill-rule="evenodd" d="M25.0593,249.679 L43.9625,250.476 L63.1844,250.895 L82.4109,250.907 L101.327,250.535 L101.383,253.353 L82.4521,253.726 L82.4382,253.726 L82.4244,253.726 L82.4239,253.726 L82.4235,253.726 L82.4235,253.726 L63.1678,253.714 L63.1527,253.714 L63.1378,253.714 L63.1378,253.714 L43.8867,253.293 L43.8722,253.293 L43.8581,253.292 L43.8581,253.292 L24.9407,252.495 L25.0593,249.679"/>
</g>

<g fill="none" stroke="#000000" stroke-opacity="1" stroke-width="1" stroke-linecap="square" stroke-linejoin="bevel" transform="matrix(3.95352,0,0,3.95352,-41.0979,-50.606)"
font-family="Helvetica" font-size="12" font-weight="400" font-style="normal" 
>
</g>

<g fill="none" stroke="#000000" stroke-opacity="1" stroke-width="1" stroke-linecap="square" stroke-linejoin="bevel" transform="matrix(3.95352,0,0,3.95352,-41.0979,-50.606)"
font-family="Helvetica" font-size="12" font-weight="400" font-style="normal" 
>
</g>

<g fill="#cb6270" fill-opacity="1" stroke="none" transform="matrix(3.95352,0,0,3.95352,-41.0979,-50.606)"
font-family="Helvetica" font-size="12" font-weight="400" font-style="normal" 
>
<path vector-effect="none" fill-rule="nonzero" d="M206.416,151.862 L217.617,168.625 C217.64,168.658 217.662,168.692 217.682,168.727 L217.682,168.727 L227.152,184.559 C227.167,184.583 227.181,184.608 227.195,184.633 L227.195,184.634 L235.614,199.911 L231.347,202.263 L222.928,186.985 L225.061,185.809 L222.971,187.06 L213.501,171.228 L215.592,169.978 L213.566,171.331 L202.366,154.569 L206.416,151.862"/>
</g>

<g fill="none" stroke="#000000" stroke-opacity="1" stroke-width="0.3" stroke-linecap="square" stroke-linejoin="round" transform="matrix(3.95352,0,0,3.95352,-41.0979,-50.606)"
font-family="Helvetica" font-size="12" font-weight="400" font-style="normal" 
>
<path vector-effect="none" fill-rule="evenodd" d="M206.416,151.862 L217.617,168.625 L217.651,168.675 L217.682,168.727 L217.682,168.727 L227.152,184.559 L227.174,184.596 L227.195,184.633 L227.195,184.634 L235.614,199.911 L231.347,202.263 L222.949,187.023 L213.533,171.281 L202.366,154.569 L206.416,151.862"/>
</g>

<g fill="none" stroke="#000000" stroke-opacity="1" stroke-width="1" stroke-linecap="square" stroke-linejoin="bevel" transform="matrix(3.95352,0,0,3.95352,-41.0979,-50.606)"
font-family="Helvetica" font-size="12" font-weight="400" font-style="normal" 
>
</g>

<g fill="none" stroke="#000000" stroke-opacity="1" stroke-width="1" stroke-linecap="square" stroke-linejoin="bevel" transform="matrix(3.95352,0,0,3.95352,-41.0979,-50.606)"
font-family="Helvetica" font-size="12" font-weight="400" font-style="normal" 
>
</g>

<g fill="#62c7cb" fill-opacity="1" stroke="none" transform="matrix(3.95352,0,0,3.95352,-41.0979,-50.606)"
font-family="Helvetica" font-size="12" font-weight="400" font-style="normal" 
>
<path vector-effect="none" fill-rule="nonzero" d="M201.617,142.592 L209.799,124.785 L212.146,125.864 L209.725,124.965 L216.316,107.21 L218.737,108.109 L216.264,107.364 L221.584,89.7143 L224.057,90.4597 L221.544,89.8651 L225.637,72.5608 L228.151,73.1553 L225.608,72.7034 L228.577,56.0005 L231.119,56.4524 L228.557,56.1303 L230.556,40.2277 L233.118,40.5498 L230.544,40.3465 L231.772,24.7967 L236.921,25.2033 L235.693,40.7531 C235.69,40.7939 235.685,40.8336 235.681,40.8722 L235.68,40.8719 L233.682,56.7745 C233.676,56.8193 233.67,56.8626 233.662,56.9048 L233.662,56.9043 L230.693,73.6072 C230.685,73.6565 230.675,73.7041 230.664,73.7504 L230.664,73.7498 L226.57,91.0542 C226.558,91.1063 226.545,91.1566 226.53,91.2056 L226.529,91.205 L221.209,108.854 C221.194,108.907 221.177,108.958 221.158,109.008 L221.158,109.008 L214.567,126.762 C214.545,126.824 214.52,126.884 214.493,126.942 L214.492,126.942 L206.31,144.749 L201.617,142.592"/>
</g>

<g fill="none" stroke="#000000" stroke-opacity="1" stroke-width="0.3" stroke-linecap="square" stroke-linejoin="round" transform="matrix(3.95352,0,0,3.95352,-41.0979,-50.606)"
font-family="Helvetica" font-size="12" font-weight="400" font-style="normal" 
>
<path vector-effect="none" fill-rule="evenodd" d="M201.617,142.592 L209.759,124.874 L216.287,107.286 L221.562,89.7891 L225.621,72.6316 L228.565,56.0652 L230.548,40.287 L231.772,24.7967 L236.921,25.2033 L235.693,40.7531 L235.687,40.8134 L235.681,40.8722 L235.68,40.8719 L233.682,56.7745 L233.673,56.8406 L233.662,56.9048 L233.662,56.9043 L230.693,73.6072 L230.68,73.6799 L230.664,73.7504 L230.664,73.7498 L226.57,91.0542 L226.551,91.1311 L226.53,91.2056 L226.529,91.205 L221.209,108.854 L221.185,108.932 L221.158,109.008 L221.158,109.008 L214.567,126.762 L214.532,126.854 L214.493,126.942 L214.492,126.942 L206.31,144.749 L201.617,142.592"/>
</g>

<g fill="none" stroke="#000000" stroke-opacity="1" stroke-width="1" stroke-linecap="square" stroke-linejoin="bevel" transform="matrix(3.95352,0,0,3.95352,-41.0979,-50.606)"
font-family="Helvetica" font-size="12" font-weight="400" font-style="normal" 
>
</g>

<g fill="none" stroke="#000000" stroke-opacity="1" stroke-width="1" stroke-linecap="square" stroke-linejoin="bevel" transform="matrix(3.95352,0,0,3.95352,-41.0979,-50.606)"
font-family="Helvetica" font-size="12" font-weight="400" font-style="normal" 
>
</g>

<g fill="#70cb62" fill-opacity="1" stroke="none" transform="matrix(3.95352,0,0,3.95352,-41.0979,-50.606)"
font-family="Helvetica" font-size="12" font-weight="400" font-style="normal" 
>
<path vector-effect="none" fill-rule="nonzero" d="M202.43,151.162 L180.547,157.704 C180.48,157.724 180.411,157.742 180.342,157.757 L180.341,157.756 L159.117,162.296 C159.017,162.318 158.913,162.334 158.808,162.343 L158.807,162.343 L137.746,164.314 C137.664,164.322 137.581,164.326 137.497,164.326 C137.44,164.326 137.383,164.324 137.327,164.321 L137.327,164.321 L116.662,163.01 C116.49,162.999 116.323,162.972 116.163,162.931 L116.163,162.93 L96.4889,157.852 C96.3066,157.805 96.1331,157.74 95.9694,157.659 L95.9698,157.658 L78.0644,148.785 C77.8976,148.703 77.7412,148.603 77.5969,148.49 L77.597,148.49 L62.1466,136.319 C62.0131,136.213 61.89,136.096 61.7789,135.967 L61.7789,135.967 L49.1398,121.356 C49.0442,121.246 48.9575,121.128 48.8809,121.003 L48.8811,121.002 L39.037,104.911 C38.9741,104.809 38.9182,104.703 38.8697,104.592 L38.87,104.592 L31.5382,87.9115 C31.4995,87.8253 31.4658,87.7362 31.437,87.6455 L31.4374,87.6443 L26.188,71.1045 C26.1648,71.0337 26.1451,70.9611 26.1285,70.888 L26.1288,70.8867 L22.3917,54.3991 L27.6083,53.2167 L31.3454,69.7043 L28.7371,70.2955 L31.2863,69.4864 L36.5357,86.0263 L33.9865,86.8353 L36.4349,85.7591 L43.7668,102.439 L41.3184,103.515 L43.5998,102.12 L53.4439,118.211 L51.1625,119.607 L53.1852,117.857 L65.8242,132.468 L63.8016,134.218 L65.4565,132.117 L80.9069,144.288 L79.252,146.389 L80.4395,143.992 L98.3449,152.866 L97.1574,155.262 L97.8258,152.672 L117.5,157.751 L116.832,160.341 L117.001,157.672 L137.666,158.983 L137.497,161.652 L137.247,158.989 L158.309,157.018 L158.558,159.68 L157.999,157.065 L179.222,152.526 L179.781,155.141 L179.015,152.579 L200.898,146.037 L202.43,151.162"/>
</g>

<g fill="none" stroke="#000000" stroke-opacity="1" stroke-width="0.3" stroke-linecap="square" stroke-linejoin="round" transform="matrix(3.95352,0,0,3.95352,-41.0979,-50.606)"
font-family="Helvetica" font-size="12" font-weight="400" font-style="normal" 
>
<path vector-effect="none" fill-rule="evenodd" d="M202.43,151.162 L180.547,157.704 L180.445,157.732 L180.342,157.757 L180.341,157.756 L159.117,162.296 L158.964,162.324 L158.808,162.343 L158.807,162.343 L137.746,164.314 L137.622,164.323 L137.497,164.326 L137.411,164.325 L137.327,164.321 L137.327,164.321 L116.662,163.01 L116.408,162.982 L116.163,162.931 L116.163,162.93 L96.4889,157.852 L96.2222,157.768 L95.9694,157.659 L95.9698,157.658 L78.0644,148.785 L77.8222,148.649 L77.5969,148.49 L77.597,148.49 L62.1466,136.319 L61.9543,136.152 L61.7789,135.967 L61.7789,135.967 L49.1398,121.356 L49.0033,121.185 L48.8809,121.003 L48.8811,121.002 L39.037,104.911 L38.948,104.755 L38.8697,104.592 L38.87,104.592 L31.5382,87.9115 L31.4839,87.7802 L31.437,87.6455 L31.4374,87.6443 L26.188,71.1045 L26.1558,70.9971 L26.1285,70.888 L26.1288,70.8867 L22.3917,54.3991 L27.6083,53.2167 L31.3204,69.5941 L36.4924,85.89 L43.6941,102.274 L53.3291,118.023 L65.6572,132.275 L80.6886,144.116 L98.0954,152.742 L117.254,157.688 L137.457,158.969 L158.152,157.032 L179.118,152.548 L200.898,146.037 L202.43,151.162"/>
</g>

<g fill="none" stroke="#000000" stroke-opacity="1" stroke-width="1" stroke-linecap="square" stroke-linejoin="bevel" transform="matrix(3.95352,0,0,3.95352,-41.0979,-50.606)"
font-family="Helvetica" font-size="12" font-weight="400" font-style="normal" 
>
</g>

<g fill="none" stroke="#000000" stroke-opacity="1" stroke-width="1" stroke-linecap="square" stroke-linejoin="bevel" transform="matrix(1,0,0,1,0,0)"
font-family="Helvetica" font-size="12" font-weight="400" font-style="normal" 
>
</g>
</g>
</svg>
