<?xml version="1.0" encoding="UTF-8" standalone="no"?>
<svg width="419.1mm" height="352.778mm"
 viewBox="0 0 1188 1000"
 xmlns="http://www.w3.org/2000/svg" xmlns:xlink="http://www.w3.org/1999/xlink"  version="1.2" baseProfile="tiny">
<title>Qt SVG Document</title>
<desc>Generated with Qt</desc>
<defs>
</defs>
<g fill="none" stroke="black" stroke-width="1" fill-rule="evenodd" stroke-linecap="square" stroke-linejoin="bevel" >

<g fill="#ffffff" fill-opacity="1" stroke="none" transform="matrix(1,0,0,1,0,0)"
font-family="Helvetica" font-size="12" font-weight="400" font-style="normal" 
>
<rect x="0" y="0" width="1188" height="1000"/>
</g>

<g fill="none" stroke="#000000" stroke-opacity="1" stroke-width="1" stroke-linecap="square" stroke-linejoin="bevel" transform="matrix(1,0,0,1,0,0)"
font-family="Helvetica" font-size="12" font-weight="400" font-style="normal" 
>
</g>

<g fill="none" stroke="#000000" stroke-opacity="1" stroke-width="1" stroke-linecap="square" stroke-linejoin="bevel" transform="matrix(1,0,0,1,0,0)"
font-family="Helvetica" font-size="12" font-weight="400" font-style="normal" 
>
</g>

<g fill="none" stroke="#000000" stroke-opacity="1" stroke-width="1" stroke-linecap="square" stroke-linejoin="bevel" transform="matrix(3.99756,0,0,3.99756,-41.4793,-33.1281)"
font-family="Helvetica" font-size="12" font-weight="400" font-style="normal" 
>
</g>

<g fill="none" stroke="#000000" stroke-opacity="0.705882" stroke-width="1.5" stroke-linecap="round" stroke-linejoin="bevel" transform="matrix(3.99756,0,0,3.99756,-41.4793,-33.1281)"
font-family="Helvetica" font-size="12" font-weight="400" font-style="normal" 
>
<path vector-effect="none" fill-rule="evenodd" d="M179.512,89.1425 C176.958,88.9511 178.879,84.6621 176.358,85.1075 "/>
</g>

<g fill="none" stroke="#000000" stroke-opacity="1" stroke-width="1" stroke-linecap="square" stroke-linejoin="bevel" transform="matrix(3.99756,0,0,3.99756,-41.4793,-33.1281)"
font-family="Helvetica" font-size="12" font-weight="400" font-style="normal" 
>
</g>

<g fill="none" stroke="#000000" stroke-opacity="1" stroke-width="1" stroke-linecap="square" stroke-linejoin="bevel" transform="matrix(3.99756,0,0,3.99756,-41.4793,-33.1281)"
font-family="Helvetica" font-size="12" font-weight="400" font-style="normal" 
>
</g>

<g fill="none" stroke="#000000" stroke-opacity="0.705882" stroke-width="1.5" stroke-linecap="round" stroke-linejoin="bevel" transform="matrix(3.99756,0,0,3.99756,-41.4793,-33.1281)"
font-family="Helvetica" font-size="12" font-weight="400" font-style="normal" 
>
<path vector-effect="none" fill-rule="evenodd" d="M175.517,92.3572 C177.852,93.4167 176.955,88.9509 179.512,89.1425 "/>
</g>

<g fill="none" stroke="#000000" stroke-opacity="1" stroke-width="1" stroke-linecap="square" stroke-linejoin="bevel" transform="matrix(3.99756,0,0,3.99756,-41.4793,-33.1281)"
font-family="Helvetica" font-size="12" font-weight="400" font-style="normal" 
>
</g>

<g fill="none" stroke="#000000" stroke-opacity="1" stroke-width="1" stroke-linecap="square" stroke-linejoin="bevel" transform="matrix(3.99756,0,0,3.99756,-41.4793,-33.1281)"
font-family="Helvetica" font-size="12" font-weight="400" font-style="normal" 
>
</g>

<g fill="#62c4cb" fill-opacity="1" stroke="none" transform="matrix(3.99756,0,0,3.99756,-41.4793,-33.1281)"
font-family="Helvetica" font-size="12" font-weight="400" font-style="normal" 
>
<path vector-effect="none" fill-rule="nonzero" d="M144.125,191.658 L150.614,191.638 L150.623,194.301 L144.134,194.322 L144.125,191.658"/>
</g>

<g fill="none" stroke="#000000" stroke-opacity="1" stroke-width="0.3" stroke-linecap="square" stroke-linejoin="round" transform="matrix(3.99756,0,0,3.99756,-41.4793,-33.1281)"
font-family="Helvetica" font-size="12" font-weight="400" font-style="normal" 
>
<path vector-effect="none" fill-rule="evenodd" d="M144.125,191.658 L150.614,191.638 L150.623,194.301 L144.134,194.322 L144.125,191.658"/>
</g>

<g fill="none" stroke="#000000" stroke-opacity="1" stroke-width="1" stroke-linecap="square" stroke-linejoin="bevel" transform="matrix(3.99756,0,0,3.99756,-41.4793,-33.1281)"
font-family="Helvetica" font-size="12" font-weight="400" font-style="normal" 
>
</g>

<g fill="none" stroke="#000000" stroke-opacity="1" stroke-width="1" stroke-linecap="square" stroke-linejoin="bevel" transform="matrix(3.99756,0,0,3.99756,-41.4793,-33.1281)"
font-family="Helvetica" font-size="12" font-weight="400" font-style="normal" 
>
</g>

<g fill="#a662cb" fill-opacity="1" stroke="none" transform="matrix(3.99756,0,0,3.99756,-41.4793,-33.1281)"
font-family="Helvetica" font-size="12" font-weight="400" font-style="normal" 
>
<path vector-effect="none" fill-rule="nonzero" d="M200.614,191.657 L207.075,191.636 L207.084,194.303 L200.623,194.323 L200.614,191.657"/>
</g>

<g fill="none" stroke="#000000" stroke-opacity="1" stroke-width="0.3" stroke-linecap="square" stroke-linejoin="round" transform="matrix(3.99756,0,0,3.99756,-41.4793,-33.1281)"
font-family="Helvetica" font-size="12" font-weight="400" font-style="normal" 
>
<path vector-effect="none" fill-rule="evenodd" d="M200.614,191.657 L207.075,191.636 L207.084,194.303 L200.623,194.323 L200.614,191.657"/>
</g>

<g fill="none" stroke="#000000" stroke-opacity="1" stroke-width="1" stroke-linecap="square" stroke-linejoin="bevel" transform="matrix(3.99756,0,0,3.99756,-41.4793,-33.1281)"
font-family="Helvetica" font-size="12" font-weight="400" font-style="normal" 
>
</g>

<g fill="none" stroke="#000000" stroke-opacity="1" stroke-width="1" stroke-linecap="square" stroke-linejoin="bevel" transform="matrix(3.99756,0,0,3.99756,-41.4793,-33.1281)"
font-family="Helvetica" font-size="12" font-weight="400" font-style="normal" 
>
</g>

<g fill="#94cb62" fill-opacity="1" stroke="none" transform="matrix(3.99756,0,0,3.99756,-41.4793,-33.1281)"
font-family="Helvetica" font-size="12" font-weight="400" font-style="normal" 
>
<path vector-effect="none" fill-rule="nonzero" d="M257.075,191.655 L263.522,191.635 L263.53,194.304 L257.084,194.324 L257.075,191.655"/>
</g>

<g fill="none" stroke="#000000" stroke-opacity="1" stroke-width="0.3" stroke-linecap="square" stroke-linejoin="round" transform="matrix(3.99756,0,0,3.99756,-41.4793,-33.1281)"
font-family="Helvetica" font-size="12" font-weight="400" font-style="normal" 
>
<path vector-effect="none" fill-rule="evenodd" d="M257.075,191.655 L263.522,191.635 L263.53,194.304 L257.084,194.324 L257.075,191.655"/>
</g>

<g fill="none" stroke="#000000" stroke-opacity="1" stroke-width="1" stroke-linecap="square" stroke-linejoin="bevel" transform="matrix(3.99756,0,0,3.99756,-41.4793,-33.1281)"
font-family="Helvetica" font-size="12" font-weight="400" font-style="normal" 
>
</g>

<g fill="none" stroke="#000000" stroke-opacity="1" stroke-width="1" stroke-linecap="square" stroke-linejoin="bevel" transform="matrix(3.99756,0,0,3.99756,-41.4793,-33.1281)"
font-family="Helvetica" font-size="12" font-weight="400" font-style="normal" 
>
</g>

<g fill="#6acb62" fill-opacity="1" stroke="none" transform="matrix(3.99756,0,0,3.99756,-41.4793,-33.1281)"
font-family="Helvetica" font-size="12" font-weight="400" font-style="normal" 
>
<path vector-effect="none" fill-rule="nonzero" d="M176.772,87.4527 L164.666,89.5908 L164.252,87.2456 L165.236,85.0769 L176.501,90.1885 L174.533,94.5259 L163.268,89.4143 C162.443,89.0399 161.87,88.2097 161.87,87.2456 C161.87,86.0718 162.72,85.0963 163.836,84.9002 L163.838,84.9004 L175.943,82.7623 L176.772,87.4527"/>
</g>

<g fill="none" stroke="#000000" stroke-opacity="1" stroke-width="0.3" stroke-linecap="square" stroke-linejoin="round" transform="matrix(3.99756,0,0,3.99756,-41.4793,-33.1281)"
font-family="Helvetica" font-size="12" font-weight="400" font-style="normal" 
>
<path vector-effect="none" fill-rule="evenodd" d="M176.772,87.4527 L172.237,88.2537 L176.501,90.1885 L174.533,94.5259 L163.268,89.4143 L162.26,88.5511 L161.87,87.2456 L162.435,85.7063 L163.836,84.9002 L163.838,84.9004 L175.943,82.7623 L176.772,87.4527"/>
</g>

<g fill="none" stroke="#000000" stroke-opacity="1" stroke-width="1" stroke-linecap="square" stroke-linejoin="bevel" transform="matrix(3.99756,0,0,3.99756,-41.4793,-33.1281)"
font-family="Helvetica" font-size="12" font-weight="400" font-style="normal" 
>
</g>

<g fill="none" stroke="#000000" stroke-opacity="1" stroke-width="1" stroke-linecap="square" stroke-linejoin="bevel" transform="matrix(3.99756,0,0,3.99756,-41.4793,-33.1281)"
font-family="Helvetica" font-size="12" font-weight="400" font-style="normal" 
>
</g>

<g fill="#62cbb6" fill-opacity="1" stroke="none" transform="matrix(3.99756,0,0,3.99756,-41.4793,-33.1281)"
font-family="Helvetica" font-size="12" font-weight="400" font-style="normal" 
>
<path vector-effect="none" fill-rule="nonzero" d="M86.864,191.664 L94.1254,191.641 L94.1338,194.295 L86.8724,194.318 L86.864,191.664"/>
</g>

<g fill="none" stroke="#000000" stroke-opacity="1" stroke-width="0.3" stroke-linecap="square" stroke-linejoin="round" transform="matrix(3.99756,0,0,3.99756,-41.4793,-33.1281)"
font-family="Helvetica" font-size="12" font-weight="400" font-style="normal" 
>
<path vector-effect="none" fill-rule="evenodd" d="M86.864,191.664 L94.1254,191.641 L94.1338,194.295 L86.8724,194.318 L86.864,191.664"/>
</g>

<g fill="none" stroke="#000000" stroke-opacity="1" stroke-width="1" stroke-linecap="square" stroke-linejoin="bevel" transform="matrix(3.99756,0,0,3.99756,-41.4793,-33.1281)"
font-family="Helvetica" font-size="12" font-weight="400" font-style="normal" 
>
</g>

<g fill="none" stroke="#000000" stroke-opacity="1" stroke-width="1" stroke-linecap="square" stroke-linejoin="bevel" transform="matrix(3.99756,0,0,3.99756,-41.4793,-33.1281)"
font-family="Helvetica" font-size="12" font-weight="400" font-style="normal" 
>
</g>

<g fill="#8562cb" fill-opacity="1" stroke="none" transform="matrix(3.99756,0,0,3.99756,-41.4793,-33.1281)"
font-family="Helvetica" font-size="12" font-weight="400" font-style="normal" 
>
<path vector-effect="none" fill-rule="nonzero" d="M24.9956,191.606 L36.8638,191.569 L36.8726,194.353 L25.0044,194.39 L24.9956,191.606"/>
</g>

<g fill="none" stroke="#000000" stroke-opacity="1" stroke-width="0.3" stroke-linecap="square" stroke-linejoin="round" transform="matrix(3.99756,0,0,3.99756,-41.4793,-33.1281)"
font-family="Helvetica" font-size="12" font-weight="400" font-style="normal" 
>
<path vector-effect="none" fill-rule="evenodd" d="M24.9956,191.606 L36.8638,191.569 L36.8726,194.353 L25.0044,194.39 L24.9956,191.606"/>
</g>

<g fill="none" stroke="#000000" stroke-opacity="1" stroke-width="1" stroke-linecap="square" stroke-linejoin="bevel" transform="matrix(3.99756,0,0,3.99756,-41.4793,-33.1281)"
font-family="Helvetica" font-size="12" font-weight="400" font-style="normal" 
>
</g>

<g fill="none" stroke="#000000" stroke-opacity="1" stroke-width="1" stroke-linecap="square" stroke-linejoin="bevel" transform="matrix(3.99756,0,0,3.99756,-41.4793,-33.1281)"
font-family="Helvetica" font-size="12" font-weight="400" font-style="normal" 
>
</g>

<g fill="#cb8362" fill-opacity="1" stroke="none" transform="matrix(3.99756,0,0,3.99756,-41.4793,-33.1281)"
font-family="Helvetica" font-size="12" font-weight="400" font-style="normal" 
>
<path vector-effect="none" fill-rule="nonzero" d="M293.549,145.304 L275.697,145.527 C275.69,145.527 275.684,145.527 275.677,145.527 L275.677,145.527 L257.685,145.621 C257.68,145.621 257.675,145.621 257.671,145.621 C257.64,145.621 257.61,145.62 257.581,145.619 L257.581,145.619 L239.743,145.016 L239.923,139.699 L257.761,140.303 L257.671,142.961 L257.657,140.301 L275.65,140.208 L275.664,142.868 L275.63,140.208 L293.483,139.984 L293.549,145.304"/>
</g>

<g fill="none" stroke="#000000" stroke-opacity="1" stroke-width="0.3" stroke-linecap="square" stroke-linejoin="round" transform="matrix(3.99756,0,0,3.99756,-41.4793,-33.1281)"
font-family="Helvetica" font-size="12" font-weight="400" font-style="normal" 
>
<path vector-effect="none" fill-rule="evenodd" d="M293.549,145.304 L275.697,145.527 L275.687,145.527 L275.677,145.527 L275.677,145.527 L257.685,145.621 L257.678,145.621 L257.671,145.621 L257.626,145.62 L257.581,145.619 L257.581,145.619 L239.743,145.016 L239.923,139.699 L257.709,140.301 L275.64,140.208 L293.483,139.984 L293.549,145.304"/>
</g>

<g fill="none" stroke="#000000" stroke-opacity="1" stroke-width="1" stroke-linecap="square" stroke-linejoin="bevel" transform="matrix(3.99756,0,0,3.99756,-41.4793,-33.1281)"
font-family="Helvetica" font-size="12" font-weight="400" font-style="normal" 
>
</g>

<g fill="none" stroke="#000000" stroke-opacity="1" stroke-width="1" stroke-linecap="square" stroke-linejoin="bevel" transform="matrix(3.99756,0,0,3.99756,-41.4793,-33.1281)"
font-family="Helvetica" font-size="12" font-weight="400" font-style="normal" 
>
</g>

<g fill="#b0cb62" fill-opacity="1" stroke="none" transform="matrix(3.99756,0,0,3.99756,-41.4793,-33.1281)"
font-family="Helvetica" font-size="12" font-weight="400" font-style="normal" 
>
<path vector-effect="none" fill-rule="nonzero" d="M189.847,144.019 L170.837,144.207 C170.836,144.207 170.835,144.207 170.834,144.207 L170.834,144.207 L151.682,144.351 C151.678,144.351 151.674,144.351 151.671,144.351 C151.658,144.351 151.645,144.35 151.632,144.35 L151.632,144.35 L132.637,143.83 L132.716,140.968 L151.71,141.488 L151.671,142.919 L151.66,141.488 L170.812,141.344 L170.823,142.775 L170.809,141.344 L189.818,141.156 L189.847,144.019"/>
</g>

<g fill="none" stroke="#000000" stroke-opacity="1" stroke-width="0.3" stroke-linecap="square" stroke-linejoin="round" transform="matrix(3.99756,0,0,3.99756,-41.4793,-33.1281)"
font-family="Helvetica" font-size="12" font-weight="400" font-style="normal" 
>
<path vector-effect="none" fill-rule="evenodd" d="M189.847,144.019 L170.837,144.207 L170.835,144.207 L170.834,144.207 L170.834,144.207 L151.682,144.351 L151.676,144.351 L151.671,144.351 L151.651,144.35 L151.632,144.35 L151.632,144.35 L132.637,143.83 L132.716,140.968 L151.685,141.487 L170.811,141.344 L189.818,141.156 L189.847,144.019"/>
</g>

<g fill="none" stroke="#000000" stroke-opacity="1" stroke-width="1" stroke-linecap="square" stroke-linejoin="bevel" transform="matrix(3.99756,0,0,3.99756,-41.4793,-33.1281)"
font-family="Helvetica" font-size="12" font-weight="400" font-style="normal" 
>
</g>

<g fill="none" stroke="#000000" stroke-opacity="1" stroke-width="1" stroke-linecap="square" stroke-linejoin="bevel" transform="matrix(3.99756,0,0,3.99756,-41.4793,-33.1281)"
font-family="Helvetica" font-size="12" font-weight="400" font-style="normal" 
>
</g>

<g fill="#629dcb" fill-opacity="1" stroke="none" transform="matrix(3.99756,0,0,3.99756,-41.4793,-33.1281)"
font-family="Helvetica" font-size="12" font-weight="400" font-style="normal" 
>
<path vector-effect="none" fill-rule="nonzero" d="M179.72,86.3688 L195.582,87.5577 L195.374,90.3313 L195.508,87.5531 L210.587,88.2805 L210.453,91.0587 L210.491,88.2775 L224.702,88.4718 L224.626,94.0341 L210.415,93.8399 C210.383,93.8394 210.351,93.8384 210.319,93.8369 L210.319,93.8369 L195.24,93.1096 C195.214,93.1084 195.19,93.1069 195.166,93.1051 L195.166,93.105 L179.304,91.9162 L179.72,86.3688"/>
</g>

<g fill="none" stroke="#000000" stroke-opacity="1" stroke-width="0.3" stroke-linecap="square" stroke-linejoin="round" transform="matrix(3.99756,0,0,3.99756,-41.4793,-33.1281)"
font-family="Helvetica" font-size="12" font-weight="400" font-style="normal" 
>
<path vector-effect="none" fill-rule="evenodd" d="M179.72,86.3688 L195.545,87.5549 L210.539,88.2781 L224.702,88.4718 L224.626,94.0341 L210.415,93.8399 L210.367,93.8388 L210.319,93.8369 L210.319,93.8369 L195.24,93.1096 L195.202,93.1076 L195.166,93.1051 L195.166,93.105 L179.304,91.9162 L179.72,86.3688"/>
</g>

<g fill="none" stroke="#000000" stroke-opacity="1" stroke-width="1" stroke-linecap="square" stroke-linejoin="bevel" transform="matrix(3.99756,0,0,3.99756,-41.4793,-33.1281)"
font-family="Helvetica" font-size="12" font-weight="400" font-style="normal" 
>
</g>

<g fill="none" stroke="#000000" stroke-opacity="1" stroke-width="1" stroke-linecap="square" stroke-linejoin="bevel" transform="matrix(3.99756,0,0,3.99756,-41.4793,-33.1281)"
font-family="Helvetica" font-size="12" font-weight="400" font-style="normal" 
>
</g>

<g fill="#cbb762" fill-opacity="1" stroke="none" transform="matrix(3.99756,0,0,3.99756,-41.4793,-33.1281)"
font-family="Helvetica" font-size="12" font-weight="400" font-style="normal" 
>
<path vector-effect="none" fill-rule="nonzero" d="M82.7105,145.19 L63.5276,145.426 C63.5268,145.426 63.526,145.426 63.5254,145.426 L63.5252,145.426 L44.2007,145.646 C44.1902,145.646 44.1797,145.647 44.1692,145.647 C44.1485,145.647 44.1278,145.646 44.1075,145.646 L44.1075,145.646 L24.9383,145.217 L25.0617,139.7 L44.2309,140.128 L44.1692,142.887 L44.1377,140.128 L63.4622,139.907 L63.4937,142.666 L63.4599,139.907 L82.6428,139.672 L82.7105,145.19"/>
</g>

<g fill="none" stroke="#000000" stroke-opacity="1" stroke-width="0.3" stroke-linecap="square" stroke-linejoin="round" transform="matrix(3.99756,0,0,3.99756,-41.4793,-33.1281)"
font-family="Helvetica" font-size="12" font-weight="400" font-style="normal" 
>
<path vector-effect="none" fill-rule="evenodd" d="M82.7105,145.19 L63.5276,145.426 L63.5264,145.426 L63.5254,145.426 L63.5252,145.426 L44.2007,145.646 L44.185,145.646 L44.1692,145.647 L44.1382,145.646 L44.1075,145.646 L44.1075,145.646 L24.9383,145.217 L25.0617,139.7 L44.1843,140.127 L63.461,139.907 L82.6428,139.672 L82.7105,145.19"/>
</g>

<g fill="none" stroke="#000000" stroke-opacity="1" stroke-width="1" stroke-linecap="square" stroke-linejoin="bevel" transform="matrix(3.99756,0,0,3.99756,-41.4793,-33.1281)"
font-family="Helvetica" font-size="12" font-weight="400" font-style="normal" 
>
</g>

<g fill="none" stroke="#000000" stroke-opacity="1" stroke-width="1" stroke-linecap="square" stroke-linejoin="bevel" transform="matrix(3.99756,0,0,3.99756,-41.4793,-33.1281)"
font-family="Helvetica" font-size="12" font-weight="400" font-style="normal" 
>
</g>

<g fill="#cb62bb" fill-opacity="1" stroke="none" transform="matrix(3.99756,0,0,3.99756,-41.4793,-33.1281)"
font-family="Helvetica" font-size="12" font-weight="400" font-style="normal" 
>
<path vector-effect="none" fill-rule="nonzero" d="M24.3844,32.4738 L41.5718,28.4565 C41.6193,28.4448 41.6679,28.4349 41.7161,28.4264 L41.7175,28.4267 L59.5893,25.2736 C59.6441,25.2635 59.7,25.2555 59.7555,25.2493 L59.7566,25.2494 L78.3866,23.152 C78.447,23.1451 78.5082,23.1403 78.5695,23.1377 L78.57,23.1377 L97.6167,22.2979 C97.6562,22.2962 97.6959,22.2953 97.7358,22.2953 C99.2296,22.2953 100.441,23.5062 100.441,25 C100.441,26.4938 99.2296,27.7047 97.7358,27.7047 C96.2421,27.7047 95.0312,26.4938 95.0312,25 C95.0312,23.6103 96.0792,22.4654 97.4272,22.3127 L97.8057,22.2962 L116.865,22.7885 C116.927,22.7901 116.988,22.7937 117.048,22.7993 L117.047,22.7995 L135.713,24.5504 C135.77,24.5555 135.826,24.5624 135.88,24.5708 L135.879,24.5712 L153.809,27.3807 C153.858,27.388 153.906,27.3969 153.953,27.4068 L153.953,27.4073 L171.217,31.0804 L170.091,36.3713 L152.827,32.6982 L153.39,30.0527 L152.971,32.7248 L135.042,29.9153 L135.461,27.2432 L135.208,29.9361 L116.542,28.1852 L116.795,25.4923 L116.725,28.1961 L97.666,27.7038 L97.7358,25 L97.855,27.7021 L78.8083,28.5418 L78.6892,25.8397 L78.9918,28.5274 L60.3618,30.6248 L60.0592,27.9371 L60.5291,30.6007 L42.6573,33.7537 L42.1874,31.0902 L42.803,33.7239 L25.6156,37.7412 L24.3844,32.4738"/>
</g>

<g fill="none" stroke="#000000" stroke-opacity="1" stroke-width="0.3" stroke-linecap="square" stroke-linejoin="round" transform="matrix(3.99756,0,0,3.99756,-41.4793,-33.1281)"
font-family="Helvetica" font-size="12" font-weight="400" font-style="normal" 
>
<path vector-effect="none" fill-rule="evenodd" d="M24.3844,32.4738 L41.5718,28.4565 L41.6437,28.4403 L41.7161,28.4264 L41.7175,28.4267 L59.5893,25.2736 L59.6721,25.26 L59.7555,25.2493 L59.7566,25.2494 L78.3866,23.152 L78.4777,23.1432 L78.5695,23.1377 L78.57,23.1377 L97.6167,22.2979 L97.6761,22.296 L97.7358,22.2953 L97.7445,22.2989 L97.8057,22.2962 L116.865,22.7885 L116.957,22.7924 L117.048,22.7993 L117.047,22.7995 L135.713,24.5504 L135.798,24.5594 L135.88,24.5708 L135.879,24.5712 L153.809,27.3807 L153.882,27.3928 L153.953,27.4068 L153.953,27.4073 L171.217,31.0804 L170.091,36.3713 L152.899,32.7134 L135.125,29.9283 L116.633,28.1937 L97.7605,27.7062 L78.9003,28.5377 L60.4458,30.6154 L42.7305,33.7408 L25.6156,37.7412 L24.3844,32.4738"/>
</g>

<g fill="none" stroke="#000000" stroke-opacity="1" stroke-width="1" stroke-linecap="square" stroke-linejoin="bevel" transform="matrix(3.99756,0,0,3.99756,-41.4793,-33.1281)"
font-family="Helvetica" font-size="12" font-weight="400" font-style="normal" 
>
</g>

<g fill="none" stroke="#000000" stroke-opacity="1" stroke-width="1" stroke-linecap="square" stroke-linejoin="bevel" transform="matrix(3.99756,0,0,3.99756,-41.4793,-33.1281)"
font-family="Helvetica" font-size="12" font-weight="400" font-style="normal" 
>
</g>

<g fill="#c962cb" fill-opacity="1" stroke="none" transform="matrix(3.99756,0,0,3.99756,-41.4793,-33.1281)"
font-family="Helvetica" font-size="12" font-weight="400" font-style="normal" 
>
<path vector-effect="none" fill-rule="nonzero" d="M24.9099,86.7203 L42.4663,86.0673 C42.4814,86.0667 42.4965,86.0663 42.5115,86.066 L42.5117,86.066 L60.4856,85.7345 C60.5005,85.7342 60.5154,85.734 60.5304,85.734 C61.8693,85.734 62.9547,86.8194 62.9547,88.1584 C62.9547,89.4973 61.8693,90.5827 60.5304,90.5827 C59.1914,90.5827 58.106,89.4973 58.106,88.1584 C58.106,86.8509 59.1411,85.7852 60.4361,85.7358 L60.5348,85.7341 L78.7298,85.7674 C78.7463,85.7674 78.7628,85.7676 78.779,85.768 L78.7789,85.768 L96.7515,86.1654 C96.767,86.1658 96.7822,86.1662 96.797,86.1668 L96.7969,86.1669 L114.351,86.8841 L114.153,91.7287 L96.599,91.0114 L96.6979,88.5891 L96.6443,91.0129 L78.6717,90.6154 L78.7253,88.1917 L78.7209,90.616 L60.5259,90.5827 L60.5304,88.1584 L60.5751,90.5822 L42.6011,90.9138 L42.5564,88.4899 L42.6465,90.9126 L25.0901,91.5655 L24.9099,86.7203"/>
</g>

<g fill="none" stroke="#000000" stroke-opacity="1" stroke-width="0.3" stroke-linecap="square" stroke-linejoin="round" transform="matrix(3.99756,0,0,3.99756,-41.4793,-33.1281)"
font-family="Helvetica" font-size="12" font-weight="400" font-style="normal" 
>
<path vector-effect="none" fill-rule="evenodd" d="M24.9099,86.7203 L42.4663,86.0673 L42.4889,86.0665 L42.5115,86.066 L42.5117,86.066 L60.4856,85.7345 L60.508,85.7341 L60.5304,85.734 L60.5305,85.7341 L60.5348,85.7341 L78.7298,85.7674 L78.7545,85.7676 L78.779,85.768 L78.7789,85.768 L96.7515,86.1654 L96.7745,86.166 L96.797,86.1668 L96.7969,86.1669 L114.351,86.8841 L114.153,91.7287 L96.6217,91.0124 L78.6963,90.616 L60.5505,90.5827 L42.6238,90.9134 L25.0901,91.5655 L24.9099,86.7203"/>
</g>

<g fill="none" stroke="#000000" stroke-opacity="1" stroke-width="1" stroke-linecap="square" stroke-linejoin="bevel" transform="matrix(3.99756,0,0,3.99756,-41.4793,-33.1281)"
font-family="Helvetica" font-size="12" font-weight="400" font-style="normal" 
>
</g>

<g fill="none" stroke="#000000" stroke-opacity="1" stroke-width="1" stroke-linecap="square" stroke-linejoin="bevel" transform="matrix(3.99756,0,0,3.99756,-41.4793,-33.1281)"
font-family="Helvetica" font-size="12" font-weight="400" font-style="normal" 
>
</g>

<g fill="#62cb65" fill-opacity="1" stroke="none" transform="matrix(3.99756,0,0,3.99756,-41.4793,-33.1281)"
font-family="Helvetica" font-size="12" font-weight="400" font-style="normal" 
>
<path vector-effect="none" fill-rule="nonzero" d="M24.9958,241.683 L31.2881,241.663 L31.2965,244.334 L25.0042,244.354 L24.9958,241.683"/>
</g>

<g fill="none" stroke="#000000" stroke-opacity="1" stroke-width="0.3" stroke-linecap="square" stroke-linejoin="round" transform="matrix(3.99756,0,0,3.99756,-41.4793,-33.1281)"
font-family="Helvetica" font-size="12" font-weight="400" font-style="normal" 
>
<path vector-effect="none" fill-rule="evenodd" d="M24.9958,241.683 L31.2881,241.663 L31.2965,244.334 L25.0042,244.354 L24.9958,241.683"/>
</g>

<g fill="none" stroke="#000000" stroke-opacity="1" stroke-width="1" stroke-linecap="square" stroke-linejoin="bevel" transform="matrix(3.99756,0,0,3.99756,-41.4793,-33.1281)"
font-family="Helvetica" font-size="12" font-weight="400" font-style="normal" 
>
</g>

<g fill="none" stroke="#000000" stroke-opacity="1" stroke-width="1" stroke-linecap="square" stroke-linejoin="bevel" transform="matrix(1,0,0,1,0,0)"
font-family="Helvetica" font-size="12" font-weight="400" font-style="normal" 
>
</g>
</g>
</svg>
