<?xml version="1.0" encoding="UTF-8" standalone="no"?>
<svg width="469.194mm" height="352.778mm"
 viewBox="0 0 1330 1000"
 xmlns="http://www.w3.org/2000/svg" xmlns:xlink="http://www.w3.org/1999/xlink"  version="1.2" baseProfile="tiny">
<title>Qt SVG Document</title>
<desc>Generated with Qt</desc>
<defs>
</defs>
<g fill="none" stroke="black" stroke-width="1" fill-rule="evenodd" stroke-linecap="square" stroke-linejoin="bevel" >

<g fill="#ffffff" fill-opacity="1" stroke="none" transform="matrix(1,0,0,1,0,0)"
font-family="Helvetica" font-size="12" font-weight="400" font-style="normal" 
>
<rect x="0" y="0" width="1330" height="1000"/>
</g>

<g fill="none" stroke="#000000" stroke-opacity="1" stroke-width="1" stroke-linecap="square" stroke-linejoin="bevel" transform="matrix(1,0,0,1,0,0)"
font-family="Helvetica" font-size="12" font-weight="400" font-style="normal" 
>
</g>

<g fill="none" stroke="#000000" stroke-opacity="1" stroke-width="1" stroke-linecap="square" stroke-linejoin="bevel" transform="matrix(1,0,0,1,0,0)"
font-family="Helvetica" font-size="12" font-weight="400" font-style="normal" 
>
</g>

<g fill="none" stroke="#000000" stroke-opacity="1" stroke-width="1" stroke-linecap="square" stroke-linejoin="bevel" transform="matrix(4.2229,0,0,4.2229,-31.7783,-38.5126)"
font-family="Helvetica" font-size="12" font-weight="400" font-style="normal" 
>
</g>

<g fill="none" stroke="#000000" stroke-opacity="0.705882" stroke-width="1.5" stroke-linecap="round" stroke-linejoin="bevel" transform="matrix(4.2229,0,0,4.2229,-31.7783,-38.5126)"
font-family="Helvetica" font-size="12" font-weight="400" font-style="normal" 
>
<path vector-effect="none" fill-rule="evenodd" d="M177.169,135.858 C175.844,138.23 177.534,139.907 174.979,140.831 "/>
</g>

<g fill="none" stroke="#000000" stroke-opacity="1" stroke-width="1" stroke-linecap="square" stroke-linejoin="bevel" transform="matrix(4.2229,0,0,4.2229,-31.7783,-38.5126)"
font-family="Helvetica" font-size="12" font-weight="400" font-style="normal" 
>
</g>

<g fill="none" stroke="#000000" stroke-opacity="1" stroke-width="1" stroke-linecap="square" stroke-linejoin="bevel" transform="matrix(4.2229,0,0,4.2229,-31.7783,-38.5126)"
font-family="Helvetica" font-size="12" font-weight="400" font-style="normal" 
>
</g>

<g fill="none" stroke="#000000" stroke-opacity="0.705882" stroke-width="1.5" stroke-linecap="round" stroke-linejoin="bevel" transform="matrix(4.2229,0,0,4.2229,-31.7783,-38.5126)"
font-family="Helvetica" font-size="12" font-weight="400" font-style="normal" 
>
<path vector-effect="none" fill-rule="evenodd" d="M284.819,113.551 C282.336,114.038 280.686,112.192 281.446,109.779 "/>
</g>

<g fill="none" stroke="#000000" stroke-opacity="1" stroke-width="1" stroke-linecap="square" stroke-linejoin="bevel" transform="matrix(4.2229,0,0,4.2229,-31.7783,-38.5126)"
font-family="Helvetica" font-size="12" font-weight="400" font-style="normal" 
>
</g>

<g fill="none" stroke="#000000" stroke-opacity="1" stroke-width="1" stroke-linecap="square" stroke-linejoin="bevel" transform="matrix(4.2229,0,0,4.2229,-31.7783,-38.5126)"
font-family="Helvetica" font-size="12" font-weight="400" font-style="normal" 
>
</g>

<g fill="none" stroke="#000000" stroke-opacity="0.705882" stroke-width="1.5" stroke-linecap="round" stroke-linejoin="bevel" transform="matrix(4.2229,0,0,4.2229,-31.7783,-38.5126)"
font-family="Helvetica" font-size="12" font-weight="400" font-style="normal" 
>
<path vector-effect="none" fill-rule="evenodd" d="M174.979,140.831 C177.496,139.92 176.147,143.377 178.171,145.129 "/>
</g>

<g fill="none" stroke="#000000" stroke-opacity="1" stroke-width="1" stroke-linecap="square" stroke-linejoin="bevel" transform="matrix(4.2229,0,0,4.2229,-31.7783,-38.5126)"
font-family="Helvetica" font-size="12" font-weight="400" font-style="normal" 
>
</g>

<g fill="none" stroke="#000000" stroke-opacity="1" stroke-width="1" stroke-linecap="square" stroke-linejoin="bevel" transform="matrix(4.2229,0,0,4.2229,-31.7783,-38.5126)"
font-family="Helvetica" font-size="12" font-weight="400" font-style="normal" 
>
</g>

<g fill="#b262cb" fill-opacity="1" stroke="none" transform="matrix(4.2229,0,0,4.2229,-31.7783,-38.5126)"
font-family="Helvetica" font-size="12" font-weight="400" font-style="normal" 
>
<path vector-effect="none" fill-rule="nonzero" d="M24.9846,228.316 L31.0981,228.244 L31.1289,230.868 L25.0154,230.94 L24.9846,228.316"/>
</g>

<g fill="none" stroke="#000000" stroke-opacity="1" stroke-width="0.3" stroke-linecap="square" stroke-linejoin="round" transform="matrix(4.2229,0,0,4.2229,-31.7783,-38.5126)"
font-family="Helvetica" font-size="12" font-weight="400" font-style="normal" 
>
<path vector-effect="none" fill-rule="evenodd" d="M24.9846,228.316 L31.0981,228.244 L31.1289,230.868 L25.0154,230.94 L24.9846,228.316"/>
</g>

<g fill="none" stroke="#000000" stroke-opacity="1" stroke-width="1" stroke-linecap="square" stroke-linejoin="bevel" transform="matrix(4.2229,0,0,4.2229,-31.7783,-38.5126)"
font-family="Helvetica" font-size="12" font-weight="400" font-style="normal" 
>
</g>

<g fill="none" stroke="#000000" stroke-opacity="1" stroke-width="1" stroke-linecap="square" stroke-linejoin="bevel" transform="matrix(4.2229,0,0,4.2229,-31.7783,-38.5126)"
font-family="Helvetica" font-size="12" font-weight="400" font-style="normal" 
>
</g>

<g fill="#cb6263" fill-opacity="1" stroke="none" transform="matrix(4.2229,0,0,4.2229,-31.7783,-38.5126)"
font-family="Helvetica" font-size="12" font-weight="400" font-style="normal" 
>
<path vector-effect="none" fill-rule="nonzero" d="M179.768,143.285 L195.032,156.498 L193.435,158.343 L194.935,156.419 L209.493,167.765 L207.993,169.689 L209.371,167.676 L223.789,177.543 L221.033,181.569 L206.615,171.702 C206.574,171.673 206.533,171.644 206.494,171.613 L206.494,171.613 L191.936,160.267 C191.903,160.241 191.87,160.214 191.839,160.187 L191.839,160.187 L176.575,146.974 L179.768,143.285"/>
</g>

<g fill="none" stroke="#000000" stroke-opacity="1" stroke-width="0.3" stroke-linecap="square" stroke-linejoin="round" transform="matrix(4.2229,0,0,4.2229,-31.7783,-38.5126)"
font-family="Helvetica" font-size="12" font-weight="400" font-style="normal" 
>
<path vector-effect="none" fill-rule="evenodd" d="M179.768,143.285 L194.984,156.457 L209.433,167.718 L223.789,177.543 L221.033,181.569 L206.615,171.702 L206.554,171.658 L206.494,171.613 L206.494,171.613 L191.936,160.267 L191.887,160.227 L191.839,160.187 L191.839,160.187 L176.575,146.974 L179.768,143.285"/>
</g>

<g fill="none" stroke="#000000" stroke-opacity="1" stroke-width="1" stroke-linecap="square" stroke-linejoin="bevel" transform="matrix(4.2229,0,0,4.2229,-31.7783,-38.5126)"
font-family="Helvetica" font-size="12" font-weight="400" font-style="normal" 
>
</g>

<g fill="none" stroke="#000000" stroke-opacity="1" stroke-width="1" stroke-linecap="square" stroke-linejoin="bevel" transform="matrix(4.2229,0,0,4.2229,-31.7783,-38.5126)"
font-family="Helvetica" font-size="12" font-weight="400" font-style="normal" 
>
</g>

<g fill="#7862cb" fill-opacity="1" stroke="none" transform="matrix(4.2229,0,0,4.2229,-31.7783,-38.5126)"
font-family="Helvetica" font-size="12" font-weight="400" font-style="normal" 
>
<path vector-effect="none" fill-rule="nonzero" d="M233.817,26.0642 L227.426,40.2987 C227.425,40.3021 227.424,40.3046 227.423,40.3069 L227.422,40.3064 L220.81,54.9088 C220.808,54.9151 220.805,54.9207 220.803,54.9259 L220.802,54.9254 L213.695,70.3323 C213.691,70.3422 213.687,70.3512 213.682,70.3599 L213.682,70.3595 L206.044,86.4263 C206.038,86.4395 206.032,86.4519 206.026,86.464 L206.026,86.4635 L197.84,102.998 C197.833,103.014 197.825,103.029 197.817,103.044 L197.817,103.044 L189.064,119.88 C189.053,119.903 189.04,119.926 189.028,119.948 L189.028,119.948 L179.437,137.125 L174.9,134.592 L184.49,117.414 L186.759,118.681 L184.454,117.483 L193.206,100.647 L195.511,101.845 L193.183,100.693 L201.369,84.158 L203.697,85.3108 L201.351,84.1952 L208.989,68.1284 L211.335,69.2439 L208.976,68.1555 L216.084,52.7486 L218.443,53.837 L216.076,52.7652 L222.689,38.1628 L225.056,39.2346 L222.685,38.1704 L229.076,23.9358 L233.817,26.0642"/>
</g>

<g fill="none" stroke="#000000" stroke-opacity="1" stroke-width="0.3" stroke-linecap="square" stroke-linejoin="round" transform="matrix(4.2229,0,0,4.2229,-31.7783,-38.5126)"
font-family="Helvetica" font-size="12" font-weight="400" font-style="normal" 
>
<path vector-effect="none" fill-rule="evenodd" d="M233.817,26.0642 L227.426,40.2987 L227.424,40.3032 L227.423,40.3069 L227.422,40.3064 L220.81,54.9088 L220.807,54.9178 L220.803,54.9259 L220.802,54.9254 L213.695,70.3323 L213.689,70.3465 L213.682,70.3599 L213.682,70.3595 L206.044,86.4263 L206.035,86.4455 L206.026,86.464 L206.026,86.4635 L197.84,102.998 L197.829,103.022 L197.817,103.044 L197.817,103.044 L189.064,119.88 L189.046,119.914 L189.028,119.948 L189.028,119.948 L179.437,137.125 L174.9,134.592 L184.472,117.448 L193.194,100.67 L201.36,84.1765 L208.982,68.1419 L216.08,52.7569 L222.687,38.1666 L229.076,23.9358 L233.817,26.0642"/>
</g>

<g fill="none" stroke="#000000" stroke-opacity="1" stroke-width="1" stroke-linecap="square" stroke-linejoin="bevel" transform="matrix(4.2229,0,0,4.2229,-31.7783,-38.5126)"
font-family="Helvetica" font-size="12" font-weight="400" font-style="normal" 
>
</g>

<g fill="none" stroke="#000000" stroke-opacity="1" stroke-width="1" stroke-linecap="square" stroke-linejoin="bevel" transform="matrix(4.2229,0,0,4.2229,-31.7783,-38.5126)"
font-family="Helvetica" font-size="12" font-weight="400" font-style="normal" 
>
</g>

<g fill="#62b6cb" fill-opacity="1" stroke="none" transform="matrix(4.2229,0,0,4.2229,-31.7783,-38.5126)"
font-family="Helvetica" font-size="12" font-weight="400" font-style="normal" 
>
<path vector-effect="none" fill-rule="nonzero" d="M175.887,143.339 L154.501,151.081 C154.411,151.115 154.319,151.143 154.225,151.165 L154.224,151.165 L133.316,156.253 C133.169,156.29 133.017,156.313 132.862,156.323 L132.861,156.323 L112.019,157.698 C111.961,157.702 111.902,157.704 111.843,157.704 C111.691,157.704 111.541,157.691 111.396,157.666 L111.397,157.666 L91.269,154.245 C91.0266,154.205 90.7965,154.131 90.5824,154.031 L90.5828,154.03 L72.4017,145.497 C72.1854,145.396 71.9856,145.266 71.8063,145.114 L71.8064,145.114 L56.6805,132.239 C56.5247,132.106 56.3844,131.956 56.2627,131.791 L56.2628,131.791 L44.5856,115.957 C44.4892,115.827 44.4044,115.687 44.333,115.54 L44.3333,115.54 L35.8446,98.0698 C35.7902,97.9595 35.7436,97.8443 35.7054,97.7261 L35.7058,97.7249 L29.8533,79.6263 C29.8244,79.5395 29.8006,79.45 29.7815,79.3596 L29.7818,79.3583 L25.9724,61.3665 C25.958,61.3008 25.9465,61.2337 25.9377,61.1665 L25.9378,61.1654 L23.6322,43.8108 C23.6254,43.7611 23.6201,43.7106 23.6164,43.6604 L23.6165,43.6596 L22.3411,26.6982 L27.6589,26.2983 L28.9342,43.2598 L26.2754,43.4597 L28.9185,43.1085 L31.2241,60.4631 L28.581,60.8142 L31.1895,60.2619 L34.9989,78.2537 L32.3903,78.806 L34.9273,77.9856 L40.7799,96.0841 L38.2428,96.9045 L40.6411,95.7392 L49.1298,113.209 L46.7315,114.374 L48.8775,112.792 L60.5547,128.626 L58.4088,130.209 L60.137,128.178 L75.2628,141.053 L73.5346,143.083 L74.6675,140.669 L92.8486,149.203 L91.7157,151.616 L92.1625,148.988 L112.29,152.409 L111.843,155.037 L111.668,152.377 L132.51,151.002 L132.686,153.663 L132.055,151.072 L152.963,145.984 L153.593,148.574 L152.686,146.067 L174.071,138.324 L175.887,143.339"/>
</g>

<g fill="none" stroke="#000000" stroke-opacity="1" stroke-width="0.3" stroke-linecap="square" stroke-linejoin="round" transform="matrix(4.2229,0,0,4.2229,-31.7783,-38.5126)"
font-family="Helvetica" font-size="12" font-weight="400" font-style="normal" 
>
<path vector-effect="none" fill-rule="evenodd" d="M175.887,143.339 L154.501,151.081 L154.365,151.127 L154.225,151.165 L154.224,151.165 L133.316,156.253 L133.092,156.298 L132.862,156.323 L132.861,156.323 L112.019,157.698 L111.932,157.702 L111.843,157.704 L111.617,157.694 L111.396,157.666 L111.397,157.666 L91.269,154.245 L90.9151,154.16 L90.5824,154.031 L90.5828,154.03 L72.4017,145.497 L72.0901,145.325 L71.8063,145.114 L71.8064,145.114 L56.6805,132.239 L56.4589,132.027 L56.2627,131.791 L56.2628,131.791 L44.5856,115.957 L44.4499,115.755 L44.333,115.54 L44.3333,115.54 L35.8446,98.0698 L35.7689,97.9009 L35.7054,97.7261 L35.7058,97.7249 L29.8533,79.6263 L29.8137,79.4943 L29.7815,79.3596 L29.7818,79.3583 L25.9724,61.3665 L25.953,61.2671 L25.9377,61.1665 L25.9378,61.1654 L23.6322,43.8108 L23.6231,43.7358 L23.6164,43.6604 L23.6165,43.6596 L22.3411,26.6982 L27.6589,26.2983 L28.9285,43.1839 L31.2107,60.3618 L34.9701,78.1177 L40.7225,95.9068 L49.0228,112.989 L60.3718,128.378 L74.9908,140.821 L92.5202,149.049 L111.981,152.356 L132.28,151.017 L152.822,146.018 L174.071,138.324 L175.887,143.339"/>
</g>

<g fill="none" stroke="#000000" stroke-opacity="1" stroke-width="1" stroke-linecap="square" stroke-linejoin="bevel" transform="matrix(4.2229,0,0,4.2229,-31.7783,-38.5126)"
font-family="Helvetica" font-size="12" font-weight="400" font-style="normal" 
>
</g>

<g fill="none" stroke="#000000" stroke-opacity="1" stroke-width="1" stroke-linecap="square" stroke-linejoin="bevel" transform="matrix(4.2229,0,0,4.2229,-31.7783,-38.5126)"
font-family="Helvetica" font-size="12" font-weight="400" font-style="normal" 
>
</g>

<g fill="#cb62b2" fill-opacity="1" stroke="none" transform="matrix(4.2229,0,0,4.2229,-31.7783,-38.5126)"
font-family="Helvetica" font-size="12" font-weight="400" font-style="normal" 
>
<path vector-effect="none" fill-rule="nonzero" d="M280.087,109.351 L285.955,90.7268 C286.136,90.1522 286.67,89.735 287.302,89.7301 L287.303,89.7301 L306.223,89.5808 C306.227,89.5807 306.23,89.5807 306.234,89.5807 C307.021,89.5807 307.659,90.2186 307.659,91.0056 C307.659,91.7925 307.021,92.4304 306.234,92.4304 C305.512,92.4304 304.916,91.8938 304.822,91.1983 L307.649,91.1753 L305.395,109.961 C305.321,110.578 304.855,111.073 304.255,111.19 L304.254,111.19 L285.093,114.949 L284.544,112.153 L303.706,108.394 L303.98,109.792 L302.565,109.622 L304.819,90.8358 L306.234,91.0056 L306.245,92.4303 L287.325,92.5797 L287.314,91.1549 L288.673,91.5831 L282.805,110.207 L280.087,109.351"/>
</g>

<g fill="none" stroke="#000000" stroke-opacity="1" stroke-width="0.3" stroke-linecap="square" stroke-linejoin="round" transform="matrix(4.2229,0,0,4.2229,-31.7783,-38.5126)"
font-family="Helvetica" font-size="12" font-weight="400" font-style="normal" 
>
<path vector-effect="none" fill-rule="evenodd" d="M280.087,109.351 L285.955,90.7268 L286.459,90.0148 L287.302,89.7301 L287.303,89.7301 L306.223,89.5808 L306.228,89.5807 L306.234,89.5807 L307.242,89.9981 L307.659,91.0056 L307.588,91.1758 L307.649,91.1753 L305.395,109.961 L305.022,110.763 L304.255,111.19 L304.254,111.19 L285.093,114.949 L284.544,112.153 L302.689,108.593 L304.627,92.4431 L288.361,92.5715 L282.805,110.207 L280.087,109.351"/>
</g>

<g fill="none" stroke="#000000" stroke-opacity="1" stroke-width="1" stroke-linecap="square" stroke-linejoin="bevel" transform="matrix(4.2229,0,0,4.2229,-31.7783,-38.5126)"
font-family="Helvetica" font-size="12" font-weight="400" font-style="normal" 
>
</g>

<g fill="none" stroke="#000000" stroke-opacity="1" stroke-width="1" stroke-linecap="square" stroke-linejoin="bevel" transform="matrix(1,0,0,1,0,0)"
font-family="Helvetica" font-size="12" font-weight="400" font-style="normal" 
>
</g>
</g>
</svg>
