<?xml version="1.0" encoding="UTF-8" standalone="no"?>
<svg width="416.983mm" height="352.778mm"
 viewBox="0 0 1182 1000"
 xmlns="http://www.w3.org/2000/svg" xmlns:xlink="http://www.w3.org/1999/xlink"  version="1.2" baseProfile="tiny">
<title>Qt SVG Document</title>
<desc>Generated with Qt</desc>
<defs>
</defs>
<g fill="none" stroke="black" stroke-width="1" fill-rule="evenodd" stroke-linecap="square" stroke-linejoin="bevel" >

<g fill="#ffffff" fill-opacity="1" stroke="none" transform="matrix(1,0,0,1,0,0)"
font-family="Helvetica" font-size="12" font-weight="400" font-style="normal" 
>
<rect x="0" y="0" width="1182" height="1000"/>
</g>

<g fill="none" stroke="#000000" stroke-opacity="1" stroke-width="1" stroke-linecap="square" stroke-linejoin="bevel" transform="matrix(1,0,0,1,0,0)"
font-family="Helvetica" font-size="12" font-weight="400" font-style="normal" 
>
</g>

<g fill="none" stroke="#000000" stroke-opacity="1" stroke-width="1" stroke-linecap="square" stroke-linejoin="bevel" transform="matrix(1,0,0,1,0,0)"
font-family="Helvetica" font-size="12" font-weight="400" font-style="normal" 
>
</g>

<g fill="none" stroke="#000000" stroke-opacity="1" stroke-width="1" stroke-linecap="square" stroke-linejoin="bevel" transform="matrix(3.97622,0,0,3.97622,-41.0308,-32.9358)"
font-family="Helvetica" font-size="12" font-weight="400" font-style="normal" 
>
</g>

<g fill="none" stroke="#000000" stroke-opacity="0.705882" stroke-width="1.5" stroke-linecap="round" stroke-linejoin="bevel" transform="matrix(3.97622,0,0,3.97622,-41.0308,-32.9358)"
font-family="Helvetica" font-size="12" font-weight="400" font-style="normal" 
>
<path vector-effect="none" fill-rule="evenodd" d="M209.303,90.2042 C211.854,89.9356 210.971,94.4597 213.309,93.4069 "/>
</g>

<g fill="none" stroke="#000000" stroke-opacity="1" stroke-width="1" stroke-linecap="square" stroke-linejoin="bevel" transform="matrix(3.97622,0,0,3.97622,-41.0308,-32.9358)"
font-family="Helvetica" font-size="12" font-weight="400" font-style="normal" 
>
</g>

<g fill="none" stroke="#000000" stroke-opacity="1" stroke-width="1" stroke-linecap="square" stroke-linejoin="bevel" transform="matrix(3.97622,0,0,3.97622,-41.0308,-32.9358)"
font-family="Helvetica" font-size="12" font-weight="400" font-style="normal" 
>
</g>

<g fill="none" stroke="#000000" stroke-opacity="0.705882" stroke-width="1.5" stroke-linecap="round" stroke-linejoin="bevel" transform="matrix(3.97622,0,0,3.97622,-41.0308,-32.9358)"
font-family="Helvetica" font-size="12" font-weight="400" font-style="normal" 
>
<path vector-effect="none" fill-rule="evenodd" d="M212.442,86.1512 C209.919,85.6975 211.852,89.9358 209.303,90.2042 "/>
</g>

<g fill="none" stroke="#000000" stroke-opacity="1" stroke-width="1" stroke-linecap="square" stroke-linejoin="bevel" transform="matrix(3.97622,0,0,3.97622,-41.0308,-32.9358)"
font-family="Helvetica" font-size="12" font-weight="400" font-style="normal" 
>
</g>

<g fill="none" stroke="#000000" stroke-opacity="1" stroke-width="1" stroke-linecap="square" stroke-linejoin="bevel" transform="matrix(3.97622,0,0,3.97622,-41.0308,-32.9358)"
font-family="Helvetica" font-size="12" font-weight="400" font-style="normal" 
>
</g>

<g fill="#9662cb" fill-opacity="1" stroke="none" transform="matrix(3.97622,0,0,3.97622,-41.0308,-32.9358)"
font-family="Helvetica" font-size="12" font-weight="400" font-style="normal" 
>
<path vector-effect="none" fill-rule="nonzero" d="M150.636,195.337 L144.147,195.434 L144.108,192.771 L150.596,192.674 L150.636,195.337"/>
</g>

<g fill="none" stroke="#000000" stroke-opacity="1" stroke-width="0.3" stroke-linecap="square" stroke-linejoin="round" transform="matrix(3.97622,0,0,3.97622,-41.0308,-32.9358)"
font-family="Helvetica" font-size="12" font-weight="400" font-style="normal" 
>
<path vector-effect="none" fill-rule="evenodd" d="M150.636,195.337 L144.147,195.434 L144.108,192.771 L150.596,192.674 L150.636,195.337"/>
</g>

<g fill="none" stroke="#000000" stroke-opacity="1" stroke-width="1" stroke-linecap="square" stroke-linejoin="bevel" transform="matrix(3.97622,0,0,3.97622,-41.0308,-32.9358)"
font-family="Helvetica" font-size="12" font-weight="400" font-style="normal" 
>
</g>

<g fill="none" stroke="#000000" stroke-opacity="1" stroke-width="1" stroke-linecap="square" stroke-linejoin="bevel" transform="matrix(3.97622,0,0,3.97622,-41.0308,-32.9358)"
font-family="Helvetica" font-size="12" font-weight="400" font-style="normal" 
>
</g>

<g fill="#cb7562" fill-opacity="1" stroke="none" transform="matrix(3.97622,0,0,3.97622,-41.0308,-32.9358)"
font-family="Helvetica" font-size="12" font-weight="400" font-style="normal" 
>
<path vector-effect="none" fill-rule="nonzero" d="M207.096,195.339 L200.636,195.435 L200.596,192.769 L207.056,192.673 L207.096,195.339"/>
</g>

<g fill="none" stroke="#000000" stroke-opacity="1" stroke-width="0.3" stroke-linecap="square" stroke-linejoin="round" transform="matrix(3.97622,0,0,3.97622,-41.0308,-32.9358)"
font-family="Helvetica" font-size="12" font-weight="400" font-style="normal" 
>
<path vector-effect="none" fill-rule="evenodd" d="M207.096,195.339 L200.636,195.435 L200.596,192.769 L207.056,192.673 L207.096,195.339"/>
</g>

<g fill="none" stroke="#000000" stroke-opacity="1" stroke-width="1" stroke-linecap="square" stroke-linejoin="bevel" transform="matrix(3.97622,0,0,3.97622,-41.0308,-32.9358)"
font-family="Helvetica" font-size="12" font-weight="400" font-style="normal" 
>
</g>

<g fill="none" stroke="#000000" stroke-opacity="1" stroke-width="1" stroke-linecap="square" stroke-linejoin="bevel" transform="matrix(3.97622,0,0,3.97622,-41.0308,-32.9358)"
font-family="Helvetica" font-size="12" font-weight="400" font-style="normal" 
>
</g>

<g fill="#c7cb62" fill-opacity="1" stroke="none" transform="matrix(3.97622,0,0,3.97622,-41.0308,-32.9358)"
font-family="Helvetica" font-size="12" font-weight="400" font-style="normal" 
>
<path vector-effect="none" fill-rule="nonzero" d="M263.542,195.34 L257.096,195.436 L257.056,192.768 L263.502,192.671 L263.542,195.34"/>
</g>

<g fill="none" stroke="#000000" stroke-opacity="1" stroke-width="0.3" stroke-linecap="square" stroke-linejoin="round" transform="matrix(3.97622,0,0,3.97622,-41.0308,-32.9358)"
font-family="Helvetica" font-size="12" font-weight="400" font-style="normal" 
>
<path vector-effect="none" fill-rule="evenodd" d="M263.542,195.34 L257.096,195.436 L257.056,192.768 L263.502,192.671 L263.542,195.34"/>
</g>

<g fill="none" stroke="#000000" stroke-opacity="1" stroke-width="1" stroke-linecap="square" stroke-linejoin="bevel" transform="matrix(3.97622,0,0,3.97622,-41.0308,-32.9358)"
font-family="Helvetica" font-size="12" font-weight="400" font-style="normal" 
>
</g>

<g fill="none" stroke="#000000" stroke-opacity="1" stroke-width="1" stroke-linecap="square" stroke-linejoin="bevel" transform="matrix(3.97622,0,0,3.97622,-41.0308,-32.9358)"
font-family="Helvetica" font-size="12" font-weight="400" font-style="normal" 
>
</g>

<g fill="#a6cb62" fill-opacity="1" stroke="none" transform="matrix(3.97622,0,0,3.97622,-41.0308,-32.9358)"
font-family="Helvetica" font-size="12" font-weight="400" font-style="normal" 
>
<path vector-effect="none" fill-rule="nonzero" d="M212.331,91.2354 L223.598,86.1623 L224.576,88.3338 L224.154,90.6777 L212.02,88.4951 L212.863,83.8073 L224.998,85.9899 C226.112,86.1892 226.957,87.1628 226.957,88.3338 C226.957,89.3004 226.382,90.1326 225.554,90.5057 L225.554,90.5054 L214.287,95.5785 L212.331,91.2354"/>
</g>

<g fill="none" stroke="#000000" stroke-opacity="1" stroke-width="0.3" stroke-linecap="square" stroke-linejoin="round" transform="matrix(3.97622,0,0,3.97622,-41.0308,-32.9358)"
font-family="Helvetica" font-size="12" font-weight="400" font-style="normal" 
>
<path vector-effect="none" fill-rule="evenodd" d="M212.331,91.2354 L216.591,89.3173 L212.02,88.4951 L212.863,83.8073 L224.998,85.9899 L226.395,86.7975 L226.957,88.3338 L226.566,89.6423 L225.554,90.5057 L225.554,90.5054 L214.287,95.5785 L212.331,91.2354"/>
</g>

<g fill="none" stroke="#000000" stroke-opacity="1" stroke-width="1" stroke-linecap="square" stroke-linejoin="bevel" transform="matrix(3.97622,0,0,3.97622,-41.0308,-32.9358)"
font-family="Helvetica" font-size="12" font-weight="400" font-style="normal" 
>
</g>

<g fill="none" stroke="#000000" stroke-opacity="1" stroke-width="1" stroke-linecap="square" stroke-linejoin="bevel" transform="matrix(3.97622,0,0,3.97622,-41.0308,-32.9358)"
font-family="Helvetica" font-size="12" font-weight="400" font-style="normal" 
>
</g>

<g fill="#cb9f62" fill-opacity="1" stroke="none" transform="matrix(3.97622,0,0,3.97622,-41.0308,-32.9358)"
font-family="Helvetica" font-size="12" font-weight="400" font-style="normal" 
>
<path vector-effect="none" fill-rule="nonzero" d="M94.1474,195.327 L86.8868,195.435 L86.8472,192.781 L94.1078,192.673 L94.1474,195.327"/>
</g>

<g fill="none" stroke="#000000" stroke-opacity="1" stroke-width="0.3" stroke-linecap="square" stroke-linejoin="round" transform="matrix(3.97622,0,0,3.97622,-41.0308,-32.9358)"
font-family="Helvetica" font-size="12" font-weight="400" font-style="normal" 
>
<path vector-effect="none" fill-rule="evenodd" d="M94.1474,195.327 L86.8868,195.435 L86.8472,192.781 L94.1078,192.673 L94.1474,195.327"/>
</g>

<g fill="none" stroke="#000000" stroke-opacity="1" stroke-width="1" stroke-linecap="square" stroke-linejoin="bevel" transform="matrix(3.97622,0,0,3.97622,-41.0308,-32.9358)"
font-family="Helvetica" font-size="12" font-weight="400" font-style="normal" 
>
</g>

<g fill="none" stroke="#000000" stroke-opacity="1" stroke-width="1" stroke-linecap="square" stroke-linejoin="bevel" transform="matrix(3.97622,0,0,3.97622,-41.0308,-32.9358)"
font-family="Helvetica" font-size="12" font-weight="400" font-style="normal" 
>
</g>

<g fill="#629acb" fill-opacity="1" stroke="none" transform="matrix(3.97622,0,0,3.97622,-41.0308,-32.9358)"
font-family="Helvetica" font-size="12" font-weight="400" font-style="normal" 
>
<path vector-effect="none" fill-rule="nonzero" d="M36.8877,195.357 L25.0207,195.534 L24.9793,192.75 L36.8462,192.574 L36.8877,195.357"/>
</g>

<g fill="none" stroke="#000000" stroke-opacity="1" stroke-width="0.3" stroke-linecap="square" stroke-linejoin="round" transform="matrix(3.97622,0,0,3.97622,-41.0308,-32.9358)"
font-family="Helvetica" font-size="12" font-weight="400" font-style="normal" 
>
<path vector-effect="none" fill-rule="evenodd" d="M36.8877,195.357 L25.0207,195.534 L24.9793,192.75 L36.8462,192.574 L36.8877,195.357"/>
</g>

<g fill="none" stroke="#000000" stroke-opacity="1" stroke-width="1" stroke-linecap="square" stroke-linejoin="bevel" transform="matrix(3.97622,0,0,3.97622,-41.0308,-32.9358)"
font-family="Helvetica" font-size="12" font-weight="400" font-style="normal" 
>
</g>

<g fill="none" stroke="#000000" stroke-opacity="1" stroke-width="1" stroke-linecap="square" stroke-linejoin="bevel" transform="matrix(3.97622,0,0,3.97622,-41.0308,-32.9358)"
font-family="Helvetica" font-size="12" font-weight="400" font-style="normal" 
>
</g>

<g fill="#cb627f" fill-opacity="1" stroke="none" transform="matrix(3.97622,0,0,3.97622,-41.0308,-32.9358)"
font-family="Helvetica" font-size="12" font-weight="400" font-style="normal" 
>
<path vector-effect="none" fill-rule="nonzero" d="M239.746,141.307 L257.587,140.782 C257.612,140.781 257.636,140.781 257.661,140.781 L257.661,140.781 L275.657,140.747 C275.659,140.747 275.661,140.747 275.662,140.747 C277.131,140.747 278.322,141.938 278.322,143.407 C278.322,144.876 277.131,146.067 275.662,146.067 C274.193,146.067 273.002,144.876 273.002,143.407 C273.002,141.964 274.151,140.79 275.583,140.748 L275.731,140.748 L293.574,141.207 L293.437,146.525 L275.594,146.066 L275.662,143.407 L275.667,146.067 L257.671,146.101 L257.666,143.441 L257.744,146.1 L239.902,146.624 L239.746,141.307"/>
</g>

<g fill="none" stroke="#000000" stroke-opacity="1" stroke-width="0.3" stroke-linecap="square" stroke-linejoin="round" transform="matrix(3.97622,0,0,3.97622,-41.0308,-32.9358)"
font-family="Helvetica" font-size="12" font-weight="400" font-style="normal" 
>
<path vector-effect="none" fill-rule="evenodd" d="M239.746,141.307 L257.587,140.782 L257.624,140.781 L257.661,140.781 L257.661,140.781 L275.657,140.747 L275.66,140.747 L275.662,140.747 L275.665,140.748 L275.731,140.748 L293.574,141.207 L293.437,146.525 L275.631,146.067 L257.707,146.101 L239.902,146.624 L239.746,141.307"/>
</g>

<g fill="none" stroke="#000000" stroke-opacity="1" stroke-width="1" stroke-linecap="square" stroke-linejoin="bevel" transform="matrix(3.97622,0,0,3.97622,-41.0308,-32.9358)"
font-family="Helvetica" font-size="12" font-weight="400" font-style="normal" 
>
</g>

<g fill="none" stroke="#000000" stroke-opacity="1" stroke-width="1" stroke-linecap="square" stroke-linejoin="bevel" transform="matrix(3.97622,0,0,3.97622,-41.0308,-32.9358)"
font-family="Helvetica" font-size="12" font-weight="400" font-style="normal" 
>
</g>

<g fill="#62cb9b" fill-opacity="1" stroke="none" transform="matrix(3.97622,0,0,3.97622,-41.0308,-32.9358)"
font-family="Helvetica" font-size="12" font-weight="400" font-style="normal" 
>
<path vector-effect="none" fill-rule="nonzero" d="M132.636,142.491 L151.633,142.013 C151.645,142.012 151.657,142.012 151.669,142.012 C152.46,142.012 153.101,142.653 153.101,143.444 C153.101,144.234 152.46,144.875 151.669,144.875 C150.879,144.875 150.238,144.234 150.238,143.444 C150.238,142.677 150.84,142.052 151.597,142.014 L151.67,142.012 L170.827,142.014 C170.839,142.014 170.851,142.014 170.863,142.015 L170.863,142.015 L189.86,142.498 L189.788,145.36 L170.79,144.877 L170.826,143.446 L170.826,144.877 L151.669,144.875 L151.669,143.444 L151.705,144.875 L132.708,145.353 L132.636,142.491"/>
</g>

<g fill="none" stroke="#000000" stroke-opacity="1" stroke-width="0.3" stroke-linecap="square" stroke-linejoin="round" transform="matrix(3.97622,0,0,3.97622,-41.0308,-32.9358)"
font-family="Helvetica" font-size="12" font-weight="400" font-style="normal" 
>
<path vector-effect="none" fill-rule="evenodd" d="M132.636,142.491 L151.633,142.013 L151.651,142.012 L151.669,142.012 L151.669,142.012 L151.67,142.012 L170.827,142.014 L170.845,142.014 L170.863,142.015 L170.863,142.015 L189.86,142.498 L189.788,145.36 L170.808,144.877 L151.687,144.875 L132.708,145.353 L132.636,142.491"/>
</g>

<g fill="none" stroke="#000000" stroke-opacity="1" stroke-width="1" stroke-linecap="square" stroke-linejoin="bevel" transform="matrix(3.97622,0,0,3.97622,-41.0308,-32.9358)"
font-family="Helvetica" font-size="12" font-weight="400" font-style="normal" 
>
</g>

<g fill="none" stroke="#000000" stroke-opacity="1" stroke-width="1" stroke-linecap="square" stroke-linejoin="bevel" transform="matrix(3.97622,0,0,3.97622,-41.0308,-32.9358)"
font-family="Helvetica" font-size="12" font-weight="400" font-style="normal" 
>
</g>

<g fill="#6762cb" fill-opacity="1" stroke="none" transform="matrix(3.97622,0,0,3.97622,-41.0308,-32.9358)"
font-family="Helvetica" font-size="12" font-weight="400" font-style="normal" 
>
<path vector-effect="none" fill-rule="nonzero" d="M209.595,92.9703 L193.789,94.6348 C193.764,94.6377 193.739,94.64 193.714,94.6419 L193.713,94.6418 L178.669,95.8104 C178.621,95.8142 178.573,95.8166 178.524,95.8178 L178.524,95.8178 L164.323,96.179 L164.181,90.6179 L178.383,90.2567 L178.453,93.0373 L178.238,90.2642 L193.283,89.0956 L193.498,91.8687 L193.207,89.1026 L209.012,87.438 L209.595,92.9703"/>
</g>

<g fill="none" stroke="#000000" stroke-opacity="1" stroke-width="0.3" stroke-linecap="square" stroke-linejoin="round" transform="matrix(3.97622,0,0,3.97622,-41.0308,-32.9358)"
font-family="Helvetica" font-size="12" font-weight="400" font-style="normal" 
>
<path vector-effect="none" fill-rule="evenodd" d="M209.595,92.9703 L193.789,94.6348 L193.752,94.6387 L193.714,94.6419 L193.713,94.6418 L178.669,95.8104 L178.597,95.8151 L178.524,95.8178 L178.524,95.8178 L164.323,96.179 L164.181,90.6179 L178.31,90.2586 L193.245,89.0986 L209.012,87.438 L209.595,92.9703"/>
</g>

<g fill="none" stroke="#000000" stroke-opacity="1" stroke-width="1" stroke-linecap="square" stroke-linejoin="bevel" transform="matrix(3.97622,0,0,3.97622,-41.0308,-32.9358)"
font-family="Helvetica" font-size="12" font-weight="400" font-style="normal" 
>
</g>

<g fill="none" stroke="#000000" stroke-opacity="1" stroke-width="1" stroke-linecap="square" stroke-linejoin="bevel" transform="matrix(3.97622,0,0,3.97622,-41.0308,-32.9358)"
font-family="Helvetica" font-size="12" font-weight="400" font-style="normal" 
>
</g>

<g fill="#627ccb" fill-opacity="1" stroke="none" transform="matrix(3.97622,0,0,3.97622,-41.0308,-32.9358)"
font-family="Helvetica" font-size="12" font-weight="400" font-style="normal" 
>
<path vector-effect="none" fill-rule="nonzero" d="M24.9313,141.149 L44.1018,140.672 C44.1247,140.671 44.1476,140.671 44.1705,140.671 C45.6946,140.671 46.93,141.907 46.93,143.431 C46.93,144.955 45.6946,146.19 44.1705,146.19 C42.6465,146.19 41.411,144.955 41.411,143.431 C41.411,141.953 42.5721,140.747 44.031,140.675 L44.1721,140.671 L63.5033,140.682 C63.527,140.682 63.5506,140.683 63.5737,140.683 L63.5737,140.683 L82.7436,141.183 L82.5997,146.7 L63.4298,146.2 L63.5018,143.442 L63.5002,146.201 L44.1689,146.19 L44.1705,143.431 L44.2392,146.189 L25.0687,146.666 L24.9313,141.149"/>
</g>

<g fill="none" stroke="#000000" stroke-opacity="1" stroke-width="0.3" stroke-linecap="square" stroke-linejoin="round" transform="matrix(3.97622,0,0,3.97622,-41.0308,-32.9358)"
font-family="Helvetica" font-size="12" font-weight="400" font-style="normal" 
>
<path vector-effect="none" fill-rule="evenodd" d="M24.9313,141.149 L44.1018,140.672 L44.1361,140.671 L44.1705,140.671 L44.1706,140.671 L44.1721,140.671 L63.5033,140.682 L63.5387,140.682 L63.5737,140.683 L63.5737,140.683 L82.7436,141.183 L82.5997,146.7 L63.465,146.201 L44.2041,146.19 L25.0687,146.666 L24.9313,141.149"/>
</g>

<g fill="none" stroke="#000000" stroke-opacity="1" stroke-width="1" stroke-linecap="square" stroke-linejoin="bevel" transform="matrix(3.97622,0,0,3.97622,-41.0308,-32.9358)"
font-family="Helvetica" font-size="12" font-weight="400" font-style="normal" 
>
</g>

<g fill="none" stroke="#000000" stroke-opacity="1" stroke-width="1" stroke-linecap="square" stroke-linejoin="bevel" transform="matrix(3.97622,0,0,3.97622,-41.0308,-32.9358)"
font-family="Helvetica" font-size="12" font-weight="400" font-style="normal" 
>
</g>

<g fill="#cb9862" fill-opacity="1" stroke="none" transform="matrix(3.97622,0,0,3.97622,-41.0308,-32.9358)"
font-family="Helvetica" font-size="12" font-weight="400" font-style="normal" 
>
<path vector-effect="none" fill-rule="nonzero" d="M24.3312,33.5305 L41.431,29.1665 C41.4811,29.1531 41.5324,29.1416 41.5834,29.1318 L41.5847,29.132 L59.4013,25.6754 C59.4594,25.6636 59.5188,25.6542 59.5779,25.6469 L59.5791,25.647 L78.1819,23.3087 C78.2465,23.3004 78.3121,23.2946 78.3778,23.2912 L78.3784,23.2913 L97.4186,22.299 C97.4652,22.2965 97.5121,22.2953 97.5594,22.2953 C99.0531,22.2953 100.264,23.5062 100.264,25 C100.264,26.4938 99.0531,27.7047 97.5594,27.7047 C96.0656,27.7047 94.8547,26.4938 94.8547,25 C94.8547,23.6228 95.884,22.4861 97.2144,22.3171 L97.6225,22.2961 L116.683,22.741 C116.75,22.7425 116.817,22.7465 116.882,22.7528 L116.881,22.7529 L135.543,24.5649 C135.605,24.5707 135.665,24.5786 135.724,24.5883 L135.724,24.5887 L153.628,27.5563 C153.682,27.5648 153.735,27.5751 153.786,27.5868 L153.785,27.5872 L170.994,31.5006 L169.794,36.7753 L152.586,32.8619 L153.186,30.2246 L152.743,32.8928 L134.839,29.9252 L135.281,27.2569 L135.02,29.949 L116.359,28.137 L116.62,25.4449 L116.557,28.1489 L97.4962,27.7039 L97.5594,25 L97.7001,27.701 L78.6599,28.6933 L78.5192,25.9923 L78.8565,28.6759 L60.2537,31.0141 L59.9164,28.3306 L60.4315,30.9857 L42.615,34.4424 L42.0998,31.7872 L42.7687,34.4079 L25.6688,38.7719 L24.3312,33.5305"/>
</g>

<g fill="none" stroke="#000000" stroke-opacity="1" stroke-width="0.3" stroke-linecap="square" stroke-linejoin="round" transform="matrix(3.97622,0,0,3.97622,-41.0308,-32.9358)"
font-family="Helvetica" font-size="12" font-weight="400" font-style="normal" 
>
<path vector-effect="none" fill-rule="evenodd" d="M24.3312,33.5305 L41.431,29.1665 L41.5069,29.1478 L41.5834,29.1318 L41.5847,29.132 L59.4013,25.6754 L59.4892,25.6595 L59.5779,25.6469 L59.5791,25.647 L78.1819,23.3087 L78.2794,23.2981 L78.3778,23.2912 L78.3784,23.2913 L97.4186,22.299 L97.4887,22.2962 L97.5594,22.2953 L97.5679,22.2989 L97.6225,22.2961 L116.683,22.741 L116.783,22.7451 L116.882,22.7528 L116.881,22.7529 L135.543,24.5649 L135.634,24.5751 L135.724,24.5883 L135.724,24.5887 L153.628,27.5563 L153.708,27.5704 L153.786,27.5868 L153.785,27.5872 L170.994,31.5006 L169.794,36.7753 L152.664,32.8797 L134.929,29.9401 L116.458,28.1466 L97.5982,27.7063 L78.7585,28.6882 L60.3431,31.0029 L42.6923,34.4274 L25.6688,38.7719 L24.3312,33.5305"/>
</g>

<g fill="none" stroke="#000000" stroke-opacity="1" stroke-width="1" stroke-linecap="square" stroke-linejoin="bevel" transform="matrix(3.97622,0,0,3.97622,-41.0308,-32.9358)"
font-family="Helvetica" font-size="12" font-weight="400" font-style="normal" 
>
</g>

<g fill="none" stroke="#000000" stroke-opacity="1" stroke-width="1" stroke-linecap="square" stroke-linejoin="bevel" transform="matrix(3.97622,0,0,3.97622,-41.0308,-32.9358)"
font-family="Helvetica" font-size="12" font-weight="400" font-style="normal" 
>
</g>

<g fill="#8d62cb" fill-opacity="1" stroke="none" transform="matrix(3.97622,0,0,3.97622,-41.0308,-32.9358)"
font-family="Helvetica" font-size="12" font-weight="400" font-style="normal" 
>
<path vector-effect="none" fill-rule="nonzero" d="M114.16,92.6574 L96.6015,91.9926 L96.6932,89.57 L96.6468,91.9939 L78.6746,91.65 L78.721,89.2261 L78.7238,91.6504 L60.5317,91.6713 L60.5289,89.247 L60.5807,91.6708 L42.6094,92.0549 L42.5576,89.6312 L42.6543,92.0536 L25.0967,92.7544 L24.9033,87.9097 L42.4609,87.2088 C42.4758,87.2082 42.4907,87.2077 42.5055,87.2074 L42.5058,87.2074 L60.4771,86.8233 C60.4934,86.8229 60.5098,86.8227 60.5261,86.8227 L60.5261,86.8227 L78.7182,86.8018 C78.7192,86.8018 78.7201,86.8018 78.721,86.8018 C80.0599,86.8018 81.1453,87.8872 81.1453,89.2261 C81.1453,90.565 80.0599,91.6504 78.721,91.6504 C77.3821,91.6504 76.2967,90.565 76.2967,89.2261 C76.2967,87.9046 77.3541,86.83 78.6688,86.8023 L78.7674,86.8022 L96.7396,87.1462 C96.755,87.1465 96.7702,87.1469 96.785,87.1474 L96.7849,87.1475 L114.344,87.8122 L114.16,92.6574"/>
</g>

<g fill="none" stroke="#000000" stroke-opacity="1" stroke-width="0.3" stroke-linecap="square" stroke-linejoin="round" transform="matrix(3.97622,0,0,3.97622,-41.0308,-32.9358)"
font-family="Helvetica" font-size="12" font-weight="400" font-style="normal" 
>
<path vector-effect="none" fill-rule="evenodd" d="M114.16,92.6574 L96.6241,91.9935 L78.6992,91.6504 L60.5562,91.6713 L42.6318,92.0545 L25.0967,92.7544 L24.9033,87.9097 L42.4609,87.2088 L42.4832,87.208 L42.5055,87.2074 L42.5058,87.2074 L60.4771,86.8233 L60.5016,86.8229 L60.5261,86.8227 L60.5261,86.8227 L78.7182,86.8018 L78.7196,86.8018 L78.721,86.8018 L78.7222,86.8023 L78.7674,86.8022 L96.7396,87.1462 L96.7625,87.1467 L96.785,87.1474 L96.7849,87.1475 L114.344,87.8122 L114.16,92.6574"/>
</g>

<g fill="none" stroke="#000000" stroke-opacity="1" stroke-width="1" stroke-linecap="square" stroke-linejoin="bevel" transform="matrix(3.97622,0,0,3.97622,-41.0308,-32.9358)"
font-family="Helvetica" font-size="12" font-weight="400" font-style="normal" 
>
</g>

<g fill="none" stroke="#000000" stroke-opacity="1" stroke-width="1" stroke-linecap="square" stroke-linejoin="bevel" transform="matrix(3.97622,0,0,3.97622,-41.0308,-32.9358)"
font-family="Helvetica" font-size="12" font-weight="400" font-style="normal" 
>
</g>

<g fill="#bbcb62" fill-opacity="1" stroke="none" transform="matrix(3.97622,0,0,3.97622,-41.0308,-32.9358)"
font-family="Helvetica" font-size="12" font-weight="400" font-style="normal" 
>
<path vector-effect="none" fill-rule="nonzero" d="M31.3115,245.478 L25.0199,245.571 L24.9801,242.901 L31.2717,242.807 L31.3115,245.478"/>
</g>

<g fill="none" stroke="#000000" stroke-opacity="1" stroke-width="0.3" stroke-linecap="square" stroke-linejoin="round" transform="matrix(3.97622,0,0,3.97622,-41.0308,-32.9358)"
font-family="Helvetica" font-size="12" font-weight="400" font-style="normal" 
>
<path vector-effect="none" fill-rule="evenodd" d="M31.3115,245.478 L25.0199,245.571 L24.9801,242.901 L31.2717,242.807 L31.3115,245.478"/>
</g>

<g fill="none" stroke="#000000" stroke-opacity="1" stroke-width="1" stroke-linecap="square" stroke-linejoin="bevel" transform="matrix(3.97622,0,0,3.97622,-41.0308,-32.9358)"
font-family="Helvetica" font-size="12" font-weight="400" font-style="normal" 
>
</g>

<g fill="none" stroke="#000000" stroke-opacity="1" stroke-width="1" stroke-linecap="square" stroke-linejoin="bevel" transform="matrix(1,0,0,1,0,0)"
font-family="Helvetica" font-size="12" font-weight="400" font-style="normal" 
>
</g>
</g>
</svg>
