<?xml version="1.0" encoding="UTF-8" standalone="no"?>
<svg width="823.736mm" height="352.778mm"
 viewBox="0 0 2335 1000"
 xmlns="http://www.w3.org/2000/svg" xmlns:xlink="http://www.w3.org/1999/xlink"  version="1.2" baseProfile="tiny">
<title>Qt SVG Document</title>
<desc>Generated with Qt</desc>
<defs>
</defs>
<g fill="none" stroke="black" stroke-width="1" fill-rule="evenodd" stroke-linecap="square" stroke-linejoin="bevel" >

<g fill="#ffffff" fill-opacity="1" stroke="none" transform="matrix(1,0,0,1,0,0)"
font-family="Helvetica" font-size="12" font-weight="400" font-style="normal" 
>
<rect x="0" y="0" width="2335" height="1000"/>
</g>

<g fill="none" stroke="#000000" stroke-opacity="1" stroke-width="1" stroke-linecap="square" stroke-linejoin="bevel" transform="matrix(1,0,0,1,0,0)"
font-family="Helvetica" font-size="12" font-weight="400" font-style="normal" 
>
</g>

<g fill="none" stroke="#000000" stroke-opacity="1" stroke-width="1" stroke-linecap="square" stroke-linejoin="bevel" transform="matrix(1,0,0,1,0,0)"
font-family="Helvetica" font-size="12" font-weight="400" font-style="normal" 
>
</g>

<g fill="none" stroke="#000000" stroke-opacity="1" stroke-width="1" stroke-linecap="square" stroke-linejoin="bevel" transform="matrix(6.35042,0,0,6.35042,-37.1549,-32.4652)"
font-family="Helvetica" font-size="12" font-weight="400" font-style="normal" 
>
</g>

<g fill="none" stroke="#000000" stroke-opacity="0.705882" stroke-width="1.5" stroke-linecap="round" stroke-linejoin="bevel" transform="matrix(6.35042,0,0,6.35042,-37.1549,-32.4652)"
font-family="Helvetica" font-size="12" font-weight="400" font-style="normal" 
>
<path vector-effect="none" fill-rule="evenodd" d="M134.701,91.9989 C131.972,91.9225 131.921,92.9193 129.253,92.3442 "/>
</g>

<g fill="none" stroke="#000000" stroke-opacity="1" stroke-width="1" stroke-linecap="square" stroke-linejoin="bevel" transform="matrix(6.35042,0,0,6.35042,-37.1549,-32.4652)"
font-family="Helvetica" font-size="12" font-weight="400" font-style="normal" 
>
</g>

<g fill="none" stroke="#000000" stroke-opacity="1" stroke-width="1" stroke-linecap="square" stroke-linejoin="bevel" transform="matrix(6.35042,0,0,6.35042,-37.1549,-32.4652)"
font-family="Helvetica" font-size="12" font-weight="400" font-style="normal" 
>
</g>

<g fill="none" stroke="#000000" stroke-opacity="0.705882" stroke-width="1.5" stroke-linecap="round" stroke-linejoin="bevel" transform="matrix(6.35042,0,0,6.35042,-37.1549,-32.4652)"
font-family="Helvetica" font-size="12" font-weight="400" font-style="normal" 
>
<path vector-effect="none" fill-rule="evenodd" d="M134.701,91.9989 C132.082,91.9255 136.808,89.8181 136.799,87.199 "/>
</g>

<g fill="none" stroke="#000000" stroke-opacity="1" stroke-width="1" stroke-linecap="square" stroke-linejoin="bevel" transform="matrix(6.35042,0,0,6.35042,-37.1549,-32.4652)"
font-family="Helvetica" font-size="12" font-weight="400" font-style="normal" 
>
</g>

<g fill="none" stroke="#000000" stroke-opacity="1" stroke-width="1" stroke-linecap="square" stroke-linejoin="bevel" transform="matrix(6.35042,0,0,6.35042,-37.1549,-32.4652)"
font-family="Helvetica" font-size="12" font-weight="400" font-style="normal" 
>
</g>

<g fill="#98cb62" fill-opacity="1" stroke="none" transform="matrix(6.35042,0,0,6.35042,-37.1549,-32.4652)"
font-family="Helvetica" font-size="12" font-weight="400" font-style="normal" 
>
<path vector-effect="none" fill-rule="nonzero" d="M157.74,144.626 L151.35,144.604 L151.359,141.955 L157.75,141.977 L157.74,144.626"/>
</g>

<g fill="none" stroke="#000000" stroke-opacity="1" stroke-width="0.3" stroke-linecap="square" stroke-linejoin="round" transform="matrix(6.35042,0,0,6.35042,-37.1549,-32.4652)"
font-family="Helvetica" font-size="12" font-weight="400" font-style="normal" 
>
<path vector-effect="none" fill-rule="evenodd" d="M157.74,144.626 L151.35,144.604 L151.359,141.955 L157.75,141.977 L157.74,144.626"/>
</g>

<g fill="none" stroke="#000000" stroke-opacity="1" stroke-width="1" stroke-linecap="square" stroke-linejoin="bevel" transform="matrix(6.35042,0,0,6.35042,-37.1549,-32.4652)"
font-family="Helvetica" font-size="12" font-weight="400" font-style="normal" 
>
</g>

<g fill="none" stroke="#000000" stroke-opacity="1" stroke-width="1" stroke-linecap="square" stroke-linejoin="bevel" transform="matrix(6.35042,0,0,6.35042,-37.1549,-32.4652)"
font-family="Helvetica" font-size="12" font-weight="400" font-style="normal" 
>
</g>

<g fill="#cba162" fill-opacity="1" stroke="none" transform="matrix(6.35042,0,0,6.35042,-37.1549,-32.4652)"
font-family="Helvetica" font-size="12" font-weight="400" font-style="normal" 
>
<path vector-effect="none" fill-rule="nonzero" d="M24.9397,142.521 L43.8579,141.711 C43.8673,141.711 43.8767,141.711 43.886,141.71 L43.8862,141.71 L63.1357,141.274 C63.1456,141.273 63.1556,141.273 63.1655,141.273 L63.1655,141.273 L82.42,141.243 C82.4207,141.243 82.4214,141.243 82.4222,141.243 C83.2006,141.243 83.8316,141.874 83.8316,142.652 C83.8316,143.431 83.2006,144.062 82.4222,144.062 C81.6438,144.062 81.0128,143.431 81.0128,142.652 C81.0128,141.884 81.6273,141.26 82.3913,141.243 L82.4485,141.243 L101.381,141.596 L101.328,144.415 L82.3959,144.061 L82.4222,142.652 L82.4244,144.062 L63.1699,144.092 L63.1677,142.683 L63.1997,144.092 L43.9502,144.528 L43.9182,143.119 L43.9784,144.527 L25.0603,145.337 L24.9397,142.521"/>
</g>

<g fill="none" stroke="#000000" stroke-opacity="1" stroke-width="0.3" stroke-linecap="square" stroke-linejoin="round" transform="matrix(6.35042,0,0,6.35042,-37.1549,-32.4652)"
font-family="Helvetica" font-size="12" font-weight="400" font-style="normal" 
>
<path vector-effect="none" fill-rule="evenodd" d="M24.9397,142.521 L43.8579,141.711 L43.872,141.711 L43.886,141.71 L43.8862,141.71 L63.1357,141.274 L63.1506,141.273 L63.1655,141.273 L63.1655,141.273 L82.42,141.243 L82.4211,141.243 L82.4222,141.243 L82.4229,141.243 L82.4485,141.243 L101.381,141.596 L101.328,144.415 L82.4102,144.062 L63.1848,144.092 L43.9643,144.528 L25.0603,145.337 L24.9397,142.521"/>
</g>

<g fill="none" stroke="#000000" stroke-opacity="1" stroke-width="1" stroke-linecap="square" stroke-linejoin="bevel" transform="matrix(6.35042,0,0,6.35042,-37.1549,-32.4652)"
font-family="Helvetica" font-size="12" font-weight="400" font-style="normal" 
>
</g>

<g fill="none" stroke="#000000" stroke-opacity="1" stroke-width="1" stroke-linecap="square" stroke-linejoin="bevel" transform="matrix(6.35042,0,0,6.35042,-37.1549,-32.4652)"
font-family="Helvetica" font-size="12" font-weight="400" font-style="normal" 
>
</g>

<g fill="#cba662" fill-opacity="1" stroke="none" transform="matrix(6.35042,0,0,6.35042,-37.1549,-32.4652)"
font-family="Helvetica" font-size="12" font-weight="400" font-style="normal" 
>
<path vector-effect="none" fill-rule="nonzero" d="M134.363,87.2082 L134.29,68.0909 L136.726,68.0816 L134.29,68.0935 L134.204,50.3924 L136.64,50.3805 L134.205,50.444 L133.758,33.3001 L138.628,33.1733 L139.075,50.3171 C139.075,50.3342 139.076,50.3514 139.076,50.3686 L139.076,50.3686 L139.162,68.0698 C139.162,68.0707 139.162,68.0715 139.162,68.0724 L139.162,68.0724 L139.234,87.1898 L134.363,87.2082"/>
</g>

<g fill="none" stroke="#000000" stroke-opacity="1" stroke-width="0.3" stroke-linecap="square" stroke-linejoin="round" transform="matrix(6.35042,0,0,6.35042,-37.1549,-32.4652)"
font-family="Helvetica" font-size="12" font-weight="400" font-style="normal" 
>
<path vector-effect="none" fill-rule="evenodd" d="M134.363,87.2082 L134.29,68.0922 L134.204,50.4182 L133.758,33.3001 L138.628,33.1733 L139.075,50.3171 L139.076,50.3428 L139.076,50.3686 L139.076,50.3686 L139.162,68.0698 L139.162,68.0711 L139.162,68.0724 L139.162,68.0724 L139.234,87.1898 L134.363,87.2082"/>
</g>

<g fill="none" stroke="#000000" stroke-opacity="1" stroke-width="1" stroke-linecap="square" stroke-linejoin="bevel" transform="matrix(6.35042,0,0,6.35042,-37.1549,-32.4652)"
font-family="Helvetica" font-size="12" font-weight="400" font-style="normal" 
>
</g>

<g fill="none" stroke="#000000" stroke-opacity="1" stroke-width="1" stroke-linecap="square" stroke-linejoin="bevel" transform="matrix(6.35042,0,0,6.35042,-37.1549,-32.4652)"
font-family="Helvetica" font-size="12" font-weight="400" font-style="normal" 
>
</g>

<g fill="#93cb62" fill-opacity="1" stroke="none" transform="matrix(6.35042,0,0,6.35042,-37.1549,-32.4652)"
font-family="Helvetica" font-size="12" font-weight="400" font-style="normal" 
>
<path vector-effect="none" fill-rule="nonzero" d="M128.709,94.8687 L109.14,90.6503 C109.019,90.6247 108.901,90.5904 108.788,90.5485 L108.789,90.5479 L90.715,83.8631 C90.6065,83.8236 90.5023,83.7768 90.4023,83.7238 L90.4027,83.7234 L73.8676,74.9706 C73.7793,74.9243 73.6945,74.8728 73.6132,74.8169 L73.6134,74.8167 L58.7439,64.6008 C58.6744,64.5533 58.6076,64.5023 58.5435,64.4483 L58.5436,64.4482 L45.3666,53.3601 C45.3133,53.3153 45.2619,53.2683 45.2125,53.2194 L45.2125,53.2194 L33.6402,41.7632 C33.5991,41.7225 33.5593,41.6805 33.521,41.6371 L33.521,41.6371 L23.0641,29.7922 L26.9359,26.374 L37.3929,38.2189 L35.457,39.928 L37.2738,38.0927 L48.8461,49.5489 L47.0293,51.3841 L48.692,49.4082 L61.869,60.4964 L60.2063,62.4723 L61.6686,60.3438 L76.5381,70.5597 L75.0757,72.6882 L76.2839,70.4058 L92.819,79.1586 L91.6109,81.441 L92.5067,79.0189 L110.58,85.7038 L109.685,88.1259 L110.229,85.6014 L129.797,89.8198 L128.709,94.8687"/>
</g>

<g fill="none" stroke="#000000" stroke-opacity="1" stroke-width="0.3" stroke-linecap="square" stroke-linejoin="round" transform="matrix(6.35042,0,0,6.35042,-37.1549,-32.4652)"
font-family="Helvetica" font-size="12" font-weight="400" font-style="normal" 
>
<path vector-effect="none" fill-rule="evenodd" d="M128.709,94.8687 L109.14,90.6503 L108.961,90.6055 L108.788,90.5485 L108.789,90.5479 L90.715,83.8631 L90.5555,83.7985 L90.4023,83.7238 L90.4027,83.7234 L73.8676,74.9706 L73.7378,74.8973 L73.6132,74.8169 L73.6134,74.8167 L58.7439,64.6008 L58.6417,64.527 L58.5435,64.4483 L58.5436,64.4482 L45.3666,53.3601 L45.2881,53.2913 L45.2125,53.2194 L45.2125,53.2194 L33.6402,41.7632 L33.5795,41.7012 L33.521,41.6371 L33.521,41.6371 L23.0641,29.7922 L26.9359,26.374 L37.3355,38.1538 L48.7719,49.4754 L61.7725,60.4152 L76.4154,70.4754 L92.6675,79.0784 L110.408,85.6401 L129.797,89.8198 L128.709,94.8687"/>
</g>

<g fill="none" stroke="#000000" stroke-opacity="1" stroke-width="1" stroke-linecap="square" stroke-linejoin="bevel" transform="matrix(6.35042,0,0,6.35042,-37.1549,-32.4652)"
font-family="Helvetica" font-size="12" font-weight="400" font-style="normal" 
>
</g>

<g fill="none" stroke="#000000" stroke-opacity="1" stroke-width="1" stroke-linecap="square" stroke-linejoin="bevel" transform="matrix(6.35042,0,0,6.35042,-37.1549,-32.4652)"
font-family="Helvetica" font-size="12" font-weight="400" font-style="normal" 
>
</g>

<g fill="#cb7162" fill-opacity="1" stroke="none" transform="matrix(6.35042,0,0,6.35042,-37.1549,-32.4652)"
font-family="Helvetica" font-size="12" font-weight="400" font-style="normal" 
>
<path vector-effect="none" fill-rule="nonzero" d="M134.776,89.3255 L158.097,89.9789 L158.022,92.6523 L157.636,90.0059 L179.486,86.8177 L179.872,89.4641 L179.05,86.9194 L199.457,80.3207 L200.28,82.8655 L199.106,80.4626 L217.958,71.2502 L219.132,73.6531 L217.731,71.3747 L235.245,60.6082 L236.646,62.8866 L235.162,60.6618 L251.897,49.4979 C251.919,49.4824 251.943,49.4675 251.966,49.4531 L251.966,49.4533 L268.621,39.0687 C268.695,39.0219 268.772,38.979 268.851,38.94 L268.851,38.9403 L285.962,30.4877 C286.082,30.4273 286.209,30.3762 286.339,30.3351 L286.34,30.3354 L303.968,24.7626 C304.115,24.7153 304.268,24.6811 304.425,24.6607 L304.426,24.6609 L322.08,22.3482 C322.194,22.3332 322.31,22.3256 322.427,22.3256 C323.905,22.3256 325.102,23.5229 325.102,25 C325.102,26.4771 323.905,27.6744 322.427,27.6744 C320.95,27.6744 319.753,26.4771 319.753,25 C319.753,23.7925 320.553,22.7719 321.652,22.4398 L322.516,22.327 L339.509,22.8927 C339.629,22.8966 339.746,22.9083 339.86,22.9273 L339.86,22.9276 L356.329,25.6738 L355.45,30.9499 L338.98,28.2036 L339.42,25.5656 L339.331,28.2386 L322.338,27.673 L322.427,25 L322.775,27.6518 L305.121,29.9644 L304.774,27.3126 L305.58,29.8627 L287.952,35.4355 L287.146,32.8855 L288.331,35.2833 L271.22,43.7359 L270.036,41.3381 L271.451,43.6075 L254.796,53.9921 L253.381,51.7227 L254.865,53.9475 L238.13,65.1114 C238.103,65.13 238.075,65.1479 238.047,65.1652 L238.047,65.165 L220.532,75.9315 C220.459,75.9768 220.384,76.0185 220.307,76.0563 L220.306,76.056 L201.454,85.2684 C201.342,85.3241 201.224,85.3716 201.104,85.4106 L201.103,85.4102 L180.695,92.0088 C180.555,92.0549 180.409,92.0891 180.26,92.1107 L180.259,92.1105 L158.408,95.2987 C158.282,95.3173 158.153,95.3267 158.022,95.3267 C157.997,95.3267 157.972,95.3264 157.947,95.3257 L157.947,95.3257 L134.626,94.6723 L134.776,89.3255"/>
</g>

<g fill="none" stroke="#000000" stroke-opacity="1" stroke-width="0.3" stroke-linecap="square" stroke-linejoin="round" transform="matrix(6.35042,0,0,6.35042,-37.1549,-32.4652)"
font-family="Helvetica" font-size="12" font-weight="400" font-style="normal" 
>
<path vector-effect="none" fill-rule="evenodd" d="M134.776,89.3255 L157.865,89.9724 L179.264,86.8502 L199.276,80.3792 L217.841,71.307 L235.203,60.6342 L251.897,49.4979 L251.931,49.4751 L251.966,49.4531 L251.966,49.4533 L268.621,39.0687 L268.734,39.0014 L268.851,38.94 L268.851,38.9403 L285.962,30.4877 L286.147,30.4041 L286.339,30.3351 L286.34,30.3354 L303.968,24.7626 L304.193,24.7016 L304.425,24.6607 L304.426,24.6609 L322.08,22.3482 L322.252,22.3312 L322.427,22.3256 L322.451,22.3355 L322.516,22.327 L339.509,22.8927 L339.687,22.9043 L339.86,22.9273 L339.86,22.9276 L356.329,25.6738 L355.45,30.9499 L339.154,28.2327 L322.558,27.6803 L305.355,29.9338 L288.147,35.3739 L271.339,43.6774 L254.831,53.9703 L238.13,65.1114 L238.089,65.1388 L238.047,65.1652 L238.047,65.165 L220.532,75.9315 L220.421,75.9967 L220.307,76.0563 L220.306,76.056 L201.454,85.2684 L201.282,85.3457 L201.104,85.4106 L201.103,85.4102 L180.695,92.0088 L180.481,92.069 L180.26,92.1107 L180.259,92.1105 L158.408,95.2987 L158.217,95.3197 L158.022,95.3267 L157.984,95.3265 L157.947,95.3257 L157.947,95.3257 L134.626,94.6723 L134.776,89.3255"/>
</g>

<g fill="none" stroke="#000000" stroke-opacity="1" stroke-width="1" stroke-linecap="square" stroke-linejoin="bevel" transform="matrix(6.35042,0,0,6.35042,-37.1549,-32.4652)"
font-family="Helvetica" font-size="12" font-weight="400" font-style="normal" 
>
</g>

<g fill="none" stroke="#000000" stroke-opacity="1" stroke-width="1" stroke-linecap="square" stroke-linejoin="bevel" transform="matrix(1,0,0,1,0,0)"
font-family="Helvetica" font-size="12" font-weight="400" font-style="normal" 
>
</g>
</g>
</svg>
