<?xml version="1.0" encoding="UTF-8" standalone="no"?>
<svg width="415.572mm" height="352.778mm"
 viewBox="0 0 1178 1000"
 xmlns="http://www.w3.org/2000/svg" xmlns:xlink="http://www.w3.org/1999/xlink"  version="1.2" baseProfile="tiny">
<title>Qt SVG Document</title>
<desc>Generated with Qt</desc>
<defs>
</defs>
<g fill="none" stroke="black" stroke-width="1" fill-rule="evenodd" stroke-linecap="square" stroke-linejoin="bevel" >

<g fill="#ffffff" fill-opacity="1" stroke="none" transform="matrix(1,0,0,1,0,0)"
font-family="Helvetica" font-size="12" font-weight="400" font-style="normal" 
>
<rect x="0" y="0" width="1178" height="1000"/>
</g>

<g fill="none" stroke="#000000" stroke-opacity="1" stroke-width="1" stroke-linecap="square" stroke-linejoin="bevel" transform="matrix(1,0,0,1,0,0)"
font-family="Helvetica" font-size="12" font-weight="400" font-style="normal" 
>
</g>

<g fill="none" stroke="#000000" stroke-opacity="1" stroke-width="1" stroke-linecap="square" stroke-linejoin="bevel" transform="matrix(1,0,0,1,0,0)"
font-family="Helvetica" font-size="12" font-weight="400" font-style="normal" 
>
</g>

<g fill="none" stroke="#000000" stroke-opacity="1" stroke-width="1" stroke-linecap="square" stroke-linejoin="bevel" transform="matrix(4.32762,0,0,4.32762,-48.6457,-41.5659)"
font-family="Helvetica" font-size="12" font-weight="400" font-style="normal" 
>
</g>

<g fill="#62cb8c" fill-opacity="1" stroke="none" transform="matrix(4.32762,0,0,4.32762,-48.6457,-41.5659)"
font-family="Helvetica" font-size="12" font-weight="400" font-style="normal" 
>
<path vector-effect="none" fill-rule="nonzero" d="M24.1137,172.148 L40.7185,165.916 L41.6049,168.277 L40.6337,165.949 L57.4043,158.953 L58.3754,161.281 L57.311,158.994 L74.5949,150.948 L75.6593,153.235 L74.4942,150.998 L92.0557,141.851 L93.2208,144.088 L91.9523,141.908 L109.545,131.672 L110.813,133.852 L109.444,131.734 L126.879,120.459 L128.249,122.577 L126.785,120.523 L143.931,108.308 L145.394,110.362 L143.848,108.369 L160.622,95.3588 L162.168,97.3518 L160.554,95.4133 L176.912,81.7968 L178.525,83.7353 L176.859,81.8416 L192.77,67.8441 L194.436,69.7378 L192.735,67.8753 L208.175,53.7735 C208.176,53.7732 208.176,53.7729 208.176,53.7726 L208.176,53.7726 L223.248,40.0225 C223.291,39.9833 223.336,39.9455 223.381,39.9094 L223.381,39.9094 L238.82,27.6691 C239.097,27.4494 239.421,27.2866 239.773,27.1985 L239.774,27.1988 L258.325,22.5533 C258.521,22.5038 258.726,22.4777 258.938,22.4777 C260.331,22.4777 261.46,23.607 261.46,25 C261.46,26.393 260.331,27.5223 258.938,27.5223 C257.571,27.5223 256.458,26.4347 256.417,25.078 L261.198,23.8803 L269.574,40.7872 C269.729,41.097 269.821,41.4434 269.834,41.8094 L269.834,41.8099 L270.571,60.9207 C270.572,60.9529 270.573,60.9853 270.573,61.0178 C270.573,61.0291 270.573,61.0403 270.572,61.0514 L270.572,61.0514 L270.313,80.5416 L267.791,80.5079 L270.313,80.5414 L270.052,100.17 L267.53,100.137 L270.052,100.159 L269.881,119.612 L267.359,119.59 L269.881,119.607 L269.753,138.562 L267.231,138.545 L269.753,138.561 L269.637,156.755 C269.637,156.755 269.637,156.755 269.637,156.756 L269.637,156.756 L269.516,174.558 L264.472,174.524 L264.592,156.721 L267.114,156.739 L264.592,156.722 L264.708,138.529 C264.708,138.528 264.708,138.528 264.708,138.528 L264.708,138.528 L264.836,119.573 C264.836,119.571 264.836,119.569 264.836,119.568 L264.836,119.568 L265.008,100.114 C265.008,100.11 265.008,100.107 265.008,100.103 L265.008,100.103 L265.268,80.4745 C265.268,80.4742 265.268,80.4742 265.268,80.4743 L265.268,80.4743 L265.528,60.9842 L268.05,61.0178 L265.53,61.1149 L264.794,42.0041 L267.314,41.907 L265.054,43.0267 L256.678,26.1197 L258.938,25 L259.551,27.4467 L241,32.0923 L240.387,29.6456 L241.954,31.622 L226.515,43.8624 L224.948,41.8859 L226.648,43.7492 L211.576,57.4993 L209.876,55.6359 L211.577,57.4984 L196.137,71.6002 C196.125,71.6107 196.113,71.6212 196.102,71.6315 L196.102,71.6315 L180.191,85.629 C180.174,85.6442 180.157,85.6592 180.139,85.6739 L180.139,85.6738 L163.782,99.2903 C163.76,99.3089 163.737,99.3271 163.714,99.3449 L163.714,99.3448 L146.94,112.355 C146.913,112.376 146.886,112.397 146.858,112.416 L146.858,112.416 L129.712,124.631 C129.682,124.653 129.65,124.675 129.619,124.695 L129.618,124.695 L112.183,135.97 C112.15,135.991 112.117,136.012 112.082,136.032 L112.082,136.032 L94.4893,146.268 C94.4557,146.289 94.4212,146.308 94.3865,146.326 L94.3859,146.325 L76.8245,155.472 C76.7917,155.49 76.7582,155.506 76.7245,155.522 L76.7238,155.522 L59.4399,163.568 C59.4096,163.582 59.3785,163.596 59.3474,163.609 L59.3466,163.609 L42.576,170.605 C42.5485,170.617 42.5202,170.628 42.4922,170.639 L42.4912,170.639 L25.8863,176.871 L24.1137,172.148"/>
</g>

<g fill="none" stroke="#000000" stroke-opacity="1" stroke-width="0.3" stroke-linecap="square" stroke-linejoin="round" transform="matrix(4.32762,0,0,4.32762,-48.6457,-41.5659)"
font-family="Helvetica" font-size="12" font-weight="400" font-style="normal" 
>
<path vector-effect="none" fill-rule="evenodd" d="M24.1137,172.148 L40.6758,165.932 L57.3572,158.973 L74.544,150.972 L92.0033,141.879 L109.494,131.701 L126.831,120.49 L143.889,108.338 L160.588,95.3854 L176.885,81.8189 L192.752,67.8595 L208.175,53.7735 L208.176,53.773 L208.176,53.7726 L208.176,53.7726 L223.248,40.0225 L223.314,39.9648 L223.381,39.9094 L223.381,39.9094 L238.82,27.6691 L239.268,27.3845 L239.773,27.1985 L239.774,27.1988 L258.325,22.5533 L258.626,22.4969 L258.938,22.4777 L260.721,23.2165 L261.015,23.926 L261.198,23.8803 L269.574,40.7872 L269.757,41.2772 L269.834,41.8094 L269.834,41.8099 L270.571,60.9207 L270.572,60.9691 L270.573,61.0178 L270.573,61.0347 L270.572,61.0514 L270.572,61.0514 L270.313,80.5415 L270.052,100.164 L269.881,119.61 L269.753,138.561 L269.637,156.755 L269.637,156.755 L269.637,156.756 L269.637,156.756 L269.516,174.558 L264.472,174.524 L264.592,156.722 L264.708,138.529 L264.708,138.528 L264.708,138.528 L264.708,138.528 L264.836,119.573 L264.836,119.57 L264.836,119.568 L264.836,119.568 L265.008,100.114 L265.008,100.109 L265.008,100.103 L265.008,100.103 L265.268,80.4745 L265.268,80.4743 L265.268,80.4743 L265.527,61.0495 L264.814,42.5432 L257.58,27.9403 L241.528,31.9601 L226.584,43.8081 L211.577,57.4988 L196.137,71.6002 L196.119,71.6159 L196.102,71.6315 L196.102,71.6315 L180.191,85.629 L180.165,85.6516 L180.139,85.6739 L180.139,85.6738 L163.782,99.2903 L163.748,99.3179 L163.714,99.3449 L163.714,99.3448 L146.94,112.355 L146.899,112.386 L146.858,112.416 L146.858,112.416 L129.712,124.631 L129.666,124.664 L129.619,124.695 L129.618,124.695 L112.183,135.97 L112.133,136.001 L112.082,136.032 L112.082,136.032 L94.4893,146.268 L94.4383,146.298 L94.3865,146.326 L94.3859,146.325 L76.8245,155.472 L76.7749,155.498 L76.7245,155.522 L76.7238,155.522 L59.4399,163.568 L59.394,163.589 L59.3474,163.609 L59.3466,163.609 L42.576,170.605 L42.5343,170.623 L42.4922,170.639 L42.4912,170.639 L25.8863,176.871 L24.1137,172.148 M265.268,80.4743 L265.268,80.4743 L265.268,80.4743 L265.268,80.4743"/>
</g>

<g fill="none" stroke="#000000" stroke-opacity="1" stroke-width="1" stroke-linecap="square" stroke-linejoin="bevel" transform="matrix(4.32762,0,0,4.32762,-48.6457,-41.5659)"
font-family="Helvetica" font-size="12" font-weight="400" font-style="normal" 
>
</g>

<g fill="none" stroke="#000000" stroke-opacity="1" stroke-width="1" stroke-linecap="square" stroke-linejoin="bevel" transform="matrix(4.32762,0,0,4.32762,-48.6457,-41.5659)"
font-family="Helvetica" font-size="12" font-weight="400" font-style="normal" 
>
</g>

<g fill="#cb62c5" fill-opacity="1" stroke="none" transform="matrix(4.32762,0,0,4.32762,-48.6457,-41.5659)"
font-family="Helvetica" font-size="12" font-weight="400" font-style="normal" 
>
<path vector-effect="none" fill-rule="nonzero" d="M92.5967,227.592 L75.8241,227.05 L75.8999,224.704 L75.8775,227.051 L58.812,226.888 L58.8344,224.541 L58.8678,226.888 L41.8033,227.131 L41.7699,224.784 L41.8567,227.13 L25.0868,227.751 L24.9132,223.059 L41.683,222.439 C41.7008,222.438 41.7186,222.438 41.7362,222.437 L41.7364,222.437 L58.801,222.194 C58.8121,222.194 58.8232,222.194 58.8344,222.194 C60.1307,222.194 61.1816,223.245 61.1816,224.541 C61.1816,225.837 60.1307,226.888 58.8344,226.888 C57.5381,226.888 56.4872,225.837 56.4872,224.541 C56.4872,223.275 57.4902,222.243 58.7447,222.196 L58.8568,222.194 L75.9223,222.357 C75.9403,222.357 75.9582,222.357 75.9757,222.358 L75.9757,222.358 L92.7483,222.9 L92.5967,227.592"/>
</g>

<g fill="none" stroke="#000000" stroke-opacity="1" stroke-width="0.3" stroke-linecap="square" stroke-linejoin="round" transform="matrix(4.32762,0,0,4.32762,-48.6457,-41.5659)"
font-family="Helvetica" font-size="12" font-weight="400" font-style="normal" 
>
<path vector-effect="none" fill-rule="evenodd" d="M92.5967,227.592 L75.8508,227.051 L58.8399,226.888 L41.83,227.131 L25.0868,227.751 L24.9132,223.059 L41.683,222.439 L41.7097,222.438 L41.7362,222.437 L41.7364,222.437 L58.801,222.194 L58.8177,222.194 L58.8344,222.194 L58.8354,222.194 L58.8568,222.194 L75.9223,222.357 L75.9492,222.357 L75.9757,222.358 L75.9757,222.358 L92.7483,222.9 L92.5967,227.592"/>
</g>

<g fill="none" stroke="#000000" stroke-opacity="1" stroke-width="1" stroke-linecap="square" stroke-linejoin="bevel" transform="matrix(4.32762,0,0,4.32762,-48.6457,-41.5659)"
font-family="Helvetica" font-size="12" font-weight="400" font-style="normal" 
>
</g>

<g fill="none" stroke="#000000" stroke-opacity="1" stroke-width="1" stroke-linecap="square" stroke-linejoin="bevel" transform="matrix(1,0,0,1,0,0)"
font-family="Helvetica" font-size="12" font-weight="400" font-style="normal" 
>
</g>
</g>
</svg>
