<?xml version="1.0" encoding="UTF-8" standalone="no"?>
<svg width="785.636mm" height="352.778mm"
 viewBox="0 0 2227 1000"
 xmlns="http://www.w3.org/2000/svg" xmlns:xlink="http://www.w3.org/1999/xlink"  version="1.2" baseProfile="tiny">
<title>Qt SVG Document</title>
<desc>Generated with Qt</desc>
<defs>
</defs>
<g fill="none" stroke="black" stroke-width="1" fill-rule="evenodd" stroke-linecap="square" stroke-linejoin="bevel" >

<g fill="#ffffff" fill-opacity="1" stroke="none" transform="matrix(1,0,0,1,0,0)"
font-family="Helvetica" font-size="12" font-weight="400" font-style="normal" 
>
<rect x="0" y="0" width="2227" height="1000"/>
</g>

<g fill="none" stroke="#000000" stroke-opacity="1" stroke-width="1" stroke-linecap="square" stroke-linejoin="bevel" transform="matrix(1,0,0,1,0,0)"
font-family="Helvetica" font-size="12" font-weight="400" font-style="normal" 
>
</g>

<g fill="none" stroke="#000000" stroke-opacity="1" stroke-width="1" stroke-linecap="square" stroke-linejoin="bevel" transform="matrix(1,0,0,1,0,0)"
font-family="Helvetica" font-size="12" font-weight="400" font-style="normal" 
>
</g>

<g fill="none" stroke="#000000" stroke-opacity="1" stroke-width="1" stroke-linecap="square" stroke-linejoin="bevel" transform="matrix(5.3289,0,0,5.3289,-21.4295,-15.8898)"
font-family="Helvetica" font-size="12" font-weight="400" font-style="normal" 
>
</g>

<g fill="#629bcb" fill-opacity="1" stroke="none" transform="matrix(5.3289,0,0,5.3289,-21.4295,-15.8898)"
font-family="Helvetica" font-size="12" font-weight="400" font-style="normal" 
>
<path vector-effect="none" fill-rule="nonzero" d="M402.436,112.256 L385.72,117.647 C385.583,117.692 385.441,117.725 385.295,117.745 L385.294,117.745 L367.717,120.189 C367.604,120.205 367.488,120.213 367.37,120.213 C367.319,120.213 367.268,120.211 367.219,120.209 L367.219,120.208 L348.802,119.103 C348.623,119.093 348.451,119.064 348.285,119.018 L348.286,119.018 L329.915,113.984 C329.76,113.942 329.611,113.885 329.47,113.816 L329.471,113.815 L311.933,105.209 C311.823,105.155 311.717,105.093 311.617,105.024 L311.617,105.024 L295.178,93.7363 C295.116,93.6939 295.056,93.6487 294.998,93.6009 L294.998,93.6009 L279.38,80.6886 C279.362,80.6731 279.343,80.6573 279.325,80.6413 L279.325,80.6413 L263.917,67.1333 L265.579,65.2367 L263.976,67.1842 L248.058,54.0834 L249.661,52.1359 L248.239,54.2193 L231.181,42.5785 L232.602,40.4951 L231.496,42.7617 L212.958,33.7106 L214.065,31.4441 L213.404,33.8783 L193.536,28.4867 L194.196,26.0524 L194.067,28.5714 L173.536,27.519 L173.665,25 L174.068,27.4899 L153.782,30.7691 L153.38,28.2792 L154.234,30.6522 L134.914,37.6103 L134.059,35.2372 L135.25,37.4606 L117.202,47.1281 L116.011,44.9047 L117.425,46.9932 L100.598,58.3877 L99.1843,56.2992 L100.728,58.2939 L84.8825,70.5569 L83.3388,68.5622 L84.9384,70.5123 L69.7995,82.9307 C69.7993,82.931 69.7991,82.9311 69.7989,82.9313 L69.7989,82.9313 L55.1687,94.9241 C55.1547,94.9357 55.1405,94.9471 55.1262,94.9583 L55.1261,94.9582 L40.8982,106.115 C40.8741,106.134 40.8496,106.152 40.8247,106.17 L40.8246,106.17 L26.4827,116.592 L23.5173,112.511 L37.8591,102.09 L39.3419,104.13 L37.7855,102.145 L52.0133,90.9886 L53.5697,92.9734 L51.9707,91.0228 L66.6008,79.03 L68.1998,80.9806 L66.6002,79.0305 L81.7391,66.6121 C81.7575,66.5969 81.7761,66.582 81.795,66.5674 L81.7951,66.5675 L97.6405,54.3045 C97.6825,54.2718 97.7257,54.2405 97.7698,54.2106 L97.77,54.2107 L114.597,42.8163 C114.668,42.7674 114.743,42.7222 114.82,42.6811 L114.82,42.6813 L132.868,33.0138 C132.976,32.9557 133.088,32.9055 133.204,32.8638 L133.205,32.8642 L152.525,25.9061 C152.669,25.8533 152.821,25.814 152.976,25.789 L152.977,25.7892 L173.263,22.5101 C173.393,22.4887 173.528,22.4777 173.665,22.4777 C175.058,22.4777 176.187,23.607 176.187,25 C176.187,26.393 175.058,27.5223 173.665,27.5223 C172.272,27.5223 171.143,26.393 171.143,25 C171.143,23.9304 171.809,23.0163 172.748,22.6497 L173.794,22.481 L194.325,23.5335 C194.509,23.5427 194.687,23.5715 194.857,23.6177 L194.857,23.6182 L214.725,29.0099 C214.882,29.0516 215.031,29.108 215.172,29.1772 L215.171,29.1776 L233.709,38.2286 C233.819,38.2819 233.924,38.3432 234.024,38.4115 L234.024,38.4117 L251.083,50.0525 C251.145,50.095 251.206,50.1404 251.264,50.1883 L251.264,50.1884 L267.182,63.2892 C267.202,63.3058 267.222,63.3228 267.242,63.34 L267.242,63.3401 L282.65,76.848 L280.988,78.7447 L282.595,76.8007 L298.213,89.713 L296.606,91.657 L298.033,89.5777 L314.472,100.865 L313.045,102.945 L314.156,100.68 L331.693,109.287 L330.582,111.551 L331.249,109.118 L349.619,114.153 L348.953,116.585 L349.104,114.068 L367.521,115.173 L367.37,117.691 L367.023,115.192 L384.599,112.748 L384.946,115.246 L384.172,112.846 L400.887,107.455 L402.436,112.256"/>
</g>

<g fill="none" stroke="#000000" stroke-opacity="1" stroke-width="0.3" stroke-linecap="square" stroke-linejoin="round" transform="matrix(5.3289,0,0,5.3289,-21.4295,-15.8898)"
font-family="Helvetica" font-size="12" font-weight="400" font-style="normal" 
>
<path vector-effect="none" fill-rule="evenodd" d="M402.436,112.256 L385.72,117.647 L385.511,117.705 L385.295,117.745 L385.294,117.745 L367.717,120.189 L367.545,120.207 L367.37,120.213 L367.294,120.212 L367.219,120.209 L367.219,120.208 L348.802,119.103 L348.539,119.074 L348.285,119.018 L348.286,119.018 L329.915,113.984 L329.687,113.91 L329.47,113.816 L329.471,113.815 L311.933,105.209 L311.771,105.122 L311.617,105.024 L311.617,105.024 L295.178,93.7363 L295.086,93.6706 L294.998,93.6009 L294.998,93.6009 L279.38,80.6886 L279.352,80.6652 L279.325,80.6413 L279.325,80.6413 L263.946,67.1592 L248.146,54.1555 L231.332,42.6815 L213.173,33.8157 L193.797,28.5575 L173.803,27.5327 L154.014,30.7317 L135.088,37.5478 L117.317,47.0665 L100.665,58.3428 L84.9108,70.535 L69.7995,82.9307 L69.7992,82.931 L69.7989,82.9313 L69.7989,82.9313 L55.1687,94.9241 L55.1475,94.9413 L55.1262,94.9583 L55.1261,94.9582 L40.8982,106.115 L40.8618,106.143 L40.8247,106.17 L40.8246,106.17 L26.4827,116.592 L23.5173,112.511 L37.8218,102.117 L51.9918,91.0054 L66.6005,79.0302 L81.7391,66.6121 L81.7669,66.5895 L81.795,66.5674 L81.7951,66.5675 L97.6405,54.3045 L97.7044,54.2565 L97.7698,54.2106 L97.77,54.2107 L114.597,42.8163 L114.706,42.7458 L114.82,42.6811 L114.82,42.6813 L132.868,33.0138 L133.033,32.9327 L133.204,32.8638 L133.205,32.8642 L152.525,25.9061 L152.746,25.8371 L152.976,25.789 L152.977,25.7892 L173.263,22.5101 L173.461,22.4859 L173.665,22.4777 L173.707,22.4951 L173.794,22.481 L194.325,23.5335 L194.597,23.5617 L194.857,23.6177 L194.857,23.6182 L214.725,29.0099 L214.954,29.0832 L215.172,29.1772 L215.171,29.1776 L233.709,38.2286 L233.87,38.3144 L234.024,38.4115 L234.024,38.4117 L251.083,50.0525 L251.175,50.1184 L251.264,50.1883 L251.264,50.1884 L267.182,63.2892 L267.212,63.3144 L267.242,63.34 L267.242,63.3401 L282.623,76.824 L298.126,89.6414 L314.321,100.761 L331.479,109.181 L349.366,114.083 L367.271,115.158 L384.381,112.779 L400.887,107.455 L402.436,112.256"/>
</g>

<g fill="none" stroke="#000000" stroke-opacity="1" stroke-width="1" stroke-linecap="square" stroke-linejoin="bevel" transform="matrix(5.3289,0,0,5.3289,-21.4295,-15.8898)"
font-family="Helvetica" font-size="12" font-weight="400" font-style="normal" 
>
</g>

<g fill="none" stroke="#000000" stroke-opacity="1" stroke-width="1" stroke-linecap="square" stroke-linejoin="bevel" transform="matrix(5.3289,0,0,5.3289,-21.4295,-15.8898)"
font-family="Helvetica" font-size="12" font-weight="400" font-style="normal" 
>
</g>

<g fill="#b4cb62" fill-opacity="1" stroke="none" transform="matrix(5.3289,0,0,5.3289,-21.4295,-15.8898)"
font-family="Helvetica" font-size="12" font-weight="400" font-style="normal" 
>
<path vector-effect="none" fill-rule="nonzero" d="M92.5676,171.123 L75.8018,170.391 L75.9041,168.046 L75.8552,170.393 L58.793,170.037 L58.8419,167.691 L58.849,170.038 L41.7832,170.09 L41.7761,167.742 L41.8369,170.089 L25.0607,170.523 L24.9393,165.83 L41.7154,165.396 C41.7332,165.396 41.7511,165.395 41.769,165.395 L41.769,165.395 L58.8348,165.344 C58.8372,165.344 58.8395,165.344 58.8419,165.344 C60.1382,165.344 61.1891,166.394 61.1891,167.691 C61.1891,168.987 60.1382,170.038 58.8419,170.038 C57.5456,170.038 56.4947,168.987 56.4947,167.691 C56.4947,166.416 57.5117,165.378 58.7785,165.344 L58.8908,165.344 L75.953,165.7 C75.9712,165.7 75.9891,165.701 76.0065,165.701 L76.0064,165.701 L92.7722,166.433 L92.5676,171.123"/>
</g>

<g fill="none" stroke="#000000" stroke-opacity="1" stroke-width="0.3" stroke-linecap="square" stroke-linejoin="round" transform="matrix(5.3289,0,0,5.3289,-21.4295,-15.8898)"
font-family="Helvetica" font-size="12" font-weight="400" font-style="normal" 
>
<path vector-effect="none" fill-rule="evenodd" d="M92.5676,171.123 L75.8285,170.392 L58.821,170.038 L41.81,170.09 L25.0607,170.523 L24.9393,165.83 L41.7154,165.396 L41.7421,165.396 L41.769,165.395 L41.769,165.395 L58.8348,165.344 L58.8384,165.344 L58.8419,165.344 L58.8435,165.344 L58.8908,165.344 L75.953,165.7 L75.98,165.7 L76.0065,165.701 L76.0064,165.701 L92.7722,166.433 L92.5676,171.123"/>
</g>

<g fill="none" stroke="#000000" stroke-opacity="1" stroke-width="1" stroke-linecap="square" stroke-linejoin="bevel" transform="matrix(5.3289,0,0,5.3289,-21.4295,-15.8898)"
font-family="Helvetica" font-size="12" font-weight="400" font-style="normal" 
>
</g>

<g fill="none" stroke="#000000" stroke-opacity="1" stroke-width="1" stroke-linecap="square" stroke-linejoin="bevel" transform="matrix(1,0,0,1,0,0)"
font-family="Helvetica" font-size="12" font-weight="400" font-style="normal" 
>
</g>
</g>
</svg>
