<?xml version="1.0" encoding="UTF-8" standalone="no"?>
<svg width="425.803mm" height="352.778mm"
 viewBox="0 0 1207 1000"
 xmlns="http://www.w3.org/2000/svg" xmlns:xlink="http://www.w3.org/1999/xlink"  version="1.2" baseProfile="tiny">
<title>Qt SVG Document</title>
<desc>Generated with Qt</desc>
<defs>
</defs>
<g fill="none" stroke="black" stroke-width="1" fill-rule="evenodd" stroke-linecap="square" stroke-linejoin="bevel" >

<g fill="#ffffff" fill-opacity="1" stroke="none" transform="matrix(1,0,0,1,0,0)"
font-family="Helvetica" font-size="12" font-weight="400" font-style="normal" 
>
<rect x="0" y="0" width="1207" height="1000"/>
</g>

<g fill="none" stroke="#000000" stroke-opacity="1" stroke-width="1" stroke-linecap="square" stroke-linejoin="bevel" transform="matrix(1,0,0,1,0,0)"
font-family="Helvetica" font-size="12" font-weight="400" font-style="normal" 
>
</g>

<g fill="none" stroke="#000000" stroke-opacity="1" stroke-width="1" stroke-linecap="square" stroke-linejoin="bevel" transform="matrix(1,0,0,1,0,0)"
font-family="Helvetica" font-size="12" font-weight="400" font-style="normal" 
>
</g>

<g fill="none" stroke="#000000" stroke-opacity="1" stroke-width="1" stroke-linecap="square" stroke-linejoin="bevel" transform="matrix(4.75144,0,0,4.75144,-49.9338,-49.6077)"
font-family="Helvetica" font-size="12" font-weight="400" font-style="normal" 
>
</g>

<g fill="#cb629d" fill-opacity="1" stroke="none" transform="matrix(4.75144,0,0,4.75144,-49.9338,-49.6077)"
font-family="Helvetica" font-size="12" font-weight="400" font-style="normal" 
>
<path vector-effect="none" fill-rule="nonzero" d="M247.791,146.341 L241.458,129.6 L243.808,128.711 L241.501,129.706 L234.247,112.884 L236.554,111.889 L234.312,113.024 L225.66,95.9339 L227.901,94.7989 L225.761,96.1152 L215.396,79.2604 L217.536,77.9441 L215.55,79.484 L203.176,63.5288 L205.162,61.989 L203.408,63.7878 L188.79,49.5324 L190.544,47.7336 L189.124,49.8061 L172.201,38.2061 L173.621,36.1336 L172.656,38.4533 L153.697,30.5612 L154.662,28.2415 L154.265,30.7226 L134.005,27.4811 L134.402,25 L134.636,27.5017 L114.232,29.4134 L113.998,26.9117 L114.843,29.2779 L95.567,36.164 L94.7217,33.7977 L96.0841,35.909 L78.9223,46.9839 L77.5599,44.8727 L79.3145,46.6713 L64.7684,60.8618 L63.0138,59.0632 L65.0431,60.545 L53.1854,76.7836 L51.1562,75.3018 L53.3676,76.4948 L44.0016,93.8554 L41.7902,92.6624 L44.1178,93.6089 L36.9149,111.321 L34.5873,110.374 L36.9869,111.12 L31.5551,128.604 L29.1556,127.858 L31.5996,128.441 L27.4441,145.856 L22.5559,144.689 L26.7115,127.275 C26.7243,127.219 26.7391,127.165 26.7555,127.112 L26.756,127.113 L32.1878,109.629 C32.2087,109.56 32.2327,109.493 32.2593,109.427 L32.2598,109.428 L39.4626,91.7158 C39.4967,91.6305 39.5355,91.5483 39.5785,91.469 L39.5788,91.4693 L48.9448,74.1088 C48.9989,74.0078 49.0598,73.9115 49.1268,73.8199 L49.1269,73.82 L60.9845,57.5814 C61.0672,57.4682 61.1591,57.3622 61.2592,57.2646 L61.2592,57.2646 L75.8052,43.0741 C75.9249,42.9573 76.0562,42.8524 76.1971,42.7613 L76.1974,42.7615 L93.3592,31.6865 C93.5196,31.5824 93.6928,31.4964 93.8753,31.4311 L93.8764,31.4315 L113.152,24.5455 C113.346,24.4757 113.551,24.4295 113.762,24.4099 L113.763,24.41 L134.167,22.4983 C134.244,22.491 134.323,22.4873 134.402,22.4873 C135.789,22.4873 136.914,23.6123 136.914,25 C136.914,26.3877 135.789,27.5127 134.402,27.5127 C133.014,27.5127 131.889,26.3877 131.889,25 C131.889,23.9112 132.582,22.9841 133.55,22.6354 L134.799,22.5189 L155.059,25.7603 C155.259,25.7917 155.449,25.8464 155.628,25.9213 L155.628,25.9217 L174.587,33.8138 C174.748,33.8805 174.901,33.9636 175.042,34.0609 L175.042,34.061 L191.965,45.661 C192.084,45.7426 192.196,45.8343 192.299,45.9347 L192.299,45.9347 L206.916,60.1901 C206.999,60.2709 207.076,60.3575 207.148,60.449 L207.147,60.4491 L219.521,76.4043 C219.577,76.4757 219.629,76.5502 219.676,76.6275 L219.676,76.6278 L230.042,93.4826 C230.078,93.5412 230.112,93.6016 230.143,93.6633 L230.143,93.6639 L238.796,110.754 C238.819,110.8 238.841,110.846 238.862,110.893 L238.861,110.894 L246.115,127.716 C246.131,127.751 246.145,127.786 246.159,127.821 L246.158,127.822 L252.491,144.564 L247.791,146.341"/>
</g>

<g fill="none" stroke="#000000" stroke-opacity="1" stroke-width="0.3" stroke-linecap="square" stroke-linejoin="round" transform="matrix(4.75144,0,0,4.75144,-49.9338,-49.6077)"
font-family="Helvetica" font-size="12" font-weight="400" font-style="normal" 
>
<path vector-effect="none" fill-rule="evenodd" d="M247.791,146.341 L241.478,129.654 L234.277,112.955 L225.707,96.0266 L215.467,79.3764 L203.283,63.6664 L188.945,49.6837 L172.415,38.3533 L153.971,30.6756 L134.319,27.5314 L114.546,29.384 L95.8403,36.0663 L79.1341,46.8473 L64.919,60.7149 L53.2863,76.6454 L44.0664,93.7353 L36.9552,111.222 L31.5801,128.523 L27.4441,145.856 L22.5559,144.689 L26.7115,127.275 L26.7321,127.192 L26.7555,127.112 L26.756,127.113 L32.1878,109.629 L32.2214,109.527 L32.2593,109.427 L32.2598,109.428 L39.4626,91.7158 L39.5172,91.5902 L39.5785,91.469 L39.5788,91.4693 L48.9448,74.1088 L49.0309,73.9608 L49.1268,73.8199 L49.1269,73.82 L60.9845,57.5814 L61.1153,57.4171 L61.2592,57.2646 L61.2592,57.2646 L75.8052,43.0741 L75.9932,42.9081 L76.1971,42.7613 L76.1974,42.7615 L93.3592,31.6865 L93.609,31.5443 L93.8753,31.4311 L93.8764,31.4315 L113.152,24.5455 L113.45,24.4589 L113.762,24.4099 L113.763,24.41 L134.167,22.4983 L134.284,22.4901 L134.402,22.4873 L134.537,22.5433 L134.799,22.5189 L155.059,25.7603 L155.351,25.8245 L155.628,25.9213 L155.628,25.9217 L174.587,33.8138 L174.822,33.9259 L175.042,34.0609 L175.042,34.061 L191.965,45.661 L192.138,45.7908 L192.299,45.9347 L192.299,45.9347 L206.916,60.1901 L207.036,60.3155 L207.148,60.449 L207.147,60.4491 L219.521,76.4043 L219.602,76.5137 L219.676,76.6275 L219.676,76.6278 L230.042,93.4826 L230.095,93.5718 L230.143,93.6633 L230.143,93.6639 L238.796,110.754 L238.83,110.823 L238.862,110.893 L238.861,110.894 L246.115,127.716 L246.138,127.768 L246.159,127.821 L246.158,127.822 L252.491,144.564 L247.791,146.341"/>
</g>

<g fill="none" stroke="#000000" stroke-opacity="1" stroke-width="1" stroke-linecap="square" stroke-linejoin="bevel" transform="matrix(4.75144,0,0,4.75144,-49.9338,-49.6077)"
font-family="Helvetica" font-size="12" font-weight="400" font-style="normal" 
>
</g>

<g fill="none" stroke="#000000" stroke-opacity="1" stroke-width="1" stroke-linecap="square" stroke-linejoin="bevel" transform="matrix(4.75144,0,0,4.75144,-49.9338,-49.6077)"
font-family="Helvetica" font-size="12" font-weight="400" font-style="normal" 
>
</g>

<g fill="#a1cb62" fill-opacity="1" stroke="none" transform="matrix(4.75144,0,0,4.75144,-49.9338,-49.6077)"
font-family="Helvetica" font-size="12" font-weight="400" font-style="normal" 
>
<path vector-effect="none" fill-rule="nonzero" d="M24.3942,204.003 L41.3351,199.715 C41.3806,199.702 41.4272,199.692 41.4735,199.683 L41.4747,199.683 L59.1225,196.289 C59.1753,196.278 59.2292,196.27 59.2829,196.263 L59.2839,196.263 L77.7078,193.97 C77.7664,193.963 77.826,193.958 77.8856,193.955 L77.8862,193.955 L96.7412,192.987 C96.783,192.985 96.8252,192.984 96.8677,192.984 C98.2311,192.984 99.3363,194.089 99.3363,195.453 C99.3363,196.816 98.2311,197.921 96.8677,197.921 C95.5043,197.921 94.399,196.816 94.399,195.453 C94.399,194.194 95.34,193.156 96.5558,193.003 L96.9262,192.985 L115.801,193.432 C115.862,193.433 115.922,193.437 115.981,193.442 L115.98,193.443 L134.459,195.235 C134.516,195.241 134.571,195.248 134.624,195.257 L134.624,195.257 L152.354,198.187 C152.404,198.195 152.451,198.204 152.498,198.215 L152.497,198.215 L169.541,202.076 L168.45,206.892 L151.406,203.03 L151.952,200.623 L151.549,203.058 L133.819,200.128 L134.221,197.693 L133.983,200.15 L115.504,198.357 L115.742,195.9 L115.684,198.368 L96.8092,197.92 L96.8677,195.453 L96.9942,197.918 L78.1392,198.886 L78.0127,196.42 L78.3176,198.87 L59.8937,201.163 L59.5888,198.713 L60.0551,201.137 L42.4073,204.532 L41.941,202.108 L42.5468,204.501 L25.6058,208.79 L24.3942,204.003"/>
</g>

<g fill="none" stroke="#000000" stroke-opacity="1" stroke-width="0.3" stroke-linecap="square" stroke-linejoin="round" transform="matrix(4.75144,0,0,4.75144,-49.9338,-49.6077)"
font-family="Helvetica" font-size="12" font-weight="400" font-style="normal" 
>
<path vector-effect="none" fill-rule="evenodd" d="M24.3942,204.003 L41.3351,199.715 L41.404,199.698 L41.4735,199.683 L41.4747,199.683 L59.1225,196.289 L59.2024,196.275 L59.2829,196.263 L59.2839,196.263 L77.7078,193.97 L77.7963,193.961 L77.8856,193.955 L77.8862,193.955 L96.7412,192.987 L96.8042,192.985 L96.8677,192.984 L96.8756,192.987 L96.9262,192.985 L115.801,193.432 L115.891,193.436 L115.981,193.442 L115.98,193.443 L134.459,195.235 L134.543,195.245 L134.624,195.257 L134.624,195.257 L152.354,198.187 L152.427,198.2 L152.498,198.215 L152.497,198.215 L169.541,202.076 L168.45,206.892 L151.477,203.047 L133.9,200.142 L115.593,198.366 L96.9017,197.923 L78.2287,198.881 L59.9748,201.153 L42.4775,204.518 L25.6058,208.79 L24.3942,204.003"/>
</g>

<g fill="none" stroke="#000000" stroke-opacity="1" stroke-width="1" stroke-linecap="square" stroke-linejoin="bevel" transform="matrix(4.75144,0,0,4.75144,-49.9338,-49.6077)"
font-family="Helvetica" font-size="12" font-weight="400" font-style="normal" 
>
</g>

<g fill="none" stroke="#000000" stroke-opacity="1" stroke-width="1" stroke-linecap="square" stroke-linejoin="bevel" transform="matrix(1,0,0,1,0,0)"
font-family="Helvetica" font-size="12" font-weight="400" font-style="normal" 
>
</g>
</g>
</svg>
