<?xml version="1.0" encoding="UTF-8" standalone="no"?>
<svg width="538.692mm" height="352.778mm"
 viewBox="0 0 1527 1000"
 xmlns="http://www.w3.org/2000/svg" xmlns:xlink="http://www.w3.org/1999/xlink"  version="1.2" baseProfile="tiny">
<title>Qt SVG Document</title>
<desc>Generated with Qt</desc>
<defs>
</defs>
<g fill="none" stroke="black" stroke-width="1" fill-rule="evenodd" stroke-linecap="square" stroke-linejoin="bevel" >

<g fill="#ffffff" fill-opacity="1" stroke="none" transform="matrix(1,0,0,1,0,0)"
font-family="Helvetica" font-size="12" font-weight="400" font-style="normal" 
>
<rect x="0" y="0" width="1527" height="1000"/>
</g>

<g fill="none" stroke="#000000" stroke-opacity="1" stroke-width="1" stroke-linecap="square" stroke-linejoin="bevel" transform="matrix(1,0,0,1,0,0)"
font-family="Helvetica" font-size="12" font-weight="400" font-style="normal" 
>
</g>

<g fill="none" stroke="#000000" stroke-opacity="1" stroke-width="1" stroke-linecap="square" stroke-linejoin="bevel" transform="matrix(1,0,0,1,0,0)"
font-family="Helvetica" font-size="12" font-weight="400" font-style="normal" 
>
</g>

<g fill="none" stroke="#000000" stroke-opacity="1" stroke-width="1" stroke-linecap="square" stroke-linejoin="bevel" transform="matrix(5.60994,0,0,5.60994,-58.2375,-57.5134)"
font-family="Helvetica" font-size="12" font-weight="400" font-style="normal" 
>
</g>

<g fill="#62cb78" fill-opacity="1" stroke="none" transform="matrix(5.60994,0,0,5.60994,-58.2375,-57.5134)"
font-family="Helvetica" font-size="12" font-weight="400" font-style="normal" 
>
<path vector-effect="none" fill-rule="nonzero" d="M204.906,27.767 L191.848,38.9386 C191.785,38.9926 191.72,39.0435 191.651,39.0912 L191.651,39.0911 L177.194,49.2058 C177.111,49.2644 177.024,49.318 176.934,49.3662 L176.933,49.3659 L160.78,58.0031 C160.673,58.061 160.561,58.1111 160.445,58.153 L160.444,58.1526 L142.79,64.5488 C142.66,64.5966 142.525,64.6336 142.387,64.6591 L142.385,64.6589 L123.685,68.1353 C123.538,68.1628 123.387,68.1774 123.233,68.1784 L123.233,68.1784 L104.141,68.3057 C104.135,68.3057 104.129,68.3057 104.124,68.3057 C103.972,68.3057 103.823,68.2926 103.679,68.2674 L103.68,68.267 L84.9556,64.9754 C84.8067,64.9498 84.6634,64.9113 84.526,64.8615 L84.5266,64.8609 L66.8861,58.4718 C66.7584,58.4262 66.6364,58.3706 66.5201,58.3062 L66.5204,58.3059 L50.4965,49.4611 C50.3955,49.4058 50.2991,49.3436 50.2076,49.2755 L50.2077,49.2754 L36.0469,38.7664 C35.9703,38.7097 35.8972,38.6488 35.8277,38.584 L35.8277,38.584 L23.2537,26.8754 L26.7463,23.1246 L39.3203,34.8332 L37.574,36.7086 L39.1011,34.6508 L53.262,45.1598 L51.7348,47.2176 L52.9732,44.9741 L68.9971,53.8188 L67.7588,56.0623 L68.6314,53.6529 L86.2719,60.0421 L85.3993,62.4515 L85.843,59.9276 L104.567,63.2193 L104.124,65.7432 L104.106,63.1806 L123.199,63.0534 L123.216,65.6159 L122.748,63.0965 L141.449,59.6201 L141.917,62.1395 L141.044,59.7302 L158.698,53.3339 L159.571,55.7433 L158.363,53.4834 L174.517,44.8463 L175.725,47.1061 L174.256,45.0064 L188.713,34.8917 L190.182,36.9914 L188.516,35.0442 L201.574,23.8726 L204.906,27.767"/>
</g>

<g fill="none" stroke="#000000" stroke-opacity="1" stroke-width="0.3" stroke-linecap="square" stroke-linejoin="round" transform="matrix(5.60994,0,0,5.60994,-58.2375,-57.5134)"
font-family="Helvetica" font-size="12" font-weight="400" font-style="normal" 
>
<path vector-effect="none" fill-rule="evenodd" d="M204.906,27.767 L191.848,38.9386 L191.752,39.0173 L191.651,39.0912 L191.651,39.0911 L177.194,49.2058 L177.067,49.2899 L176.934,49.3662 L176.933,49.3659 L160.78,58.0031 L160.616,58.0841 L160.445,58.153 L160.444,58.1526 L142.79,64.5488 L142.592,64.6123 L142.387,64.6591 L142.385,64.6589 L123.685,68.1353 L123.462,68.1668 L123.233,68.1784 L123.233,68.1784 L104.141,68.3057 L104.132,68.3057 L104.124,68.3057 L103.898,68.296 L103.679,68.2674 L103.68,68.267 L84.9556,64.9754 L84.7365,64.9275 L84.526,64.8615 L84.5266,64.8609 L66.8861,58.4718 L66.6988,58.396 L66.5201,58.3062 L66.5204,58.3059 L50.4965,49.4611 L50.3485,49.3731 L50.2076,49.2755 L50.2077,49.2754 L36.0469,38.7664 L35.9346,38.6783 L35.8277,38.584 L35.8277,38.584 L23.2537,26.8754 L26.7463,23.1246 L39.2158,34.7359 L53.1238,45.0572 L68.8208,53.7215 L86.0624,59.9662 L104.339,63.1791 L122.972,63.0549 L141.242,59.6585 L158.525,53.3966 L174.382,44.9185 L188.611,34.9631 L201.574,23.8726 L204.906,27.767"/>
</g>

<g fill="none" stroke="#000000" stroke-opacity="1" stroke-width="1" stroke-linecap="square" stroke-linejoin="bevel" transform="matrix(5.60994,0,0,5.60994,-58.2375,-57.5134)"
font-family="Helvetica" font-size="12" font-weight="400" font-style="normal" 
>
</g>

<g fill="none" stroke="#000000" stroke-opacity="1" stroke-width="1" stroke-linecap="square" stroke-linejoin="bevel" transform="matrix(5.60994,0,0,5.60994,-58.2375,-57.5134)"
font-family="Helvetica" font-size="12" font-weight="400" font-style="normal" 
>
</g>

<g fill="#96cb62" fill-opacity="1" stroke="none" transform="matrix(5.60994,0,0,5.60994,-58.2375,-57.5134)"
font-family="Helvetica" font-size="12" font-weight="400" font-style="normal" 
>
<path vector-effect="none" fill-rule="nonzero" d="M145.774,124.094 L129.171,121.422 L129.538,119.141 L129.272,121.436 L112.098,119.444 L112.364,117.149 L112.212,119.454 L94.4664,118.283 L94.6186,115.978 L94.5884,118.288 L76.6274,118.053 L76.6576,115.743 L76.7494,118.051 L58.9793,118.758 L58.8874,116.45 L59.0933,118.751 L41.8731,120.292 L41.6672,117.991 L41.9744,120.281 L25.3071,122.517 L24.6929,117.937 L41.3601,115.702 C41.3934,115.697 41.4271,115.693 41.4605,115.69 L41.4613,115.69 L58.6815,114.149 C58.7192,114.146 58.7572,114.143 58.7951,114.142 L58.7956,114.142 L76.5657,113.435 C76.5962,113.434 76.6268,113.433 76.6576,113.433 C77.9334,113.433 78.9677,114.467 78.9677,115.743 C78.9677,117.019 77.9334,118.053 76.6576,118.053 C75.3817,118.053 74.3474,117.019 74.3474,115.743 C74.3474,114.539 75.2681,113.551 76.4431,113.443 L76.6878,113.433 L94.6488,113.668 C94.69,113.669 94.7309,113.67 94.7709,113.673 L94.7708,113.673 L112.516,114.844 C112.555,114.847 112.593,114.85 112.631,114.854 L112.63,114.855 L129.804,116.846 C129.839,116.85 129.873,116.855 129.906,116.86 L129.905,116.86 L146.508,119.533 L145.774,124.094"/>
</g>

<g fill="none" stroke="#000000" stroke-opacity="1" stroke-width="0.3" stroke-linecap="square" stroke-linejoin="round" transform="matrix(5.60994,0,0,5.60994,-58.2375,-57.5134)"
font-family="Helvetica" font-size="12" font-weight="400" font-style="normal" 
>
<path vector-effect="none" fill-rule="evenodd" d="M145.774,124.094 L129.221,121.43 L112.155,119.451 L94.5273,118.287 L76.6884,118.054 L59.0364,118.756 L41.9239,120.288 L25.3071,122.517 L24.6929,117.937 L41.3601,115.702 L41.4103,115.695 L41.4605,115.69 L41.4613,115.69 L58.6815,114.149 L58.7382,114.145 L58.7951,114.142 L58.7956,114.142 L76.5657,113.435 L76.6115,113.433 L76.6576,113.433 L76.6606,113.434 L76.6878,113.433 L94.6488,113.668 L94.7103,113.67 L94.7709,113.673 L94.7708,113.673 L112.516,114.844 L112.574,114.849 L112.631,114.854 L112.63,114.855 L129.804,116.846 L129.856,116.852 L129.906,116.86 L129.905,116.86 L146.508,119.533 L145.774,124.094"/>
</g>

<g fill="none" stroke="#000000" stroke-opacity="1" stroke-width="1" stroke-linecap="square" stroke-linejoin="bevel" transform="matrix(5.60994,0,0,5.60994,-58.2375,-57.5134)"
font-family="Helvetica" font-size="12" font-weight="400" font-style="normal" 
>
</g>

<g fill="none" stroke="#000000" stroke-opacity="1" stroke-width="1" stroke-linecap="square" stroke-linejoin="bevel" transform="matrix(5.60994,0,0,5.60994,-58.2375,-57.5134)"
font-family="Helvetica" font-size="12" font-weight="400" font-style="normal" 
>
</g>

<g fill="#cb62b4" fill-opacity="1" stroke="none" transform="matrix(5.60994,0,0,5.60994,-58.2375,-57.5134)"
font-family="Helvetica" font-size="12" font-weight="400" font-style="normal" 
>
<path vector-effect="none" fill-rule="nonzero" d="M269.494,121.866 L251.293,121.108 L251.398,118.589 L251.346,121.109 L232.826,120.729 L232.878,118.209 L232.882,120.729 L214.357,120.759 L214.353,118.238 L214.41,120.758 L196.198,121.171 L196.084,116.131 L214.296,115.718 C214.314,115.718 214.332,115.717 214.349,115.717 L214.349,115.717 L232.874,115.688 C232.875,115.688 232.876,115.688 232.878,115.688 C234.27,115.688 235.398,116.817 235.398,118.209 C235.398,119.601 234.27,120.729 232.878,120.729 C231.486,120.729 230.357,119.601 230.357,118.209 C230.357,116.837 231.453,115.721 232.818,115.689 L232.929,115.689 L251.45,116.069 C251.468,116.07 251.486,116.07 251.503,116.071 L251.503,116.071 L269.704,116.829 L269.494,121.866"/>
</g>

<g fill="none" stroke="#000000" stroke-opacity="1" stroke-width="0.3" stroke-linecap="square" stroke-linejoin="round" transform="matrix(5.60994,0,0,5.60994,-58.2375,-57.5134)"
font-family="Helvetica" font-size="12" font-weight="400" font-style="normal" 
>
<path vector-effect="none" fill-rule="evenodd" d="M269.494,121.866 L251.32,121.109 L232.854,120.73 L214.384,120.758 L196.198,121.171 L196.084,116.131 L214.296,115.718 L214.323,115.718 L214.349,115.717 L214.349,115.717 L232.874,115.688 L232.876,115.688 L232.878,115.688 L232.879,115.689 L232.929,115.689 L251.45,116.069 L251.477,116.07 L251.503,116.071 L251.503,116.071 L269.704,116.829 L269.494,121.866"/>
</g>

<g fill="none" stroke="#000000" stroke-opacity="1" stroke-width="1" stroke-linecap="square" stroke-linejoin="bevel" transform="matrix(5.60994,0,0,5.60994,-58.2375,-57.5134)"
font-family="Helvetica" font-size="12" font-weight="400" font-style="normal" 
>
</g>

<g fill="none" stroke="#000000" stroke-opacity="1" stroke-width="1" stroke-linecap="square" stroke-linejoin="bevel" transform="matrix(5.60994,0,0,5.60994,-58.2375,-57.5134)"
font-family="Helvetica" font-size="12" font-weight="400" font-style="normal" 
>
</g>

<g fill="#b4cb62" fill-opacity="1" stroke="none" transform="matrix(5.60994,0,0,5.60994,-58.2375,-57.5134)"
font-family="Helvetica" font-size="12" font-weight="400" font-style="normal" 
>
<path vector-effect="none" fill-rule="nonzero" d="M98.192,175.603 L80.0293,174.85 L80.1396,172.19 L80.0854,174.851 L61.6043,174.474 L61.6586,171.814 L61.663,174.475 L43.1781,174.506 L43.1737,171.844 L43.2342,174.505 L25.0605,174.919 L24.9395,169.597 L43.1131,169.184 C43.1318,169.183 43.1505,169.183 43.1692,169.183 L43.1692,169.183 L61.6541,169.152 C61.6556,169.152 61.6571,169.152 61.6586,169.152 C63.1284,169.152 64.3199,170.344 64.3199,171.814 C64.3199,173.283 63.1284,174.475 61.6586,174.475 C60.1887,174.475 58.9972,173.283 58.9972,171.814 C58.9972,170.365 60.1547,169.186 61.5951,169.153 L61.7128,169.153 L80.1939,169.53 C80.213,169.53 80.2318,169.531 80.25,169.531 L80.25,169.531 L98.4127,170.285 L98.192,175.603"/>
</g>

<g fill="none" stroke="#000000" stroke-opacity="1" stroke-width="0.3" stroke-linecap="square" stroke-linejoin="round" transform="matrix(5.60994,0,0,5.60994,-58.2375,-57.5134)"
font-family="Helvetica" font-size="12" font-weight="400" font-style="normal" 
>
<path vector-effect="none" fill-rule="evenodd" d="M98.192,175.603 L80.0573,174.851 L61.6336,174.475 L43.2061,174.506 L25.0605,174.919 L24.9395,169.597 L43.1131,169.184 L43.1411,169.183 L43.1692,169.183 L43.1692,169.183 L61.6541,169.152 L61.6563,169.152 L61.6586,169.152 L61.6601,169.153 L61.7128,169.153 L80.1939,169.53 L80.2223,169.53 L80.25,169.531 L80.25,169.531 L98.4127,170.285 L98.192,175.603"/>
</g>

<g fill="none" stroke="#000000" stroke-opacity="1" stroke-width="1" stroke-linecap="square" stroke-linejoin="bevel" transform="matrix(5.60994,0,0,5.60994,-58.2375,-57.5134)"
font-family="Helvetica" font-size="12" font-weight="400" font-style="normal" 
>
</g>

<g fill="none" stroke="#000000" stroke-opacity="1" stroke-width="1" stroke-linecap="square" stroke-linejoin="bevel" transform="matrix(5.60994,0,0,5.60994,-58.2375,-57.5134)"
font-family="Helvetica" font-size="12" font-weight="400" font-style="normal" 
>
</g>

<g fill="#6271cb" fill-opacity="1" stroke="none" transform="matrix(5.60994,0,0,5.60994,-58.2375,-57.5134)"
font-family="Helvetica" font-size="12" font-weight="400" font-style="normal" 
>
<path vector-effect="none" fill-rule="nonzero" d="M148.364,169.875 L163.618,170.287 L163.556,172.585 L163.495,170.287 L178.749,169.881 L178.871,174.476 L163.617,174.882 C163.597,174.883 163.577,174.883 163.556,174.883 C163.535,174.883 163.514,174.883 163.494,174.882 L163.494,174.882 L148.24,174.47 L148.364,169.875"/>
</g>

<g fill="none" stroke="#000000" stroke-opacity="1" stroke-width="0.3" stroke-linecap="square" stroke-linejoin="round" transform="matrix(5.60994,0,0,5.60994,-58.2375,-57.5134)"
font-family="Helvetica" font-size="12" font-weight="400" font-style="normal" 
>
<path vector-effect="none" fill-rule="evenodd" d="M148.364,169.875 L163.557,170.285 L178.749,169.881 L178.871,174.476 L163.617,174.882 L163.587,174.883 L163.556,174.883 L163.525,174.883 L163.494,174.882 L163.494,174.882 L148.24,174.47 L148.364,169.875"/>
</g>

<g fill="none" stroke="#000000" stroke-opacity="1" stroke-width="1" stroke-linecap="square" stroke-linejoin="bevel" transform="matrix(5.60994,0,0,5.60994,-58.2375,-57.5134)"
font-family="Helvetica" font-size="12" font-weight="400" font-style="normal" 
>
</g>

<g fill="none" stroke="#000000" stroke-opacity="1" stroke-width="1" stroke-linecap="square" stroke-linejoin="bevel" transform="matrix(1,0,0,1,0,0)"
font-family="Helvetica" font-size="12" font-weight="400" font-style="normal" 
>
</g>
</g>
</svg>
