<?xml version="1.0" encoding="UTF-8" standalone="no"?>
<svg width="760.236mm" height="352.778mm"
 viewBox="0 0 2155 1000"
 xmlns="http://www.w3.org/2000/svg" xmlns:xlink="http://www.w3.org/1999/xlink"  version="1.2" baseProfile="tiny">
<title>Qt SVG Document</title>
<desc>Generated with Qt</desc>
<defs>
</defs>
<g fill="none" stroke="black" stroke-width="1" fill-rule="evenodd" stroke-linecap="square" stroke-linejoin="bevel" >

<g fill="#ffffff" fill-opacity="1" stroke="none" transform="matrix(1,0,0,1,0,0)"
font-family="Helvetica" font-size="12" font-weight="400" font-style="normal" 
>
<rect x="0" y="0" width="2155" height="1000"/>
</g>

<g fill="none" stroke="#000000" stroke-opacity="1" stroke-width="1" stroke-linecap="square" stroke-linejoin="bevel" transform="matrix(1,0,0,1,0,0)"
font-family="Helvetica" font-size="12" font-weight="400" font-style="normal" 
>
</g>

<g fill="none" stroke="#000000" stroke-opacity="1" stroke-width="1" stroke-linecap="square" stroke-linejoin="bevel" transform="matrix(1,0,0,1,0,0)"
font-family="Helvetica" font-size="12" font-weight="400" font-style="normal" 
>
</g>

<g fill="none" stroke="#000000" stroke-opacity="1" stroke-width="1" stroke-linecap="square" stroke-linejoin="bevel" transform="matrix(6.00784,0,0,6.00784,-44.5218,-34.1737)"
font-family="Helvetica" font-size="12" font-weight="400" font-style="normal" 
>
</g>

<g fill="#8dcb62" fill-opacity="1" stroke="none" transform="matrix(6.00784,0,0,6.00784,-44.5218,-34.1737)"
font-family="Helvetica" font-size="12" font-weight="400" font-style="normal" 
>
<path vector-effect="none" fill-rule="nonzero" d="M349.304,29.5183 L338.15,43.4472 C338.097,43.5132 338.041,43.5764 337.981,43.6366 L337.981,43.6366 L325.252,56.6068 C325.18,56.6793 325.105,56.7475 325.025,56.811 L325.025,56.8109 L310.215,68.6265 C310.121,68.7013 310.022,68.7696 309.919,68.8305 L309.918,68.8302 L293.052,78.7124 C292.937,78.7805 292.816,78.8393 292.69,78.8881 L292.689,78.8877 L274.062,86.0965 C273.932,86.1479 273.795,86.188 273.655,86.2162 L273.654,86.216 L253.776,90.2386 C253.641,90.2663 253.502,90.2827 253.36,90.2872 L253.36,90.2872 L232.857,90.9544 C232.83,90.9553 232.803,90.9557 232.776,90.9557 C232.673,90.9557 232.572,90.9496 232.474,90.9378 L232.474,90.9375 L211.934,88.4553 C211.825,88.4424 211.719,88.4226 211.617,88.3965 L211.617,88.3961 L191.449,83.2713 C191.368,83.2513 191.289,83.2272 191.213,83.1997 L191.214,83.1992 L171.592,76.111 C171.54,76.0931 171.491,76.0733 171.442,76.0522 L171.443,76.0517 L152.339,67.7377 C152.316,67.7284 152.294,67.7183 152.273,67.7081 L152.273,67.7077 L133.532,58.8968 L134.601,56.6229 L133.543,58.9021 L114.971,50.2836 L116.029,48.0044 L115.055,50.3206 L96.5109,42.5233 L97.4848,40.207 L96.6592,42.5802 L78.1329,36.1353 L78.9585,33.7621 L78.3316,36.1953 L59.9924,31.4707 L60.6193,29.0375 L60.2194,31.5182 L42.3376,28.6357 L42.7375,26.1551 L42.5742,28.6624 L24.8367,27.5074 L25.1633,22.4926 L42.9008,23.6477 C42.9816,23.6528 43.0607,23.6617 43.1378,23.6741 L43.1374,23.6744 L61.0192,26.5569 C61.0973,26.569 61.173,26.5848 61.2467,26.6038 L61.2462,26.6043 L79.5853,31.3289 C79.6539,31.3459 79.7201,31.3659 79.7846,31.3884 L79.7841,31.3889 L98.3104,37.8339 C98.3616,37.851 98.411,37.8699 98.4593,37.8903 L98.4587,37.8908 L117.003,45.6881 C117.032,45.6996 117.06,45.712 117.087,45.7247 L117.087,45.7252 L135.659,54.3437 C135.663,54.3451 135.667,54.3469 135.671,54.3485 L135.67,54.349 L154.411,63.1599 L153.342,65.4338 L154.345,63.1298 L173.448,71.4438 L172.446,73.7478 L173.299,71.3845 L192.921,78.4728 L192.067,80.836 L192.686,78.4007 L212.855,83.5255 L212.236,85.9608 L212.537,83.4662 L233.077,85.9485 L232.776,88.443 L232.694,85.9317 L253.196,85.2645 L253.278,87.7758 L252.779,85.3131 L272.657,81.2905 L273.156,83.7532 L272.249,81.4099 L290.875,74.2011 L291.782,76.5444 L290.512,74.3765 L307.378,64.4943 L308.648,66.6623 L307.081,64.6981 L321.891,52.8825 L323.458,54.8467 L321.665,53.0867 L334.395,40.1165 L336.188,41.8766 L334.227,40.3059 L345.382,26.377 L349.304,29.5183"/>
</g>

<g fill="none" stroke="#000000" stroke-opacity="1" stroke-width="0.3" stroke-linecap="square" stroke-linejoin="round" transform="matrix(6.00784,0,0,6.00784,-44.5218,-34.1737)"
font-family="Helvetica" font-size="12" font-weight="400" font-style="normal" 
>
<path vector-effect="none" fill-rule="evenodd" d="M349.304,29.5183 L338.15,43.4472 L338.068,43.5441 L337.981,43.6366 L337.981,43.6366 L325.252,56.6068 L325.142,56.7122 L325.025,56.811 L325.025,56.8109 L310.215,68.6265 L310.071,68.7337 L309.919,68.8305 L309.918,68.8302 L293.052,78.7124 L292.875,78.8075 L292.69,78.8881 L292.689,78.8877 L274.062,86.0965 L273.862,86.1651 L273.655,86.2162 L273.654,86.216 L253.776,90.2386 L253.571,90.2716 L253.36,90.2872 L253.36,90.2872 L232.857,90.9544 L232.817,90.9554 L232.776,90.9557 L232.623,90.9512 L232.474,90.9378 L232.474,90.9375 L211.934,88.4553 L211.773,88.4309 L211.617,88.3965 L211.617,88.3961 L191.449,83.2713 L191.329,83.2383 L191.213,83.1997 L191.214,83.1992 L171.592,76.111 L171.516,76.0828 L171.442,76.0522 L171.443,76.0517 L152.339,67.7377 L152.306,67.7232 L152.273,67.7081 L152.273,67.7077 L133.538,58.8995 L115.013,50.3029 L96.5842,42.5541 L78.231,36.1694 L60.1048,31.4997 L42.4553,28.6547 L24.8367,27.5074 L25.1633,22.4926 L42.9008,23.6477 L43.0207,23.6582 L43.1378,23.6741 L43.1374,23.6744 L61.0192,26.5569 L61.1346,26.5778 L61.2467,26.6038 L61.2462,26.6043 L79.5853,31.3289 L79.6865,31.3566 L79.7846,31.3884 L79.7841,31.3889 L98.3104,37.8339 L98.3859,37.8609 L98.4593,37.8903 L98.4587,37.8908 L117.003,45.6881 L117.046,45.706 L117.087,45.7247 L117.087,45.7252 L135.659,54.3437 L135.665,54.346 L135.671,54.3485 L135.67,54.349 L154.378,63.1444 L173.375,71.4118 L192.805,78.431 L212.698,83.4856 L232.886,85.9254 L252.986,85.2713 L272.448,81.3328 L290.686,74.2742 L307.222,64.5856 L321.772,52.9777 L334.306,40.207 L345.382,26.377 L349.304,29.5183"/>
</g>

<g fill="none" stroke="#000000" stroke-opacity="1" stroke-width="1" stroke-linecap="square" stroke-linejoin="bevel" transform="matrix(6.00784,0,0,6.00784,-44.5218,-34.1737)"
font-family="Helvetica" font-size="12" font-weight="400" font-style="normal" 
>
</g>

<g fill="none" stroke="#000000" stroke-opacity="1" stroke-width="1" stroke-linecap="square" stroke-linejoin="bevel" transform="matrix(6.00784,0,0,6.00784,-44.5218,-34.1737)"
font-family="Helvetica" font-size="12" font-weight="400" font-style="normal" 
>
</g>

<g fill="#6962cb" fill-opacity="1" stroke="none" transform="matrix(6.00784,0,0,6.00784,-44.5218,-34.1737)"
font-family="Helvetica" font-size="12" font-weight="400" font-style="normal" 
>
<path vector-effect="none" fill-rule="nonzero" d="M24.2151,149.543 L40.792,143.984 C40.855,143.962 40.9198,143.943 40.9849,143.927 L40.9861,143.928 L58.4398,139.625 C58.5138,139.606 58.5897,139.591 58.666,139.58 L58.6672,139.58 L77.0265,136.847 C77.1093,136.835 77.1937,136.826 77.2788,136.823 L77.2793,136.823 L96.1297,135.977 C96.1664,135.975 96.2033,135.974 96.2404,135.974 C97.6038,135.974 98.709,137.08 98.709,138.443 C98.709,139.806 97.6038,140.912 96.2404,140.912 C94.877,140.912 93.7718,139.806 93.7718,138.443 C93.7718,137.206 94.682,136.181 95.8686,136.002 L96.391,135.979 L115.225,137.13 C115.311,137.135 115.395,137.145 115.476,137.158 L115.476,137.158 L133.791,140.175 C133.868,140.188 133.943,140.203 134.016,140.222 L134.015,140.223 L151.406,144.773 C151.472,144.79 151.535,144.809 151.596,144.83 L151.596,144.831 L168.102,150.599 L166.473,155.26 L149.967,149.492 L150.781,147.161 L150.157,149.55 L132.765,144.999 L133.39,142.611 L132.989,145.047 L114.674,142.03 L115.075,139.594 L114.924,142.058 L96.0898,140.907 L96.2404,138.443 L96.3511,140.909 L77.5007,141.755 L77.39,139.289 L77.7535,141.731 L59.3941,144.464 L59.0307,142.022 L59.6215,144.419 L42.1678,148.721 L41.577,146.325 L42.3619,148.665 L25.7849,154.224 L24.2151,149.543"/>
</g>

<g fill="none" stroke="#000000" stroke-opacity="1" stroke-width="0.3" stroke-linecap="square" stroke-linejoin="round" transform="matrix(6.00784,0,0,6.00784,-44.5218,-34.1737)"
font-family="Helvetica" font-size="12" font-weight="400" font-style="normal" 
>
<path vector-effect="none" fill-rule="evenodd" d="M24.2151,149.543 L40.792,143.984 L40.8877,143.954 L40.9849,143.927 L40.9861,143.928 L58.4398,139.625 L58.5521,139.6 L58.666,139.58 L58.6672,139.58 L77.0265,136.847 L77.1518,136.832 L77.2788,136.823 L77.2793,136.823 L96.1297,135.977 L96.1849,135.975 L96.2404,135.974 L96.265,135.985 L96.391,135.979 L115.225,137.13 L115.352,137.141 L115.476,137.158 L115.476,137.158 L133.791,140.175 L133.905,140.196 L134.016,140.222 L134.015,140.223 L151.406,144.773 L151.503,144.8 L151.596,144.83 L151.596,144.831 L168.102,150.599 L166.473,155.26 L150.061,149.525 L132.876,145.028 L114.798,142.051 L96.2204,140.915 L77.6277,141.749 L59.5089,144.447 L42.266,148.697 L25.7849,154.224 L24.2151,149.543"/>
</g>

<g fill="none" stroke="#000000" stroke-opacity="1" stroke-width="1" stroke-linecap="square" stroke-linejoin="bevel" transform="matrix(6.00784,0,0,6.00784,-44.5218,-34.1737)"
font-family="Helvetica" font-size="12" font-weight="400" font-style="normal" 
>
</g>

<g fill="none" stroke="#000000" stroke-opacity="1" stroke-width="1" stroke-linecap="square" stroke-linejoin="bevel" transform="matrix(1,0,0,1,0,0)"
font-family="Helvetica" font-size="12" font-weight="400" font-style="normal" 
>
</g>
</g>
</svg>
