<?xml version="1.0" encoding="UTF-8" standalone="no"?>
<svg width="597.253mm" height="352.778mm"
 viewBox="0 0 1693 1000"
 xmlns="http://www.w3.org/2000/svg" xmlns:xlink="http://www.w3.org/1999/xlink"  version="1.2" baseProfile="tiny">
<title>Qt SVG Document</title>
<desc>Generated with Qt</desc>
<defs>
</defs>
<g fill="none" stroke="black" stroke-width="1" fill-rule="evenodd" stroke-linecap="square" stroke-linejoin="bevel" >

<g fill="#ffffff" fill-opacity="1" stroke="none" transform="matrix(1,0,0,1,0,0)"
font-family="Helvetica" font-size="12" font-weight="400" font-style="normal" 
>
<rect x="0" y="0" width="1693" height="1000"/>
</g>

<g fill="none" stroke="#000000" stroke-opacity="1" stroke-width="1" stroke-linecap="square" stroke-linejoin="bevel" transform="matrix(1,0,0,1,0,0)"
font-family="Helvetica" font-size="12" font-weight="400" font-style="normal" 
>
</g>

<g fill="none" stroke="#000000" stroke-opacity="1" stroke-width="1" stroke-linecap="square" stroke-linejoin="bevel" transform="matrix(1,0,0,1,0,0)"
font-family="Helvetica" font-size="12" font-weight="400" font-style="normal" 
>
</g>

<g fill="none" stroke="#000000" stroke-opacity="1" stroke-width="1" stroke-linecap="square" stroke-linejoin="bevel" transform="matrix(6.23333,0,0,6.23333,-68.9301,-61.3235)"
font-family="Helvetica" font-size="12" font-weight="400" font-style="normal" 
>
</g>

<g fill="#6962cb" fill-opacity="1" stroke="none" transform="matrix(6.23333,0,0,6.23333,-68.9301,-61.3235)"
font-family="Helvetica" font-size="12" font-weight="400" font-style="normal" 
>
<path vector-effect="none" fill-rule="nonzero" d="M220.142,29.0774 L204.032,34.9007 C204,34.9133 203.966,34.9247 203.932,34.9352 L203.931,34.9349 L187.155,40.2201 C187.112,40.2342 187.068,40.2467 187.025,40.2578 L187.024,40.2575 L169.298,44.8219 C169.244,44.8364 169.189,44.8486 169.134,44.8589 L169.133,44.8586 L150.647,48.338 C150.582,48.3506 150.516,48.3604 150.449,48.3674 L150.448,48.3673 L131.47,50.4205 C131.396,50.4287 131.32,50.4335 131.243,50.4349 L131.243,50.4349 L112.074,50.7996 C112.058,50.7999 112.042,50.8001 112.026,50.8001 C111.959,50.8001 111.893,50.7975 111.828,50.7926 L111.828,50.7925 L92.8103,49.3241 C92.7243,49.3177 92.6402,49.307 92.5582,49.2925 L92.5587,49.2921 L74.0623,46.001 C73.9791,45.9867 73.8984,45.9683 73.82,45.9463 L73.8206,45.9458 L56.2171,41.0192 C56.142,40.9988 56.0694,40.9749 55.9988,40.9481 L55.9994,40.9476 L39.5686,34.7195 C39.5038,34.6956 39.4413,34.669 39.3804,34.6401 L39.3808,34.6396 L23.904,27.3164 L26.096,22.6836 L41.5729,30.0069 L40.4769,32.3233 L41.3852,29.927 L57.816,36.1552 L56.9077,38.5514 L57.5984,36.0836 L75.2019,41.0103 L74.5112,43.478 L74.9601,40.9551 L93.4565,44.2462 L93.0076,46.7692 L93.2049,44.2142 L112.223,45.6825 L112.026,48.2375 L111.977,45.6754 L131.146,45.3107 L131.194,47.8728 L130.919,45.3251 L149.897,43.2719 L150.173,45.8196 L149.699,43.3013 L168.185,39.8219 L168.659,42.3403 L168.02,39.8586 L185.746,35.2943 L186.385,37.7759 L185.615,35.3317 L202.391,30.0465 L203.161,32.4907 L202.29,30.0807 L218.399,24.2575 L220.142,29.0774"/>
</g>

<g fill="none" stroke="#000000" stroke-opacity="1" stroke-width="0.3" stroke-linecap="square" stroke-linejoin="round" transform="matrix(6.23333,0,0,6.23333,-68.9301,-61.3235)"
font-family="Helvetica" font-size="12" font-weight="400" font-style="normal" 
>
<path vector-effect="none" fill-rule="evenodd" d="M220.142,29.0774 L204.032,34.9007 L203.983,34.9187 L203.932,34.9352 L203.931,34.9349 L187.155,40.2201 L187.09,40.2401 L187.025,40.2578 L187.024,40.2575 L169.298,44.8219 L169.216,44.8419 L169.134,44.8589 L169.133,44.8586 L150.647,48.338 L150.549,48.3548 L150.449,48.3674 L150.448,48.3673 L131.47,50.4205 L131.357,50.4303 L131.243,50.4349 L131.243,50.4349 L112.074,50.7996 L112.05,50.8 L112.026,50.8001 L111.926,50.7982 L111.828,50.7926 L111.828,50.7925 L92.8103,49.3241 L92.6827,49.3113 L92.5582,49.2925 L92.5587,49.2921 L74.0623,46.001 L73.9394,45.9765 L73.82,45.9463 L73.8206,45.9458 L56.2171,41.0192 L56.1063,40.9861 L55.9988,40.9481 L55.9994,40.9476 L39.5686,34.7195 L39.473,34.6817 L39.3804,34.6401 L39.3808,34.6396 L23.904,27.3164 L26.096,22.6836 L41.4806,29.9632 L57.7088,36.1146 L75.0823,40.9768 L93.3315,44.224 L112.1,45.673 L131.032,45.3129 L149.797,43.2827 L168.102,39.8375 L185.68,35.3113 L202.34,30.0626 L218.399,24.2575 L220.142,29.0774"/>
</g>

<g fill="none" stroke="#000000" stroke-opacity="1" stroke-width="1" stroke-linecap="square" stroke-linejoin="bevel" transform="matrix(6.23333,0,0,6.23333,-68.9301,-61.3235)"
font-family="Helvetica" font-size="12" font-weight="400" font-style="normal" 
>
</g>

<g fill="none" stroke="#000000" stroke-opacity="1" stroke-width="1" stroke-linecap="square" stroke-linejoin="bevel" transform="matrix(6.23333,0,0,6.23333,-68.9301,-61.3235)"
font-family="Helvetica" font-size="12" font-weight="400" font-style="normal" 
>
</g>

<g fill="#cb9862" fill-opacity="1" stroke="none" transform="matrix(6.23333,0,0,6.23333,-68.9301,-61.3235)"
font-family="Helvetica" font-size="12" font-weight="400" font-style="normal" 
>
<path vector-effect="none" fill-rule="nonzero" d="M24.6765,101.425 L41.33,99.0696 C41.3583,99.0654 41.3871,99.0619 41.4153,99.059 L41.4162,99.0591 L58.6133,97.2832 C58.6455,97.2797 58.6781,97.2771 58.7103,97.2752 L58.711,97.2752 L76.4612,96.2003 C76.496,96.1982 76.531,96.1969 76.5661,96.1964 L76.5663,96.1964 L94.5254,95.9276 C94.5369,95.9274 94.5484,95.9273 94.56,95.9273 C95.8358,95.9273 96.8701,96.9616 96.8701,98.2375 C96.8701,99.5133 95.8358,100.548 94.56,100.548 C93.2841,100.548 92.2498,99.5133 92.2498,98.2375 C92.2498,97.0088 93.2091,96.0041 94.4191,95.9316 L94.6312,95.9284 L112.405,96.4766 C112.439,96.4776 112.473,96.4793 112.505,96.4817 L112.505,96.4818 L129.746,97.7603 C129.777,97.7625 129.807,97.7652 129.835,97.7685 L129.835,97.7687 L146.548,99.6609 L146.028,104.252 L129.315,102.36 L129.575,100.064 L129.404,102.368 L112.163,101.089 L112.334,98.7856 L112.263,101.095 L94.4888,100.547 L94.56,98.2375 L94.5945,100.547 L76.6354,100.816 L76.6009,98.5063 L76.7405,100.812 L58.9902,101.887 L58.8506,99.5811 L59.0879,101.879 L41.8908,103.655 L41.6535,101.357 L41.977,103.644 L25.3235,106 L24.6765,101.425"/>
</g>

<g fill="none" stroke="#000000" stroke-opacity="1" stroke-width="0.3" stroke-linecap="square" stroke-linejoin="round" transform="matrix(6.23333,0,0,6.23333,-68.9301,-61.3235)"
font-family="Helvetica" font-size="12" font-weight="400" font-style="normal" 
>
<path vector-effect="none" fill-rule="evenodd" d="M24.6765,101.425 L41.33,99.0696 L41.3727,99.0638 L41.4153,99.059 L41.4162,99.0591 L58.6133,97.2832 L58.6618,97.2786 L58.7103,97.2752 L58.711,97.2752 L76.4612,96.2003 L76.5135,96.1978 L76.5661,96.1964 L76.5663,96.1964 L94.5254,95.9276 L94.5427,95.9274 L94.56,95.9273 L94.565,95.9294 L94.6312,95.9284 L112.405,96.4766 L112.456,96.4786 L112.505,96.4817 L112.505,96.4818 L129.746,97.7603 L129.791,97.764 L129.835,97.7685 L129.835,97.7687 L146.548,99.6609 L146.028,104.252 L129.36,102.365 L112.213,101.093 L94.5416,100.548 L76.688,100.815 L59.0391,101.884 L41.934,103.65 L25.3235,106 L24.6765,101.425"/>
</g>

<g fill="none" stroke="#000000" stroke-opacity="1" stroke-width="1" stroke-linecap="square" stroke-linejoin="bevel" transform="matrix(6.23333,0,0,6.23333,-68.9301,-61.3235)"
font-family="Helvetica" font-size="12" font-weight="400" font-style="normal" 
>
</g>

<g fill="none" stroke="#000000" stroke-opacity="1" stroke-width="1" stroke-linecap="square" stroke-linejoin="bevel" transform="matrix(6.23333,0,0,6.23333,-68.9301,-61.3235)"
font-family="Helvetica" font-size="12" font-weight="400" font-style="normal" 
>
</g>

<g fill="#62c9cb" fill-opacity="1" stroke="none" transform="matrix(6.23333,0,0,6.23333,-68.9301,-61.3235)"
font-family="Helvetica" font-size="12" font-weight="400" font-style="normal" 
>
<path vector-effect="none" fill-rule="nonzero" d="M196.38,97.9741 L214.585,98.6443 L214.492,101.163 L214.532,98.6429 L233.054,98.9367 L233.014,101.457 L232.999,98.9364 L251.523,98.8241 L251.539,101.345 L251.471,98.825 L269.681,98.3336 L269.817,103.373 L251.607,103.864 C251.589,103.865 251.572,103.865 251.554,103.865 L251.554,103.865 L233.03,103.977 C233.025,103.978 233.02,103.978 233.014,103.978 C233.001,103.978 232.988,103.977 232.975,103.977 L232.975,103.977 L214.452,103.683 C214.434,103.683 214.417,103.683 214.399,103.682 L214.399,103.682 L196.195,103.012 L196.38,97.9741"/>
</g>

<g fill="none" stroke="#000000" stroke-opacity="1" stroke-width="0.3" stroke-linecap="square" stroke-linejoin="round" transform="matrix(6.23333,0,0,6.23333,-68.9301,-61.3235)"
font-family="Helvetica" font-size="12" font-weight="400" font-style="normal" 
>
<path vector-effect="none" fill-rule="evenodd" d="M196.38,97.9741 L214.559,98.6433 L233.027,98.9362 L251.497,98.8243 L269.681,98.3336 L269.817,103.373 L251.607,103.864 L251.58,103.865 L251.554,103.865 L251.554,103.865 L233.03,103.977 L233.022,103.978 L233.014,103.978 L232.994,103.977 L232.975,103.977 L232.975,103.977 L214.452,103.683 L214.426,103.683 L214.399,103.682 L214.399,103.682 L196.195,103.012 L196.38,97.9741"/>
</g>

<g fill="none" stroke="#000000" stroke-opacity="1" stroke-width="1" stroke-linecap="square" stroke-linejoin="bevel" transform="matrix(6.23333,0,0,6.23333,-68.9301,-61.3235)"
font-family="Helvetica" font-size="12" font-weight="400" font-style="normal" 
>
</g>

<g fill="none" stroke="#000000" stroke-opacity="1" stroke-width="1" stroke-linecap="square" stroke-linejoin="bevel" transform="matrix(6.23333,0,0,6.23333,-68.9301,-61.3235)"
font-family="Helvetica" font-size="12" font-weight="400" font-style="normal" 
>
</g>

<g fill="#9362cb" fill-opacity="1" stroke="none" transform="matrix(6.23333,0,0,6.23333,-68.9301,-61.3235)"
font-family="Helvetica" font-size="12" font-weight="400" font-style="normal" 
>
<path vector-effect="none" fill-rule="nonzero" d="M25.098,151.053 L43.2636,151.722 L43.1657,154.382 L43.208,151.721 L61.691,152.015 L61.6486,154.676 L61.6327,152.015 L80.1177,151.904 L80.1336,154.565 L80.0621,151.905 L98.2335,151.417 L98.3765,156.738 L80.205,157.226 C80.1866,157.226 80.1681,157.227 80.1496,157.227 L80.1495,157.227 L61.6645,157.337 C61.6592,157.337 61.6539,157.337 61.6486,157.337 C61.6344,157.337 61.6202,157.337 61.6063,157.337 L61.6063,157.337 L43.1233,157.043 C43.1044,157.042 43.0858,157.042 43.0676,157.041 L43.0677,157.041 L24.902,156.372 L25.098,151.053"/>
</g>

<g fill="none" stroke="#000000" stroke-opacity="1" stroke-width="0.3" stroke-linecap="square" stroke-linejoin="round" transform="matrix(6.23333,0,0,6.23333,-68.9301,-61.3235)"
font-family="Helvetica" font-size="12" font-weight="400" font-style="normal" 
>
<path vector-effect="none" fill-rule="evenodd" d="M25.098,151.053 L43.2358,151.721 L61.6618,152.014 L80.0899,151.904 L98.2335,151.417 L98.3765,156.738 L80.205,157.226 L80.1773,157.226 L80.1496,157.227 L80.1495,157.227 L61.6645,157.337 L61.6566,157.337 L61.6486,157.337 L61.6273,157.337 L61.6063,157.337 L61.6063,157.337 L43.1233,157.043 L43.0952,157.042 L43.0676,157.041 L43.0677,157.041 L24.902,156.372 L25.098,151.053"/>
</g>

<g fill="none" stroke="#000000" stroke-opacity="1" stroke-width="1" stroke-linecap="square" stroke-linejoin="bevel" transform="matrix(6.23333,0,0,6.23333,-68.9301,-61.3235)"
font-family="Helvetica" font-size="12" font-weight="400" font-style="normal" 
>
</g>

<g fill="none" stroke="#000000" stroke-opacity="1" stroke-width="1" stroke-linecap="square" stroke-linejoin="bevel" transform="matrix(6.23333,0,0,6.23333,-68.9301,-61.3235)"
font-family="Helvetica" font-size="12" font-weight="400" font-style="normal" 
>
</g>

<g fill="#cb62bd" fill-opacity="1" stroke="none" transform="matrix(6.23333,0,0,6.23333,-68.9301,-61.3235)"
font-family="Helvetica" font-size="12" font-weight="400" font-style="normal" 
>
<path vector-effect="none" fill-rule="nonzero" d="M148.384,151.635 L163.634,152.159 L163.555,154.456 L163.512,152.158 L178.769,151.874 L178.855,156.47 L163.598,156.755 C163.584,156.755 163.57,156.755 163.555,156.755 C163.529,156.755 163.502,156.755 163.476,156.754 L163.476,156.754 L148.226,156.229 L148.384,151.635"/>
</g>

<g fill="none" stroke="#000000" stroke-opacity="1" stroke-width="0.3" stroke-linecap="square" stroke-linejoin="round" transform="matrix(6.23333,0,0,6.23333,-68.9301,-61.3235)"
font-family="Helvetica" font-size="12" font-weight="400" font-style="normal" 
>
<path vector-effect="none" fill-rule="evenodd" d="M148.384,151.635 L163.573,152.157 L178.769,151.874 L178.855,156.47 L163.598,156.755 L163.577,156.755 L163.555,156.755 L163.516,156.755 L163.476,156.754 L163.476,156.754 L148.226,156.229 L148.384,151.635"/>
</g>

<g fill="none" stroke="#000000" stroke-opacity="1" stroke-width="1" stroke-linecap="square" stroke-linejoin="bevel" transform="matrix(6.23333,0,0,6.23333,-68.9301,-61.3235)"
font-family="Helvetica" font-size="12" font-weight="400" font-style="normal" 
>
</g>

<g fill="none" stroke="#000000" stroke-opacity="1" stroke-width="1" stroke-linecap="square" stroke-linejoin="bevel" transform="matrix(1,0,0,1,0,0)"
font-family="Helvetica" font-size="12" font-weight="400" font-style="normal" 
>
</g>
</g>
</svg>
